<svg id="レイヤー_1" data-name="レイヤー 1" xmlns="http://www.w3.org/2000/svg" viewBox="0 0 388.74 144.09"><defs><style>.cls-1{fill:#2f3030;}.cls-2{fill:#13ae67;}</style></defs><path class="cls-1" d="M240.64,465.81q4.34.42,3.67,5.15L242,481.15a7.09,7.09,0,0,1-6.54,5.19H231.9a.94.94,0,0,0-.75.43l-3.42,4.93a.91.91,0,0,1-1,.39l-2.06-.84c-.34-.14-.4-.56-.13-.92l2.14-3c.32-.46.13-1-.36-1h-1.55a.5.5,0,0,1-.48-.7l.71-2.31a1,1,0,0,1,.89-.7h3.38a1,1,0,0,0,.83-.55,27.15,27.15,0,0,0,1.57-3.73l2-7.08c-.08,0-.13.06-.14.11l-4.66,4.39a5.21,5.21,0,0,1-3.14,1.63,2.84,2.84,0,0,1-.78-.15c-1.14-.66-1.39-1.77-.76-3.33l3-9.26a1,1,0,0,1,.85-.7h2.19c.35,0,.53.31.41.7L228.38,472l3-2.88a13.14,13.14,0,0,1,3.13-2.13,1,1,0,0,0,.52-.61l1.26-4.48a1,1,0,0,1,.81-.7h2.14c.34,0,.53.32.43.7l-1,4a.11.11,0,0,1,.11,0Zm-2.42,15.34L240.75,471c.16-.93-.19-1.42-1-1.47h-2a.08.08,0,0,0-.11,0l-2.34,8.86A29.23,29.23,0,0,1,234,481.8c-.2.43,0,.83.43.83h1.9A2,2,0,0,0,238.22,481.15Z" transform="translate(-102.69 -348.53)"/><path class="cls-1" d="M265.31,478.22l.39-3.07a.79.79,0,0,1,.74-.7h20.42a.66.66,0,0,1,.64.7l-.08,3.07a.71.71,0,0,1-.69.7H265.89A.59.59,0,0,1,265.31,478.22Z" transform="translate(-102.69 -348.53)"/><path class="cls-1" d="M311.48,483.16a36.21,36.21,0,0,0,.08-6.25l-.7-8.28a.76.76,0,0,0-.7-.7h-.88a.72.72,0,0,1-.68-.7l-.17-2.27a.6.6,0,0,1,.57-.7h.86a.61.61,0,0,0,.57-.7l-.14-1.56a.61.61,0,0,1,.56-.7H313a.76.76,0,0,1,.69.7l.15,1.56a.76.76,0,0,0,.7.7h5a.78.78,0,0,1,.72.7l.3,2.27a.57.57,0,0,1-.54.7H315a.6.6,0,0,0-.57.7l.84,8.28a40.54,40.54,0,0,1,0,7l-1,7.77a.65.65,0,0,1-.79.54l-2.44-.48a.77.77,0,0,1-.61-.84ZM324,492.63c-3.25-.18-5.26-1.76-6-4.74l-.24-2.21a.61.61,0,0,1,.61-.7h2.42a.81.81,0,0,1,.78.7l.28,2.21a1.65,1.65,0,0,0,1.67,1h6.95a.85.85,0,0,1,.81.7l.39,2.31a.59.59,0,0,1-.6.7Zm4.57-13.47a.58.58,0,0,1-.85.27L324.83,478l.74-1.86h-5.74a.79.79,0,0,1-.75-.7l-.28-2.31a.6.6,0,0,1,.57-.7h5.42a4.86,4.86,0,0,1,3.92,1.78,3.48,3.48,0,0,1,.51,3.26Z" transform="translate(-102.69 -348.53)"/><path class="cls-1" d="M371.46,488.76l3.49-1a1,1,0,0,1,1,.49l1.43,2.18c.25.38.17.77-.17.88l-3.49,1a7.72,7.72,0,0,1-1.34.19,6.27,6.27,0,0,1-3-.87,6.46,6.46,0,0,1-2.91-3.6l-2.67-8.29a2.19,2.19,0,0,0-1.37-1.48h-2.08a.46.46,0,0,0-.48.53L360.6,492c0,.37-.29.6-.7.51l-2.57-.55a1,1,0,0,1-.76-.85l-1.7-29.44a.45.45,0,0,1,.57-.52l2.26.53a1,1,0,0,1,.74.85l1.11,12.11h1.7a7.62,7.62,0,0,1,6.26,5.19l2.81,8.29a.9.9,0,0,0,.45.65A.91.91,0,0,0,371.46,488.76Z" transform="translate(-102.69 -348.53)"/><path class="cls-1" d="M292.78,476.32l-5.94-4.19a.57.57,0,0,0-.86.49l-.63,8.39a.56.56,0,0,0,.87.5l6.56-4.2A.6.6,0,0,0,292.78,476.32Z" transform="translate(-102.69 -348.53)"/><polygon class="cls-2" points="232.89 101.66 156.64 101.66 169.41 3.62 212.35 2.96 232.89 101.66"/><path class="cls-1" d="M399.27,348.53H189c-3.49,0-8.39,2.7-10.95,6l-74.33,93.38c-2.72,3.32.1,6,6.3,6H484.31c6.21,0,8.85-2.69,5.92-6l-79.71-93.38C407.79,351.23,402.75,348.53,399.27,348.53ZM276.5,352.28h37.12a1.93,1.93,0,0,1,1.87,1.5l17.09,94.92c.16.82-.95,1.49-2.47,1.49H266.8c-1.52,0-2.67-.67-2.58-1.49l10.5-94.92A1.79,1.79,0,0,1,276.5,352.28Zm-22.69,97.91H190.49c-1.52,0-2.45-.67-2.08-1.49l41.11-94.92a2.63,2.63,0,0,1,2.24-1.5h37.12a1.32,1.32,0,0,1,1.4,1.5L256.77,448.7C256.65,449.52,255.32,450.19,253.81,450.19Zm67.42-97.91h37.12a2.85,2.85,0,0,1,2.34,1.5l47.7,94.92c.43.82-.45,1.49-2,1.49H343.11c-1.52,0-2.9-.67-3.08-1.49l-20.1-94.92A1.23,1.23,0,0,1,321.23,352.28ZM110.54,447.93l71.62-93.38a5.94,5.94,0,0,1,4.12-2.27h37.86a1,1,0,0,1,.94,1.5L181,448.7c-.4.82-2,1.49-3.46,1.49H112.92C110.62,450.19,109.56,449.18,110.54,447.93Zm372.87,0c1.07,1.25.07,2.26-2.23,2.26H419.42c-1.52,0-3.12-.67-3.58-1.49l-50.71-94.92c-.42-.83-.05-1.5.84-1.5h36.21a6.29,6.29,0,0,1,4.24,2.27Z" transform="translate(-102.69 -348.53)"/></svg>