<svg xmlns="http://www.w3.org/2000/svg" width="986" height="1075" viewBox="0 0 986 1075">
  <g id="グループ_550" data-name="グループ 550" transform="translate(-15377 29)">
    <g id="グループ_543" data-name="グループ 543" transform="translate(14910 -29)">
      <rect id="長方形_113" data-name="長方形 113" width="986" height="1075" transform="translate(467)" fill="#fcfcfc"/>
      <g id="グループ_129" data-name="グループ 129" transform="translate(-17.84 13)">
        <line id="線_10" data-name="線 10" x1="34.918" y2="18.796" transform="translate(977.84 964.704)" fill="none" stroke="#3b3b3b" stroke-linecap="round" stroke-width="2"/>
        <line id="線_11" data-name="線 11" x2="34.918" y2="18.796" transform="translate(942.922 964.704)" fill="none" stroke="#3b3b3b" stroke-linecap="round" stroke-width="2"/>
      </g>
    </g>
    <g id="グループ_698" data-name="グループ 698">
      <g id="グループ_24" data-name="グループ 24" transform="translate(14885.056 -88.641)">
        <g id="グループ_8" data-name="グループ 8" transform="translate(680.535 292.731)">
          <g id="グループ_15" data-name="グループ 15" transform="translate(304.411 0) rotate(45)">
            <g id="グループ_14" data-name="グループ 14" transform="translate(0 0)">
              <g id="グループ_13" data-name="グループ 13" transform="translate(0 0)">
                <g id="グループ_9" data-name="グループ 9" transform="translate(0 352.185)">
                  <rect id="長方形_6" data-name="長方形 6" width="26.178" height="84.58" rx="6" transform="translate(0 18.511) rotate(-45)" fill="#fff" stroke="#3b3b3b" stroke-width="2"/>
                </g>
                <g id="グループ_23" data-name="グループ 23" transform="translate(339.145 0)">
                  <g id="グループ_10" data-name="グループ 10" transform="translate(0 0)">
                    <path id="パス_1" data-name="パス 1" d="M47.144,19.484,15.974,50.655a1.655,1.655,0,0,1-2.34,0l-11.7-11.7a6.638,6.638,0,0,1,0-9.361L29.591,1.931a6.639,6.639,0,0,1,9.361,0l8.192,8.192A6.639,6.639,0,0,1,47.144,19.484Z" fill="#fff" stroke="#3b3b3b" stroke-width="2"/>
                  </g>
                  <g id="グループ_12" data-name="グループ 12" transform="translate(40.214 42.279)">
                    <path id="パス_3" data-name="パス 3" d="M49.209,19.484l-27.66,27.66a6.62,6.62,0,0,1-9.362,0l-11.7-11.7a1.655,1.655,0,0,1,0-2.34L31.655,1.931a6.639,6.639,0,0,1,9.361,0l8.192,8.192A6.639,6.639,0,0,1,49.209,19.484Z" transform="translate(0 0)" fill="#fff" stroke="#3b3b3b" stroke-width="2"/>
                  </g>
                  <g id="グループ_16" data-name="グループ 16" transform="translate(19.062 21.127)">
                    <path id="パス_2" data-name="パス 2" d="M49.209,19.484,18.038,50.655a1.655,1.655,0,0,1-2.34,0L.485,35.442a1.655,1.655,0,0,1,0-2.34L31.655,1.931a6.639,6.639,0,0,1,9.362,0l8.192,8.192A6.639,6.639,0,0,1,49.209,19.484Z" transform="translate(0 0)" fill="#fff" stroke="#3b3b3b" stroke-width="2"/>
                  </g>
                </g>
              </g>
            </g>
          </g>
        </g>
        <line id="線_1" data-name="線 1" x1="396.674" transform="translate(776.396 556.632)" fill="none" stroke="#3b3b3b" stroke-width="2"/>
        <path id="パス_31" data-name="パス 31" d="M396.674,0H0" transform="translate(776.396 637.409)" fill="none" stroke="#3b3b3b" stroke-width="2"/>
      </g>
      <g id="Element.01" transform="translate(16090.766 -464.477)" style="isolation: isolate">
        <g id="グループ_547" data-name="グループ 547" style="isolation: isolate">
          <path id="パス_61" data-name="パス 61" d="M-326.48,960.21h14.361v2.166H-323.9V972.1h10.525v2.165H-323.9v10.9h12.234v2.166H-326.48Z" fill="#232424"/>
          <path id="パス_62" data-name="パス 62" d="M-303.263,958.235h2.508v29.1h-2.508Z" fill="#232424"/>
          <path id="パス_63" data-name="パス 63" d="M-289.583,978.9c.038,4.255,2.66,6.8,6.991,6.8a11.123,11.123,0,0,0,5.813-1.482l.912,1.785a13.028,13.028,0,0,1-6.725,1.71c-5.927,0-9.46-3.495-9.46-9.308,0-5.738,3.381-9.309,8.739-9.309,5.2,0,8.472,3.382,8.472,8.776,0,.267,0,.495-.038,1.027Zm12.234-1.938c-.228-3.8-2.317-5.851-5.889-5.851-3.685,0-5.965,2.128-6.269,5.851Z" fill="#232424"/>
          <path id="パス_64" data-name="パス 64" d="M-266.251,969.481h2.318l.114,2.773a6.2,6.2,0,0,1,5.889-3.153c2.926,0,4.749,1.254,5.661,3.8a6.476,6.476,0,0,1,6.421-3.8,5.654,5.654,0,0,1,5.433,3.04,12.715,12.715,0,0,1,.874,5.547v9.65h-2.507V978.03a11.308,11.308,0,0,0-.646-4.6,3.66,3.66,0,0,0-3.724-2.317,4.529,4.529,0,0,0-4.407,2.7,12.623,12.623,0,0,0-.8,5.168v8.358h-2.507v-9.346a11.1,11.1,0,0,0-.646-4.56,3.71,3.71,0,0,0-3.762-2.317,4.568,4.568,0,0,0-4.369,2.7c-.608,1.216-.836,2.812-.836,5.434v8.092h-2.508Z" fill="#232424"/>
          <path id="パス_65" data-name="パス 65" d="M-228.555,978.9c.038,4.255,2.659,6.8,6.991,6.8a11.123,11.123,0,0,0,5.813-1.482l.912,1.785a13.031,13.031,0,0,1-6.725,1.71c-5.927,0-9.46-3.495-9.46-9.308,0-5.738,3.381-9.309,8.738-9.309,5.205,0,8.473,3.382,8.473,8.776,0,.267,0,.495-.038,1.027Zm12.234-1.938c-.228-3.8-2.318-5.851-5.889-5.851-3.686,0-5.965,2.128-6.269,5.851Z" fill="#232424"/>
          <path id="パス_66" data-name="パス 66" d="M-205.223,969.481h2.318l.113,2.773a6.548,6.548,0,0,1,6.118-3.153c2.811,0,4.863,1.1,5.889,3.115a12.586,12.586,0,0,1,.912,5.472v9.65h-2.508V978.03c0-4.978-1.368-6.915-4.787-6.915a4.87,4.87,0,0,0-4.673,2.7,11.938,11.938,0,0,0-.874,5.434v8.092h-2.508Z" fill="#232424"/>
          <path id="パス_67" data-name="パス 67" d="M-182.043,971.533v-2.052h2.888l.113-5.471,2.28-.494v5.965h5.243v2.052h-5.243v9.423c0,3.533.684,4.483,3.23,4.483a4.743,4.743,0,0,0,1.6-.229l.495,2.014a9.435,9.435,0,0,1-2.66.342c-2.2,0-3.572-.569-4.332-1.823-.608-.989-.8-2.2-.8-4.978v-9.232Z" fill="#232424"/>
          <path id="パス_68" data-name="パス 68" d="M-160.042,985.743a1.885,1.885,0,0,1-2.014,1.975,1.865,1.865,0,0,1-2.013-1.975,1.9,1.9,0,0,1,2.013-1.938A1.856,1.856,0,0,1-160.042,985.743Z" fill="#232424"/>
          <path id="パス_69" data-name="パス 69" d="M-133.558,973.774c0,9.385-3.04,13.944-9.271,13.944-6.269,0-9.271-4.559-9.271-14.1q0-13.793,9.271-13.792C-136.6,959.831-133.558,964.39-133.558,973.774Zm-16-.113c0,8.054,2.166,11.929,6.725,11.929,4.521,0,6.725-3.875,6.725-11.816s-2.2-11.816-6.725-11.816C-147.313,961.958-149.554,965.833-149.554,973.661Z" fill="#232424"/>
          <path id="パス_70" data-name="パス 70" d="M-117.635,963.136l-5.585,2.736-.76-2.014,7.447-3.648h1.481v27.128h-2.583Z" fill="#232424"/>
        </g>
      </g>
    </g>
  </g>
</svg>
