<svg id="グループ_569" data-name="グループ 569" xmlns="http://www.w3.org/2000/svg" width="299.572" height="48.741" viewBox="0 0 299.572 48.741">
  <g id="グループ_557" data-name="グループ 557" transform="translate(0 0.642)">
    <path id="パス_103" data-name="パス 103" d="M146.976,435.476c4.206,0,6.276,2.009,6.276,6.089v11.111c0,10.672-4.581,16.008-13.81,16.008H123.309V424.176c0-1.946.942-2.95,2.888-2.95a2.625,2.625,0,0,1,2.95,2.95v11.3Zm-17.829,27.369h10.421c5.211,0,7.846-3.138,7.846-9.479V441.314H129.148Z" transform="translate(-123.309 -421.226)" fill="#242424"/>
    <path id="パス_104" data-name="パス 104" d="M262.417,438.479a2.921,2.921,0,0,1,2.888,2.887v12.995c0,1.946-.942,2.888-2.888,2.888H241.638v3.641c0,3.264,2.01,4.958,6.09,4.958h14.689c1.946,0,2.888.942,2.888,2.888s-.942,2.951-2.888,2.951H245.97c-6.78,0-10.17-3.39-10.17-10.3V441.367a2.921,2.921,0,0,1,2.887-2.887Zm-2.95,13.5v-7.659H241.638v7.659Z" transform="translate(-142.889 -424.229)" fill="#242424"/>
    <path id="パス_105" data-name="パス 105" d="M471.578,424.176v11.3h7.093c2.01,0,2.951.942,2.951,2.888s-.942,2.95-2.951,2.95h-7.093v21.532h4.9c2.009,0,3.014.942,3.014,2.887a2.625,2.625,0,0,1-2.951,2.951H468.69a2.625,2.625,0,0,1-2.95-2.951V441.314h-1.507c-2.323,0-3.453-1-3.453-2.95s1.13-2.888,3.453-2.888h1.507v-11.3a2.625,2.625,0,0,1,2.95-2.95C470.636,421.226,471.578,422.23,471.578,424.176Z" transform="translate(-182.05 -421.226)" fill="#242424"/>
  </g>
  <path id="パス_106" data-name="パス 106" d="M372.065,425.652c.605,0,1.218.028,1.835.086a19.168,19.168,0,1,1-15.951,32.041,60.99,60.99,0,0,0-10.923-9.581l-2.2-1.474a2.29,2.29,0,0,1,0-3.808l1.884-1.26a53.729,53.729,0,0,0,10.864-9.369,19.111,19.111,0,0,1,14.494-6.633m0-5.2a24.353,24.353,0,0,0-18.43,8.433,48.134,48.134,0,0,1-9.821,8.448l-1.884,1.26a7.495,7.495,0,0,0,0,12.459l2.2,1.474a55.576,55.576,0,0,1,9.983,8.774,24.37,24.37,0,1,0,20.266-40.74c-.77-.072-1.549-.108-2.318-.108Z" transform="translate(-160.783 -420.449)" fill="#242424"/>
</svg>
