<svg xmlns="http://www.w3.org/2000/svg" width="986" height="1075" viewBox="0 0 986 1075">
  <g id="グループ_552" data-name="グループ 552" transform="translate(-16514 29)">
    <g id="グループ_544" data-name="グループ 544" transform="translate(16047 -29)">
      <rect id="長方形_113" data-name="長方形 113" width="986" height="1075" transform="translate(467)" fill="#fcfcfc"/>
      <g id="グループ_24" data-name="グループ 24" transform="translate(-24.945 -59.641)">
        <g id="グループ_8" data-name="グループ 8" transform="translate(680.535 292.731)">
          <g id="グループ_15" data-name="グループ 15" transform="translate(304.411 0) rotate(45)">
            <g id="グループ_14" data-name="グループ 14" transform="translate(0 0)">
              <g id="グループ_13" data-name="グループ 13" transform="translate(0 0)">
                <g id="グループ_9" data-name="グループ 9" transform="translate(0 352.185)">
                  <rect id="長方形_6" data-name="長方形 6" width="26.178" height="84.58" rx="6" transform="translate(0 18.511) rotate(-45)" fill="#fff" stroke="#3b3b3b" stroke-width="2"/>
                </g>
                <g id="グループ_23" data-name="グループ 23" transform="translate(339.145 0)">
                  <g id="グループ_10" data-name="グループ 10" transform="translate(0 0)">
                    <path id="パス_1" data-name="パス 1" d="M47.144,19.484,15.974,50.655a1.655,1.655,0,0,1-2.34,0l-11.7-11.7a6.638,6.638,0,0,1,0-9.361L29.591,1.931a6.639,6.639,0,0,1,9.361,0l8.192,8.192A6.639,6.639,0,0,1,47.144,19.484Z" fill="#fff" stroke="#3b3b3b" stroke-width="2"/>
                  </g>
                  <g id="グループ_12" data-name="グループ 12" transform="translate(40.214 42.279)">
                    <path id="パス_3" data-name="パス 3" d="M49.209,19.484l-27.66,27.66a6.62,6.62,0,0,1-9.362,0l-11.7-11.7a1.655,1.655,0,0,1,0-2.34L31.655,1.931a6.639,6.639,0,0,1,9.361,0l8.192,8.192A6.639,6.639,0,0,1,49.209,19.484Z" transform="translate(0 0)" fill="#fff" stroke="#3b3b3b" stroke-width="2"/>
                  </g>
                  <g id="グループ_16" data-name="グループ 16" transform="translate(19.062 21.127)">
                    <path id="パス_2" data-name="パス 2" d="M49.209,19.484,18.038,50.655a1.655,1.655,0,0,1-2.34,0L.485,35.442a1.655,1.655,0,0,1,0-2.34L31.655,1.931a6.639,6.639,0,0,1,9.362,0l8.192,8.192A6.639,6.639,0,0,1,49.209,19.484Z" transform="translate(0 0)" fill="#fff" stroke="#3b3b3b" stroke-width="2"/>
                  </g>
                </g>
              </g>
            </g>
          </g>
        </g>
        <line id="線_1" data-name="線 1" x1="396.674" transform="translate(776.396 556.632)" fill="none" stroke="#3b3b3b" stroke-width="2"/>
        <path id="パス_31" data-name="パス 31" d="M396.674,0H0" transform="translate(776.396 637.409)" fill="none" stroke="#3b3b3b" stroke-width="2"/>
      </g>
      <g id="グループ_129" data-name="グループ 129" transform="translate(-17.84 13)">
        <line id="線_10" data-name="線 10" x1="34.918" y2="18.796" transform="translate(977.84 964.704)" fill="none" stroke="#3b3b3b" stroke-linecap="round" stroke-width="2"/>
        <line id="線_11" data-name="線 11" x2="34.918" y2="18.796" transform="translate(942.922 964.704)" fill="none" stroke="#3b3b3b" stroke-linecap="round" stroke-width="2"/>
      </g>
      <g id="Element.02" transform="translate(1274.532 -706.521)" style="isolation: isolate">
        <g id="グループ_548" data-name="グループ 548" style="isolation: isolate">
          <path id="パス_71" data-name="パス 71" d="M-422.64,1231.254h14.362v2.166h-11.778v9.726h10.525v2.167h-10.525v10.9h12.234v2.166H-422.64Z" fill="#232424"/>
          <path id="パス_72" data-name="パス 72" d="M-399.422,1229.279h2.508v29.1h-2.508Z" fill="#232424"/>
          <path id="パス_73" data-name="パス 73" d="M-385.742,1249.947c.038,4.256,2.659,6.8,6.991,6.8a11.131,11.131,0,0,0,5.813-1.48l.912,1.785a13.039,13.039,0,0,1-6.725,1.709c-5.927,0-9.46-3.494-9.46-9.309,0-5.736,3.381-9.308,8.738-9.308,5.2,0,8.473,3.382,8.473,8.777,0,.266,0,.494-.038,1.025Zm12.234-1.937c-.228-3.8-2.317-5.852-5.889-5.852-3.686,0-5.965,2.129-6.269,5.852Z" fill="#232424"/>
          <path id="パス_74" data-name="パス 74" d="M-362.41,1240.525h2.318l.113,2.774a6.2,6.2,0,0,1,5.89-3.154c2.925,0,4.749,1.253,5.661,3.8a6.473,6.473,0,0,1,6.421-3.8,5.654,5.654,0,0,1,5.433,3.041,12.707,12.707,0,0,1,.874,5.546v9.651h-2.508v-9.309a11.282,11.282,0,0,0-.646-4.6,3.658,3.658,0,0,0-3.723-2.319,4.529,4.529,0,0,0-4.407,2.7,12.63,12.63,0,0,0-.8,5.168v8.36h-2.508v-9.348a11.074,11.074,0,0,0-.646-4.558,3.708,3.708,0,0,0-3.761-2.319,4.57,4.57,0,0,0-4.369,2.7c-.608,1.217-.836,2.813-.836,5.434v8.094h-2.508Z" fill="#232424"/>
          <path id="パス_75" data-name="パス 75" d="M-324.714,1249.947c.038,4.256,2.659,6.8,6.991,6.8a11.133,11.133,0,0,0,5.813-1.48l.912,1.785a13.039,13.039,0,0,1-6.725,1.709c-5.927,0-9.461-3.494-9.461-9.309,0-5.736,3.382-9.308,8.739-9.308,5.205,0,8.473,3.382,8.473,8.777,0,.266,0,.494-.038,1.025Zm12.234-1.937c-.228-3.8-2.318-5.852-5.889-5.852-3.686,0-5.965,2.129-6.269,5.852Z" fill="#232424"/>
          <path id="パス_76" data-name="パス 76" d="M-301.382,1240.525h2.318l.113,2.774a6.546,6.546,0,0,1,6.118-3.154c2.811,0,4.863,1.1,5.889,3.115a12.59,12.59,0,0,1,.912,5.472v9.651h-2.508v-9.309c0-4.978-1.368-6.916-4.787-6.916a4.87,4.87,0,0,0-4.673,2.7,11.944,11.944,0,0,0-.875,5.434v8.094h-2.507Z" fill="#232424"/>
          <path id="パス_77" data-name="パス 77" d="M-278.2,1242.576v-2.051h2.888l.113-5.47,2.28-.494v5.964h5.243v2.051h-5.243V1252c0,3.533.684,4.482,3.23,4.482a4.743,4.743,0,0,0,1.6-.228l.494,2.014a9.424,9.424,0,0,1-2.659.341c-2.2,0-3.572-.568-4.332-1.822-.608-.988-.8-2.2-.8-4.978v-9.233Z" fill="#232424"/>
          <path id="パス_78" data-name="パス 78" d="M-256.2,1256.787a1.884,1.884,0,0,1-2.014,1.975,1.865,1.865,0,0,1-2.014-1.975,1.9,1.9,0,0,1,2.014-1.937A1.855,1.855,0,0,1-256.2,1256.787Z" fill="#232424"/>
          <path id="パス_79" data-name="パス 79" d="M-229.717,1244.818c0,9.385-3.04,13.944-9.271,13.944-6.269,0-9.271-4.559-9.271-14.1q0-13.789,9.271-13.791C-232.757,1230.875-229.717,1235.434-229.717,1244.818Zm-16-.113c0,8.055,2.166,11.93,6.725,11.93,4.521,0,6.725-3.875,6.725-11.817s-2.2-11.816-6.725-11.816C-243.472,1233-245.713,1236.877-245.713,1244.7Z" fill="#232424"/>
          <path id="パス_80" data-name="パス 80" d="M-223.1,1256.939l9.613-10.867c2.469-2.773,3.761-5.433,3.761-7.676,0-3.3-2.166-5.355-5.7-5.355a9.5,9.5,0,0,0-5.851,1.938l-.912-1.938a11.843,11.843,0,0,1,7.067-2.166c4.9,0,7.94,2.811,7.94,7.332,0,2.85-1.443,5.852-4.255,8.93l-8.435,9.08h13.451v2.166H-223.1Z" fill="#232424"/>
        </g>
      </g>
    </g>
  </g>
</svg>
