<svg xmlns="http://www.w3.org/2000/svg" width="986" height="1075" viewBox="0 0 986 1075">
  <g id="グループ_702" data-name="グループ 702" transform="translate(-13999 122)">
    <g id="グループ_701" data-name="グループ 701">
      <g id="グループ_700" data-name="グループ 700">
        <g id="グループ_699" data-name="グループ 699">
          <g id="グループ_697" data-name="グループ 697">
            <g id="グループ_551" data-name="グループ 551" transform="translate(-241 -93)">
              <g id="グループ_542" data-name="グループ 542" transform="translate(13773 -29)">
                <rect id="長方形_113" data-name="長方形 113" width="986" height="1075" transform="translate(467)" fill="#fcfcfc"/>
                <g id="グループ_129" data-name="グループ 129" transform="translate(-17.84 13)">
                  <line id="線_10" data-name="線 10" x1="34.918" y2="18.796" transform="translate(977.84 964.704)" fill="none" stroke="#3b3b3b" stroke-linecap="round" stroke-width="2"/>
                  <line id="線_11" data-name="線 11" x2="34.918" y2="18.796" transform="translate(942.922 964.704)" fill="none" stroke="#3b3b3b" stroke-linecap="round" stroke-width="2"/>
                </g>
                <g id="グループ_15" data-name="グループ 15" transform="translate(794.744 325.191)">
                  <g id="グループ_14" data-name="グループ 14" transform="translate(0 0)">
                    <g id="グループ_13" data-name="グループ 13">
                      <g id="グループ_9" data-name="グループ 9">
                        <g id="長方形_6" data-name="長方形 6" fill="#fff" stroke="#3b3b3b" stroke-width="4.5">
                          <rect width="102.243" height="330.339" rx="21.671" stroke="none"/>
                          <rect x="2.25" y="2.25" width="97.743" height="325.839" rx="19.421" fill="none"/>
                        </g>
                      </g>
                      <g id="パス_4" data-name="パス 4" transform="translate(-263.924 29.466)" fill="#fff">
                        <path d="M 568.5753173828125 65.23867797851562 L 396.4122009277344 65.23867797851562 L 396.412109375 65.23867797851562 L 396.4103088378906 65.23867797851562 C 395.285400390625 65.23876190185547 394.2278442382812 64.80076599121094 393.4324340820312 64.00540161132812 C 392.6370239257812 63.21001434326172 392.198974609375 62.15240478515625 392.198974609375 61.02737426757812 L 392.198974609375 -3.610291481018066 L 392.198974609375 -3.604013681411743 C 392.2078247070312 -6.789180278778076 392.8376770019531 -9.87720775604248 394.0709533691406 -12.78240299224854 C 395.2628784179688 -15.59018039703369 396.9662475585938 -18.11284637451172 399.1336975097656 -20.2802906036377 C 401.3011474609375 -22.4477367401123 403.8237915039062 -24.15109634399414 406.631591796875 -25.34304237365723 C 409.5367431640625 -26.57631874084473 412.6248168945312 -27.20612525939941 415.8099060058594 -27.21498680114746 L 568.5816650390625 -27.21404075622559 L 568.5753173828125 -27.21404075622559 C 571.760498046875 -27.20495796203613 574.8485107421875 -26.57498550415039 577.7536010742188 -25.34159660339355 C 580.5613403320312 -24.1495418548584 583.0839233398438 -22.44612503051758 585.2513427734375 -20.27865219116211 C 587.418701171875 -18.11120796203613 589.1220703125 -15.58859729766846 590.3140869140625 -12.78084754943848 C 591.5474243164062 -9.875791549682617 592.1773681640625 -6.78790283203125 592.1864624023438 -3.60290265083313 L 592.1864624023438 -3.609347105026245 L 592.1864624023438 41.63009643554688 C 592.1769409179688 44.81484603881836 591.5466918945312 47.90251541137695 590.3131103515625 50.8072624206543 C 589.1209106445312 53.61470794677734 587.4174194335938 56.13706970214844 585.25 58.30423736572266 C 583.0826416015625 60.47143173217773 580.5601196289062 62.17462539672852 577.7526245117188 63.36651229858398 C 574.8477172851562 64.59970855712891 571.7600708007812 65.22959899902344 568.5753173828125 65.23867797851562 Z" stroke="none"/>
                        <path d="M 568.5817260742188 62.98867416381836 L 568.5779418945312 62.98867416381836 C 574.2745361328125 62.96998596191406 579.63037109375 60.74154663085938 583.6591186523438 56.71317291259766 C 587.6881103515625 52.6845817565918 589.9172973632812 47.32920455932617 589.9364624023438 41.63208389282227 L 589.9364624023438 -3.605561494827271 C 589.917724609375 -9.302701950073242 587.6890258789062 -14.65883636474609 583.6602783203125 -18.68768119812012 C 579.6314697265625 -22.71661376953125 574.2752685546875 -24.94537734985352 568.5816650390625 -24.96406364440918 L 415.8069152832031 -24.96500396728516 C 410.1095886230469 -24.94670104980469 404.7535400390625 -22.71817207336426 400.7247009277344 -18.68929862976074 C 396.69580078125 -14.66042423248291 394.46728515625 -9.304359436035156 394.448974609375 -3.607042789459229 L 394.448974609375 61.02737808227539 C 394.448974609375 61.73443603515625 394.8088684082031 62.19987869262695 395.0234069824219 62.41440963745117 C 395.2378845214844 62.62890625 395.7032775878906 62.98873138427734 396.4122314453125 62.98867416381836 L 568.5817260742188 62.98867416381836 M 396.4104309082031 67.48867034912109 C 392.8417663574219 67.48893737792969 389.948974609375 64.59617614746094 389.948974609375 61.02737808227539 L 389.948974609375 -3.610298156738281 C 389.9886779785156 -17.87303352355957 401.5409545898438 -29.42526817321777 415.8036499023438 -29.46500396728516 L 568.5817260742188 -29.46406364440918 C 582.844482421875 -29.42338562011719 594.3956909179688 -17.87115097045898 594.4364624023438 -3.609356880187988 L 594.4364624023438 41.63681793212891 C 594.3938598632812 55.89767074584961 582.8425903320312 67.44802856445312 568.5817260742188 67.48867034912109 L 396.4122314453125 67.48867034912109 C 396.4117736816406 67.48867034912109 396.4108581542969 67.48867034912109 396.4104309082031 67.48867034912109 Z" stroke="none" fill="#3b3b3b"/>
                      </g>
                      <g id="グループ_16" data-name="グループ 16" transform="translate(126.023 116.689)">
                        <g id="パス_2-2" data-name="パス 2-2" transform="translate(-389.947 -93.918)" fill="#fff">
                          <path d="M 568.5738525390625 188.62451171875 L 396.4111328125 188.62451171875 C 394.0883483886719 188.6239013671875 392.1976013183594 186.7331390380859 392.1969604492188 184.4097290039062 L 392.1988830566406 100.3812561035156 C 392.1994934082031 98.05831146240234 394.0899658203125 96.16800689697266 396.4130249023438 96.16800689697266 L 568.5796508789062 96.17083740234375 L 568.5731201171875 96.17083740234375 C 571.7581176757812 96.18011474609375 574.8460083007812 96.81022644042969 577.7510375976562 98.04367065429688 C 580.5586547851562 99.23578643798828 583.0812377929688 100.9392013549805 585.2486572265625 103.1066131591797 C 587.4160766601562 105.2740325927734 589.1195068359375 107.7965850830078 590.3115844726562 110.6042556762695 C 591.5449829101562 113.5092544555664 592.1751098632812 116.5971145629883 592.1843872070312 119.7820892333984 L 592.1843872070312 119.7755355834961 L 592.1843872070312 165.0140380859375 C 592.1748657226562 168.1988067626953 591.5446166992188 171.2864990234375 590.3111572265625 174.1912841796875 C 589.1190185546875 176.998779296875 587.4156494140625 179.5211944580078 585.2483520507812 181.6885070800781 C 583.0810546875 183.8558044433594 580.5586547851562 185.5591735839844 577.7511596679688 186.7513122558594 C 574.8463134765625 187.9847869873047 571.7586669921875 188.6150054931641 568.5738525390625 188.62451171875 Z" stroke="none"/>
                          <path d="M 568.58056640625 186.3745269775391 L 568.5758056640625 186.3745269775391 C 574.2730102539062 186.3553466796875 579.6285400390625 184.1263122558594 583.6574096679688 180.0974884033203 C 587.6861572265625 176.0686950683594 589.9152221679688 170.7131652832031 589.9343872070312 165.0160217285156 L 589.9343872070312 119.7797622680664 C 589.9153442382812 114.082649230957 587.6864624023438 108.7263946533203 583.6576538085938 104.6976089477539 C 579.6286010742188 100.6685485839844 574.27294921875 98.43964385986328 568.57958984375 98.42084503173828 L 396.4130249023438 98.41799163818359 C 395.3302612304688 98.41799163818359 394.4491577148438 99.29922485351562 394.4488525390625 100.3812866210938 L 394.4469604492188 184.4091033935547 C 394.447265625 185.4925537109375 395.3289184570312 186.3742218017578 396.4111328125 186.3745269775391 L 568.58056640625 186.3745269775391 M 568.58056640625 190.8745269775391 L 396.4111328125 190.8745269775391 C 392.8409423828125 190.8735809326172 389.9479370117188 187.9805145263672 389.9469604492188 184.4103393554688 L 389.9488525390625 100.3811950683594 C 389.9498291015625 96.81195831298828 392.8428649902344 93.91799163818359 396.4130249023438 93.91799163818359 L 568.5797119140625 93.92084503173828 C 582.8414916992188 93.96243286132812 594.392822265625 105.5137557983398 594.4343872070312 119.7755508422852 L 594.4343872070312 165.020751953125 C 594.3917846679688 179.2815856933594 582.8414916992188 190.8319244384766 568.58056640625 190.8745269775391 Z" stroke="none" fill="#3b3b3b"/>
                        </g>
                      </g>
                      <g id="グループ_17" data-name="グループ 17" transform="translate(126.023 233.524)">
                        <g id="パス_3-2" data-name="パス 3-2" transform="translate(-389.947 -217.456)" fill="#fff">
                          <path d="M 568.5741577148438 312.1596374511719 L 415.8016967773438 312.1596374511719 C 412.6141357421875 312.1596374511719 409.5231018066406 311.5358581542969 406.614501953125 310.3056640625 C 403.8039245605469 309.116943359375 401.279296875 307.4147033691406 399.1107482910156 305.2462158203125 C 396.9421691894531 303.0776977539062 395.2398681640625 300.5531005859375 394.0510864257812 297.7425537109375 C 392.8207702636719 294.8338623046875 392.1969604492188 291.74267578125 392.1969604492188 288.5549621582031 L 392.1979370117188 223.9192199707031 C 392.1979370117188 221.5966339111328 394.0882263183594 219.7065734863281 396.4117126464844 219.7059936523438 L 568.58056640625 219.7059936523438 L 568.5740356445312 219.7059936523438 C 571.7589721679688 219.7152709960938 574.8468627929688 220.3453826904297 577.7518920898438 221.5788269042969 C 580.5595703125 222.7709045410156 583.0821533203125 224.4743347167969 585.24951171875 226.6417388916016 C 587.4169311523438 228.8091583251953 589.120361328125 231.3317108154297 590.3124389648438 234.1393890380859 C 591.5458984375 237.0443878173828 592.176025390625 240.1322479248047 592.185302734375 243.3172149658203 L 592.185302734375 243.3106689453125 L 592.185302734375 288.55029296875 C 592.176025390625 291.7352600097656 591.5458984375 294.8230895996094 590.3124389648438 297.7279357910156 C 589.120361328125 300.5354919433594 587.4169921875 303.0578918457031 585.2496337890625 305.2251281738281 C 583.0822143554688 307.3923645019531 580.5596313476562 309.0955505371094 577.7520141601562 310.2874450683594 C 574.8470458984375 311.5206604003906 571.7591552734375 312.1505737304688 568.5741577148438 312.1596374511719 Z" stroke="none"/>
                          <path d="M 568.58056640625 309.90966796875 L 568.5768432617188 309.90966796875 C 574.27392578125 309.8909606933594 579.6299438476562 307.6624755859375 583.65869140625 303.6340637207031 C 587.6873779296875 299.6056518554688 589.916259765625 294.2496337890625 589.935302734375 288.5526428222656 L 589.935302734375 243.3149108886719 C 589.916259765625 237.6178283691406 587.6873168945312 232.2615509033203 583.6585693359375 228.2327423095703 C 579.6296997070312 224.2039489746094 574.2734375 221.9750671386719 568.58056640625 221.9560089111328 L 396.4122924804688 221.9560089111328 C 395.3291625976562 221.9562683105469 394.4479675292969 222.8369445800781 394.4479675292969 223.9192352294922 L 394.4469604492188 288.5549621582031 C 394.4469604492188 294.2591857910156 396.6682739257812 299.6218872070312 400.7017211914062 303.6552124023438 C 404.7350769042969 307.6884460449219 410.0976867675781 309.90966796875 415.8016967773438 309.90966796875 L 568.58056640625 309.90966796875 M 568.58056640625 314.40966796875 L 415.8016967773438 314.40966796875 C 401.5228881835938 314.40966796875 389.9469604492188 302.8347473144531 389.9469604492188 288.5549621582031 L 389.9479675292969 223.919189453125 C 389.9479675292969 220.3499755859375 392.8419189453125 217.4569244384766 396.4111328125 217.4560089111328 L 568.58056640625 217.4560089111328 C 582.8424072265625 217.4975891113281 594.3936767578125 229.0488891601562 594.435302734375 243.3106842041016 L 594.435302734375 288.5568542480469 C 594.3936767578125 302.8186340332031 582.8424072265625 314.3689880371094 568.58056640625 314.40966796875 Z" stroke="none" fill="#3b3b3b"/>
                        </g>
                      </g>
                    </g>
                  </g>
                </g>
                <g id="Interaction_Elements" data-name="Interaction Elements" transform="translate(528.403 718.029)" style="isolation: isolate">
                  <g id="グループ_570" data-name="グループ 570" transform="translate(-0.001 0)" style="isolation: isolate">
                    <path id="パス_114" data-name="パス 114" d="M-430.446-281.765h2.27v31.78h-2.27Z" transform="translate(430.446 281.765)" fill="#232424" stroke="#232424" stroke-miterlimit="10" stroke-width="1"/>
                    <path id="パス_115" data-name="パス 115" d="M-397.236-269.894a4.553,4.553,0,0,0-4.54,4.54v15.89h-2.27v-15.89a6.8,6.8,0,0,1,6.81-6.809h13.619a6.8,6.8,0,0,1,6.81,6.809v15.89h-2.27v-15.89a4.553,4.553,0,0,0-4.54-4.54Z" transform="translate(429.014 281.244)" fill="#232424" stroke="#232424" stroke-miterlimit="10" stroke-width="1"/>
                    <path id="パス_116" data-name="パス 116" d="M-333.418-252.255l-.681,2.27h-7.717a6.8,6.8,0,0,1-6.811-6.809v-13.621h-4.539l.68-2.27h3.859v-9.08h2.271v9.08h12.939l-.681,2.27h-12.258v13.621a4.554,4.554,0,0,0,4.54,4.54Z" transform="translate(426.253 281.765)" fill="#232424" stroke="#232424" stroke-miterlimit="10" stroke-width="1"/>
                    <path id="パス_117" data-name="パス 117" d="M-290.257-272.164a6.8,6.8,0,0,1,6.809,6.809v5.675h-24.969v3.406a4.554,4.554,0,0,0,4.54,4.54h18.841l-.682,2.27h-18.159a6.8,6.8,0,0,1-6.809-6.809v-9.081a6.8,6.8,0,0,1,6.809-6.809Zm-13.621,2.27a4.553,4.553,0,0,0-4.54,4.54v3.406h22.7v-3.406a4.553,4.553,0,0,0-4.539-4.54Z" transform="translate(423.948 281.244)" fill="#232424" stroke="#232424" stroke-miterlimit="10" stroke-width="1"/>
                    <path id="パス_118" data-name="パス 118" d="M-236.121-272.164l.681,2.27h-16.116a4.883,4.883,0,0,0-4.54,4.54v15.89h-2.271v-22.7h2.271v4.086a4.476,4.476,0,0,1,4.54-4.086Z" transform="translate(421.109 281.244)" fill="#232424" stroke="#232424" stroke-miterlimit="10" stroke-width="1"/>
                    <path id="パス_119" data-name="パス 119" d="M-189-265.355a4.553,4.553,0,0,0-4.54-4.54h-18.84l.68-2.27h18.16a6.8,6.8,0,0,1,6.81,6.809v15.89h-20.43a6.612,6.612,0,0,1-6.81-6.583,6.611,6.611,0,0,1,6.81-6.582H-189Zm0,13.621v-8.627h-18.159a4.365,4.365,0,0,0-4.54,4.314,4.364,4.364,0,0,0,4.54,4.314Z" transform="translate(418.7 281.244)" fill="#232424" stroke="#232424" stroke-miterlimit="10" stroke-width="1"/>
                    <path id="パス_120" data-name="パス 120" d="M-135.771-251.734l-.453,2.27h-18.615a6.8,6.8,0,0,1-6.809-6.809v-9.081a6.8,6.8,0,0,1,6.809-6.809h18.161l.681,2.27h-18.842a4.553,4.553,0,0,0-4.539,4.54v9.081a4.553,4.553,0,0,0,4.539,4.54Z" transform="translate(415.862 281.244)" fill="#232424" stroke="#232424" stroke-miterlimit="10" stroke-width="1"/>
                    <path id="パス_121" data-name="パス 121" d="M-94.378-252.255l-.682,2.27h-7.717a6.8,6.8,0,0,1-6.811-6.809v-13.621h-4.539l.68-2.27h3.859v-9.08h2.271v9.08h12.94l-.682,2.27h-12.258v13.621a4.554,4.554,0,0,0,4.54,4.54Z" transform="translate(413.283 281.765)" fill="#232424" stroke="#232424" stroke-miterlimit="10" stroke-width="1"/>
                    <path id="パス_122" data-name="パス 122" d="M-71.168-281.765h2.27v2.27h-2.27Zm0,9.08h2.27v22.7h-2.27Z" transform="translate(410.952 281.765)" fill="#232424" stroke="#232424" stroke-miterlimit="10" stroke-width="1"/>
                    <path id="パス_123" data-name="パス 123" d="M-38.439-249.464a6.8,6.8,0,0,1-6.81-6.809v-9.081a6.8,6.8,0,0,1,6.81-6.809h13.62a6.8,6.8,0,0,1,6.809,6.809v9.081a6.8,6.8,0,0,1-6.809,6.809Zm13.62-2.27a4.554,4.554,0,0,0,4.54-4.54v-9.081a4.553,4.553,0,0,0-4.54-4.54h-13.62a4.553,4.553,0,0,0-4.541,4.54v9.081a4.554,4.554,0,0,0,4.541,4.54Z" transform="translate(409.546 281.244)" fill="#232424" stroke="#232424" stroke-miterlimit="10" stroke-width="1"/>
                    <path id="パス_124" data-name="パス 124" d="M13.88-269.894a4.553,4.553,0,0,0-4.54,4.54v15.89H7.071v-15.89a6.8,6.8,0,0,1,6.809-6.809H27.5a6.8,6.8,0,0,1,6.811,6.809v15.89H32.04v-15.89a4.553,4.553,0,0,0-4.541-4.54Z" transform="translate(406.707 281.244)" fill="#232424" stroke="#232424" stroke-miterlimit="10" stroke-width="1"/>
                    <path id="パス_125" data-name="パス 125" d="M95.741-267.01H119.8l-.681,2.27H95.741v12.486H119.8v2.27H93.47v-31.78H119.8v2.27H95.741Z" transform="translate(402.019 281.765)" fill="#232424" stroke="#232424" stroke-miterlimit="10" stroke-width="1"/>
                    <path id="パス_126" data-name="パス 126" d="M146.62-256.795a4.553,4.553,0,0,0,4.539,4.54h6.583l-.68,2.27h-5.9a6.8,6.8,0,0,1-6.809-6.809v-24.97h2.271Z" transform="translate(399.259 281.765)" fill="#232424" stroke="#232424" stroke-miterlimit="10" stroke-width="1"/>
                    <path id="パス_127" data-name="パス 127" d="M199.58-272.164a6.8,6.8,0,0,1,6.809,6.809v5.675h-24.97v3.406a4.554,4.554,0,0,0,4.541,4.54H204.8l-.682,2.27H185.959a6.8,6.8,0,0,1-6.81-6.809v-9.081a6.8,6.8,0,0,1,6.81-6.809Zm-13.621,2.27a4.554,4.554,0,0,0-4.541,4.54v3.406h22.7v-3.406a4.553,4.553,0,0,0-4.539-4.54Z" transform="translate(397.371 281.244)" fill="#232424" stroke="#232424" stroke-miterlimit="10" stroke-width="1"/>
                    <path id="パス_128" data-name="パス 128" d="M238.279-269.894a4.553,4.553,0,0,0-4.54,4.54v15.89h-2.271v-15.89a6.8,6.8,0,0,1,6.81-6.809h12.485a6.868,6.868,0,0,1,5.675,3.042,6.8,6.8,0,0,1,5.674-3.042H274.6a6.8,6.8,0,0,1,6.81,6.809v15.89h-2.27v-15.89a4.553,4.553,0,0,0-4.54-4.54H262.114a4.488,4.488,0,0,0-4.54,4.359v16.071H255.3v-16.071a4.518,4.518,0,0,0-4.54-4.359Z" transform="translate(394.532 281.244)" fill="#232424" stroke="#232424" stroke-miterlimit="10" stroke-width="1"/>
                    <path id="パス_129" data-name="パス 129" d="M328.219-272.164a6.8,6.8,0,0,1,6.809,6.809v5.675h-24.97v3.406a4.554,4.554,0,0,0,4.541,4.54H333.44l-.682,2.27H314.6a6.8,6.8,0,0,1-6.81-6.809v-9.081a6.8,6.8,0,0,1,6.81-6.809Zm-13.62,2.27a4.553,4.553,0,0,0-4.541,4.54v3.406h22.7v-3.406a4.553,4.553,0,0,0-4.54-4.54Z" transform="translate(390.391 281.244)" fill="#232424" stroke="#232424" stroke-miterlimit="10" stroke-width="1"/>
                    <path id="パス_130" data-name="パス 130" d="M366.918-269.894a4.554,4.554,0,0,0-4.54,4.54v15.89h-2.27v-15.89a6.8,6.8,0,0,1,6.809-6.809h13.621a6.8,6.8,0,0,1,6.81,6.809v15.89h-2.271v-15.89a4.553,4.553,0,0,0-4.539-4.54Z" transform="translate(387.552 281.244)" fill="#232424" stroke="#232424" stroke-miterlimit="10" stroke-width="1"/>
                    <path id="パス_131" data-name="パス 131" d="M430.738-252.255l-.682,2.27h-7.717a6.8,6.8,0,0,1-6.81-6.809v-13.621h-4.54l.681-2.27h3.859v-9.08h2.27v9.08h12.94l-.682,2.27H417.8v13.621a4.554,4.554,0,0,0,4.54,4.54Z" transform="translate(384.792 281.765)" fill="#232424" stroke="#232424" stroke-miterlimit="10" stroke-width="1"/>
                    <path id="パス_132" data-name="パス 132" d="M459.208-269.894a3.934,3.934,0,0,0-3.95,3.995,3.9,3.9,0,0,0,3.95,3.95h15.208a6.278,6.278,0,0,1,6.266,6.266,6.239,6.239,0,0,1-6.266,6.219H454.35l-.68-2.27h20.7a3.934,3.934,0,0,0,4-3.949,3.972,3.972,0,0,0-4-4H459.208a6.2,6.2,0,0,1-6.219-6.22,6.239,6.239,0,0,1,6.219-6.265h19.658l.681,2.27Z" transform="translate(382.513 281.244)" fill="#232424" stroke="#232424" stroke-miterlimit="10" stroke-width="1"/>
                  </g>
                  <g id="グループ_571" data-name="グループ 571" transform="translate(-0.001 0)" style="isolation: isolate">
                    <path id="パス_133" data-name="パス 133" d="M-430.446-281.765h2.27v31.78h-2.27Z" transform="translate(430.446 281.765)" fill="#232424" stroke="#232424" stroke-linejoin="round" stroke-width="2"/>
                    <path id="パス_134" data-name="パス 134" d="M-397.236-269.894a4.553,4.553,0,0,0-4.54,4.54v15.89h-2.27v-15.89a6.8,6.8,0,0,1,6.81-6.809h13.619a6.8,6.8,0,0,1,6.81,6.809v15.89h-2.27v-15.89a4.553,4.553,0,0,0-4.54-4.54Z" transform="translate(429.014 281.244)" fill="#232424" stroke="#232424" stroke-linejoin="round" stroke-width="2"/>
                    <path id="パス_135" data-name="パス 135" d="M-333.418-252.255l-.681,2.27h-7.717a6.8,6.8,0,0,1-6.811-6.809v-13.621h-4.539l.68-2.27h3.859v-9.08h2.271v9.08h12.939l-.681,2.27h-12.258v13.621a4.554,4.554,0,0,0,4.54,4.54Z" transform="translate(426.253 281.765)" fill="#232424" stroke="#232424" stroke-linejoin="round" stroke-width="2"/>
                    <path id="パス_136" data-name="パス 136" d="M-290.257-272.164a6.8,6.8,0,0,1,6.809,6.809v5.675h-24.969v3.406a4.554,4.554,0,0,0,4.54,4.54h18.841l-.682,2.27h-18.159a6.8,6.8,0,0,1-6.809-6.809v-9.081a6.8,6.8,0,0,1,6.809-6.809Zm-13.621,2.27a4.553,4.553,0,0,0-4.54,4.54v3.406h22.7v-3.406a4.553,4.553,0,0,0-4.539-4.54Z" transform="translate(423.948 281.244)" fill="#232424" stroke="#232424" stroke-linejoin="round" stroke-width="2"/>
                    <path id="パス_137" data-name="パス 137" d="M-236.121-272.164l.681,2.27h-16.116a4.883,4.883,0,0,0-4.54,4.54v15.89h-2.271v-22.7h2.271v4.086a4.476,4.476,0,0,1,4.54-4.086Z" transform="translate(421.109 281.244)" fill="#232424" stroke="#232424" stroke-linejoin="round" stroke-width="2"/>
                    <path id="パス_138" data-name="パス 138" d="M-189-265.355a4.553,4.553,0,0,0-4.54-4.54h-18.84l.68-2.27h18.16a6.8,6.8,0,0,1,6.81,6.809v15.89h-20.43a6.612,6.612,0,0,1-6.81-6.583,6.611,6.611,0,0,1,6.81-6.582H-189Zm0,13.621v-8.627h-18.159a4.365,4.365,0,0,0-4.54,4.314,4.364,4.364,0,0,0,4.54,4.314Z" transform="translate(418.7 281.244)" fill="#232424" stroke="#232424" stroke-linejoin="round" stroke-width="2"/>
                    <path id="パス_139" data-name="パス 139" d="M-135.771-251.734l-.453,2.27h-18.615a6.8,6.8,0,0,1-6.809-6.809v-9.081a6.8,6.8,0,0,1,6.809-6.809h18.161l.681,2.27h-18.842a4.553,4.553,0,0,0-4.539,4.54v9.081a4.553,4.553,0,0,0,4.539,4.54Z" transform="translate(415.862 281.244)" fill="#232424" stroke="#232424" stroke-linejoin="round" stroke-width="2"/>
                    <path id="パス_140" data-name="パス 140" d="M-94.378-252.255l-.682,2.27h-7.717a6.8,6.8,0,0,1-6.811-6.809v-13.621h-4.539l.68-2.27h3.859v-9.08h2.271v9.08h12.94l-.682,2.27h-12.258v13.621a4.554,4.554,0,0,0,4.54,4.54Z" transform="translate(413.283 281.765)" fill="#232424" stroke="#232424" stroke-linejoin="round" stroke-width="2"/>
                    <path id="パス_141" data-name="パス 141" d="M-71.168-281.765h2.27v2.27h-2.27Zm0,9.08h2.27v22.7h-2.27Z" transform="translate(410.952 281.765)" fill="#232424" stroke="#232424" stroke-linejoin="round" stroke-width="2"/>
                    <path id="パス_142" data-name="パス 142" d="M-38.439-249.464a6.8,6.8,0,0,1-6.81-6.809v-9.081a6.8,6.8,0,0,1,6.81-6.809h13.62a6.8,6.8,0,0,1,6.809,6.809v9.081a6.8,6.8,0,0,1-6.809,6.809Zm13.62-2.27a4.554,4.554,0,0,0,4.54-4.54v-9.081a4.553,4.553,0,0,0-4.54-4.54h-13.62a4.553,4.553,0,0,0-4.541,4.54v9.081a4.554,4.554,0,0,0,4.541,4.54Z" transform="translate(409.546 281.244)" fill="#232424" stroke="#232424" stroke-linejoin="round" stroke-width="2"/>
                    <path id="パス_143" data-name="パス 143" d="M13.88-269.894a4.553,4.553,0,0,0-4.54,4.54v15.89H7.071v-15.89a6.8,6.8,0,0,1,6.809-6.809H27.5a6.8,6.8,0,0,1,6.811,6.809v15.89H32.04v-15.89a4.553,4.553,0,0,0-4.541-4.54Z" transform="translate(406.707 281.244)" fill="#232424" stroke="#232424" stroke-linejoin="round" stroke-width="2"/>
                    <path id="パス_144" data-name="パス 144" d="M95.741-267.01H119.8l-.681,2.27H95.741v12.486H119.8v2.27H93.47v-31.78H119.8v2.27H95.741Z" transform="translate(402.019 281.765)" fill="#232424" stroke="#232424" stroke-linejoin="round" stroke-width="2"/>
                    <path id="パス_145" data-name="パス 145" d="M146.62-256.795a4.553,4.553,0,0,0,4.539,4.54h6.583l-.68,2.27h-5.9a6.8,6.8,0,0,1-6.809-6.809v-24.97h2.271Z" transform="translate(399.259 281.765)" fill="#232424" stroke="#232424" stroke-linejoin="round" stroke-width="2"/>
                    <path id="パス_146" data-name="パス 146" d="M199.58-272.164a6.8,6.8,0,0,1,6.809,6.809v5.675h-24.97v3.406a4.554,4.554,0,0,0,4.541,4.54H204.8l-.682,2.27H185.959a6.8,6.8,0,0,1-6.81-6.809v-9.081a6.8,6.8,0,0,1,6.81-6.809Zm-13.621,2.27a4.554,4.554,0,0,0-4.541,4.54v3.406h22.7v-3.406a4.553,4.553,0,0,0-4.539-4.54Z" transform="translate(397.371 281.244)" fill="#232424" stroke="#232424" stroke-linejoin="round" stroke-width="2"/>
                    <path id="パス_147" data-name="パス 147" d="M238.279-269.894a4.553,4.553,0,0,0-4.54,4.54v15.89h-2.271v-15.89a6.8,6.8,0,0,1,6.81-6.809h12.485a6.868,6.868,0,0,1,5.675,3.042,6.8,6.8,0,0,1,5.674-3.042H274.6a6.8,6.8,0,0,1,6.81,6.809v15.89h-2.27v-15.89a4.553,4.553,0,0,0-4.54-4.54H262.114a4.488,4.488,0,0,0-4.54,4.359v16.071H255.3v-16.071a4.518,4.518,0,0,0-4.54-4.359Z" transform="translate(394.532 281.244)" fill="#232424" stroke="#232424" stroke-linejoin="round" stroke-width="2"/>
                    <path id="パス_148" data-name="パス 148" d="M328.219-272.164a6.8,6.8,0,0,1,6.809,6.809v5.675h-24.97v3.406a4.554,4.554,0,0,0,4.541,4.54H333.44l-.682,2.27H314.6a6.8,6.8,0,0,1-6.81-6.809v-9.081a6.8,6.8,0,0,1,6.81-6.809Zm-13.62,2.27a4.553,4.553,0,0,0-4.541,4.54v3.406h22.7v-3.406a4.553,4.553,0,0,0-4.54-4.54Z" transform="translate(390.391 281.244)" fill="#232424" stroke="#232424" stroke-linejoin="round" stroke-width="2"/>
                    <path id="パス_149" data-name="パス 149" d="M366.918-269.894a4.554,4.554,0,0,0-4.54,4.54v15.89h-2.27v-15.89a6.8,6.8,0,0,1,6.809-6.809h13.621a6.8,6.8,0,0,1,6.81,6.809v15.89h-2.271v-15.89a4.553,4.553,0,0,0-4.539-4.54Z" transform="translate(387.552 281.244)" fill="#232424" stroke="#232424" stroke-linejoin="round" stroke-width="2"/>
                    <path id="パス_150" data-name="パス 150" d="M430.738-252.255l-.682,2.27h-7.717a6.8,6.8,0,0,1-6.81-6.809v-13.621h-4.54l.681-2.27h3.859v-9.08h2.27v9.08h12.94l-.682,2.27H417.8v13.621a4.554,4.554,0,0,0,4.54,4.54Z" transform="translate(384.792 281.765)" fill="#232424" stroke="#232424" stroke-linejoin="round" stroke-width="2"/>
                    <path id="パス_151" data-name="パス 151" d="M459.208-269.894a3.934,3.934,0,0,0-3.95,3.995,3.9,3.9,0,0,0,3.95,3.95h15.208a6.278,6.278,0,0,1,6.266,6.266,6.239,6.239,0,0,1-6.266,6.219H454.35l-.68-2.27h20.7a3.934,3.934,0,0,0,4-3.949,3.972,3.972,0,0,0-4-4H459.208a6.2,6.2,0,0,1-6.219-6.22,6.239,6.239,0,0,1,6.219-6.265h19.658l.681,2.27Z" transform="translate(382.513 281.244)" fill="#232424" stroke="#232424" stroke-linejoin="round" stroke-width="2"/>
                  </g>
                </g>
              </g>
            </g>
          </g>
        </g>
      </g>
    </g>
  </g>
</svg>
