<svg xmlns="http://www.w3.org/2000/svg" width="986" height="1075" viewBox="0 0 986 1075">
  <g id="home_top" transform="translate(-2562 -26)">
    <rect id="長方形_113" data-name="長方形 113" width="986" height="1075" transform="translate(2562 26)" fill="#fcfcfc"/>
    <g id="グループ_15" data-name="グループ 15" transform="translate(2623.568 394.466)">
      <g id="グループ_14" data-name="グループ 14">
        <g id="グループ_13" data-name="グループ 13">
          <g id="グループ_9" data-name="グループ 9">
            <g id="長方形_6" data-name="長方形 6" transform="translate(256.695 -29.466)" fill="#fff" stroke="#3b3b3b" stroke-width="4.5">
              <rect width="108.109" height="349.291" rx="21.671" stroke="none"/>
              <rect x="2.25" y="2.25" width="103.609" height="344.791" rx="19.421" fill="none"/>
            </g>
          </g>
          <g id="グループ_10" data-name="グループ 10">
            <g id="パス_1" data-name="パス 1" fill="#fff">
              <path d="M 578.8236083984375 70.80100250244141 L 396.7829895019531 70.80100250244141 L 396.7829284667969 70.80100250244141 L 396.781005859375 70.80100250244141 C 395.5570983886719 70.80108642578125 394.4064331054688 70.32453155517578 393.5410461425781 69.45917510986328 C 392.6756286621094 68.59376525878906 392.1990051269531 67.44306182861328 392.1990051269531 66.21900177001953 L 392.1990051269531 -2.126999139785767 L 392.1990051269531 -2.120734453201294 C 392.2084045410156 -5.505910873413086 392.8778381347656 -8.787969589233398 394.1886291503906 -11.87573432922363 C 395.4554443359375 -14.85994052886963 397.2658081054688 -17.54105758666992 399.5693664550781 -19.84464645385742 C 401.8729553222656 -22.1482048034668 404.5540771484375 -23.95855712890625 407.5382690429688 -25.22538185119629 C 410.6260375976562 -26.53617477416992 413.9080810546875 -27.20558738708496 417.2932739257812 -27.21499824523926 L 578.8300170898438 -27.21399879455566 L 578.8236083984375 -27.21399879455566 C 582.2088012695312 -27.2043514251709 585.4908447265625 -26.53476333618164 588.5785522460938 -25.22385215759277 C 591.5626220703125 -23.95691108703613 594.2437133789062 -22.14649963378906 596.5472412109375 -19.84291076660156 C 598.8507690429688 -17.53935241699219 600.6610717773438 -14.85826396942139 601.927978515625 -11.87411689758301 C 603.2388305664062 -8.786469459533691 603.9083862304688 -5.504587173461914 603.9180297851562 -2.119587421417236 L 603.9180297851562 -2.125999212265015 L 603.9180297851562 45.70929336547852 C 603.907958984375 49.09405899047852 603.238037109375 52.37567901611328 601.9269409179688 55.46303176879883 C 600.6598510742188 58.44685363769531 598.849365234375 61.12764739990234 596.5458374023438 63.43094253540039 C 594.2423095703125 65.73423767089844 591.5614013671875 67.54438018798828 588.5774536132812 68.81114959716797 C 585.489990234375 70.12187957763672 582.2083740234375 70.79135131835938 578.8236083984375 70.80100250244141 Z" stroke="none"/>
              <path d="M 578.8300170898438 68.55100250244141 L 578.8268432617188 68.55100250244141 C 584.9188232421875 68.531005859375 590.646484375 66.14785003662109 594.9549560546875 61.83984375 C 599.263671875 57.53157424926758 601.6475219726562 51.80438995361328 601.6680297851562 45.71181869506836 L 601.6680297851562 -2.122780561447144 C 601.6480102539062 -8.215405464172363 599.2646484375 -13.94339847564697 594.9562377929688 -18.2519359588623 C 590.6477661132812 -22.56053733825684 584.9196166992188 -24.94400405883789 578.8300170898438 -24.96399879455566 L 417.2896728515625 -24.96499824523926 C 411.1968383789062 -24.94540977478027 405.4689025878906 -22.56219291687012 401.1603393554688 -18.25365447998047 C 396.851806640625 -13.9450855255127 394.4685974121094 -8.217164993286133 394.4490051269531 -2.124321699142456 L 394.4490051269531 66.21900177001953 C 394.4490051269531 66.84203338623047 394.6915588378906 67.42771911621094 395.1319885253906 67.86815643310547 C 395.5724182128906 68.30853271484375 396.157958984375 68.55103302001953 396.7829895019531 68.55100250244141 L 578.8300170898438 68.55100250244141 M 396.7811584472656 73.05100250244141 C 393.0077819824219 73.05125427246094 389.9490051269531 69.99253845214844 389.9490051269531 66.21900177001953 L 389.9490051269531 -2.126999139785767 C 389.9909973144531 -17.20799827575684 402.2059936523438 -29.42299842834473 417.2869873046875 -29.46499824523926 L 578.8300170898438 -29.46399879455566 C 593.9110107421875 -29.42099952697754 606.125 -17.20599937438965 606.1680297851562 -2.125999212265015 L 606.1680297851562 45.71599960327148 C 606.1229858398438 60.79500198364258 593.9089965820312 73.00800323486328 578.8300170898438 73.05100250244141 L 396.7829895019531 73.05100250244141 C 396.7825317382812 73.05100250244141 396.7816162109375 73.05100250244141 396.7811584472656 73.05100250244141 Z" stroke="none" fill="#3b3b3b"/>
            </g>
          </g>
          <g id="グループ_11" data-name="グループ 11">
            <g id="パス_2" data-name="パス 2" fill="#fff">
              <path d="M 578.822265625 194.1869964599609 L 396.7820129394531 194.1869964599609 C 394.2547607421875 194.1863403320312 392.1976623535156 192.1292572021484 392.1969909667969 189.6014251708984 L 392.1990051269531 100.7520523071289 C 392.19970703125 98.22463989257812 394.2565002441406 96.16799163818359 396.7839965820312 96.16799163818359 L 578.8280029296875 96.17098999023438 L 578.8214721679688 96.17098999023438 C 582.2064819335938 96.18083953857422 585.4883422851562 96.85057830810547 588.575927734375 98.16155242919922 C 591.5599365234375 99.42855072021484 594.240966796875 101.2389602661133 596.5444946289062 103.5424880981445 C 598.8480224609375 105.8460159301758 600.658447265625 108.5270462036133 601.9254760742188 111.5110778808594 C 603.2364501953125 114.5986633300781 603.9061889648438 117.8805465698242 603.916015625 121.2655487060547 L 603.916015625 121.2589874267578 L 603.916015625 169.0933074951172 C 603.9059448242188 172.4781036376953 603.236083984375 175.7597503662109 601.925048828125 178.8471069335938 C 600.6580200195312 181.8309936523438 598.84765625 184.5118408203125 596.5442504882812 186.8152618408203 C 594.2408447265625 189.1186676025391 591.5599975585938 190.9290161132812 588.5761108398438 192.196044921875 C 585.48876953125 193.5070495605469 582.2070922851562 194.1768951416016 578.822265625 194.1869964599609 Z" stroke="none"/>
              <path d="M 578.8289794921875 191.9369964599609 L 578.8248291015625 191.9369964599609 C 584.9174194335938 191.9164733886719 590.644775390625 189.5327606201172 594.9532470703125 185.2242736816406 C 599.2617797851562 180.9157867431641 601.6455078125 175.1884765625 601.666015625 169.0958404541016 L 601.666015625 121.2626724243164 C 601.6459350585938 115.1696929931641 599.2622680664062 109.4421997070312 594.9535522460938 105.1334609985352 C 590.6448364257812 100.8247528076172 584.9172973632812 98.44110107421875 578.8279418945312 98.42098999023438 L 396.7839965820312 98.41799163818359 C 395.496826171875 98.41799163818359 394.4493713378906 99.46555328369141 394.4490051269531 100.752082824707 L 394.4469909667969 189.600830078125 C 394.4473266601562 190.888671875 395.4953308105469 191.9366455078125 396.7820129394531 191.9369964599609 L 578.8289794921875 191.9369964599609 M 578.8289794921875 196.4369964599609 L 396.7820129394531 196.4369964599609 C 393.0069885253906 196.4360198974609 389.947998046875 193.3769836425781 389.9469909667969 189.6020202636719 L 389.9490051269531 100.7519912719727 C 389.9500122070312 96.97798919677734 393.009033203125 93.91799163818359 396.7839965820312 93.91799163818359 L 578.8280029296875 93.92098999023438 C 593.9080200195312 93.96498870849609 606.1220092773438 106.1789932250977 606.166015625 121.2589874267578 L 606.166015625 169.1000213623047 C 606.1209716796875 184.1789855957031 593.9080200195312 196.3919830322266 578.8289794921875 196.4369964599609 Z" stroke="none" fill="#3b3b3b"/>
            </g>
          </g>
          <g id="グループ_12" data-name="グループ 12">
            <g id="パス_3" data-name="パス 3" fill="#fff">
              <path d="M 578.8225708007812 317.7219848632812 L 417.2850036621094 317.7219848632812 C 413.897216796875 317.7219848632812 410.6119384765625 317.0590209960938 407.5204467773438 315.75146484375 C 404.5332336425781 314.4880065917969 401.8500061035156 312.6788024902344 399.5452270507812 310.3741149902344 C 397.2404174804688 308.0693664550781 395.43115234375 305.3861389160156 394.1676940917969 302.39892578125 C 392.8600463867188 299.307373046875 392.197021484375 296.02197265625 392.197021484375 292.6340026855469 L 392.197998046875 224.2900238037109 C 392.197998046875 221.7630157470703 394.254638671875 219.7066650390625 396.7825927734375 219.7059936523438 L 578.8289794921875 219.7059936523438 L 578.8224487304688 219.7059936523438 C 582.2073974609375 219.7158355712891 585.4893188476562 220.3855743408203 588.576904296875 221.6965484619141 C 591.5609741210938 222.9635467529297 594.2420043945312 224.7739562988281 596.5455322265625 227.0774841308594 C 598.8490600585938 229.3810119628906 600.659423828125 232.0620422363281 601.9264526367188 235.0461120605469 C 603.2374267578125 238.1336975097656 603.9071044921875 241.4155731201172 603.9169921875 244.8005828857422 L 603.9169921875 244.7940216064453 L 603.9169921875 292.6294250488281 C 603.9071044921875 296.0144348144531 603.2374267578125 299.2962646484375 601.9264526367188 302.3836975097656 C 600.659423828125 305.3676452636719 598.8490600585938 308.0484924316406 596.5455932617188 310.351806640625 C 594.2420654296875 312.6551513671875 591.56103515625 314.46533203125 588.5770263671875 315.7321472167969 C 585.4894409179688 317.0428466796875 582.2075805664062 317.7123413085938 578.8225708007812 317.7219848632812 Z" stroke="none"/>
              <path d="M 578.8289794921875 315.4719848632812 L 578.8257446289062 315.4719848632812 C 584.9183349609375 315.4519958496094 590.646240234375 313.06884765625 594.9546508789062 308.7607727050781 C 599.2633056640625 304.4524841308594 601.6469116210938 298.7252197265625 601.6669921875 292.63232421875 L 601.6669921875 244.7976989746094 C 601.6469116210938 238.7046813964844 599.2632446289062 232.9772338867188 594.9545288085938 228.6684875488281 C 590.645751953125 224.3597564697266 584.9183349609375 221.9761047363281 578.8289794921875 221.9559936523438 L 396.783203125 221.9559936523438 C 395.4955749511719 221.9563293457031 394.447998046875 223.0033569335938 394.447998046875 224.2900543212891 L 394.447021484375 292.6340026855469 C 394.447021484375 295.7192077636719 395.0502319335938 298.709716796875 396.2398986816406 301.5224304199219 C 397.3899841308594 304.2414245605469 399.0373229980469 306.6842651367188 401.1361999511719 308.7830810546875 C 403.2350463867188 310.8818969726562 405.6779174804688 312.5291748046875 408.3969116210938 313.6791687011719 C 411.2095642089844 314.8688049316406 414.1999816894531 315.4719848632812 417.2850036621094 315.4719848632812 L 578.8289794921875 315.4719848632812 M 578.8289794921875 319.9719848632812 L 417.2850036621094 319.9719848632812 C 402.18701171875 319.9719848632812 389.947021484375 307.7330017089844 389.947021484375 292.6340026855469 L 389.947998046875 224.2899932861328 C 389.947998046875 220.5160217285156 393.0079956054688 217.4569854736328 396.7820129394531 217.4559936523438 L 578.8289794921875 217.4559936523438 C 593.9089965820312 217.4999847412109 606.1229858398438 229.7140197753906 606.1669921875 244.7940216064453 L 606.1669921875 292.635986328125 C 606.1229858398438 307.7160339355469 593.9089965820312 319.9289855957031 578.8289794921875 319.9719848632812 Z" stroke="none" fill="#3b3b3b"/>
            </g>
          </g>
          <g id="パス_4" data-name="パス 4" fill="#fff">
            <path d="M 578.8236083984375 70.80100250244141 L 396.7829895019531 70.80100250244141 L 396.7829284667969 70.80100250244141 L 396.781005859375 70.80100250244141 C 395.5570983886719 70.80108642578125 394.4064331054688 70.32453155517578 393.5410461425781 69.45917510986328 C 392.6756286621094 68.59376525878906 392.1990051269531 67.44306182861328 392.1990051269531 66.21900177001953 L 392.1990051269531 -2.126999139785767 L 392.1990051269531 -2.120734453201294 C 392.2084045410156 -5.505910873413086 392.8778381347656 -8.787969589233398 394.1886291503906 -11.87573432922363 C 395.4554443359375 -14.85994052886963 397.2658081054688 -17.54105758666992 399.5693664550781 -19.84464645385742 C 401.8729553222656 -22.1482048034668 404.5540771484375 -23.95855712890625 407.5382690429688 -25.22538185119629 C 410.6260375976562 -26.53617477416992 413.9080810546875 -27.20558738708496 417.2932739257812 -27.21499824523926 L 578.8300170898438 -27.21399879455566 L 578.8236083984375 -27.21399879455566 C 582.2088012695312 -27.2043514251709 585.4908447265625 -26.53476333618164 588.5785522460938 -25.22385215759277 C 591.5626220703125 -23.95691108703613 594.2437133789062 -22.14649963378906 596.5472412109375 -19.84291076660156 C 598.8507690429688 -17.53935241699219 600.6610717773438 -14.85826396942139 601.927978515625 -11.87411689758301 C 603.2388305664062 -8.786469459533691 603.9083862304688 -5.504587173461914 603.9180297851562 -2.119587421417236 L 603.9180297851562 -2.125999212265015 L 603.9180297851562 45.70929336547852 C 603.907958984375 49.09405899047852 603.238037109375 52.37567901611328 601.9269409179688 55.46303176879883 C 600.6598510742188 58.44685363769531 598.849365234375 61.12764739990234 596.5458374023438 63.43094253540039 C 594.2423095703125 65.73423767089844 591.5614013671875 67.54438018798828 588.5774536132812 68.81114959716797 C 585.489990234375 70.12187957763672 582.2083740234375 70.79135131835938 578.8236083984375 70.80100250244141 Z" stroke="none"/>
            <path d="M 578.8300170898438 68.55100250244141 L 578.8268432617188 68.55100250244141 C 584.9188232421875 68.531005859375 590.646484375 66.14785003662109 594.9549560546875 61.83984375 C 599.263671875 57.53157424926758 601.6475219726562 51.80438995361328 601.6680297851562 45.71181869506836 L 601.6680297851562 -2.122780561447144 C 601.6480102539062 -8.215405464172363 599.2646484375 -13.94339847564697 594.9562377929688 -18.2519359588623 C 590.6477661132812 -22.56053733825684 584.9196166992188 -24.94400405883789 578.8300170898438 -24.96399879455566 L 417.2896728515625 -24.96499824523926 C 411.1968383789062 -24.94540977478027 405.4689025878906 -22.56219291687012 401.1603393554688 -18.25365447998047 C 396.851806640625 -13.9450855255127 394.4685974121094 -8.217164993286133 394.4490051269531 -2.124321699142456 L 394.4490051269531 66.21900177001953 C 394.4490051269531 66.84203338623047 394.6915588378906 67.42771911621094 395.1319885253906 67.86815643310547 C 395.5724182128906 68.30853271484375 396.157958984375 68.55103302001953 396.7829895019531 68.55100250244141 L 578.8300170898438 68.55100250244141 M 396.7811584472656 73.05100250244141 C 393.0077819824219 73.05125427246094 389.9490051269531 69.99253845214844 389.9490051269531 66.21900177001953 L 389.9490051269531 -2.126999139785767 C 389.9909973144531 -17.20799827575684 402.2059936523438 -29.42299842834473 417.2869873046875 -29.46499824523926 L 578.8300170898438 -29.46399879455566 C 593.9110107421875 -29.42099952697754 606.125 -17.20599937438965 606.1680297851562 -2.125999212265015 L 606.1680297851562 45.71599960327148 C 606.1229858398438 60.79500198364258 593.9089965820312 73.00800323486328 578.8300170898438 73.05100250244141 L 396.7829895019531 73.05100250244141 C 396.7825317382812 73.05100250244141 396.7816162109375 73.05100250244141 396.7811584472656 73.05100250244141 Z" stroke="none" fill="#3b3b3b"/>
          </g>
          <g id="グループ_16" data-name="グループ 16">
            <g id="パス_2-2" data-name="パス 2-2" fill="#fff">
              <path d="M 578.822265625 194.1869964599609 L 396.7820129394531 194.1869964599609 C 394.2547607421875 194.1863403320312 392.1976623535156 192.1292572021484 392.1969909667969 189.6014251708984 L 392.1990051269531 100.7520523071289 C 392.19970703125 98.22463989257812 394.2565002441406 96.16799163818359 396.7839965820312 96.16799163818359 L 578.8280029296875 96.17098999023438 L 578.8214721679688 96.17098999023438 C 582.2064819335938 96.18083953857422 585.4883422851562 96.85057830810547 588.575927734375 98.16155242919922 C 591.5599365234375 99.42855072021484 594.240966796875 101.2389602661133 596.5444946289062 103.5424880981445 C 598.8480224609375 105.8460159301758 600.658447265625 108.5270462036133 601.9254760742188 111.5110778808594 C 603.2364501953125 114.5986633300781 603.9061889648438 117.8805465698242 603.916015625 121.2655487060547 L 603.916015625 121.2589874267578 L 603.916015625 169.0933074951172 C 603.9059448242188 172.4781036376953 603.236083984375 175.7597503662109 601.925048828125 178.8471069335938 C 600.6580200195312 181.8309936523438 598.84765625 184.5118408203125 596.5442504882812 186.8152618408203 C 594.2408447265625 189.1186676025391 591.5599975585938 190.9290161132812 588.5761108398438 192.196044921875 C 585.48876953125 193.5070495605469 582.2070922851562 194.1768951416016 578.822265625 194.1869964599609 Z" stroke="none"/>
              <path d="M 578.8289794921875 191.9369964599609 L 578.8248291015625 191.9369964599609 C 584.9174194335938 191.9164733886719 590.644775390625 189.5327606201172 594.9532470703125 185.2242736816406 C 599.2617797851562 180.9157867431641 601.6455078125 175.1884765625 601.666015625 169.0958404541016 L 601.666015625 121.2626724243164 C 601.6459350585938 115.1696929931641 599.2622680664062 109.4421997070312 594.9535522460938 105.1334609985352 C 590.6448364257812 100.8247528076172 584.9172973632812 98.44110107421875 578.8279418945312 98.42098999023438 L 396.7839965820312 98.41799163818359 C 395.496826171875 98.41799163818359 394.4493713378906 99.46555328369141 394.4490051269531 100.752082824707 L 394.4469909667969 189.600830078125 C 394.4473266601562 190.888671875 395.4953308105469 191.9366455078125 396.7820129394531 191.9369964599609 L 578.8289794921875 191.9369964599609 M 578.8289794921875 196.4369964599609 L 396.7820129394531 196.4369964599609 C 393.0069885253906 196.4360198974609 389.947998046875 193.3769836425781 389.9469909667969 189.6020202636719 L 389.9490051269531 100.7519912719727 C 389.9500122070312 96.97798919677734 393.009033203125 93.91799163818359 396.7839965820312 93.91799163818359 L 578.8280029296875 93.92098999023438 C 593.9080200195312 93.96498870849609 606.1220092773438 106.1789932250977 606.166015625 121.2589874267578 L 606.166015625 169.1000213623047 C 606.1209716796875 184.1789855957031 593.9080200195312 196.3919830322266 578.8289794921875 196.4369964599609 Z" stroke="none" fill="#3b3b3b"/>
            </g>
          </g>
          <g id="グループ_17" data-name="グループ 17">
            <g id="パス_3-2" data-name="パス 3-2" fill="#fff">
              <path d="M 578.8225708007812 317.7219848632812 L 417.2850036621094 317.7219848632812 C 413.897216796875 317.7219848632812 410.6119384765625 317.0590209960938 407.5204467773438 315.75146484375 C 404.5332336425781 314.4880065917969 401.8500061035156 312.6788024902344 399.5452270507812 310.3741149902344 C 397.2404174804688 308.0693664550781 395.43115234375 305.3861389160156 394.1676940917969 302.39892578125 C 392.8600463867188 299.307373046875 392.197021484375 296.02197265625 392.197021484375 292.6340026855469 L 392.197998046875 224.2900238037109 C 392.197998046875 221.7630157470703 394.254638671875 219.7066650390625 396.7825927734375 219.7059936523438 L 578.8289794921875 219.7059936523438 L 578.8224487304688 219.7059936523438 C 582.2073974609375 219.7158355712891 585.4893188476562 220.3855743408203 588.576904296875 221.6965484619141 C 591.5609741210938 222.9635467529297 594.2420043945312 224.7739562988281 596.5455322265625 227.0774841308594 C 598.8490600585938 229.3810119628906 600.659423828125 232.0620422363281 601.9264526367188 235.0461120605469 C 603.2374267578125 238.1336975097656 603.9071044921875 241.4155731201172 603.9169921875 244.8005828857422 L 603.9169921875 244.7940216064453 L 603.9169921875 292.6294250488281 C 603.9071044921875 296.0144348144531 603.2374267578125 299.2962646484375 601.9264526367188 302.3836975097656 C 600.659423828125 305.3676452636719 598.8490600585938 308.0484924316406 596.5455932617188 310.351806640625 C 594.2420654296875 312.6551513671875 591.56103515625 314.46533203125 588.5770263671875 315.7321472167969 C 585.4894409179688 317.0428466796875 582.2075805664062 317.7123413085938 578.8225708007812 317.7219848632812 Z" stroke="none"/>
              <path d="M 578.8289794921875 315.4719848632812 L 578.8257446289062 315.4719848632812 C 584.9183349609375 315.4519958496094 590.646240234375 313.06884765625 594.9546508789062 308.7607727050781 C 599.2633056640625 304.4524841308594 601.6469116210938 298.7252197265625 601.6669921875 292.63232421875 L 601.6669921875 244.7976989746094 C 601.6469116210938 238.7046813964844 599.2632446289062 232.9772338867188 594.9545288085938 228.6684875488281 C 590.645751953125 224.3597564697266 584.9183349609375 221.9761047363281 578.8289794921875 221.9559936523438 L 396.783203125 221.9559936523438 C 395.4955749511719 221.9563293457031 394.447998046875 223.0033569335938 394.447998046875 224.2900543212891 L 394.447021484375 292.6340026855469 C 394.447021484375 295.7192077636719 395.0502319335938 298.709716796875 396.2398986816406 301.5224304199219 C 397.3899841308594 304.2414245605469 399.0373229980469 306.6842651367188 401.1361999511719 308.7830810546875 C 403.2350463867188 310.8818969726562 405.6779174804688 312.5291748046875 408.3969116210938 313.6791687011719 C 411.2095642089844 314.8688049316406 414.1999816894531 315.4719848632812 417.2850036621094 315.4719848632812 L 578.8289794921875 315.4719848632812 M 578.8289794921875 319.9719848632812 L 417.2850036621094 319.9719848632812 C 402.18701171875 319.9719848632812 389.947021484375 307.7330017089844 389.947021484375 292.6340026855469 L 389.947998046875 224.2899932861328 C 389.947998046875 220.5160217285156 393.0079956054688 217.4569854736328 396.7820129394531 217.4559936523438 L 578.8289794921875 217.4559936523438 C 593.9089965820312 217.4999847412109 606.1229858398438 229.7140197753906 606.1669921875 244.7940216064453 L 606.1669921875 292.635986328125 C 606.1229858398438 307.7160339355469 593.9089965820312 319.9289855957031 578.8289794921875 319.9719848632812 Z" stroke="none" fill="#3b3b3b"/>
            </g>
          </g>
        </g>
      </g>
    </g>
    <g id="Interaction_Elements" data-name="Interaction Elements" transform="translate(3030.087 1078.765)" style="isolation: isolate">
      <g id="グループ_570" data-name="グループ 570" style="isolation: isolate">
        <path id="パス_114" data-name="パス 114" d="M-430.446-281.765h2.4v33.6h-2.4Z" fill="#232424" stroke="#232424" stroke-miterlimit="10" stroke-width="1"/>
        <path id="パス_115" data-name="パス 115" d="M-396.845-269.764a4.814,4.814,0,0,0-4.8,4.8v16.8h-2.4v-16.8a7.191,7.191,0,0,1,7.2-7.2h14.4a7.191,7.191,0,0,1,7.2,7.2v16.8h-2.4v-16.8a4.814,4.814,0,0,0-4.8-4.8Z" fill="#232424" stroke="#232424" stroke-miterlimit="10" stroke-width="1"/>
        <path id="パス_116" data-name="パス 116" d="M-332.285-250.562l-.72,2.4h-8.16a7.191,7.191,0,0,1-7.2-7.2v-14.4h-4.8l.719-2.4h4.08v-9.6h2.4v9.6h13.681l-.72,2.4h-12.961v14.4a4.815,4.815,0,0,0,4.8,4.8Z" fill="#232424" stroke="#232424" stroke-miterlimit="10" stroke-width="1"/>
        <path id="パス_117" data-name="パス 117" d="M-289.085-272.164a7.19,7.19,0,0,1,7.2,7.2v6h-26.4v3.6a4.815,4.815,0,0,0,4.8,4.8h19.922l-.721,2.4h-19.2a7.19,7.19,0,0,1-7.2-7.2v-9.6a7.19,7.19,0,0,1,7.2-7.2Zm-14.4,2.4a4.814,4.814,0,0,0-4.8,4.8v3.6h24v-3.6a4.814,4.814,0,0,0-4.8-4.8Z" fill="#232424" stroke="#232424" stroke-miterlimit="10" stroke-width="1"/>
        <path id="パス_118" data-name="パス 118" d="M-234.845-272.164l.72,2.4h-17.041a5.163,5.163,0,0,0-4.8,4.8v16.8h-2.4v-24h2.4v4.32a4.733,4.733,0,0,1,4.8-4.32Z" fill="#232424" stroke="#232424" stroke-miterlimit="10" stroke-width="1"/>
        <path id="パス_119" data-name="パス 119" d="M-187.566-264.964a4.814,4.814,0,0,0-4.8-4.8h-19.921l.719-2.4h19.2a7.191,7.191,0,0,1,7.2,7.2v16.8h-21.6a6.991,6.991,0,0,1-7.2-6.961,6.991,6.991,0,0,1,7.2-6.96h19.2Zm0,14.4v-9.122h-19.2a4.615,4.615,0,0,0-4.8,4.561,4.615,4.615,0,0,0,4.8,4.561Z" fill="#232424" stroke="#232424" stroke-miterlimit="10" stroke-width="1"/>
        <path id="パス_120" data-name="パス 120" d="M-134.286-250.562l-.479,2.4h-19.683a7.19,7.19,0,0,1-7.2-7.2v-9.6a7.19,7.19,0,0,1,7.2-7.2h19.2l.72,2.4h-19.923a4.814,4.814,0,0,0-4.8,4.8v9.6a4.815,4.815,0,0,0,4.8,4.8Z" fill="#232424" stroke="#232424" stroke-miterlimit="10" stroke-width="1"/>
        <path id="パス_121" data-name="パス 121" d="M-93.245-250.562l-.721,2.4h-8.16a7.191,7.191,0,0,1-7.2-7.2v-14.4h-4.8l.719-2.4h4.08v-9.6h2.4v9.6h13.682l-.721,2.4h-12.961v14.4a4.815,4.815,0,0,0,4.8,4.8Z" fill="#232424" stroke="#232424" stroke-miterlimit="10" stroke-width="1"/>
        <path id="パス_122" data-name="パス 122" d="M-71.168-281.765h2.4v2.4h-2.4Zm0,9.6h2.4v24h-2.4Z" fill="#232424" stroke="#232424" stroke-miterlimit="10" stroke-width="1"/>
        <path id="パス_123" data-name="パス 123" d="M-38.048-248.162a7.191,7.191,0,0,1-7.2-7.2v-9.6a7.191,7.191,0,0,1,7.2-7.2h14.4a7.19,7.19,0,0,1,7.2,7.2v9.6a7.19,7.19,0,0,1-7.2,7.2Zm14.4-2.4a4.815,4.815,0,0,0,4.8-4.8v-9.6a4.814,4.814,0,0,0-4.8-4.8h-14.4a4.814,4.814,0,0,0-4.8,4.8v9.6a4.815,4.815,0,0,0,4.8,4.8Z" fill="#232424" stroke="#232424" stroke-miterlimit="10" stroke-width="1"/>
        <path id="パス_124" data-name="パス 124" d="M14.271-269.764a4.814,4.814,0,0,0-4.8,4.8v16.8h-2.4v-16.8a7.19,7.19,0,0,1,7.2-7.2h14.4a7.191,7.191,0,0,1,7.2,7.2v16.8h-2.4v-16.8a4.814,4.814,0,0,0-4.8-4.8Z" fill="#232424" stroke="#232424" stroke-miterlimit="10" stroke-width="1"/>
        <path id="パス_125" data-name="パス 125" d="M95.871-266.164h25.441l-.72,2.4H95.871v13.2h25.441v2.4H93.47v-33.6h27.842v2.4H95.871Z" fill="#232424" stroke="#232424" stroke-miterlimit="10" stroke-width="1"/>
        <path id="パス_126" data-name="パス 126" d="M146.75-255.362a4.815,4.815,0,0,0,4.8,4.8h6.961l-.719,2.4h-6.242a7.19,7.19,0,0,1-7.2-7.2v-26.4h2.4Z" fill="#232424" stroke="#232424" stroke-miterlimit="10" stroke-width="1"/>
        <path id="パス_127" data-name="パス 127" d="M200.752-272.164a7.19,7.19,0,0,1,7.2,7.2v6h-26.4v3.6a4.816,4.816,0,0,0,4.8,4.8h19.922l-.721,2.4h-19.2a7.191,7.191,0,0,1-7.2-7.2v-9.6a7.191,7.191,0,0,1,7.2-7.2Zm-14.4,2.4a4.815,4.815,0,0,0-4.8,4.8v3.6h24v-3.6a4.814,4.814,0,0,0-4.8-4.8Z" fill="#232424" stroke="#232424" stroke-miterlimit="10" stroke-width="1"/>
        <path id="パス_128" data-name="パス 128" d="M238.67-269.764a4.814,4.814,0,0,0-4.8,4.8v16.8h-2.4v-16.8a7.191,7.191,0,0,1,7.2-7.2h13.2a7.262,7.262,0,0,1,6,3.216,7.2,7.2,0,0,1,6-3.216h13.2a7.191,7.191,0,0,1,7.2,7.2v16.8h-2.4v-16.8a4.814,4.814,0,0,0-4.8-4.8h-13.2a4.746,4.746,0,0,0-4.8,4.609v16.993h-2.4v-16.993a4.777,4.777,0,0,0-4.8-4.609Z" fill="#232424" stroke="#232424" stroke-miterlimit="10" stroke-width="1"/>
        <path id="パス_129" data-name="パス 129" d="M329.391-272.164a7.19,7.19,0,0,1,7.2,7.2v6h-26.4v3.6a4.815,4.815,0,0,0,4.8,4.8h19.922l-.721,2.4h-19.2a7.191,7.191,0,0,1-7.2-7.2v-9.6a7.191,7.191,0,0,1,7.2-7.2Zm-14.4,2.4a4.814,4.814,0,0,0-4.8,4.8v3.6h24v-3.6a4.814,4.814,0,0,0-4.8-4.8Z" fill="#232424" stroke="#232424" stroke-miterlimit="10" stroke-width="1"/>
        <path id="パス_130" data-name="パス 130" d="M367.309-269.764a4.815,4.815,0,0,0-4.8,4.8v16.8h-2.4v-16.8a7.19,7.19,0,0,1,7.2-7.2h14.4a7.191,7.191,0,0,1,7.2,7.2v16.8h-2.4v-16.8a4.814,4.814,0,0,0-4.8-4.8Z" fill="#232424" stroke="#232424" stroke-miterlimit="10" stroke-width="1"/>
        <path id="パス_131" data-name="パス 131" d="M431.871-250.562l-.721,2.4h-8.16a7.191,7.191,0,0,1-7.2-7.2v-14.4h-4.8l.72-2.4h4.08v-9.6h2.4v9.6h13.682l-.721,2.4H418.189v14.4a4.815,4.815,0,0,0,4.8,4.8Z" fill="#232424" stroke="#232424" stroke-miterlimit="10" stroke-width="1"/>
        <path id="パス_132" data-name="パス 132" d="M459.565-269.764a4.16,4.16,0,0,0-4.177,4.224,4.12,4.12,0,0,0,4.177,4.177h16.081a6.638,6.638,0,0,1,6.625,6.625,6.6,6.6,0,0,1-6.625,6.576H454.428l-.719-2.4H475.6a4.16,4.16,0,0,0,4.225-4.176,4.2,4.2,0,0,0-4.225-4.225H459.565a6.556,6.556,0,0,1-6.576-6.577,6.6,6.6,0,0,1,6.576-6.624h20.786l.72,2.4Z" fill="#232424" stroke="#232424" stroke-miterlimit="10" stroke-width="1"/>
      </g>
      <g id="グループ_571" data-name="グループ 571" style="isolation: isolate">
        <path id="パス_133" data-name="パス 133" d="M-430.446-281.765h2.4v33.6h-2.4Z" fill="#232424" stroke="#232424" stroke-linejoin="round" stroke-width="2"/>
        <path id="パス_134" data-name="パス 134" d="M-396.845-269.764a4.814,4.814,0,0,0-4.8,4.8v16.8h-2.4v-16.8a7.191,7.191,0,0,1,7.2-7.2h14.4a7.191,7.191,0,0,1,7.2,7.2v16.8h-2.4v-16.8a4.814,4.814,0,0,0-4.8-4.8Z" fill="#232424" stroke="#232424" stroke-linejoin="round" stroke-width="2"/>
        <path id="パス_135" data-name="パス 135" d="M-332.285-250.562l-.72,2.4h-8.16a7.191,7.191,0,0,1-7.2-7.2v-14.4h-4.8l.719-2.4h4.08v-9.6h2.4v9.6h13.681l-.72,2.4h-12.961v14.4a4.815,4.815,0,0,0,4.8,4.8Z" fill="#232424" stroke="#232424" stroke-linejoin="round" stroke-width="2"/>
        <path id="パス_136" data-name="パス 136" d="M-289.085-272.164a7.19,7.19,0,0,1,7.2,7.2v6h-26.4v3.6a4.815,4.815,0,0,0,4.8,4.8h19.922l-.721,2.4h-19.2a7.19,7.19,0,0,1-7.2-7.2v-9.6a7.19,7.19,0,0,1,7.2-7.2Zm-14.4,2.4a4.814,4.814,0,0,0-4.8,4.8v3.6h24v-3.6a4.814,4.814,0,0,0-4.8-4.8Z" fill="#232424" stroke="#232424" stroke-linejoin="round" stroke-width="2"/>
        <path id="パス_137" data-name="パス 137" d="M-234.845-272.164l.72,2.4h-17.041a5.163,5.163,0,0,0-4.8,4.8v16.8h-2.4v-24h2.4v4.32a4.733,4.733,0,0,1,4.8-4.32Z" fill="#232424" stroke="#232424" stroke-linejoin="round" stroke-width="2"/>
        <path id="パス_138" data-name="パス 138" d="M-187.566-264.964a4.814,4.814,0,0,0-4.8-4.8h-19.921l.719-2.4h19.2a7.191,7.191,0,0,1,7.2,7.2v16.8h-21.6a6.991,6.991,0,0,1-7.2-6.961,6.991,6.991,0,0,1,7.2-6.96h19.2Zm0,14.4v-9.122h-19.2a4.615,4.615,0,0,0-4.8,4.561,4.615,4.615,0,0,0,4.8,4.561Z" fill="#232424" stroke="#232424" stroke-linejoin="round" stroke-width="2"/>
        <path id="パス_139" data-name="パス 139" d="M-134.286-250.562l-.479,2.4h-19.683a7.19,7.19,0,0,1-7.2-7.2v-9.6a7.19,7.19,0,0,1,7.2-7.2h19.2l.72,2.4h-19.923a4.814,4.814,0,0,0-4.8,4.8v9.6a4.815,4.815,0,0,0,4.8,4.8Z" fill="#232424" stroke="#232424" stroke-linejoin="round" stroke-width="2"/>
        <path id="パス_140" data-name="パス 140" d="M-93.245-250.562l-.721,2.4h-8.16a7.191,7.191,0,0,1-7.2-7.2v-14.4h-4.8l.719-2.4h4.08v-9.6h2.4v9.6h13.682l-.721,2.4h-12.961v14.4a4.815,4.815,0,0,0,4.8,4.8Z" fill="#232424" stroke="#232424" stroke-linejoin="round" stroke-width="2"/>
        <path id="パス_141" data-name="パス 141" d="M-71.168-281.765h2.4v2.4h-2.4Zm0,9.6h2.4v24h-2.4Z" fill="#232424" stroke="#232424" stroke-linejoin="round" stroke-width="2"/>
        <path id="パス_142" data-name="パス 142" d="M-38.048-248.162a7.191,7.191,0,0,1-7.2-7.2v-9.6a7.191,7.191,0,0,1,7.2-7.2h14.4a7.19,7.19,0,0,1,7.2,7.2v9.6a7.19,7.19,0,0,1-7.2,7.2Zm14.4-2.4a4.815,4.815,0,0,0,4.8-4.8v-9.6a4.814,4.814,0,0,0-4.8-4.8h-14.4a4.814,4.814,0,0,0-4.8,4.8v9.6a4.815,4.815,0,0,0,4.8,4.8Z" fill="#232424" stroke="#232424" stroke-linejoin="round" stroke-width="2"/>
        <path id="パス_143" data-name="パス 143" d="M14.271-269.764a4.814,4.814,0,0,0-4.8,4.8v16.8h-2.4v-16.8a7.19,7.19,0,0,1,7.2-7.2h14.4a7.191,7.191,0,0,1,7.2,7.2v16.8h-2.4v-16.8a4.814,4.814,0,0,0-4.8-4.8Z" fill="#232424" stroke="#232424" stroke-linejoin="round" stroke-width="2"/>
        <path id="パス_144" data-name="パス 144" d="M95.871-266.164h25.441l-.72,2.4H95.871v13.2h25.441v2.4H93.47v-33.6h27.842v2.4H95.871Z" fill="#232424" stroke="#232424" stroke-linejoin="round" stroke-width="2"/>
        <path id="パス_145" data-name="パス 145" d="M146.75-255.362a4.815,4.815,0,0,0,4.8,4.8h6.961l-.719,2.4h-6.242a7.19,7.19,0,0,1-7.2-7.2v-26.4h2.4Z" fill="#232424" stroke="#232424" stroke-linejoin="round" stroke-width="2"/>
        <path id="パス_146" data-name="パス 146" d="M200.752-272.164a7.19,7.19,0,0,1,7.2,7.2v6h-26.4v3.6a4.816,4.816,0,0,0,4.8,4.8h19.922l-.721,2.4h-19.2a7.191,7.191,0,0,1-7.2-7.2v-9.6a7.191,7.191,0,0,1,7.2-7.2Zm-14.4,2.4a4.815,4.815,0,0,0-4.8,4.8v3.6h24v-3.6a4.814,4.814,0,0,0-4.8-4.8Z" fill="#232424" stroke="#232424" stroke-linejoin="round" stroke-width="2"/>
        <path id="パス_147" data-name="パス 147" d="M238.67-269.764a4.814,4.814,0,0,0-4.8,4.8v16.8h-2.4v-16.8a7.191,7.191,0,0,1,7.2-7.2h13.2a7.262,7.262,0,0,1,6,3.216,7.2,7.2,0,0,1,6-3.216h13.2a7.191,7.191,0,0,1,7.2,7.2v16.8h-2.4v-16.8a4.814,4.814,0,0,0-4.8-4.8h-13.2a4.746,4.746,0,0,0-4.8,4.609v16.993h-2.4v-16.993a4.777,4.777,0,0,0-4.8-4.609Z" fill="#232424" stroke="#232424" stroke-linejoin="round" stroke-width="2"/>
        <path id="パス_148" data-name="パス 148" d="M329.391-272.164a7.19,7.19,0,0,1,7.2,7.2v6h-26.4v3.6a4.815,4.815,0,0,0,4.8,4.8h19.922l-.721,2.4h-19.2a7.191,7.191,0,0,1-7.2-7.2v-9.6a7.191,7.191,0,0,1,7.2-7.2Zm-14.4,2.4a4.814,4.814,0,0,0-4.8,4.8v3.6h24v-3.6a4.814,4.814,0,0,0-4.8-4.8Z" fill="#232424" stroke="#232424" stroke-linejoin="round" stroke-width="2"/>
        <path id="パス_149" data-name="パス 149" d="M367.309-269.764a4.815,4.815,0,0,0-4.8,4.8v16.8h-2.4v-16.8a7.19,7.19,0,0,1,7.2-7.2h14.4a7.191,7.191,0,0,1,7.2,7.2v16.8h-2.4v-16.8a4.814,4.814,0,0,0-4.8-4.8Z" fill="#232424" stroke="#232424" stroke-linejoin="round" stroke-width="2"/>
        <path id="パス_150" data-name="パス 150" d="M431.871-250.562l-.721,2.4h-8.16a7.191,7.191,0,0,1-7.2-7.2v-14.4h-4.8l.72-2.4h4.08v-9.6h2.4v9.6h13.682l-.721,2.4H418.189v14.4a4.815,4.815,0,0,0,4.8,4.8Z" fill="#232424" stroke="#232424" stroke-linejoin="round" stroke-width="2"/>
        <path id="パス_151" data-name="パス 151" d="M459.565-269.764a4.16,4.16,0,0,0-4.177,4.224,4.12,4.12,0,0,0,4.177,4.177h16.081a6.638,6.638,0,0,1,6.625,6.625,6.6,6.6,0,0,1-6.625,6.576H454.428l-.719-2.4H475.6a4.16,4.16,0,0,0,4.225-4.176,4.2,4.2,0,0,0-4.225-4.225H459.565a6.556,6.556,0,0,1-6.576-6.577,6.6,6.6,0,0,1,6.576-6.624h20.786l.72,2.4Z" fill="#232424" stroke="#232424" stroke-linejoin="round" stroke-width="2"/>
      </g>
    </g>
    <g id="グループ_129" data-name="グループ 129" transform="translate(2077.16)">
      <line id="線_10" data-name="線 10" x1="34.918" y2="18.796" transform="translate(977.84 964.704)" fill="none" stroke="#3b3b3b" stroke-linecap="round" stroke-width="1"/>
      <line id="線_11" data-name="線 11" x2="34.918" y2="18.796" transform="translate(942.922 964.704)" fill="none" stroke="#3b3b3b" stroke-linecap="round" stroke-width="1"/>
    </g>
  </g>
</svg>
