<svg xmlns="http://www.w3.org/2000/svg" width="867.527" height="1469.893" viewBox="0 0 867.527 1469.893">
  <g id="グループ_633" data-name="グループ 633" transform="translate(-17524.406 -7820.301)">
    <g id="グループ_615" data-name="グループ 615" transform="translate(17355.303 7799.939)">
      <text id="動作_仕組み" data-name="動作・仕組み" transform="translate(169.697 20.362)" font-size="18" font-family="HiraginoSans-W3, Hiragino Sans"><tspan x="0" y="16">動作・仕組み</tspan></text>
      <g id="グループ_601" data-name="グループ 601">
        <rect id="長方形_387" data-name="長方形 387" width="795.532" height="5.814" transform="translate(187.192 569.679)" fill="#232424"/>
        <rect id="長方形_388" data-name="長方形 388" width="33.613" height="33.613" rx="5.062" transform="translate(170.386 555.354)" fill="#fdfdfd" stroke="#232424" stroke-linecap="round" stroke-miterlimit="10" stroke-width="2.564"/>
        <path id="パス_562" data-name="パス 562" d="M644.449,527.093v81.361H512.411a.932.932,0,0,1-.931-.932V527.093" fill="#ebebeb" stroke="#232424" stroke-miterlimit="10" stroke-width="2.764"/>
        <g id="グループ_596" data-name="グループ 596">
          <g id="グループ_595" data-name="グループ 595">
            <path id="パス_563" data-name="パス 563" d="M516.371,551.455c33.946.217,45.029-24.362,61.593-24.362,15.375,0,27.018,24.362,61.594,24.362a3,3,0,0,1,2.944,3.026v14.03a3.372,3.372,0,0,1-3.372,3.372H516.8a3.372,3.372,0,0,1-3.372-3.372v-14.03A2.992,2.992,0,0,1,516.371,551.455Z" fill="#fdfdfd" stroke="#232424" stroke-linecap="round" stroke-miterlimit="10" stroke-width="2.764"/>
          </g>
        </g>
        <g id="グループ_598" data-name="グループ 598">
          <g id="グループ_597" data-name="グループ 597">
            <g id="パス_564" data-name="パス 564" fill="#fff" stroke-miterlimit="10">
              <path d="M 580.7535400390625 490.4844360351562 C 579.941162109375 490.4844360351562 579.1165771484375 490.1262512207031 578.4910888671875 489.5017395019531 C 577.8048706054688 488.8165283203125 577.4239501953125 487.8705444335938 577.4185791015625 486.8380126953125 C 577.4117431640625 485.5472717285156 577.1539916992188 481.8959045410156 576.9266357421875 478.6743774414062 C 576.7542724609375 476.2327270507812 576.591552734375 473.9264831542969 576.591552734375 473.3699951171875 C 576.591552734375 472.7405700683594 576.4115600585938 470.4704895019531 576.198486328125 468.4128112792969 C 576.080322265625 467.271484375 575.9635009765625 466.3028259277344 575.8606567382812 465.6115417480469 C 575.8002319335938 465.2054138183594 575.7459106445312 464.9002685546875 575.6945190429688 464.6786193847656 C 575.6361694335938 464.4271850585938 575.5148315429688 463.904052734375 575.0045166015625 463.904052734375 C 574.8466186523438 463.904052734375 574.468505859375 463.9682922363281 574.3692626953125 464.5631103515625 C 574.219970703125 465.4606018066406 573.0792846679688 466.1117858886719 571.656982421875 466.1117858886719 C 571.027099609375 466.1117858886719 570.0680541992188 465.9837341308594 569.0760498046875 465.3736877441406 C 568.1600341796875 464.8103942871094 567.446533203125 463.97705078125 566.955322265625 462.8968200683594 L 566.5849609375 462.0823669433594 L 566.0027465820312 462.7617492675781 C 565.3878173828125 463.4793090820312 564.5948486328125 463.8431701660156 563.6458740234375 463.8431701660156 C 562.5611572265625 463.8431701660156 561.3585205078125 463.3454895019531 560.3462524414062 462.4777526855469 C 559.2821044921875 461.5655212402344 558.5487670898438 460.3639526367188 558.2813110351562 459.0943908691406 L 558.1414794921875 458.4305114746094 L 557.5114135742188 458.6821594238281 C 557.5035400390625 458.685302734375 557.4296875 458.7127380371094 557.2488403320312 458.7127380371094 C 556.563232421875 458.7127380371094 555.3201904296875 458.3400268554688 554.2109985351562 457.5217895507812 C 553.2969970703125 456.8474731445312 552.1668701171875 455.6385192871094 551.9736938476562 453.7082214355469 C 550.8309936523438 442.2926330566406 551.426025390625 438.3460693359375 552.1263427734375 437.0455017089844 C 553.5054931640625 434.4843139648438 555.7747802734375 428.7270202636719 556.5205078125 426.8351135253906 C 556.6114501953125 426.6043395996094 556.681884765625 426.4257202148438 556.7278442382812 426.3106384277344 C 556.8652954101562 425.966796875 557.024658203125 425.1741943359375 556.82177734375 422.275146484375 C 556.7559814453125 421.3348083496094 556.6695556640625 420.4367980957031 556.6115112304688 419.8739624023438 C 564.46337890625 419.3232421875 571.3433227539062 419.2395324707031 574.7920532226562 419.2395324707031 C 576.392333984375 419.2395324707031 577.4232177734375 419.2570495605469 577.6853637695312 419.2620849609375 C 577.77734375 419.2820434570312 577.8805541992188 419.2915344238281 578.0023193359375 419.2915344238281 C 578.109130859375 419.2915344238281 578.2207641601562 419.28466796875 578.3389282226562 419.2774353027344 C 578.4658813476562 419.2696228027344 578.59716796875 419.2615661621094 578.7302856445312 419.2615661621094 C 579.1844482421875 419.2615661621094 579.47216796875 419.3605651855469 579.6922607421875 419.5925598144531 C 579.9989013671875 419.9157104492188 580.343505859375 420.6971740722656 580.2442626953125 422.5850524902344 C 580.1251220703125 424.8473815917969 581.3726806640625 426.7966918945312 582.6934814453125 428.8604736328125 C 583.959228515625 430.8382568359375 585.3939208984375 433.0799255371094 585.9163818359375 436.0033874511719 C 586.7462768554688 440.6518249511719 588.2178955078125 443.1121826171875 589.5162353515625 445.2828979492188 C 589.9608154296875 446.0261535644531 590.3807373046875 446.7282409667969 590.7597045898438 447.4861450195312 C 591.2977294921875 448.5624694824219 592.0765380859375 449.8115844726562 592.901123046875 451.1340637207031 C 594.3196411132812 453.4091186523438 595.9274291992188 455.9877014160156 595.9274291992188 457.25 C 595.9274291992188 457.7655944824219 595.6454467773438 458.1882019042969 595.0892944335938 458.5060729980469 C 594.515625 458.8339538574219 593.7130737304688 459.0145568847656 592.8296508789062 459.0145568847656 C 592.8294677734375 459.0145568847656 592.8294067382812 459.0145568847656 592.8292846679688 459.0145568847656 C 592.11865234375 459.0145263671875 591.4207153320312 458.8973693847656 590.8108520507812 458.67578125 C 589.82568359375 458.3172302246094 588.8789672851562 457.4263916015625 588.1182250976562 456.7105712890625 C 587.3726806640625 456.0090026855469 586.8800659179688 455.5455322265625 586.359130859375 455.5455322265625 C 586.1304321289062 455.5455322265625 585.586669921875 455.6410827636719 585.4758911132812 456.526123046875 C 585.3681640625 457.3873291015625 585.1138916015625 461.3295593261719 584.8447265625 465.5032653808594 C 584.5668334960938 469.8124084472656 584.2794799804688 474.2682495117188 584.170166015625 475.0321960449219 C 583.9467163085938 476.595703125 583.7284545898438 483.1107788085938 583.7284545898438 486.0060119628906 C 583.7286987304688 487.5186157226562 583.3933715820312 488.7313537597656 582.7589111328125 489.51318359375 C 582.107421875 490.31591796875 581.3087768554688 490.4844360351562 580.7535400390625 490.4844360351562 Z" stroke="none"/>
              <path d="M 574.7921752929688 419.81005859375 C 571.4368896484375 419.81005859375 564.8279418945312 419.8893737792969 557.2376708984375 420.4027099609375 C 557.287353515625 420.9209899902344 557.3438720703125 421.5634155273438 557.3909301757812 422.2353210449219 C 557.5984497070312 425.2002258300781 557.43994140625 426.0663757324219 557.2576904296875 426.5222778320312 C 557.2119140625 426.6368408203125 557.141845703125 426.8146362304688 557.05126953125 427.0443115234375 C 556.2233276367188 429.1449890136719 554.0238647460938 434.7250366210938 552.6287231445312 437.3160095214844 C 552.0862426757812 438.3233032226562 551.3536376953125 441.7850036621094 552.5413818359375 453.6513977050781 C 552.7136840820312 455.3734436035156 553.7286376953125 456.4569396972656 554.5496826171875 457.0626525878906 C 555.6233520507812 457.8546752929688 556.7520751953125 458.1421813964844 557.2488403320312 458.1421813964844 C 557.2916259765625 458.1421813964844 557.31982421875 458.1399230957031 557.335205078125 458.13818359375 L 558.5598754882812 457.6490173339844 L 558.839599609375 458.9767761230469 C 559.3729248046875 461.5083923339844 561.8006591796875 463.2726135253906 563.6459350585938 463.2726135253906 C 564.4207153320312 463.2726135253906 565.06787109375 462.975830078125 565.5695190429688 462.3904724121094 L 566.7340087890625 461.0317077636719 L 567.4746704101562 462.6606750488281 C 568.6901245117188 465.3335266113281 570.983154296875 465.5412292480469 571.656982421875 465.5412292480469 C 572.7623291015625 465.5412292480469 573.7064819335938 465.0705871582031 573.8064575195312 464.46923828125 C 573.9867553710938 463.3887023925781 574.8356323242188 463.3335876464844 575.0040893554688 463.3335266113281 C 575.0042114257812 463.3335266113281 575.0043334960938 463.3335266113281 575.0045166015625 463.3335266113281 C 575.393310546875 463.3335266113281 575.8927001953125 463.5455627441406 576.128662109375 464.1407775878906 C 576.1726684570312 464.2518005371094 576.2113037109375 464.3817138671875 576.250244140625 464.5496520996094 C 576.30517578125 464.7863159179688 576.3623046875 465.106201171875 576.4249877929688 465.5275573730469 C 576.556396484375 466.4112548828125 576.6829833984375 467.5523681640625 576.7659912109375 468.35400390625 C 576.984375 470.4633178710938 577.1620483398438 472.7134704589844 577.1620483398438 473.3699951171875 C 577.1620483398438 473.9064025878906 577.3241577148438 476.2029113769531 577.4957885742188 478.6343078613281 C 577.7237548828125 481.864501953125 577.982177734375 485.5256652832031 577.9890747070312 486.8350219726562 C 577.9990844726562 488.7367553710938 579.4318237304688 489.9138793945312 580.7535400390625 489.9138793945312 C 581.184814453125 489.9138793945312 581.8059692382812 489.7820129394531 582.31591796875 489.1536865234375 C 582.866943359375 488.4746704101562 583.1581420898438 487.3862609863281 583.157958984375 486.0060119628906 C 583.157958984375 483.0958557128906 583.3790283203125 476.5352172851562 583.6054077148438 474.951416015625 C 583.7115478515625 474.2094116210938 584.0111083984375 469.5645751953125 584.275390625 465.4664916992188 C 584.5451049804688 461.2840270996094 584.7999267578125 457.3335266113281 584.9097290039062 456.4552612304688 C 585.0860595703125 455.046630859375 586.1478271484375 454.9750366210938 586.35888671875 454.9749755859375 C 587.1062622070312 454.974853515625 587.6947631835938 455.5286254882812 588.5093383789062 456.2951049804688 C 589.23193359375 456.9750366210938 590.1312255859375 457.8212890625 591.0057373046875 458.1395263671875 C 591.5460815429688 458.3358764648438 592.1937255859375 458.4440307617188 592.8292236328125 458.4440307617188 C 593.603759765625 458.4440307617188 594.3243408203125 458.2860717773438 594.8062133789062 458.0106811523438 C 595.35693359375 457.6959228515625 595.35693359375 457.3719482421875 595.35693359375 457.25 C 595.35693359375 456.1510009765625 593.65771484375 453.4258117675781 592.4169921875 451.4359741210938 C 591.5851440429688 450.1017761230469 590.7993774414062 448.8415832519531 590.2494506835938 447.7413024902344 C 589.8800659179688 447.0026245117188 589.4655151367188 446.3095397949219 589.026611328125 445.5757446289062 C 587.7030639648438 443.3629760742188 586.2029418945312 440.85498046875 585.354736328125 436.103759765625 C 584.8522338867188 433.2919616699219 583.510498046875 431.1954650878906 582.2129516601562 429.1680297851562 C 580.84130859375 427.0248107910156 579.5457153320312 425.00048828125 579.6744995117188 422.5550842285156 C 579.7739868164062 420.662841796875 579.396484375 420.1097412109375 579.2783813476562 419.9852905273438 C 579.2080688476562 419.9111633300781 579.1019287109375 419.8321228027344 578.7302856445312 419.8320922851562 C 578.6146850585938 419.8320922851562 578.4923095703125 419.839599609375 578.3739013671875 419.8468933105469 C 578.2523803710938 419.8543395996094 578.1266479492188 419.862060546875 578.0023193359375 419.862060546875 C 577.8634033203125 419.862060546875 577.7393188476562 419.8521728515625 577.6241455078125 419.8315734863281 C 577.2996215820312 419.8256530761719 576.2996826171875 419.81005859375 574.7921752929688 419.81005859375 M 574.7921752929688 418.6690063476562 C 576.6795654296875 418.6690063476562 577.7639770507812 418.6929931640625 577.7639770507812 418.6929931640625 C 577.95556640625 418.7570495605469 578.3187255859375 418.6909790039062 578.7302856445312 418.6910400390625 C 579.7244262695312 418.6910705566406 581 419.0768127441406 580.8140258789062 422.614990234375 C 580.5960083007812 426.7539978027344 585.3880004882812 429.8039855957031 586.47802734375 435.9030151367188 C 587.5670166015625 442.0029907226562 589.7449951171875 444.1809997558594 591.27001953125 447.2309875488281 C 592.7940063476562 450.2799987792969 596.4979858398438 455.072998046875 596.4979858398438 457.25 C 596.4979858398438 459.4289245605469 593.0130004882812 460.0829467773438 590.6160278320312 459.2120056152344 C 588.219970703125 458.3399658203125 586.2599487304688 454.8551025390625 586.0419921875 456.5969848632812 C 585.823974609375 458.3399963378906 584.9530029296875 473.5889892578125 584.7349853515625 475.1130065917969 C 584.5170288085938 476.6380004882812 584.2990112304688 483.1730041503906 584.2990112304688 486.0060119628906 C 584.2999877929688 493.3890991210938 576.8739624023438 491.7969360351562 576.8480224609375 486.8410034179688 C 576.8359985351562 484.5660095214844 576.02099609375 474.6780090332031 576.02099609375 473.3699951171875 C 576.0209350585938 472.0640563964844 575.1929321289062 463.0918273925781 574.9320068359375 464.6570129394531 C 574.4970092773438 467.2720336914062 568.614990234375 467.9249267578125 566.4359741210938 463.1329956054688 C 563.822998046875 466.1820373535156 558.594970703125 463.3509521484375 557.7230224609375 459.2120056152344 C 556.6338500976562 459.6472778320312 551.842041015625 458.1218872070312 551.406005859375 453.7650146484375 C 550.969970703125 449.4089965820312 550.0989990234375 439.6069946289062 551.6240234375 436.7749938964844 C 553.1489868164062 433.9429931640625 555.7630004882812 427.18798828125 556.197998046875 426.0989990234375 C 556.6329956054688 425.010986328125 555.9810180664062 419.3469848632812 555.9810180664062 419.3469848632812 C 563.9774169921875 418.765625 571.00341796875 418.6690063476562 574.7921752929688 418.6690063476562 Z" stroke="none" fill="#232424"/>
            </g>
          </g>
        </g>
        <g id="グループ_599" data-name="グループ 599">
          <path id="パス_565" data-name="パス 565" d="M695.524,520.163l10.931,7.47a1.193,1.193,0,0,0,1.867-.985V511.707a1.194,1.194,0,0,0-1.867-.986l-10.931,7.471A1.193,1.193,0,0,0,695.524,520.163Z" fill="#8e8e8f"/>
          <path id="パス_566" data-name="パス 566" d="M675.043,520.163l10.931,7.47a1.193,1.193,0,0,0,1.867-.985V511.707a1.194,1.194,0,0,0-1.867-.986l-10.931,7.471A1.193,1.193,0,0,0,675.043,520.163Z" fill="#767676"/>
          <path id="パス_567" data-name="パス 567" d="M654.561,520.163l10.932,7.47a1.193,1.193,0,0,0,1.867-.985V511.707a1.194,1.194,0,0,0-1.867-.986l-10.932,7.471A1.194,1.194,0,0,0,654.561,520.163Z" fill="#5f5e5e"/>
        </g>
        <text id="_2._手の正面へスライド_" data-name="2. 手の正面へスライド
" transform="translate(169.697 424.115)" font-size="18" font-family="Helvetica"><tspan x="0" y="16">2. </tspan><tspan y="16" font-family="HiraginoSans-W3, Hiragino Sans">手の正面へスライド</tspan><tspan y="16"></tspan><tspan font-family="HiraginoSans-W5-83pv-RKSJ-H"><tspan x="0" y="47.5"></tspan></tspan></text>
        <g id="グループ_600" data-name="グループ 600">
          <rect id="長方形_389" data-name="長方形 389" width="33.613" height="33.613" rx="5.062" transform="translate(961.544 555.354)" fill="#fdfdfd" stroke="#232424" stroke-linecap="round" stroke-miterlimit="10" stroke-width="2.564"/>
          <rect id="長方形_390" data-name="長方形 390" width="8.748" height="16.35" transform="translate(973.976 588.967)" fill="#232424"/>
          <rect id="長方形_391" data-name="長方形 391" width="33.613" height="41.749" rx="5.062" transform="translate(961.544 605.317)" fill="#fdfdfd" stroke="#232424" stroke-linecap="round" stroke-miterlimit="10" stroke-width="2.564"/>
        </g>
      </g>
      <g id="グループ_608" data-name="グループ 608">
        <rect id="長方形_392" data-name="長方形 392" width="795.532" height="5.814" transform="translate(187.192 845.686)" fill="#232424"/>
        <g id="グループ_602" data-name="グループ 602">
          <path id="パス_568" data-name="パス 568" d="M517.467,774.025,510,784.956a1.194,1.194,0,0,0,.986,1.867h14.94a1.194,1.194,0,0,0,.986-1.867l-7.471-10.931A1.193,1.193,0,0,0,517.467,774.025Z" fill="#8e8e8f"/>
          <path id="パス_569" data-name="パス 569" d="M517.467,753.544,510,764.475a1.194,1.194,0,0,0,.985,1.867h14.941a1.194,1.194,0,0,0,.986-1.867l-7.471-10.931A1.193,1.193,0,0,0,517.467,753.544Z" fill="#767676"/>
          <path id="パス_570" data-name="パス 570" d="M517.467,733.062,510,743.994a1.193,1.193,0,0,0,.985,1.867h14.941a1.194,1.194,0,0,0,.986-1.867l-7.471-10.932A1.194,1.194,0,0,0,517.467,733.062Z" fill="#5f5e5e"/>
        </g>
        <g id="グループ_604" data-name="グループ 604">
          <g id="グループ_603" data-name="グループ 603">
            <g id="パス_571" data-name="パス 571" fill="#fff" stroke-miterlimit="10">
              <path d="M 580.7535400390625 758.2244262695312 C 579.941162109375 758.2244262695312 579.1165771484375 757.8662719726562 578.4910888671875 757.2417602539062 C 577.8048706054688 756.5565185546875 577.4239501953125 755.6105346679688 577.4185791015625 754.5780029296875 C 577.4117431640625 753.2870483398438 577.1539306640625 749.6350708007812 576.926513671875 746.4129638671875 C 576.7542724609375 743.9722900390625 576.591552734375 741.6669311523438 576.591552734375 741.1110229492188 C 576.591552734375 740.4812622070312 576.4115600585938 738.2107543945312 576.198486328125 736.1529541015625 C 576.080322265625 735.0115966796875 575.9635009765625 734.0429077148438 575.8606567382812 733.3515625 C 575.8002319335938 732.9454345703125 575.7459106445312 732.6402587890625 575.6944580078125 732.4185791015625 C 575.6361694335938 732.1671752929688 575.5148315429688 731.64404296875 575.0045166015625 731.64404296875 C 574.8465576171875 731.64404296875 574.468505859375 731.708251953125 574.3692626953125 732.3030395507812 C 574.2199096679688 733.2008056640625 573.0791015625 733.8521118164062 571.6565551757812 733.8521118164062 C 571.0267333984375 733.8521118164062 570.0678100585938 733.7240600585938 569.0758666992188 733.1139526367188 C 568.1599731445312 732.5505981445312 567.4464721679688 731.7172241210938 566.955322265625 730.6368408203125 L 566.5850219726562 729.822265625 L 566.0027465820312 730.501708984375 C 565.3878173828125 731.2192993164062 564.5948486328125 731.5831298828125 563.6458740234375 731.5831298828125 C 562.5611572265625 731.5831298828125 561.3585205078125 731.0855102539062 560.3462524414062 730.2177734375 C 559.2821044921875 729.3054809570312 558.5487670898438 728.1039428710938 558.2813110351562 726.8344116210938 L 558.1414184570312 726.1705322265625 L 557.5114135742188 726.4221801757812 C 557.5035400390625 726.42529296875 557.4296875 726.4527587890625 557.2488403320312 726.4527587890625 C 556.563232421875 726.4527587890625 555.3201904296875 726.080078125 554.2109985351562 725.2617797851562 C 553.2969970703125 724.5874633789062 552.1668701171875 723.3784790039062 551.9736938476562 721.4481811523438 C 550.8309936523438 710.0326538085938 551.426025390625 706.0860595703125 552.1263427734375 704.7855224609375 C 553.5023193359375 702.230224609375 555.691162109375 696.67919921875 556.51513671875 694.5894775390625 C 556.608642578125 694.352294921875 556.680908203125 694.1690063476562 556.727783203125 694.0518188476562 C 556.8653564453125 693.7073974609375 557.024658203125 692.9144897460938 556.82177734375 690.0152587890625 C 556.7559814453125 689.0748901367188 556.6695556640625 688.1768188476562 556.6115112304688 687.6139526367188 C 564.46337890625 687.063232421875 571.3433227539062 686.9795532226562 574.7920532226562 686.9795532226562 C 576.392333984375 686.9795532226562 577.4232177734375 686.9970703125 577.6853637695312 687.0020751953125 C 577.77734375 687.0220336914062 577.8805541992188 687.031494140625 578.0023193359375 687.031494140625 C 578.109130859375 687.031494140625 578.2207641601562 687.024658203125 578.3389282226562 687.0173950195312 C 578.4658813476562 687.0096435546875 578.59716796875 687.0015869140625 578.7302856445312 687.0015869140625 C 579.1844482421875 687.0015869140625 579.47216796875 687.1005249023438 579.6922607421875 687.33251953125 C 579.9989013671875 687.6557006835938 580.343505859375 688.4371337890625 580.2442626953125 690.3250122070312 C 580.1251220703125 692.58740234375 581.3726806640625 694.5367431640625 582.6934814453125 696.6005249023438 C 583.9592895507812 698.5783081054688 585.3939208984375 700.8199462890625 585.9163818359375 703.743408203125 C 586.7462768554688 708.391845703125 588.2178955078125 710.8521728515625 589.5162353515625 713.02294921875 C 589.9608154296875 713.7661743164062 590.3807373046875 714.46826171875 590.7597045898438 715.2261962890625 C 591.2977294921875 716.302490234375 592.0765380859375 717.5516357421875 592.901123046875 718.8740844726562 C 594.3196411132812 721.1491088867188 595.9274291992188 723.7277221679688 595.9274291992188 724.989990234375 C 595.9274291992188 725.505615234375 595.6454467773438 725.92822265625 595.0892944335938 726.24609375 C 594.5155639648438 726.573974609375 593.7130126953125 726.7545776367188 592.8295288085938 726.7545776367188 C 592.8294677734375 726.7545776367188 592.829345703125 726.7545776367188 592.8292236328125 726.7545776367188 C 592.11865234375 726.7545166015625 591.4207153320312 726.6373901367188 590.8108520507812 726.415771484375 C 589.82568359375 726.0572509765625 588.8789672851562 725.1663818359375 588.1182250976562 724.4505615234375 C 587.3726806640625 723.7489624023438 586.880126953125 723.2855224609375 586.359130859375 723.2855224609375 C 586.1304321289062 723.2855224609375 585.586669921875 723.3810424804688 585.4758911132812 724.26611328125 C 585.3681030273438 725.12744140625 585.1138305664062 729.0704956054688 584.8446044921875 733.2450561523438 C 584.5667724609375 737.5535888671875 584.2794799804688 742.0088500976562 584.170166015625 742.7732543945312 C 583.9467163085938 744.3356323242188 583.7284545898438 750.8504028320312 583.7284545898438 753.7459716796875 C 583.7286987304688 755.2586059570312 583.3933715820312 756.4713745117188 582.7589111328125 757.253173828125 C 582.107421875 758.055908203125 581.3087768554688 758.2244262695312 580.7535400390625 758.2244262695312 Z" stroke="none"/>
              <path d="M 574.7921752929688 687.550048828125 C 571.4368896484375 687.550048828125 564.8279418945312 687.6293334960938 557.2376708984375 688.1427001953125 C 557.287353515625 688.6610107421875 557.3438720703125 689.303466796875 557.3909301757812 689.9754638671875 C 557.598388671875 692.9404296875 557.4400024414062 693.8068237304688 557.2575073242188 694.263671875 C 557.2108764648438 694.3803100585938 557.1389770507812 694.5626831054688 557.0458984375 694.7987670898438 C 556.218505859375 696.8970947265625 554.0206909179688 702.4708862304688 552.628662109375 705.0560302734375 C 552.0862426757812 706.0633544921875 551.3536376953125 709.5250244140625 552.5413818359375 721.3914184570312 C 552.7136840820312 723.1134643554688 553.7286376953125 724.1969604492188 554.5496826171875 724.8026733398438 C 555.6233520507812 725.5947265625 556.7520751953125 725.8822021484375 557.2488403320312 725.8822021484375 C 557.2916259765625 725.8822021484375 557.31982421875 725.8799438476562 557.335205078125 725.8782348632812 L 558.5598754882812 725.3890380859375 L 558.839599609375 726.716796875 C 559.3729248046875 729.2484130859375 561.8006591796875 731.0126342773438 563.6459350585938 731.0126342773438 C 564.4207153320312 731.0126342773438 565.06787109375 730.7158203125 565.5695190429688 730.1304931640625 L 566.7340698242188 728.7716064453125 L 567.4747314453125 730.4007568359375 C 568.6900024414062 733.0738525390625 570.9827880859375 733.2816162109375 571.6565551757812 733.2816162109375 C 572.7620849609375 733.2816162109375 573.7064208984375 732.810791015625 573.8065185546875 732.2091674804688 C 573.9868774414062 731.1282348632812 574.8361206054688 731.073486328125 575.0042724609375 731.073486328125 C 575.3931274414062 731.0734252929688 575.8927001953125 731.2854614257812 576.128662109375 731.8807983398438 C 576.1726684570312 731.9918212890625 576.2113037109375 732.1217041015625 576.250244140625 732.2896118164062 C 576.30517578125 732.5263061523438 576.3623046875 732.84619140625 576.4249877929688 733.267578125 C 576.5564575195312 734.1513671875 576.6829833984375 735.2925415039062 576.7659912109375 736.0941772460938 C 576.984375 738.20361328125 577.1620483398438 740.4541625976562 577.1620483398438 741.1110229492188 C 577.1620483398438 741.6468505859375 577.3240966796875 743.9424438476562 577.4956665039062 746.3728637695312 C 577.7236938476562 749.6036376953125 577.982177734375 753.2654418945312 577.9890747070312 754.5750122070312 C 577.9990844726562 756.4767456054688 579.4318237304688 757.6538696289062 580.7535400390625 757.6538696289062 C 581.184814453125 757.6538696289062 581.8059692382812 757.5220336914062 582.3158569335938 756.8936767578125 C 582.866943359375 756.2146606445312 583.1581420898438 755.126220703125 583.157958984375 753.7459716796875 C 583.157958984375 750.83544921875 583.3790283203125 744.2750854492188 583.6054077148438 742.6925048828125 C 583.7115478515625 741.9500122070312 584.0110473632812 737.3058471679688 584.2752685546875 733.2083129882812 C 584.5450439453125 729.0249633789062 584.7998657226562 725.0736694335938 584.9097290039062 724.1952514648438 C 585.0860595703125 722.78662109375 586.1478271484375 722.7150268554688 586.35888671875 722.7149658203125 C 587.1062622070312 722.71484375 587.6947631835938 723.2686157226562 588.5093383789062 724.0350952148438 C 589.23193359375 724.715087890625 590.1312255859375 725.561279296875 591.0057373046875 725.8795776367188 C 591.5460815429688 726.075927734375 592.1936645507812 726.1840209960938 592.8292236328125 726.1840209960938 C 593.603759765625 726.1840209960938 594.3243408203125 726.0260620117188 594.8062133789062 725.7506713867188 C 595.35693359375 725.4359130859375 595.35693359375 725.1119384765625 595.35693359375 724.989990234375 C 595.35693359375 723.8909912109375 593.65771484375 721.1658325195312 592.4170532226562 719.176025390625 C 591.5851440429688 717.841796875 590.7993774414062 716.5816040039062 590.2494506835938 715.4813232421875 C 589.8800659179688 714.7426147460938 589.4655151367188 714.049560546875 589.026611328125 713.3157958984375 C 587.7030639648438 711.1029663085938 586.2029418945312 708.594970703125 585.354736328125 703.84375 C 584.8522338867188 701.031982421875 583.510498046875 698.9354858398438 582.2129516601562 696.9080810546875 C 580.84130859375 694.7648315429688 579.5457153320312 692.740478515625 579.6744995117188 690.2951049804688 C 579.7739868164062 688.40283203125 579.396484375 687.8497314453125 579.2783813476562 687.7252807617188 C 579.2080688476562 687.6511840820312 579.1019287109375 687.5720825195312 578.7302856445312 687.5720825195312 C 578.6146850585938 687.5720825195312 578.4923095703125 687.57958984375 578.3739013671875 687.5868530273438 C 578.2523803710938 687.5943603515625 578.1266479492188 687.60205078125 578.0023193359375 687.60205078125 C 577.8634033203125 687.60205078125 577.7393188476562 687.5921630859375 577.6241455078125 687.571533203125 C 577.2996215820312 687.565673828125 576.2996826171875 687.550048828125 574.7921752929688 687.550048828125 M 574.7921752929688 686.4089965820312 C 576.6795654296875 686.4089965820312 577.7639770507812 686.4329833984375 577.7639770507812 686.4329833984375 C 577.95556640625 686.4970092773438 578.3187255859375 686.4310302734375 578.7302856445312 686.4310302734375 C 579.7244262695312 686.4310302734375 581 686.8167724609375 580.8140258789062 690.35498046875 C 580.5960083007812 694.4940185546875 585.3880004882812 697.5440063476562 586.47802734375 703.6430053710938 C 587.5670166015625 709.7429809570312 589.7449951171875 711.9210205078125 591.27001953125 714.9710083007812 C 592.7940063476562 718.02001953125 596.4979858398438 722.81298828125 596.4979858398438 724.989990234375 C 596.4979248046875 727.1690673828125 593.0128784179688 727.8228759765625 590.6160278320312 726.9520263671875 C 588.219970703125 726.0800170898438 586.2599487304688 722.5950317382812 586.0419921875 724.3369750976562 C 585.823974609375 726.0800170898438 584.9530029296875 741.3289794921875 584.7349853515625 742.85400390625 C 584.5170288085938 744.3779907226562 584.2990112304688 750.9130249023438 584.2990112304688 753.7459716796875 C 584.2999877929688 761.1292114257812 576.8739624023438 759.5369873046875 576.8480224609375 754.5809936523438 C 576.8359985351562 752.3060302734375 576.02099609375 742.4180297851562 576.02099609375 741.1110229492188 C 576.02099609375 739.8040771484375 575.1934204101562 730.8313598632812 574.9320068359375 732.39697265625 C 574.4970092773438 735.0120849609375 568.6150512695312 735.666015625 566.4359741210938 730.8729858398438 C 563.8228759765625 733.922119140625 558.594970703125 731.0909423828125 557.7230224609375 726.9520263671875 C 556.6342163085938 727.3870239257812 551.8419799804688 725.8619995117188 551.406005859375 721.5050048828125 C 550.969970703125 717.1489868164062 550.0989990234375 707.3469848632812 551.6240234375 704.5150146484375 C 553.1489868164062 701.6829833984375 555.7630004882812 694.927978515625 556.197998046875 693.8400268554688 C 556.6329956054688 692.7509765625 555.9810180664062 687.0869750976562 555.9810180664062 687.0869750976562 C 563.9774169921875 686.505615234375 571.00341796875 686.4089965820312 574.7921752929688 686.4089965820312 Z" stroke="none" fill="#232424"/>
            </g>
          </g>
        </g>
        <path id="パス_572" data-name="パス 572" d="M550.422,799.977" fill="#ebebeb" stroke="#5f5e5e" stroke-linecap="round" stroke-miterlimit="10" stroke-width="2.764"/>
        <rect id="長方形_393" data-name="長方形 393" width="122.589" height="11.078" transform="translate(517.164 829.368)" fill="#ebebeb"/>
        <text id="_3._前の物を押し出す_" data-name="3. 前の物を押し出す
" transform="translate(169.697 686.806)" font-size="18" font-family="Helvetica"><tspan x="0" y="16">3. </tspan><tspan y="16" font-family="HiraginoSans-W3, Hiragino Sans">前の物を押し出す</tspan><tspan y="16"></tspan><tspan font-family="HiraginoSans-W5-83pv-RKSJ-H"><tspan x="0" y="47.5"></tspan></tspan></text>
        <rect id="長方形_394" data-name="長方形 394" width="33.613" height="33.613" rx="5.062" transform="translate(170.581 832.241)" fill="#fdfdfd" stroke="#232424" stroke-linecap="round" stroke-miterlimit="10" stroke-width="2.564"/>
        <path id="パス_573" data-name="パス 573" d="M644.644,803.98v81.361H511.675V803.98" fill="#ebebeb" stroke="#232424" stroke-miterlimit="10" stroke-width="2.764"/>
        <g id="グループ_606" data-name="グループ 606">
          <g id="グループ_605" data-name="グループ 605">
            <path id="パス_574" data-name="パス 574" d="M516.566,805.947c33.946.217,45.029-24.363,61.593-24.363,15.375,0,27.018,24.363,61.594,24.363a3,3,0,0,1,2.944,3.026V823a3.372,3.372,0,0,1-3.372,3.372H516.994A3.372,3.372,0,0,1,513.622,823v-14.03A2.991,2.991,0,0,1,516.566,805.947Z" fill="#fdfdfd" stroke="#232424" stroke-linecap="round" stroke-miterlimit="10" stroke-width="2.764"/>
          </g>
        </g>
        <g id="グループ_607" data-name="グループ 607">
          <rect id="長方形_395" data-name="長方形 395" width="33.613" height="33.613" rx="5.062" transform="translate(961.544 832.241)" fill="#fdfdfd" stroke="#232424" stroke-linecap="round" stroke-miterlimit="10" stroke-width="2.564"/>
          <rect id="長方形_396" data-name="長方形 396" width="8.748" height="16.35" transform="translate(973.976 865.854)" fill="#232424"/>
          <rect id="長方形_397" data-name="長方形 397" width="33.613" height="41.749" rx="5.062" transform="translate(961.544 882.204)" fill="#fdfdfd" stroke="#232424" stroke-linecap="round" stroke-miterlimit="10" stroke-width="2.564"/>
        </g>
      </g>
      <g id="グループ_614" data-name="グループ 614">
        <rect id="長方形_398" data-name="長方形 398" width="795.532" height="5.814" transform="translate(187.192 291.648)" fill="#232424"/>
        <g id="グループ_610" data-name="グループ 610">
          <g id="グループ_609" data-name="グループ 609">
            <g id="パス_575" data-name="パス 575" fill="#fff" stroke-miterlimit="10">
              <path d="M 580.7537231445312 201.0308074951172 C 579.94140625 201.0308074951172 579.1167602539062 200.6725769042969 578.4912109375 200.0479431152344 C 577.804931640625 199.3626251220703 577.4239501953125 198.4165496826172 577.4185791015625 197.3840026855469 C 577.4117431640625 196.0930328369141 577.1539306640625 192.4409942626953 576.926513671875 189.2188873291016 C 576.7542724609375 186.7782287597656 576.591552734375 184.4729156494141 576.591552734375 183.9170074462891 C 576.591552734375 183.2875671386719 576.4115600585938 181.0174102783203 576.198486328125 178.959716796875 C 576.080322265625 177.8183441162109 575.9635009765625 176.8496551513672 575.8607177734375 176.1583862304688 C 575.80029296875 175.7522430419922 575.7459716796875 175.4470672607422 575.6945190429688 175.2254180908203 C 575.63623046875 174.9739837646484 575.514892578125 174.4508361816406 575.0045776367188 174.4508361816406 C 574.8466186523438 174.4508361816406 574.468505859375 174.5150909423828 574.3692626953125 175.1101379394531 C 574.219970703125 176.0072631835938 573.0792846679688 176.6582641601562 571.656982421875 176.6582641601562 C 571.027099609375 176.6582641601562 570.0679931640625 176.5302276611328 569.0760498046875 175.9201507568359 C 568.1600341796875 175.3567962646484 567.446533203125 174.5233154296875 566.955322265625 173.4428863525391 L 566.5849609375 172.6281433105469 L 566.002685546875 173.3078155517578 C 565.3876953125 174.025634765625 564.5947265625 174.3896026611328 563.6458129882812 174.3896026611328 C 562.5612182617188 174.3896026611328 561.3585815429688 173.8918151855469 560.3463134765625 173.0239105224609 C 559.2821044921875 172.1114959716797 558.5487670898438 170.9098663330078 558.2813110351562 169.6403961181641 L 558.141357421875 168.9759674072266 L 557.510986328125 169.2283325195312 C 557.5031127929688 169.2314758300781 557.4290771484375 169.2590179443359 557.2477416992188 169.2590179443359 C 556.5621337890625 169.2590179443359 555.3191528320312 168.8863525390625 554.2102661132812 168.0681457519531 C 553.2965698242188 167.3939666748047 552.1668090820312 166.1851959228516 551.9736938476562 164.2551879882812 C 550.8309326171875 152.8389434814453 551.4259643554688 148.8921661376953 552.1263427734375 147.5915069580078 C 553.505615234375 145.0310363769531 555.7749633789062 139.2735137939453 556.520751953125 137.3815460205078 C 556.611572265625 137.1510467529297 556.681884765625 136.9726257324219 556.7278442382812 136.8576354980469 C 556.8653564453125 136.5134124755859 557.024658203125 135.7205352783203 556.82177734375 132.8217926025391 C 556.7559814453125 131.8815307617188 556.6695556640625 130.9836730957031 556.6115112304688 130.4209136962891 C 564.4659423828125 129.8693237304688 571.3466186523438 129.7855682373047 574.796142578125 129.7855682373047 C 576.39404296875 129.7855682373047 577.4234008789062 129.8030700683594 577.6853637695312 129.8080749511719 C 577.7774658203125 129.8280639648438 577.8807983398438 129.8375549316406 578.002685546875 129.8375549316406 C 578.1093139648438 129.8375549316406 578.220703125 129.8307342529297 578.3386840820312 129.8235168457031 C 578.4653930664062 129.8157653808594 578.5964965820312 129.8077545166016 578.7294311523438 129.8077545166016 C 579.1839599609375 129.8077545166016 579.471923828125 129.9068145751953 579.6921997070312 130.1389923095703 C 579.9988403320312 130.462158203125 580.343505859375 131.2435913085938 580.2442626953125 133.1310424804688 C 580.1251220703125 135.3933868408203 581.3726806640625 137.3429870605469 582.6935424804688 139.4070587158203 C 583.9592895507812 141.3850555419922 585.3939208984375 143.626953125 585.9163818359375 146.5503845214844 C 586.7462158203125 151.1979064941406 588.2177734375 153.6580963134766 589.51611328125 155.8286590576172 C 589.9607543945312 156.5720062255859 590.3806762695312 157.2741394042969 590.7597045898438 158.0321502685547 C 591.297607421875 159.1082763671875 592.0762939453125 160.3571472167969 592.900634765625 161.6793670654297 C 594.3193969726562 163.954833984375 595.9274291992188 166.5339050292969 595.9274291992188 167.7969970703125 C 595.9274291992188 168.312255859375 595.6455078125 168.7346649169922 595.0894775390625 169.0525054931641 C 594.5157470703125 169.3804168701172 593.7133178710938 169.56103515625 592.8301391601562 169.56103515625 C 592.8300170898438 169.56103515625 592.8299560546875 169.56103515625 592.8297729492188 169.56103515625 C 592.1189575195312 169.5609741210938 591.4208984375 169.4436950683594 590.8110961914062 169.2218475341797 C 589.8256225585938 168.8636016845703 588.8788452148438 167.9727630615234 588.1181640625 167.2569580078125 C 587.3726806640625 166.5555267333984 586.8802490234375 166.0921478271484 586.3592529296875 166.0921478271484 C 586.1305541992188 166.0921478271484 585.5866088867188 166.187744140625 585.4758911132812 167.0731964111328 C 585.3681030273438 167.9344635009766 585.1138305664062 171.8772735595703 584.8446044921875 176.0516052246094 C 584.5667724609375 180.3598937988281 584.2794799804688 184.8148651123047 584.170166015625 185.5792541503906 C 583.9467163085938 187.1416473388672 583.7284545898438 193.6564178466797 583.7284545898438 196.552001953125 C 583.7286987304688 198.0648498535156 583.3934326171875 199.2777252197266 582.7589721679688 200.0596008300781 C 582.1076049804688 200.8623046875 581.3090209960938 201.0308074951172 580.7537231445312 201.0308074951172 Z" stroke="none"/>
              <path d="M 574.796142578125 130.3561096191406 C 571.4403076171875 130.3561096191406 564.829833984375 130.4355621337891 557.2376708984375 130.9496154785156 C 557.287353515625 131.4678344726562 557.3438720703125 132.1100769042969 557.3909301757812 132.7819519042969 C 557.5984497070312 135.7464752197266 557.4400024414062 136.6128082275391 557.2576904296875 137.0692901611328 C 557.2119750976562 137.1837310791016 557.1419677734375 137.361328125 557.051513671875 137.5907440185547 C 556.2235107421875 139.6914825439453 554.0239868164062 145.2717590332031 552.6287231445312 147.8620147705078 C 552.0862426757812 148.869384765625 551.353515625 152.3312683105469 552.5413818359375 164.1983947753906 C 552.7136840820312 165.9201354980469 553.728271484375 167.0034484863281 554.5490112304688 167.6090545654297 C 555.6223754882812 168.4010162353516 556.7510375976562 168.6884765625 557.247802734375 168.6884765625 C 557.2907104492188 168.6884765625 557.3189697265625 168.6862030029297 557.3344116210938 168.6844482421875 L 558.5596923828125 168.1939697265625 L 558.839599609375 169.5227813720703 C 559.3729858398438 172.0546417236328 561.8005981445312 173.8190612792969 563.6458129882812 173.8190612792969 C 564.4205932617188 173.8190612792969 565.0677490234375 173.5221557617188 565.5693969726562 172.9366149902344 L 566.7339477539062 171.5773162841797 L 567.4747314453125 173.2067565917969 C 568.6900634765625 175.8799743652344 570.9830932617188 176.0877380371094 571.6569213867188 176.0877380371094 C 572.7623291015625 176.0877380371094 573.7064819335938 175.6172790527344 573.8064575195312 175.0163269042969 C 573.9863891601562 173.9372711181641 574.8339233398438 173.8807067871094 575.004638671875 173.8803100585938 C 575.3933715820312 173.8803100585938 575.892822265625 174.0923919677734 576.1287841796875 174.6876220703125 C 576.1727905273438 174.7986450195312 576.21142578125 174.9285736083984 576.2503662109375 175.0964965820312 C 576.3052368164062 175.3331756591797 576.3624267578125 175.653076171875 576.425048828125 176.074462890625 C 576.5565185546875 176.9581909179688 576.6830444335938 178.0993194580078 576.7660522460938 178.9009857177734 C 576.9844360351562 181.0102844238281 577.1620483398438 183.2604675292969 577.1620483398438 183.9170074462891 C 577.1620483398438 184.4528198242188 577.3240966796875 186.7484130859375 577.4956665039062 189.1788024902344 C 577.7236938476562 192.4095764160156 577.982177734375 196.0714263916016 577.9890747070312 197.3809967041016 C 577.9990844726562 199.2829742431641 579.431884765625 200.4602661132812 580.7537231445312 200.4602661132812 C 581.1849975585938 200.4602661132812 581.80615234375 200.328369140625 582.3159790039062 199.7000885009766 C 582.866943359375 199.0210571289062 583.1581420898438 197.9325103759766 583.157958984375 196.552001953125 C 583.157958984375 193.6414489746094 583.3790283203125 187.0811309814453 583.6054077148438 185.4985198974609 C 583.7115478515625 184.7560424804688 584.0110473632812 180.1121063232422 584.2752685546875 176.0148620605469 C 584.5450439453125 171.8317565917969 584.7998657226562 167.8806457519531 584.9097290039062 167.0023498535156 C 585.0859985351562 165.5931701660156 586.14794921875 165.5216217041016 586.359130859375 165.5216064453125 C 587.1063842773438 165.5215148925781 587.69482421875 166.0751800537109 588.5092163085938 166.8414764404297 C 589.2317504882812 167.5213928222656 590.1309814453125 168.3675537109375 591.006103515625 168.6856689453125 C 591.5464477539062 168.8822326660156 592.194091796875 168.9904937744141 592.8297119140625 168.9904937744141 C 594.0548706054688 168.9904937744141 595.35693359375 168.5722045898438 595.35693359375 167.7969970703125 C 595.35693359375 166.6972198486328 593.6574096679688 163.9714965820312 592.4165649414062 161.9812622070312 C 591.5848388671875 160.6473236083984 590.7992553710938 159.3873596191406 590.2494506835938 158.2873077392578 C 589.8800048828125 157.5485229492188 589.4653930664062 156.8553619384766 589.0264282226562 156.1215057373047 C 587.7030029296875 153.9088897705078 586.2029418945312 151.4010620117188 585.354736328125 146.6507568359375 C 584.8522338867188 143.8389587402344 583.510498046875 141.7422637939453 582.2129516601562 139.7145843505859 C 580.84130859375 137.5710906982422 579.5457153320312 135.5464782714844 579.6744995117188 133.10107421875 C 579.7739868164062 131.2093200683594 579.3964233398438 130.6562042236328 579.2783203125 130.5317230224609 C 579.2079467773438 130.4575042724609 579.1016235351562 130.3783111572266 578.729248046875 130.3782806396484 C 578.6138305664062 130.3782806396484 578.4916381835938 130.3857574462891 578.3734741210938 130.3929901123047 C 578.252197265625 130.4004058837891 578.126708984375 130.4080810546875 578.0026245117188 130.4080810546875 C 577.8635864257812 130.4080810546875 577.7394409179688 130.3982086181641 577.6241455078125 130.3775787353516 C 577.2999877929688 130.3716735839844 576.3014526367188 130.3561096191406 574.796142578125 130.3561096191406 M 574.796142578125 129.2150421142578 C 576.6810302734375 129.2150421142578 577.7639770507812 129.2389984130859 577.7639770507812 129.2389984130859 C 577.9552612304688 129.3030853271484 578.3181762695312 129.2371826171875 578.7293701171875 129.2372131347656 C 579.7236938476562 129.2372741699219 581.0000610351562 129.6225891113281 580.8140258789062 133.1609954833984 C 580.5960083007812 137.3000030517578 585.3880004882812 140.3509979248047 586.47802734375 146.4499969482422 C 587.5670166015625 152.5489959716797 589.7449951171875 154.7270050048828 591.27001953125 157.7769927978516 C 592.7940063476562 160.8260040283203 596.4979858398438 165.6190032958984 596.4979858398438 167.7969970703125 C 596.4979858398438 169.9749908447266 593.0128173828125 170.6300201416016 590.6160278320312 169.7579956054688 C 588.2198486328125 168.8869323730469 586.2598266601562 165.4013977050781 586.0419921875 167.1439971923828 C 585.823974609375 168.8869934082031 584.9530029296875 184.1349945068359 584.7349853515625 185.6600036621094 C 584.5170288085938 187.1840057373047 584.2990112304688 193.718994140625 584.2990112304688 196.552001953125 C 584.300048828125 203.9358367919922 576.8739624023438 202.3430786132812 576.8480224609375 197.3869934082031 C 576.8359985351562 195.1119995117188 576.02099609375 185.2239990234375 576.02099609375 183.9170074462891 C 576.0210571289062 182.6110534667969 575.1932983398438 173.6380310058594 574.9320068359375 175.2039947509766 C 574.4970703125 177.8179626464844 568.6150512695312 178.4720611572266 566.4359741210938 173.6790008544922 C 563.8228149414062 176.7289886474609 558.594970703125 173.8969879150391 557.7230224609375 169.7579956054688 C 556.6342163085938 170.1941375732422 551.8419799804688 168.6689910888672 551.406005859375 164.3119964599609 C 550.969970703125 159.9559936523438 550.0989990234375 150.1529998779297 551.6240234375 147.3209991455078 C 553.1489868164062 144.4900054931641 555.7630004882812 137.7350006103516 556.197998046875 136.64599609375 C 556.6329956054688 135.5570068359375 555.9810180664062 129.8939971923828 555.9810180664062 129.8939971923828 C 563.9803466796875 129.3117523193359 571.0084228515625 129.2150421142578 574.796142578125 129.2150421142578 Z" stroke="none" fill="#232424"/>
            </g>
          </g>
        </g>
        <path id="パス_576" data-name="パス 576" d="M587.539,205.543V221.9c0,.695.417,1.161.788.879l7.682-5.84a1.365,1.365,0,0,0,.122-1.631l-7.682-10.512C588.082,204.289,587.539,204.738,587.539,205.543Z" fill="#232424"/>
        <path id="パス_577" data-name="パス 577" d="M590.427,201.139l13.475-2.051c.573-.088,1.006.172.816.49l-3.92,6.6a1.212,1.212,0,0,1-1.33.3l-9.556-4.543C589.456,201.711,589.762,201.24,590.427,201.139Z" fill="#232424"/>
        <text id="_1._手をセンサーが感知_" data-name="1. 手をセンサーが感知
" transform="translate(169.697 130.525)" font-size="18" font-family="Helvetica"><tspan x="0" y="16">1. </tspan><tspan y="16" font-family="HiraginoSans-W3, Hiragino Sans">手をセンサーが感知</tspan><tspan y="16"></tspan><tspan font-family="HiraginoSans-W5-83pv-RKSJ-H"><tspan x="0" y="47.5"></tspan></tspan></text>
        <text id="ヘッド" transform="translate(741.767 258.942)" fill="#232424" font-size="12.351" font-family="HiraginoSans-W3, Hiragino Sans"><tspan x="0" y="11">ヘッド</tspan></text>
        <text id="タイミングベルト" transform="translate(244.901 254.953)" fill="#232424" font-size="12.351" font-family="HiraginoSans-W3, Hiragino Sans"><tspan x="0" y="11">タイミングベルト</tspan></text>
        <path id="パス_578" data-name="パス 578" d="M242.2,264.56h-13.03v26.378" fill="none" stroke="#5f5e5e" stroke-miterlimit="10" stroke-width="1.026"/>
        <rect id="長方形_399" data-name="長方形 399" width="33.613" height="33.613" rx="5.062" transform="translate(170.386 277.749)" fill="#fdfdfd" stroke="#232424" stroke-linecap="round" stroke-miterlimit="10" stroke-width="2.564"/>
        <path id="パス_579" data-name="パス 579" d="M951.211,249.488v81.361H818.241V249.488" fill="#ebebeb" stroke="#1a1311" stroke-miterlimit="10" stroke-width="2.564"/>
        <g id="グループ_612" data-name="グループ 612">
          <g id="グループ_611" data-name="グループ 611">
            <path id="パス_580" data-name="パス 580" d="M823.133,273.85c33.946.217,45.029-24.362,61.593-24.362,15.375,0,27.018,24.362,61.594,24.362a3,3,0,0,1,2.943,3.026v14.03a3.372,3.372,0,0,1-3.372,3.372H823.561a3.372,3.372,0,0,1-3.372-3.372v-14.03A2.992,2.992,0,0,1,823.133,273.85Z" fill="#fdfdfd" stroke="#232424" stroke-linecap="round" stroke-miterlimit="10" stroke-width="2.764"/>
          </g>
        </g>
        <rect id="長方形_400" data-name="長方形 400" width="17.495" height="37.548" rx="2.987" transform="translate(991.472 216.703) rotate(180)" fill="#fdfdfd" stroke="#232424" stroke-linecap="round" stroke-miterlimit="10" stroke-width="2.764"/>
        <line id="線_27" data-name="線 27" x1="350.142" transform="translate(623.834 197.929)" fill="none" stroke="#232424" stroke-linecap="round" stroke-miterlimit="10" stroke-width="2.764" stroke-dasharray="12.307"/>
        <g id="グループ_613" data-name="グループ 613">
          <rect id="長方形_401" data-name="長方形 401" width="33.613" height="33.613" rx="5.062" transform="translate(961.544 277.749)" fill="#fdfdfd" stroke="#232424" stroke-linecap="round" stroke-miterlimit="10" stroke-width="2.564"/>
          <rect id="長方形_402" data-name="長方形 402" width="8.748" height="16.35" transform="translate(973.976 311.362)" fill="#232424"/>
          <rect id="長方形_403" data-name="長方形 403" width="33.613" height="41.749" rx="5.062" transform="translate(961.544 327.712)" fill="#fdfdfd" stroke="#232424" stroke-miterlimit="10" stroke-width="2.564"/>
        </g>
        <line id="線_28" data-name="線 28" x2="26.711" transform="translate(934.833 361.622)" fill="none" stroke="#5f5e5e" stroke-miterlimit="10" stroke-width="1.026"/>
        <text id="ステッピングモータ" transform="translate(818.241 353.982)" fill="#232424" font-size="12.351" font-family="HiraginoSans-W3, Hiragino Sans"><tspan x="0" y="11">ステッピングモータ</tspan></text>
        <line id="線_29" data-name="線 29" x2="30.299" transform="translate(787.771 265.225)" fill="none" stroke="#5f5e5e" stroke-miterlimit="10" stroke-width="1.026"/>
        <text id="距離センサ" transform="translate(931.081 159.444)" fill="#232424" font-size="12.351" font-family="HiraginoSans-W3, Hiragino Sans"><tspan x="0" y="11">距離センサ</tspan></text>
      </g>
    </g>
    <g id="グループ_625" data-name="グループ 625" transform="translate(17357.303 7850.939)">
      <path id="パス_581" data-name="パス 581" d="M493.922,1132.15v192.671a2.629,2.629,0,0,1-2.629,2.628H172.326a2.629,2.629,0,0,1-2.629-2.628V1132.15" transform="translate(0 16.993)" fill="#ebebeb" stroke="#232424" stroke-linecap="round" stroke-miterlimit="10" stroke-width="2.695"/>
      <path id="パス_585" data-name="パス 585" d="M601.032,1216.467l-22.217,15.184a2.426,2.426,0,0,1-3.795-2V1199.28a2.426,2.426,0,0,1,3.795-2l22.217,15.184A2.426,2.426,0,0,1,601.032,1216.467Z" transform="translate(-29.418 12.298)" fill="#bdbebf"/>
      <line id="線_30" data-name="線 30" y2="68.825" transform="translate(265.557 1297.463)" fill="#bdbebf" stroke="#5f5e5e" stroke-linecap="round" stroke-miterlimit="10" stroke-width="1"/>
      <path id="パス_586" data-name="パス 586" d="M977.4,1132.15v192.671a2.629,2.629,0,0,1-2.629,2.628H655.808a2.629,2.629,0,0,1-2.629-2.628V1132.15" transform="translate(-35.09 16.993)" fill="#ebebeb" stroke="#232424" stroke-linecap="round" stroke-miterlimit="10" stroke-width="2.695"/>
      <g id="グループ_617" data-name="グループ 617" transform="translate(318.946 1261.653)">
        <rect id="長方形_404" data-name="長方形 404" width="25.727" height="81.081" transform="translate(0 0)" fill="#767676"/>
        <rect id="長方形_405" data-name="長方形 405" width="25.727" height="10.752" transform="translate(0 1.224)" fill="#444"/>
        <rect id="長方形_406" data-name="長方形 406" width="25.727" height="10.752" transform="translate(0 22.727)" fill="#444"/>
        <rect id="長方形_407" data-name="長方形 407" width="25.727" height="10.752" transform="translate(0 44.231)" fill="#444"/>
        <rect id="長方形_408" data-name="長方形 408" width="25.727" height="10.752" transform="translate(0 65.735)" fill="#444"/>
      </g>
      <g id="グループ_618" data-name="グループ 618" transform="translate(258.904 1266.832)">
        <rect id="長方形_409" data-name="長方形 409" width="48.666" height="8.602" transform="translate(15.845 11.657)" fill="#5f5e5e"/>
        <rect id="長方形_410" data-name="長方形 410" width="10.752" height="31.916" transform="translate(60.062 0)" fill="#232424"/>
        <rect id="長方形_411" data-name="長方形 411" width="48.666" height="31.916" transform="translate(0 0)" fill="#232424"/>
      </g>
      <rect id="長方形_412" data-name="長方形 412" width="11.68" height="111.907" transform="translate(476.4 1212.299)" fill="#ebebeb" stroke="#232424" stroke-linecap="round" stroke-miterlimit="10" stroke-width="2.695"/>
      <rect id="長方形_413" data-name="長方形 413" width="11.68" height="111.907" transform="translate(175.537 1212.164)" fill="#ebebeb" stroke="#232424" stroke-linecap="round" stroke-miterlimit="10" stroke-width="2.695"/>
      <rect id="長方形_414" data-name="長方形 414" width="11.68" height="180.587" transform="translate(482.242 1149.143)" fill="#ebebeb" stroke="#232424" stroke-linecap="round" stroke-miterlimit="10" stroke-width="2.695"/>
      <rect id="長方形_415" data-name="長方形 415" width="11.68" height="180.587" transform="translate(169.697 1149.143)" fill="#ebebeb" stroke="#232424" stroke-linecap="round" stroke-miterlimit="10" stroke-width="2.695"/>
      <rect id="長方形_416" data-name="長方形 416" width="11.68" height="111.907" transform="translate(924.793 1152.514)" fill="#ebebeb" stroke="#232424" stroke-linecap="round" stroke-miterlimit="10" stroke-width="2.695"/>
      <rect id="長方形_417" data-name="長方形 417" width="11.68" height="111.907" transform="translate(623.929 1152.379)" fill="#ebebeb" stroke="#232424" stroke-linecap="round" stroke-miterlimit="10" stroke-width="2.695"/>
      <rect id="長方形_418" data-name="長方形 418" width="11.68" height="180.587" transform="translate(930.632 1149.143)" fill="#ebebeb" stroke="#232424" stroke-linecap="round" stroke-miterlimit="10" stroke-width="2.695"/>
      <rect id="長方形_419" data-name="長方形 419" width="11.68" height="180.587" transform="translate(618.089 1149.143)" fill="#ebebeb" stroke="#232424" stroke-linecap="round" stroke-miterlimit="10" stroke-width="2.695"/>
      <g id="グループ_619" data-name="グループ 619" transform="translate(767.338 1202.753)">
        <rect id="長方形_420" data-name="長方形 420" width="25.727" height="82.79" transform="translate(0 0)" fill="#767676"/>
        <rect id="長方形_421" data-name="長方形 421" width="25.727" height="10.752" transform="translate(0 1.224)" fill="#444"/>
        <rect id="長方形_422" data-name="長方形 422" width="25.727" height="10.752" transform="translate(0 22.727)" fill="#444"/>
        <rect id="長方形_423" data-name="長方形 423" width="25.727" height="10.752" transform="translate(0 44.231)" fill="#444"/>
        <rect id="長方形_424" data-name="長方形 424" width="25.727" height="10.752" transform="translate(0 65.735)" fill="#444"/>
      </g>
      <g id="グループ_620" data-name="グループ 620" transform="translate(707.288 1266.832)">
        <rect id="長方形_425" data-name="長方形 425" width="48.666" height="8.602" transform="translate(15.845 11.657)" fill="#5f5e5e"/>
        <rect id="長方形_426" data-name="長方形 426" width="10.752" height="31.916" transform="translate(60.062 0)" fill="#232424"/>
        <rect id="長方形_427" data-name="長方形 427" width="48.666" height="31.916" transform="translate(0 0)" fill="#232424"/>
      </g>
      <text id="ヘッダー内部" transform="translate(167.697 1026.228)" font-size="18" font-family="HiraginoSans-W3, Hiragino Sans"><tspan x="0" y="16">ヘッダー内部</tspan></text>
      <text id="サーボモータ" transform="translate(268.744 1369.254)" font-size="18" font-family="HiraginoSans-W3, Hiragino Sans"><tspan x="0" y="16">サーボモータ</tspan></text>
      <text id="ラックアンドオピニオン機構による押し出し" transform="translate(649.63 1369.254)" font-size="18" font-family="HiraginoSans-W3, Hiragino Sans"><tspan x="0" y="16">ラックアンドオピニオン機構による押し出し</tspan></text>
      <g id="グループ_622" data-name="グループ 622" transform="translate(169.697 1149.143)">
        <g id="グループ_621" data-name="グループ 621" transform="translate(0 0)">
          <path id="パス_587" data-name="パス 587" d="M177.091,1193.346c85.271.545,113.111-61.2,154.718-61.2,38.621,0,67.867,61.2,154.717,61.2a7.531,7.531,0,0,1,7.4,7.6v35.242a8.471,8.471,0,0,1-8.471,8.471H178.167a8.47,8.47,0,0,1-8.47-8.471v-35.242A7.514,7.514,0,0,1,177.091,1193.346Z" transform="translate(-169.697 -1132.15)" fill="#fdfdfd" stroke="#232424" stroke-linecap="round" stroke-miterlimit="10" stroke-width="2.695"/>
        </g>
      </g>
      <g id="グループ_624" data-name="グループ 624" transform="translate(618.089 1090.243)">
        <g id="グループ_623" data-name="グループ 623" transform="translate(0 0)">
          <path id="パス_588" data-name="パス 588" d="M660.573,1129.836c85.271.545,113.11-61.2,154.718-61.2,38.621,0,67.867,61.2,154.717,61.2a7.531,7.531,0,0,1,7.4,7.6v35.242a8.471,8.471,0,0,1-8.471,8.471H661.649a8.47,8.47,0,0,1-8.47-8.471v-35.242A7.514,7.514,0,0,1,660.573,1129.836Z" transform="translate(-653.179 -1068.64)" fill="#fdfdfd" stroke="#232424" stroke-linecap="round" stroke-miterlimit="10" stroke-width="2.695"/>
        </g>
      </g>
      <g id="グループ_616" data-name="グループ 616" transform="translate(966.405 1105.271)">
        <path id="パス_582" data-name="パス 582" d="M1036.406,1181.584l-12.076,17.67a1.929,1.929,0,0,0,1.592,3.018h24.152a1.929,1.929,0,0,0,1.593-3.018l-12.076-17.67A1.929,1.929,0,0,0,1036.406,1181.584Z" transform="translate(-1023.99 -1114.528)" fill="#8e8e8f"/>
        <path id="パス_583" data-name="パス 583" d="M1036.406,1136.7l-12.076,17.671a1.929,1.929,0,0,0,1.592,3.018h24.152a1.93,1.93,0,0,0,1.593-3.018l-12.076-17.671A1.929,1.929,0,0,0,1036.406,1136.7Z" transform="translate(-1023.99 -1102.75)" fill="#767676"/>
        <path id="パス_584" data-name="パス 584" d="M1036.405,1091.813l-12.075,17.67a1.929,1.929,0,0,0,1.592,3.018h24.152a1.93,1.93,0,0,0,1.593-3.018l-12.076-17.67A1.93,1.93,0,0,0,1036.405,1091.813Z" transform="translate(-1023.99 -1090.972)" fill="#5f5e5e"/>
      </g>
    </g>
  </g>
</svg>
