<svg xmlns="http://www.w3.org/2000/svg" width="299.57" height="94.097" viewBox="0 0 299.57 94.097">
  <g id="グループ_568" data-name="グループ 568" transform="translate(-19150.18 -208.269)">
    <g id="グループ_556" data-name="グループ 556" transform="translate(19150.18 208.269)">
      <g id="グループ_554" data-name="グループ 554">
        <path id="パス_91" data-name="パス 91" d="M119.011,680.62c-1.713,0-3.451-.028-5.228-.089a2.381,2.381,0,0,1,.16-4.759c43.711,1.459,65.873-15.625,87.3-32.155,17.435-13.448,33.9-26.15,60.021-26.15a2.381,2.381,0,1,1,0,4.763c-24.5,0-39.611,11.658-57.113,25.157C183.911,663,161.065,680.62,119.011,680.62Z" transform="translate(-111.482 -617.467)" fill="#242424"/>
      </g>
      <g id="グループ_555" data-name="グループ 555" transform="translate(147.404)">
        <path id="パス_92" data-name="パス 92" d="M447.861,680.62c-42.822,0-65.553-17.707-85.7-33.4-17.214-13.409-32.081-24.989-56.469-24.989a2.381,2.381,0,1,1,0-4.763c26.023,0,42.233,12.627,59.395,26,21.322,16.609,43.355,33.788,87.932,32.31a2.381,2.381,0,0,1,.157,4.759Q450.468,680.622,447.861,680.62Z" transform="translate(-303.31 -617.467)" fill="#242424"/>
      </g>
    </g>
    <path id="パス_93" data-name="パス 93" d="M112.641,718.752a1.051,1.051,0,0,1,1.051-1.052h5.474c3.621,0,6.216,2.381,6.216,5.669a6.118,6.118,0,0,1-6.454,6.073h-1.473a1.051,1.051,0,0,0-1.051,1.052v2.827a1.052,1.052,0,0,1-1.051,1.052h-1.661a1.051,1.051,0,0,1-1.051-1.052Zm6.43,7.355a2.483,2.483,0,0,0,2.5-2.5,2.439,2.439,0,0,0-2.5-2.548h-1.616a1.051,1.051,0,0,0-1.051,1.051v2.947a1.051,1.051,0,0,0,1.051,1.051Z" transform="translate(19038.428 -432.411)" fill="#242424"/>
    <path id="パス_94" data-name="パス 94" d="M147.205,725.959A8.779,8.779,0,0,1,159.8,718.1a7.817,7.817,0,0,1,4.106,4.211,8.743,8.743,0,1,1-16.7,3.646Zm13.6,0a4.886,4.886,0,1,0-4.883,5.073A4.913,4.913,0,0,0,160.8,725.959Z" transform="translate(19030.422 -432.31)" fill="#242424"/>
    <path id="パス_95" data-name="パス 95" d="M189.268,718.752a1.051,1.051,0,0,1,1.051-1.052h5.474c3.62,0,6.217,2.381,6.217,5.669a6.12,6.12,0,0,1-6.455,6.073h-1.474a1.052,1.052,0,0,0-1.051,1.052v2.827a1.052,1.052,0,0,1-1.051,1.052h-1.66a1.051,1.051,0,0,1-1.051-1.052Zm6.43,7.355a2.484,2.484,0,0,0,2.5-2.5,2.44,2.44,0,0,0-2.5-2.548h-1.617a1.052,1.052,0,0,0-1.051,1.051v2.947a1.052,1.052,0,0,0,1.051,1.051Z" transform="translate(19020.684 -432.411)" fill="#242424"/>
    <path id="パス_96" data-name="パス 96" d="M246.806,727.227v-8.475l1.052-1.052h1.66l1.052,1.052v8.26c0,3.239,1.738,4.264,3.5,4.264s3.5-1.025,3.5-4.264v-8.26l1.052-1.052h1.66l1.052,1.052v8.475c0,5.407-3.014,7.55-7.265,7.55C249.844,734.777,246.806,732.633,246.806,727.227Z" transform="translate(19007.357 -432.411)" fill="#242424"/>
    <path id="パス_97" data-name="パス 97" d="M286.5,718.752a1.051,1.051,0,0,1,1.051-1.052h5.475c3.619,0,6.216,2.381,6.216,5.669a6.12,6.12,0,0,1-6.455,6.073h-1.474a1.052,1.052,0,0,0-1.051,1.052v2.827a1.051,1.051,0,0,1-1.051,1.052h-1.66a1.051,1.051,0,0,1-1.051-1.052Zm6.43,7.355a2.484,2.484,0,0,0,2.5-2.5,2.44,2.44,0,0,0-2.5-2.548h-1.617a1.052,1.052,0,0,0-1.051,1.051v2.947a1.052,1.052,0,0,0,1.051,1.051Z" transform="translate(18998.164 -432.411)" fill="#242424"/>
    <path id="パス_98" data-name="パス 98" d="M343.336,732.689v-1.512a1.045,1.045,0,0,1,1.458-.968,8.286,8.286,0,0,0,3.473.743c1.262,0,3.024-.38,3.024-1.477,0-2.358-8.121-1.239-8.121-6.811,0-3.1,2.5-5.335,6.287-5.335a12.14,12.14,0,0,1,3.927.686,1.056,1.056,0,0,1,.695.994v1.437a1.056,1.056,0,0,1-1.453.971,7.977,7.977,0,0,0-2.763-.562c-1.763,0-2.954.644-2.954,1.525,0,2.334,8.289,1.143,8.289,6.788,0,3.12-2.525,5.407-6.336,5.407a12.115,12.115,0,0,1-4.891-.916A1.046,1.046,0,0,1,343.336,732.689Z" transform="translate(18985.041 -432.325)" fill="#242424"/>
    <path id="パス_99" data-name="パス 99" d="M379.329,717.7h1.66a1.051,1.051,0,0,1,1.051,1.052v4.328a1.052,1.052,0,0,0,1.051,1.051h4.138a1.052,1.052,0,0,0,1.051-1.051v-4.328a1.051,1.051,0,0,1,1.051-1.052h1.661a1.051,1.051,0,0,1,1.051,1.052V733.32a1.051,1.051,0,0,1-1.051,1.052h-1.661a1.051,1.051,0,0,1-1.051-1.052v-4.566a1.051,1.051,0,0,0-1.051-1.051h-4.138a1.051,1.051,0,0,0-1.051,1.051v4.566a1.051,1.051,0,0,1-1.051,1.052h-1.66a1.051,1.051,0,0,1-1.051-1.052V718.752A1.051,1.051,0,0,1,379.329,717.7Z" transform="translate(18976.912 -432.411)" fill="#242424"/>
    <path id="パス_100" data-name="パス 100" d="M418.184,717.7h8.9a1.052,1.052,0,0,1,1.051,1.052v1.279a1.051,1.051,0,0,1-1.051,1.051H421.9a1.052,1.052,0,0,0-1.051,1.052v.969a1.051,1.051,0,0,0,1.051,1.051h4.066a1.052,1.052,0,0,1,1.051,1.051v1.375a1.052,1.052,0,0,1-1.051,1.052H421.9a1.051,1.051,0,0,0-1.051,1.051v1.207a1.052,1.052,0,0,0,1.051,1.052h5.519a1.051,1.051,0,0,1,1.051,1.051v1.327a1.051,1.051,0,0,1-1.051,1.052h-9.234a1.052,1.052,0,0,1-1.051-1.052V718.752A1.052,1.052,0,0,1,418.184,717.7Z" transform="translate(18967.914 -432.411)" fill="#242424"/>
    <path id="パス_101" data-name="パス 101" d="M453,717.7h1.66a1.052,1.052,0,0,1,1.052,1.052v11.02a1.051,1.051,0,0,0,1.051,1.051h5.114a1.051,1.051,0,0,1,1.051,1.051v1.446a1.051,1.051,0,0,1-1.051,1.052H453a1.052,1.052,0,0,1-1.051-1.052V718.752A1.052,1.052,0,0,1,453,717.7Z" transform="translate(18959.852 -432.411)" fill="#242424"/>
    <path id="パス_102" data-name="パス 102" d="M486.321,717.7h9.353a1.052,1.052,0,0,1,1.051,1.052v1.422a1.052,1.052,0,0,1-1.051,1.052h-5.662a1.051,1.051,0,0,0-1.052,1.051v1.517a1.052,1.052,0,0,0,1.052,1.051h4.375a1.051,1.051,0,0,1,1.052,1.051v1.375a1.051,1.051,0,0,1-1.052,1.051h-4.375a1.052,1.052,0,0,0-1.052,1.052v3.947a1.051,1.051,0,0,1-1.051,1.052h-1.588a1.052,1.052,0,0,1-1.051-1.052V718.752A1.052,1.052,0,0,1,486.321,717.7Z" transform="translate(18952.133 -432.411)" fill="#242424"/>
  </g>
</svg>
