<svg xmlns="http://www.w3.org/2000/svg" width="342.574" height="111.308" viewBox="0 0 342.574 111.308">
  <g id="グループ_531" data-name="グループ 531" transform="translate(-127.922 -595.317)">
    <g id="グループ_530" data-name="グループ 530">
      <g id="グループ_528" data-name="グループ 528">
        <path id="パス_32" data-name="パス 32" d="M299.516,598.868c-63.849,0-75.307,73.55-167.153,66.115" fill="none" stroke="#302d2c" stroke-linecap="round" stroke-linejoin="round" stroke-width="7.102"/>
      </g>
      <g id="グループ_529" data-name="グループ 529">
        <path id="パス_33" data-name="パス 33" d="M299.516,598.868c63.849,0,75.307,73.55,167.154,66.115" fill="none" stroke="#302d2c" stroke-linecap="round" stroke-linejoin="round" stroke-width="7.102"/>
      </g>
    </g>
    <path id="パス_34" data-name="パス 34" d="M128.672,688.644a2.133,2.133,0,0,1,2.133-2.134h5.266c4.106,0,7.049,2.7,7.049,6.428,0,3.754-2.943,6.887-7.319,6.887h-.729a2.133,2.133,0,0,0-2.133,2.133v1.324a2.135,2.135,0,0,1-2.134,2.134h0a2.134,2.134,0,0,1-2.133-2.134Zm7.292,7.4a2.815,2.815,0,0,0,2.835-2.835,2.766,2.766,0,0,0-2.835-2.89h-.892a2.133,2.133,0,0,0-2.133,2.133v1.459a2.133,2.133,0,0,0,2.133,2.133Z" fill="#302d2c" stroke="#302d2c" stroke-miterlimit="10" stroke-width="1.5"/>
    <path id="パス_35" data-name="パス 35" d="M158.789,695.99a9.869,9.869,0,0,1,10.282-9.851,9.974,9.974,0,0,1,9.486,9.686,9.885,9.885,0,1,1-19.768.165Zm15.421,0a5.541,5.541,0,1,0-5.536,5.753A5.57,5.57,0,0,0,174.21,695.99Z" fill="#302d2c" stroke="#302d2c" stroke-miterlimit="10" stroke-width="1.5"/>
    <path id="パス_36" data-name="パス 36" d="M195.442,688.644a2.133,2.133,0,0,1,2.133-2.134h5.267c4.1,0,7.049,2.7,7.049,6.428,0,3.754-2.945,6.887-7.32,6.887h-.729a2.133,2.133,0,0,0-2.134,2.133v1.324a2.134,2.134,0,0,1-2.133,2.134h0a2.134,2.134,0,0,1-2.133-2.134Zm7.292,7.4a2.816,2.816,0,0,0,2.836-2.835,2.767,2.767,0,0,0-2.836-2.89h-.892a2.133,2.133,0,0,0-2.134,2.133v1.459a2.133,2.133,0,0,0,2.134,2.133Z" fill="#302d2c" stroke="#302d2c" stroke-miterlimit="10" stroke-width="1.5"/>
    <path id="パス_37" data-name="パス 37" d="M246.579,697.313v-8.669a2.135,2.135,0,0,1,2.134-2.134h0a2.134,2.134,0,0,1,2.134,2.134v8.426c0,3.673,1.972,4.835,3.971,4.835s3.969-1.162,3.969-4.835v-8.426a2.135,2.135,0,0,1,2.134-2.134h0a2.134,2.134,0,0,1,2.134,2.134v8.669c0,6.131-3.417,8.562-8.237,8.562C250.024,705.875,246.579,703.444,246.579,697.313Z" fill="#302d2c" stroke="#302d2c" stroke-miterlimit="10" stroke-width="1.5"/>
    <path id="パス_38" data-name="パス 38" d="M281.166,688.644a2.133,2.133,0,0,1,2.134-2.134h5.267c4.1,0,7.048,2.7,7.048,6.428,0,3.754-2.944,6.887-7.319,6.887h-.73a2.133,2.133,0,0,0-2.133,2.133v1.324a2.134,2.134,0,0,1-2.133,2.134h0a2.134,2.134,0,0,1-2.134-2.134Zm7.292,7.4a2.816,2.816,0,0,0,2.836-2.835,2.767,2.767,0,0,0-2.836-2.89h-.892a2.133,2.133,0,0,0-2.133,2.133v1.459a2.133,2.133,0,0,0,2.133,2.133Z" fill="#302d2c" stroke="#302d2c" stroke-miterlimit="10" stroke-width="1.5"/>
    <path id="パス_39" data-name="パス 39" d="M331.737,703.078v-.061a1.965,1.965,0,0,1,2.6-1.854,9.447,9.447,0,0,0,2.987.471c1.431,0,3.43-.431,3.43-1.675,0-2.673-9.21-1.4-9.21-7.723,0-3.512,2.836-6.05,7.13-6.05a13.96,13.96,0,0,1,3.827.571,1.974,1.974,0,0,1,1.413,1.891h0a1.957,1.957,0,0,1-2.489,1.89,8.362,8.362,0,0,0-2.291-.355c-2,0-3.35.73-3.35,1.729,0,2.646,9.4,1.3,9.4,7.7,0,3.538-2.864,6.131-7.185,6.131a14.017,14.017,0,0,1-5.005-.825A1.951,1.951,0,0,1,331.737,703.078Z" fill="#302d2c" stroke="#302d2c" stroke-miterlimit="10" stroke-width="1.5"/>
    <path id="パス_40" data-name="パス 40" d="M364.273,686.51h0a2.133,2.133,0,0,1,2.133,2.134v3.025a2.134,2.134,0,0,0,2.134,2.133h2.809a2.133,2.133,0,0,0,2.134-2.133v-3.025a2.133,2.133,0,0,1,2.133-2.134h0a2.133,2.133,0,0,1,2.133,2.134v14.638a2.134,2.134,0,0,1-2.133,2.134h0a2.134,2.134,0,0,1-2.133-2.134v-3.3a2.133,2.133,0,0,0-2.134-2.133H368.54a2.134,2.134,0,0,0-2.134,2.133v3.3a2.134,2.134,0,0,1-2.133,2.134h0a2.134,2.134,0,0,1-2.133-2.134V688.644A2.133,2.133,0,0,1,364.273,686.51Z" fill="#302d2c" stroke="#302d2c" stroke-miterlimit="10" stroke-width="1.5"/>
    <path id="パス_41" data-name="パス 41" d="M397.739,686.51h8.994a1.742,1.742,0,0,1,1.742,1.742v.352a1.742,1.742,0,0,1-1.742,1.741h-4.781a1.742,1.742,0,0,0-1.742,1.742h0a1.742,1.742,0,0,0,1.742,1.742h3.512a1.74,1.74,0,0,1,1.741,1.741v.46a1.741,1.741,0,0,1-1.741,1.742h-3.512a1.742,1.742,0,0,0-1.742,1.742v.27a1.742,1.742,0,0,0,1.742,1.742h5.159a1.742,1.742,0,0,1,1.742,1.742v.406a1.742,1.742,0,0,1-1.742,1.742h-9.372A1.742,1.742,0,0,1,396,703.674V688.252A1.742,1.742,0,0,1,397.739,686.51Z" fill="#302d2c" stroke="#302d2c" stroke-miterlimit="10" stroke-width="1.5"/>
    <path id="パス_42" data-name="パス 42" d="M428.343,686.51h.243a2.012,2.012,0,0,1,2.012,2.012v10.857a2.012,2.012,0,0,0,2.012,2.012h4.159a2.012,2.012,0,0,1,2.012,2.012h0a2.012,2.012,0,0,1-2.012,2.013h-8.426a2.012,2.012,0,0,1-2.012-2.013V688.522A2.012,2.012,0,0,1,428.343,686.51Z" fill="#302d2c" stroke="#302d2c" stroke-miterlimit="10" stroke-width="1.5"/>
    <path id="パス_43" data-name="パス 43" d="M457.341,686.51h9.047a1.972,1.972,0,0,1,1.972,1.972v.054a1.971,1.971,0,0,1-1.972,1.971h-4.861a1.972,1.972,0,0,0-1.972,1.972v.161a1.972,1.972,0,0,0,1.972,1.972h3.4a1.972,1.972,0,0,1,1.972,1.972h0a1.972,1.972,0,0,1-1.972,1.971h-3.4a1.972,1.972,0,0,0-1.972,1.972v2.917a1.972,1.972,0,0,1-1.972,1.972h-.242a1.972,1.972,0,0,1-1.972-1.972V688.482A1.972,1.972,0,0,1,457.341,686.51Z" fill="#302d2c" stroke="#302d2c" stroke-miterlimit="10" stroke-width="1.5"/>
  </g>
</svg>
