<svg xmlns="http://www.w3.org/2000/svg" width="986" height="1075" viewBox="0 0 986 1075">
  <g id="グループ_553" data-name="グループ 553" transform="translate(-17651 29)">
    <g id="グループ_545" data-name="グループ 545" transform="translate(17184 -29)">
      <rect id="長方形_113" data-name="長方形 113" width="986" height="1075" transform="translate(467)" fill="#fcfcfc"/>
      <g id="グループ_24" data-name="グループ 24" transform="translate(-24.945 -59.641)">
        <g id="グループ_8" data-name="グループ 8" transform="translate(680.535 292.731)">
          <g id="グループ_15" data-name="グループ 15" transform="translate(304.411 0) rotate(45)">
            <g id="グループ_14" data-name="グループ 14" transform="translate(0 0)">
              <g id="グループ_13" data-name="グループ 13" transform="translate(0 0)">
                <g id="グループ_9" data-name="グループ 9" transform="translate(0 352.185)">
                  <rect id="長方形_6" data-name="長方形 6" width="26.178" height="84.58" rx="6" transform="translate(0 18.511) rotate(-45)" fill="#fff" stroke="#3b3b3b" stroke-width="2"/>
                </g>
                <g id="グループ_23" data-name="グループ 23" transform="translate(339.145 0)">
                  <g id="グループ_10" data-name="グループ 10" transform="translate(0 0)">
                    <path id="パス_1" data-name="パス 1" d="M47.144,19.484,15.974,50.655a1.655,1.655,0,0,1-2.34,0l-11.7-11.7a6.638,6.638,0,0,1,0-9.361L29.591,1.931a6.639,6.639,0,0,1,9.361,0l8.192,8.192A6.639,6.639,0,0,1,47.144,19.484Z" fill="#fff" stroke="#3b3b3b" stroke-width="2"/>
                  </g>
                  <g id="グループ_12" data-name="グループ 12" transform="translate(40.214 42.279)">
                    <path id="パス_3" data-name="パス 3" d="M49.209,19.484l-27.66,27.66a6.62,6.62,0,0,1-9.362,0l-11.7-11.7a1.655,1.655,0,0,1,0-2.34L31.655,1.931a6.639,6.639,0,0,1,9.361,0l8.192,8.192A6.639,6.639,0,0,1,49.209,19.484Z" transform="translate(0 0)" fill="#fff" stroke="#3b3b3b" stroke-width="2"/>
                  </g>
                  <g id="グループ_16" data-name="グループ 16" transform="translate(19.062 21.127)">
                    <path id="パス_2" data-name="パス 2" d="M49.209,19.484,18.038,50.655a1.655,1.655,0,0,1-2.34,0L.485,35.442a1.655,1.655,0,0,1,0-2.34L31.655,1.931a6.639,6.639,0,0,1,9.362,0l8.192,8.192A6.639,6.639,0,0,1,49.209,19.484Z" transform="translate(0 0)" fill="#fff" stroke="#3b3b3b" stroke-width="2"/>
                  </g>
                </g>
              </g>
            </g>
          </g>
        </g>
        <line id="線_1" data-name="線 1" x1="396.674" transform="translate(776.396 556.632)" fill="none" stroke="#3b3b3b" stroke-width="2"/>
        <path id="パス_31" data-name="パス 31" d="M396.674,0H0" transform="translate(776.396 637.409)" fill="none" stroke="#3b3b3b" stroke-width="2"/>
      </g>
      <g id="グループ_129" data-name="グループ 129" transform="translate(-17.84 13)">
        <line id="線_10" data-name="線 10" x1="34.918" y2="18.796" transform="translate(977.84 964.704)" fill="none" stroke="#3b3b3b" stroke-linecap="round" stroke-width="2"/>
        <line id="線_11" data-name="線 11" x2="34.918" y2="18.796" transform="translate(942.922 964.704)" fill="none" stroke="#3b3b3b" stroke-linecap="round" stroke-width="2"/>
      </g>
    </g>
    <g id="Element.03" transform="translate(18547.396 -914.52)" style="isolation: isolate">
      <g id="グループ_549" data-name="グループ 549" style="isolation: isolate">
        <path id="パス_81" data-name="パス 81" d="M-511.467,1410.254h14.362v2.166h-11.779v9.726h10.526v2.166h-10.526v10.9h12.235v2.166h-14.818Z" fill="#232424"/>
        <path id="パス_82" data-name="パス 82" d="M-488.249,1408.278h2.508v29.1h-2.508Z" fill="#232424"/>
        <path id="パス_83" data-name="パス 83" d="M-474.569,1428.947c.038,4.255,2.659,6.8,6.991,6.8a11.118,11.118,0,0,0,5.812-1.481l.912,1.785a13.034,13.034,0,0,1-6.724,1.71c-5.928,0-9.461-3.495-9.461-9.309,0-5.737,3.382-9.308,8.739-9.308,5.2,0,8.473,3.381,8.473,8.776,0,.267,0,.494-.038,1.026Zm12.234-1.937c-.228-3.8-2.317-5.852-5.89-5.852-3.685,0-5.964,2.128-6.268,5.852Z" fill="#232424"/>
        <path id="パス_84" data-name="パス 84" d="M-451.237,1419.524h2.317l.114,2.774a6.2,6.2,0,0,1,5.889-3.153c2.926,0,4.75,1.253,5.661,3.8a6.476,6.476,0,0,1,6.422-3.8,5.654,5.654,0,0,1,5.433,3.04,12.706,12.706,0,0,1,.874,5.546v9.651h-2.508v-9.309a11.3,11.3,0,0,0-.646-4.6,3.658,3.658,0,0,0-3.723-2.318,4.53,4.53,0,0,0-4.408,2.7,12.63,12.63,0,0,0-.8,5.168v8.359h-2.508v-9.347a11.094,11.094,0,0,0-.646-4.559,3.709,3.709,0,0,0-3.761-2.318,4.57,4.57,0,0,0-4.37,2.7c-.608,1.216-.835,2.812-.835,5.434v8.093h-2.508Z" fill="#232424"/>
        <path id="パス_85" data-name="パス 85" d="M-413.542,1428.947c.038,4.255,2.66,6.8,6.991,6.8a11.126,11.126,0,0,0,5.814-1.481l.912,1.785a13.044,13.044,0,0,1-6.726,1.71c-5.927,0-9.46-3.495-9.46-9.309,0-5.737,3.381-9.308,8.739-9.308,5.205,0,8.472,3.381,8.472,8.776,0,.267,0,.494-.038,1.026Zm12.234-1.937c-.227-3.8-2.317-5.852-5.888-5.852-3.686,0-5.965,2.128-6.27,5.852Z" fill="#232424"/>
        <path id="パス_86" data-name="パス 86" d="M-390.21,1419.524h2.318l.114,2.774a6.546,6.546,0,0,1,6.117-3.153c2.811,0,4.863,1.1,5.89,3.115a12.6,12.6,0,0,1,.912,5.471v9.651h-2.508v-9.309c0-4.977-1.368-6.915-4.787-6.915a4.872,4.872,0,0,0-4.674,2.7,11.941,11.941,0,0,0-.874,5.434v8.093h-2.508Z" fill="#232424"/>
        <path id="パス_87" data-name="パス 87" d="M-367.029,1421.576v-2.052h2.887l.114-5.47,2.28-.494v5.964h5.243v2.052h-5.243V1431c0,3.533.684,4.483,3.229,4.483a4.773,4.773,0,0,0,1.6-.228l.494,2.014a9.467,9.467,0,0,1-2.66.341c-2.2,0-3.571-.569-4.331-1.823-.608-.988-.8-2.2-.8-4.977v-9.233Z" fill="#232424"/>
        <path id="パス_88" data-name="パス 88" d="M-345.028,1435.786a1.885,1.885,0,0,1-2.014,1.976,1.866,1.866,0,0,1-2.014-1.976,1.9,1.9,0,0,1,2.014-1.937A1.855,1.855,0,0,1-345.028,1435.786Z" fill="#232424"/>
        <path id="パス_89" data-name="パス 89" d="M-318.545,1423.817c0,9.385-3.039,13.945-9.27,13.945-6.27,0-9.271-4.56-9.271-14.1,0-9.194,3.077-13.792,9.271-13.792C-321.584,1409.874-318.545,1414.434-318.545,1423.817Zm-15.995-.113c0,8.055,2.165,11.93,6.725,11.93,4.521,0,6.724-3.875,6.724-11.817s-2.2-11.815-6.724-11.815C-332.3,1412-334.54,1415.877-334.54,1423.7Z" fill="#232424"/>
        <path id="パス_90" data-name="パス 90" d="M-308.017,1422.108h3.3c2.4,0,3.458-.3,4.522-1.254a5.119,5.119,0,0,0,1.6-3.875c0-3.078-2.165-4.939-5.774-4.939a9.757,9.757,0,0,0-5.661,1.709l-.912-1.861a12.152,12.152,0,0,1,7.028-2.014c4.939,0,7.9,2.621,7.9,6.953a6.431,6.431,0,0,1-4.027,6.269,6.758,6.758,0,0,1,4.711,6.839,7.954,7.954,0,0,1-1.861,5.395c-1.445,1.634-3.686,2.432-6.839,2.432a15.851,15.851,0,0,1-7.751-1.672l.8-2.128a13.323,13.323,0,0,0,6.876,1.634c3.914,0,6.118-2.052,6.118-5.737a5.558,5.558,0,0,0-2.432-4.75,7.247,7.247,0,0,0-4.1-.874h-3.5Z" fill="#232424"/>
      </g>
    </g>
  </g>
</svg>
