<svg xmlns="http://www.w3.org/2000/svg" width="1076.98" height="289.214" viewBox="0 0 1076.98 289.214">
  <g id="グループ_696" data-name="グループ 696" transform="translate(-1231.814 -236.51)">
    <rect id="長方形_444" data-name="長方形 444" width="1075.981" height="285.459" transform="translate(1232.314 236.509)" fill="#fdfdfd"/>
    <line id="線_16" data-name="線 16" y2="276.324" transform="translate(1964.046 249.4)" fill="none" stroke="#e0e0df" stroke-width="1"/>
    <line id="線_16-2" data-name="線 16" y2="276.324" transform="translate(2105.046 249.4)" fill="none" stroke="#e0e0df" stroke-width="1"/>
    <line id="線_16-3" data-name="線 16" y2="276.324" transform="translate(2151.333 249.4)" fill="none" stroke="#e0e0df" stroke-width="1"/>
    <line id="線_16-4" data-name="線 16" y2="276.324" transform="translate(2174.9 249.4)" fill="none" stroke="#e0e0df" stroke-width="1"/>
    <g id="_5月-3" data-name=" 5月-3">
      <g id="月-2">
        <g id="_6月" data-name=" 6月" style="isolation: isolate">
          <text id="_7月" data-name="7月" transform="translate(1761.062 248.867)" fill="#242424" font-size="14.042" font-family="Helvetica" style="isolation: isolate"><tspan x="0" y="0">7</tspan><tspan y="0" font-family="HiraginoSans-W3, Hiragino Sans">月</tspan></text>
        </g>
      </g>
    </g>
    <path id="パス_30" data-name="パス 30" d="M1657.749,245.384h92.578" fill="none" stroke="#242424" stroke-linecap="round" stroke-width="1"/>
    <line id="線_25" data-name="線 25" x2="64.089" transform="translate(1790.869 245.384)" fill="none" stroke="#242424" stroke-linecap="round" stroke-width="1"/>
    <line id="線_25-2" data-name="線 25" x2="84.685" transform="translate(1901.139 245.384)" fill="none" stroke="#242424" stroke-linecap="round" stroke-width="1"/>
    <line id="線_15" data-name="線 15" y2="276.324" transform="translate(1285.094 249.4)" fill="none" stroke="#e0e0df" stroke-width="1"/>
    <line id="線_18" data-name="線 18" y2="276.324" transform="translate(1400.548 249.4)" fill="none" stroke="#e0e0df" stroke-width="1"/>
    <line id="線_19" data-name="線 19" y2="276.324" transform="translate(1488.79 249.4)" fill="none" stroke="#e0e0df" stroke-width="1"/>
    <line id="線_20" data-name="線 20" y2="276.324" transform="translate(1580.528 249.4)" fill="none" stroke="#e0e0df" stroke-width="1"/>
    <line id="線_21" data-name="線 21" y2="276.324" transform="translate(1695.023 249.4)" fill="none" stroke="#e0e0df" stroke-width="1"/>
    <line id="線_22" data-name="線 22" y2="276.324" transform="translate(1664.329 249.4)" fill="none" stroke="#e0e0df" stroke-width="1"/>
    <line id="線_15-2" data-name="線 15-2" y2="276.324" transform="translate(1236.255 249.4)" fill="none" stroke="#e0e0df" stroke-width="1"/>
    <line id="線_16-5" data-name="線 16" y2="276.324" transform="translate(1305.064 249.4)" fill="none" stroke="#e0e0df" stroke-width="1"/>
    <line id="線_17" data-name="線 17" y2="276.324" transform="translate(1352.895 249.4)" fill="none" stroke="#e0e0df" stroke-width="1"/>
    <g id="中間発表_Intermediate_announcement" data-name="中間発表 Intermediate announcement">
      <g id="中間発表">
        <g id="中間発表-2" style="isolation: isolate">
          <g id="グループ_685" data-name="グループ 685" style="isolation: isolate">
            <path id="パス_743" data-name="パス 743" d="M1713.843,499.352a7.543,7.543,0,0,0-.088-1.326h1.174a9.048,9.048,0,0,0-.076,1.3v1.023h3.623a7.176,7.176,0,0,0,1-.051,8.384,8.384,0,0,0-.05,1.035v3.573a8.036,8.036,0,0,0,.063,1.148h-1.06v-.82h-3.573v2.828a7.538,7.538,0,0,0,.088,1.477h-1.186a9.347,9.347,0,0,0,.088-1.477v-2.828h-3.4v.82h-1.073a8.15,8.15,0,0,0,.075-1.148v-3.585a8.227,8.227,0,0,0-.062-1.023,7.415,7.415,0,0,0,1,.051h3.459Zm-3.4,1.918v3.042h3.4V501.27Zm7.978,3.042V501.27h-3.573v3.042Z" fill="#242424"/>
            <path id="パス_744" data-name="パス 744" d="M1722.642,508.024a9.5,9.5,0,0,0,.076,1.452h-1.086a10.093,10.093,0,0,0,.075-1.465v-8.167c0-.631-.012-1-.05-1.4a11.817,11.817,0,0,0,1.313.05h1.931a11.289,11.289,0,0,0,1.288-.05c-.025.378-.037.706-.037,1.2v1.679c0,.517.012.82.037,1.149-.353-.026-.745-.038-1.25-.038h-2.3Zm0-7.915h2.639v-.884h-2.639Zm0,1.615h2.639v-.895h-2.639Zm6.589,4.974c0,.48.013.808.038,1.137-.391-.026-.731-.039-1.262-.039h-2.726v.834h-.948a8.194,8.194,0,0,0,.063-1.212v-2.891c0-.442-.012-.8-.037-1.162a10.8,10.8,0,0,0,1.237.051h2.449a10.552,10.552,0,0,0,1.224-.051c-.025.342-.038.683-.038,1.162Zm-3.95-1.514h3.079v-1.011h-3.079Zm0,1.855h3.079v-1.1h-3.079Zm6.716,1.124c0,.909-.291,1.149-1.428,1.149-.265,0-.971-.026-1.224-.039a3.475,3.475,0,0,0-.265-.971c.606.076,1.124.126,1.389.126.505,0,.6-.063.6-.354v-5.642h-2.562c-.492,0-.922.012-1.25.038.025-.354.038-.67.038-1.149v-1.679c0-.442-.013-.821-.038-1.2a11.291,11.291,0,0,0,1.288.05h2.184a11.909,11.909,0,0,0,1.325-.05,12.209,12.209,0,0,0-.062,1.388Zm-3.826-8.054h2.9v-.884h-2.9Zm0,1.615h2.9v-.895h-2.9Z" fill="#242424"/>
            <path id="パス_745" data-name="パス 745" d="M1737.461,504.918a12.277,12.277,0,0,0,.076-1.691,7.531,7.531,0,0,0-.984.05v-.618a11.958,11.958,0,0,1-2.386,1.414,2.865,2.865,0,0,0-.568-.808,9.454,9.454,0,0,0,2.751-1.578,10.5,10.5,0,0,0-1.868-1.654l.72-.568a16.421,16.421,0,0,1,1.83,1.616,7.521,7.521,0,0,0,1.49-1.78h-2.234a6.821,6.821,0,0,0-.8.063V498.4a5.829,5.829,0,0,0,.946.063h2.374a7.415,7.415,0,0,0,1.111-.051,3.526,3.526,0,0,0,.922,1.616,6.768,6.768,0,0,0,1.261-1.54l.821.517a2.768,2.768,0,0,0-.265.3,12.608,12.608,0,0,1-1.249,1.313c.29.278.618.568.984.859a7.875,7.875,0,0,0,1.44-1.667l.82.518c-.127.126-.127.126-.593.657a10.912,10.912,0,0,1-1.01.984,9.483,9.483,0,0,0,2.259,1.174,3.94,3.94,0,0,0-.543.884,13,13,0,0,1-2.348-1.376v.618a9.649,9.649,0,0,0-1.1-.05h-.139v1.691h2.184a8.538,8.538,0,0,0,1.275-.076v1a8.659,8.659,0,0,0-1.275-.076h-2.184V508c0,.227.063.315.291.353a4.177,4.177,0,0,0,.9.063c.884,0,1.2-.05,1.363-.24a2.829,2.829,0,0,0,.315-1.388,2.9,2.9,0,0,0,.973.379c-.3,1.981-.518,2.146-2.765,2.146-1.628,0-2.007-.19-2.007-1v-2.55h-1.969a4.255,4.255,0,0,1-1.048,2.146,6.885,6.885,0,0,1-1.489,1.137,9.027,9.027,0,0,1-1.086.479,3.269,3.269,0,0,0-.7-.871,6.1,6.1,0,0,0,2.412-1.25,2.919,2.919,0,0,0,.947-1.641h-1.793a8.781,8.781,0,0,0-1.275.076v-1a8.419,8.419,0,0,0,1.275.076Zm3.8-2.524a6.8,6.8,0,0,0,.783-.026,9.921,9.921,0,0,1-2.589-2.89,10.652,10.652,0,0,1-2.537,2.89,7.284,7.284,0,0,0,.8.026Zm-2.777.833a14.955,14.955,0,0,1-.075,1.691h1.842v-1.691Z" fill="#242424"/>
            <path id="パス_746" data-name="パス 746" d="M1751.889,504.009a9.82,9.82,0,0,1-1.162,1.124v2.841c.9-.19,1.6-.367,2.8-.708v.922a46.768,46.768,0,0,1-4.734,1.1,4.769,4.769,0,0,0-.593.139l-.253-1.047a15.062,15.062,0,0,0,1.844-.215v-2.285a15.133,15.133,0,0,1-2.917,1.59,3.358,3.358,0,0,0-.58-.909,11.053,11.053,0,0,0,4.418-2.55h-2.865a10.906,10.906,0,0,0-1.415.076v-1a7.671,7.671,0,0,0,1.4.076h3.673v-1.1h-2.587a10.221,10.221,0,0,0-1.313.05v-.934a10.3,10.3,0,0,0,1.313.051h2.587v-1.086h-3.219a9.177,9.177,0,0,0-1.351.063v-.972a9.625,9.625,0,0,0,1.39.075h3.18v-.2a6.06,6.06,0,0,0-.075-1.1h1.1a5.331,5.331,0,0,0-.076,1.1v.2h3.383a9.8,9.8,0,0,0,1.415-.075v.972a9.567,9.567,0,0,0-1.376-.063h-3.422v1.086h2.752a10.725,10.725,0,0,0,1.363-.051v.934a10.778,10.778,0,0,0-1.363-.05h-2.752v1.1h3.863a8.941,8.941,0,0,0,1.4-.076v1a11.088,11.088,0,0,0-1.4-.076h-3.345a7.037,7.037,0,0,0,1.211,1.906,9.332,9.332,0,0,0,1.743-1.678l.883.58c-.088.076-.088.076-.265.24a15.863,15.863,0,0,1-1.741,1.5,9.564,9.564,0,0,0,3.2,1.806,3.574,3.574,0,0,0-.643.921,10.008,10.008,0,0,1-3.737-2.6,9.86,9.86,0,0,1-1.628-2.677Z" fill="#242424"/>
          </g>
        </g>
      </g>
    </g>
    <circle id="楕円形_25" data-name="楕円形 25" cx="4" cy="4" r="4" transform="translate(1395.278 456.254) rotate(-67.66)" fill="#242424"/>
    <g id="グループ_99" data-name="グループ 99">
      <circle id="楕円形_26" data-name="楕円形 26" cx="4" cy="4" r="4" transform="matrix(0.38, -0.925, 0.925, 0.38, 1347.556, 402.309)" fill="#242424"/>
      <circle id="楕円形_27" data-name="楕円形 27" cx="4" cy="4" r="4" transform="translate(1395.578 402.308) rotate(-67.66)" fill="#242424"/>
    </g>
    <g id="グループ_100" data-name="グループ 100">
      <circle id="楕円形_29" data-name="楕円形 29" cx="4" cy="4" r="4" transform="translate(1280.942 289.152)" fill="#242424"/>
      <circle id="楕円形_29-2" data-name="楕円形 29" cx="4" cy="4" r="4" transform="translate(1232.455 289.152)" fill="#242424"/>
    </g>
    <circle id="楕円形_30" data-name="楕円形 30" cx="4" cy="4" r="4" transform="translate(1301.031 342.574)" fill="#242424"/>
    <circle id="楕円形_31" data-name="楕円形 31" cx="4" cy="4" r="4" transform="translate(1348.754 342.574)" fill="#242424"/>
    <circle id="楕円形_32" data-name="楕円形 32" cx="4" cy="4" r="4" transform="translate(1576.455 342.167)" fill="#242424"/>
    <g id="前置詞図鑑の作成_Production_of_prefix_pictorial" data-name="前置詞図鑑の作成 Production of prefix pictorial">
      <g id="前置詞図鑑の作成">
        <g id="前置詞図鑑の作成-2" style="isolation: isolate">
          <g id="グループ_686" data-name="グループ 686" style="isolation: isolate">
            <path id="パス_747" data-name="パス 747" d="M1305.294,288.628a9.687,9.687,0,0,0-1.263-1.654l.923-.328a9.944,9.944,0,0,1,1.388,1.982h1.78a7.8,7.8,0,0,0,1.326-1.97l1,.329a14.3,14.3,0,0,1-1.261,1.641h2.4a8.6,8.6,0,0,0,1.288-.076v1a7.5,7.5,0,0,0-1.288-.076h-8.595a7.573,7.573,0,0,0-1.288.076v-1a6.746,6.746,0,0,0,1.288.076Zm-1.856,8.294a6.942,6.942,0,0,0,.077,1.338h-1.061a9.839,9.839,0,0,0,.063-1.377v-5.352a11.168,11.168,0,0,0-.038-1.123,11.99,11.99,0,0,0,1.224.05h2.1a7.4,7.4,0,0,0,1.149-.05c-.026.29-.038.606-.038,1.313V297.1c0,.821-.253,1.048-1.136,1.048-.253,0-.606-.012-1.01-.051a3.733,3.733,0,0,0-.24-.9,6.2,6.2,0,0,0,1.035.114c.366,0,.442-.051.442-.316v-1.515h-2.563Zm2.563-4.368V291.3h-2.563v1.25Zm0,2.083V293.4h-2.563v1.238Zm3.434-4.052a6.47,6.47,0,0,0-.064,1.2v2.6a9.909,9.909,0,0,0,.051,1.4h-1.035a10.645,10.645,0,0,0,.051-1.4v-2.613a7.148,7.148,0,0,0-.063-1.186Zm2.714-.367a7.183,7.183,0,0,0-.076,1.351V297c0,.959-.291,1.2-1.414,1.2-.365,0-.808-.025-1.439-.062a4.043,4.043,0,0,0-.29-1,9.865,9.865,0,0,0,1.616.164c.491,0,.568-.05.568-.391v-5.365a8.288,8.288,0,0,0-.063-1.326Z" fill="#242424"/>
            <path id="パス_748" data-name="パス 748" d="M1316.225,289.65c-.657,0-1.06.013-1.35.038a6.7,6.7,0,0,0,.05-.909v-.618a7.057,7.057,0,0,0-.05-.947c.391.038.808.05,1.413.05h7.259c.606,0,1.136-.025,1.414-.05a6.626,6.626,0,0,0-.051.947v.618a5.954,5.954,0,0,0,.051.909c-.3-.025-.656-.038-1.351-.038h-2.954c-.063.278-.076.341-.164.682h3.535a7.78,7.78,0,0,0,1.338-.076v.909a9.908,9.908,0,0,0-1.338-.076h-3.749c-.088.278-.088.278-.228.644h2.9q.833,0,1.249-.038c-.025.328-.038.745-.038,1.339v2.158a7.744,7.744,0,0,0,.052,1.2c-.405-.025-.783-.038-1.326-.038h-4.444c-.543,0-.921.013-1.313.038.025-.315.038-.656.038-1.2v-2.158c0-.582-.013-1.023-.038-1.326.354.013.67.025,1.238.025h.757c.113-.29.151-.4.226-.644h-3.735a8.222,8.222,0,0,0-1.338.076v-.909a7.76,7.76,0,0,0,1.338.076h3.963c.076-.316.076-.316.152-.682Zm7.953,7.372a7.8,7.8,0,0,0,1.338-.075v.934a9.352,9.352,0,0,0-1.338-.076h-8.243v.543h-1.01a7.4,7.4,0,0,0,.075-1.161v-4.255a6.925,6.925,0,0,0-.075-1.085H1316a6.837,6.837,0,0,0-.063,1.085v4.09Zm-6.224-9.013h-2.121v.922h2.121Zm.1,5.037h5.213V292.4h-5.213Zm0,1.287h5.213v-.643h-5.213Zm0,1.339h5.213v-.7h-5.213Zm2.915-7.663h-2.184v.922h2.184Zm3.031.922v-.922h-2.2v.922Z" fill="#242424"/>
            <path id="パス_749" data-name="パス 749" d="M1326.8,288.981a5.348,5.348,0,0,0,1.01.063h2.348a5.025,5.025,0,0,0,1.009-.063v.96a5.685,5.685,0,0,0-.933-.051h-2.424a7.452,7.452,0,0,0-1.01.051Zm.429-1.767a5.476,5.476,0,0,0,.985.063h1.767a5.565,5.565,0,0,0,.985-.063v.934a7.479,7.479,0,0,0-.985-.05h-1.767a7.488,7.488,0,0,0-.985.05Zm.051,3.572a5.218,5.218,0,0,0,.883.051h1.97q.321,0,.871-.038v.9a5.909,5.909,0,0,0-.871-.05h-1.97a5.749,5.749,0,0,0-.883.05Zm0,1.768a5.252,5.252,0,0,0,.883.05h1.97a5.189,5.189,0,0,0,.871-.05v.9a8.159,8.159,0,0,0-.884-.038h-1.957a8.3,8.3,0,0,0-.883.038Zm.037,5.794a8.377,8.377,0,0,0,.076-1.225v-1.754a6.48,6.48,0,0,0-.063-1.036,7.749,7.749,0,0,0,1,.051h1.767a5.1,5.1,0,0,0,.9-.037,9.332,9.332,0,0,0-.038.971v1.818a7.148,7.148,0,0,0,.063,1.048h-.908v-.493h-1.843v.657Zm.935-1.439h1.856v-1.755h-1.856Zm9.53.328a.921.921,0,0,1-.365.846,1.988,1.988,0,0,1-1.048.177c-.43,0-.871-.026-1.338-.064a4.935,4.935,0,0,0-.265-1,9.854,9.854,0,0,0,1.628.127c.328,0,.442-.089.442-.341v-8.711h-3.762a8.954,8.954,0,0,0-1.364.076v-1.023a10.062,10.062,0,0,0,1.364.089h3.56c.668-.013,1.073-.038,1.2-.05a11.045,11.045,0,0,0-.051,1.186Zm-5.793-7.764a7.673,7.673,0,0,0,1.123.051h1.729a7.6,7.6,0,0,0,1.111-.051v.935a7.107,7.107,0,0,0-1.1-.051h-1.742a7.486,7.486,0,0,0-1.123.051Zm3.735,5.012c0,.4,0,.581.026.921-.3-.025-.517-.037-.834-.037h-1.931v.959h-.921a7.612,7.612,0,0,0,.05-.984v-2.853c0-.417-.012-.669-.037-.985a5.987,5.987,0,0,0,.946.051h1.793a5.992,5.992,0,0,0,.947-.051,9.742,9.742,0,0,0-.039,1Zm-2.751.063h1.906v-2.2h-1.906Z" fill="#242424"/>
            <path id="パス_750" data-name="パス 750" d="M1339.83,298.348a11.131,11.131,0,0,0,.075-1.565v-7.9a14.066,14.066,0,0,0-.075-1.54,12.221,12.221,0,0,0,1.476.063h7.626a12.688,12.688,0,0,0,1.5-.063,11.337,11.337,0,0,0-.075,1.54v7.928a10.853,10.853,0,0,0,.075,1.54h-1.048V297.6h-8.52v.745Zm1.035-1.6h8.52v-8.471h-8.52Zm7.157-.455a24.682,24.682,0,0,0-2.7-1.868,11.692,11.692,0,0,1-3.042,2.07,3.415,3.415,0,0,0-.67-.77,10.221,10.221,0,0,0,2.9-1.754,20.548,20.548,0,0,0-3-1.338l.518-.745a29.273,29.273,0,0,1,3.156,1.451,11.231,11.231,0,0,0,2.613-4.216l.947.467a4.668,4.668,0,0,0-.315.568,13.987,13.987,0,0,1-2.437,3.61c.871.506,1.552.947,2.613,1.68Zm-4.759-4.267a8.007,8.007,0,0,0-1.312-2.272l.782-.429a9.08,9.08,0,0,1,1.339,2.235Zm2.133-.618a8.268,8.268,0,0,0-1.161-2.31l.8-.366a9.128,9.128,0,0,1,1.187,2.26Z" fill="#242424"/>
            <path id="パス_751" data-name="パス 751" d="M1353.69,290.812a5.593,5.593,0,0,0-.82.05v-.732a7.054,7.054,0,0,1-.543.505,2.068,2.068,0,0,0-.493-.8,5.87,5.87,0,0,0,2.1-2.765h1.01a4.659,4.659,0,0,0,1.515,2.045,3.942,3.942,0,0,0-.555.732,5.759,5.759,0,0,1-1.44-2.007,8.236,8.236,0,0,1-1.476,2.171,5.859,5.859,0,0,0,.719.038h1.313a5.69,5.69,0,0,0,.808-.038v.834c-.3-.026-.581-.038-.821-.038h-.253v1.224h.24a7.75,7.75,0,0,0,1.086-.05v.909a7.523,7.523,0,0,0-1.086-.051h-.24v3.635c.543-.151.771-.214,1.453-.441l.012.808c-1.035.353-1.439.467-3.383,1.01-.176.05-.29.088-.505.151l-.189-.959a10.171,10.171,0,0,0,1.792-.354v-3.85h-.593a10.936,10.936,0,0,0-1.161.063v-.934a9.909,9.909,0,0,0,1.173.063h.581v-1.224Zm-.921,5.415a10.781,10.781,0,0,0-.555-2.474l.72-.24a13.332,13.332,0,0,1,.542,2.475Zm2.309-.643a9.485,9.485,0,0,0,.405-2.159l.695.2a14.144,14.144,0,0,1-.468,2.146Zm7.929,1.552a3.537,3.537,0,0,0,.631-.05v.946a12.048,12.048,0,0,0-1.414-.076h-4.747a9.979,9.979,0,0,0-1.326.076V297.1a3.793,3.793,0,0,0,.645.051h.113v-2.3a8.88,8.88,0,0,0-.038-1.035,10.229,10.229,0,0,0,1.188.051h3.672a9.128,9.128,0,0,0,1.136-.051,7.377,7.377,0,0,0-.05,1.048v2.272Zm-4.167-4.746h.14a9.192,9.192,0,0,0,.972-.038v.82a5.473,5.473,0,0,0-.922-.05H1357.3a8.256,8.256,0,0,0-.871.038c.025-.316.038-.53.038-.922v-4.077c0-.417-.013-.518-.038-.9a8.293,8.293,0,0,0,.9.038h1.578a7.678,7.678,0,0,0,1.061-.063v.871a7.188,7.188,0,0,0-.973-.05h-.164v.972h.1a6.8,6.8,0,0,0,.783-.038,5.676,5.676,0,0,0-.025.719v.859a6.576,6.576,0,0,0,.025.782c-.24-.012-.492-.025-.783-.025h-.089Zm-.706-3.358v-.972h-.909v.972Zm-.909,1.6h1.742v-.909h-1.742Zm0,1.755h.922v-1.061h-.922Zm.505,4.759h.9v-2.5h-.9Zm1.653,0h.922v-2.5h-.922Zm1.768-7.764a9.376,9.376,0,0,1-.707,1.376,2.07,2.07,0,0,0-.719-.517,7.21,7.21,0,0,0,1.085-2.462,5.468,5.468,0,0,0,.151-.871l.91.227c-.1.328-.1.328-.2.682-.088.3-.127.454-.215.732h1.023a6.048,6.048,0,0,0,1.06-.063v.972a6.641,6.641,0,0,0-1.048-.076Zm-.707,2.045a4.47,4.47,0,0,0,.846.051h.984a5.779,5.779,0,0,0,.96-.051v.947a6.028,6.028,0,0,0-.935-.051h-.971a5.218,5.218,0,0,0-.884.051Zm.619,5.719H1362v-2.5h-.934Z" fill="#242424"/>
            <path id="パス_752" data-name="パス 752" d="M1372.056,295.861a3.706,3.706,0,0,0,1.994-3.37,3.259,3.259,0,0,0-1.868-3.068,3.321,3.321,0,0,0-1.414-.341,18.373,18.373,0,0,1-1.261,5.05c-.72,1.653-1.478,2.411-2.424,2.411-1.275,0-2.21-1.351-2.21-3.194a5.257,5.257,0,0,1,1.351-3.535,5.394,5.394,0,0,1,4.153-1.7c2.865,0,4.771,1.767,4.771,4.431a4.657,4.657,0,0,1-2.764,4.368,8.363,8.363,0,0,1-2.108.656,2.48,2.48,0,0,0-.543-1.022A6.913,6.913,0,0,0,1372.056,295.861Zm-4.179-6.16a4.308,4.308,0,0,0-1.969,3.661c0,1.149.505,2.057,1.161,2.057.493,0,.973-.58,1.49-1.767a17.227,17.227,0,0,0,1.124-4.544A3.575,3.575,0,0,0,1367.877,289.7Z" fill="#242424"/>
            <path id="パス_753" data-name="パス 753" d="M1380.526,287.088a7.22,7.22,0,0,0-.3.707,18.1,18.1,0,0,1-.909,2.07v6.93a10.709,10.709,0,0,0,.089,1.528h-1.137a11.441,11.441,0,0,0,.089-1.553v-4.027c0-.467.012-.72.05-1.565a10.049,10.049,0,0,1-1.476,1.843,2.951,2.951,0,0,0-.569-.909,10.4,10.4,0,0,0,2.588-3.7,7.094,7.094,0,0,0,.543-1.679Zm1.944,2.537a13.469,13.469,0,0,1-2.032,3.067,2.681,2.681,0,0,0-.695-.769,10.566,10.566,0,0,0,2.2-3.384,7.829,7.829,0,0,0,.542-1.792l1.036.328c-.1.24-.14.341-.253.644-.19.53-.24.681-.4,1.048h3.85a7.976,7.976,0,0,0,1.211-.076v1a9.973,9.973,0,0,0-1.211-.063h-2.791v1.906h2.4a6.265,6.265,0,0,0,1.149-.076v1.023a8.16,8.16,0,0,0-1.149-.076h-2.4v1.919h2.438a7.316,7.316,0,0,0,1.148-.076v1.035a7.927,7.927,0,0,0-1.148-.075h-2.438V297a7.319,7.319,0,0,0,.089,1.376h-1.148a8.621,8.621,0,0,0,.075-1.376v-7.372Z" fill="#242424"/>
            <path id="パス_754" data-name="パス 754" d="M1399.725,291.14c-.088.214-.138.315-.3.707-.012.038-.012.038-.353.82a10.3,10.3,0,0,1-1.376,2.374,5.019,5.019,0,0,0,1.124,1.514,1.411,1.411,0,0,0,.555.341c.177,0,.378-.669.53-1.792a3.159,3.159,0,0,0,.808.631c-.3,1.6-.669,2.234-1.288,2.234a2.436,2.436,0,0,1-1.376-.808,6.622,6.622,0,0,1-1.01-1.351,10.866,10.866,0,0,1-3.37,2.437,2.814,2.814,0,0,0-.707-.782,9.4,9.4,0,0,0,3.649-2.525,15.37,15.37,0,0,1-1.048-5.2h-4.28c-.012,1.023-.012,1.4-.025,1.957h2.374a5.83,5.83,0,0,0,.933-.05c-.037.3-.037.341-.075,1.123a12.047,12.047,0,0,1-.367,3.042c-.189.493-.5.644-1.324.644a7.341,7.341,0,0,1-1.225-.1,3.4,3.4,0,0,0-.2-.959,6.668,6.668,0,0,0,1.4.177c.417,0,.518-.1.62-.594a21.231,21.231,0,0,0,.163-2.423h-2.335a17.744,17.744,0,0,1-.4,3.4,6.431,6.431,0,0,1-.971,2.285,2.637,2.637,0,0,0-.8-.719,5.181,5.181,0,0,0,.9-1.982,24.556,24.556,0,0,0,.391-5.188,9.486,9.486,0,0,0-.075-1.541,13.591,13.591,0,0,0,1.553.064h3.711a14.873,14.873,0,0,0-.1-1.97h1.111a6.6,6.6,0,0,0-.063,1.124c0,.152,0,.328.013.846h2.689a6.853,6.853,0,0,0,1.35-.076v1.01a10.905,10.905,0,0,0-1.451-.064h-2.55a15.876,15.876,0,0,0,.757,4.343,9.532,9.532,0,0,0,1.453-3.332Zm-.871-2.348a7.341,7.341,0,0,0-1.666-1.351l.681-.492a8.719,8.719,0,0,1,1.655,1.262Z" fill="#242424"/>
          </g>
        </g>
      </g>
    </g>
    <g id="ネタ帳の作成_Production_of_material_book" data-name="ネタ帳の作成 Production of material book">
      <g id="ネタ帳の作成">
        <g id="ネタ帳の作成-2" style="isolation: isolate">
          <g id="グループ_687" data-name="グループ 687" style="isolation: isolate">
            <path id="パス_755" data-name="パス 755" d="M1373.8,351.962a9.3,9.3,0,0,0,.062-1.351v-2.764a4.338,4.338,0,0,1,.026-.581,2.128,2.128,0,0,1-.391.277,19.8,19.8,0,0,1-3.8,1.541,3.4,3.4,0,0,0-.543-.985,15.9,15.9,0,0,0,6.059-2.752,12.677,12.677,0,0,0,1.691-1.5l-.252.025c-.176.012-.466.025-.568.025h-4.418a8.558,8.558,0,0,0-1.376.076v-1.124a7.771,7.771,0,0,0,1.376.089h2.184v-1.01a6.523,6.523,0,0,0-.05-.972h1.186a5.007,5.007,0,0,0-.063.959v1.023h2.512a1.822,1.822,0,0,0,.644-.089l.543.631a3.455,3.455,0,0,0-.518.531,18.831,18.831,0,0,1-2.7,2.411,23.57,23.57,0,0,1,4.557,2.121l-.619,1a23.279,23.279,0,0,0-3.66-1.969,7.315,7.315,0,0,1-.771-.379,1.418,1.418,0,0,1,.025.265,3.349,3.349,0,0,1,.013.417V350.6a8.839,8.839,0,0,0,.063,1.364Z" fill="#242424"/>
            <path id="パス_756" data-name="パス 756" d="M1385.84,341.118a6.133,6.133,0,0,0-.417.808c-.139.278-.265.492-.366.669a37.1,37.1,0,0,1,3.724-.076,2.189,2.189,0,0,0,.833-.126l.644.644a2.815,2.815,0,0,0-.366.833,20.414,20.414,0,0,1-1.679,3.484,12.373,12.373,0,0,1-5.63,4.633,2.934,2.934,0,0,0-.745-.934,12.633,12.633,0,0,0,2.574-1.339,9.159,9.159,0,0,0,2.147-1.931,14.9,14.9,0,0,0-2.765-1.982l.7-.77a17.63,17.63,0,0,1,2.727,1.881,14.781,14.781,0,0,0,1.641-3.446l-4.267.05a13.043,13.043,0,0,1-2.992,3.346,2.78,2.78,0,0,0-.883-.72,11.045,11.045,0,0,0,3.206-3.6,7.7,7.7,0,0,0,.744-1.729Z" fill="#242424"/>
            <path id="パス_757" data-name="パス 757" d="M1397.868,347.3v3.483c.669-.164,1.023-.265,1.944-.555l.025.9a25.248,25.248,0,0,1-3.559.934c-.1.025-.126.025-.581.126l-.2-1a9.509,9.509,0,0,0,1.438-.2V347.3h-.781v1.047c0,.631-.215.846-.8.846,0,0-.177-.012-.517-.025a2.076,2.076,0,0,0-.152-.909,2.832,2.832,0,0,0,.4.05c.164,0,.214-.037.214-.138v-4.444h-.783v7.107a7.519,7.519,0,0,0,.077,1.426h-1.035a7.91,7.91,0,0,0,.075-1.426v-7.107h-.783v4.393a11.6,11.6,0,0,0,.05,1.338h-.946a12.874,12.874,0,0,0,.063-1.376v-4.065q0-.758-.038-1.212a7.31,7.31,0,0,0,1.048.064h.606v-.834a8.237,8.237,0,0,0-.075-1.275h1.035a6.286,6.286,0,0,0-.077,1.275v.834h.7a4.4,4.4,0,0,0,.973-.064c-.026.329-.038.594-.038,1.162V346.5h.858V342.4a9.921,9.921,0,0,0-.05-1.237,9.155,9.155,0,0,0,1.312.063h2.991a8.261,8.261,0,0,0,1.338-.075v.934a7.542,7.542,0,0,0-1.236-.063h-3.447v.959h3.094a5.028,5.028,0,0,0,1.136-.075v.921a9.891,9.891,0,0,0-1.136-.063h-3.094v.946h3.094a6.174,6.174,0,0,0,1.136-.062v.909a7.319,7.319,0,0,0-1.136-.064h-3.094v1h4.053a6.9,6.9,0,0,0,1.187-.076v.959a8.932,8.932,0,0,0-1.225-.075h-2.374a5.034,5.034,0,0,0,.808,1.666,8.007,8.007,0,0,0,1.478-1.414l.744.581c-.126.126-.126.126-.517.492a12.636,12.636,0,0,1-1.149,1,7.661,7.661,0,0,0,2.486,1.654,3.1,3.1,0,0,0-.542.947,8.676,8.676,0,0,1-3.156-2.626,6.83,6.83,0,0,1-1.047-2.3Z" fill="#242424"/>
            <path id="パス_758" data-name="パス 758" d="M1411.779,349.753a3.708,3.708,0,0,0,1.994-3.371,3.26,3.26,0,0,0-1.869-3.068,3.353,3.353,0,0,0-1.413-.341,18.373,18.373,0,0,1-1.262,5.05c-.72,1.654-1.477,2.411-2.423,2.411-1.276,0-2.211-1.35-2.211-3.194a5.252,5.252,0,0,1,1.351-3.534,5.4,5.4,0,0,1,4.154-1.7c2.865,0,4.771,1.768,4.771,4.431a4.661,4.661,0,0,1-2.764,4.369,8.323,8.323,0,0,1-2.109.655,2.469,2.469,0,0,0-.542-1.022A6.923,6.923,0,0,0,1411.779,349.753Zm-4.179-6.161a4.31,4.31,0,0,0-1.969,3.661c0,1.149.505,2.057,1.161,2.057.492,0,.972-.58,1.49-1.767a17.185,17.185,0,0,0,1.123-4.544A3.572,3.572,0,0,0,1407.6,343.592Z" fill="#242424"/>
            <path id="パス_759" data-name="パス 759" d="M1420.249,340.979a6.992,6.992,0,0,0-.3.707,18.138,18.138,0,0,1-.91,2.07v6.931a10.684,10.684,0,0,0,.089,1.527h-1.137a11.435,11.435,0,0,0,.089-1.552v-4.027c0-.468.013-.72.051-1.566a9.948,9.948,0,0,1-1.477,1.843,2.929,2.929,0,0,0-.569-.909,10.39,10.39,0,0,0,2.589-3.7,7.08,7.08,0,0,0,.542-1.678Zm1.943,2.537a13.471,13.471,0,0,1-2.031,3.068,2.683,2.683,0,0,0-.7-.77,10.585,10.585,0,0,0,2.2-3.383,7.789,7.789,0,0,0,.543-1.793l1.035.329c-.1.239-.139.34-.252.643-.19.53-.24.682-.4,1.048h3.85a8,8,0,0,0,1.212-.075v1a9.961,9.961,0,0,0-1.212-.064h-2.79v1.907h2.4a6.278,6.278,0,0,0,1.15-.076v1.023a8.164,8.164,0,0,0-1.15-.076h-2.4v1.918h2.437a7.455,7.455,0,0,0,1.149-.075v1.035a7.8,7.8,0,0,0-1.149-.076h-2.437v1.793a7.314,7.314,0,0,0,.089,1.375h-1.149a8.441,8.441,0,0,0,.076-1.375v-7.373Z" fill="#242424"/>
            <path id="パス_760" data-name="パス 760" d="M1439.448,345.031c-.088.215-.139.316-.3.707-.013.038-.013.038-.353.821a10.294,10.294,0,0,1-1.376,2.373,5.023,5.023,0,0,0,1.123,1.515,1.427,1.427,0,0,0,.556.34c.177,0,.378-.669.53-1.792a3.121,3.121,0,0,0,.808.631c-.3,1.6-.67,2.234-1.288,2.234a2.43,2.43,0,0,1-1.376-.807,6.642,6.642,0,0,1-1.01-1.351,10.888,10.888,0,0,1-3.37,2.436,2.843,2.843,0,0,0-.707-.782,9.4,9.4,0,0,0,3.648-2.525,15.367,15.367,0,0,1-1.048-5.2H1431c-.013,1.023-.013,1.4-.025,1.957h2.373a5.816,5.816,0,0,0,.934-.051c-.038.3-.038.341-.076,1.124a12.081,12.081,0,0,1-.366,3.042c-.189.492-.5.644-1.325.644a7.337,7.337,0,0,1-1.225-.1,3.4,3.4,0,0,0-.2-.96,6.667,6.667,0,0,0,1.4.177c.417,0,.518-.1.619-.593a20.919,20.919,0,0,0,.164-2.424h-2.335a17.827,17.827,0,0,1-.4,3.4,6.421,6.421,0,0,1-.972,2.285,2.625,2.625,0,0,0-.795-.72,5.182,5.182,0,0,0,.9-1.982,24.556,24.556,0,0,0,.391-5.188,9.315,9.315,0,0,0-.076-1.54,13.65,13.65,0,0,0,1.553.063h3.712a15.766,15.766,0,0,0-.1-1.969h1.111a6.59,6.59,0,0,0-.063,1.123c0,.152,0,.328.013.846h2.688a6.8,6.8,0,0,0,1.351-.076v1.01a10.957,10.957,0,0,0-1.451-.063h-2.551a15.845,15.845,0,0,0,.758,4.343,9.542,9.542,0,0,0,1.452-3.333Zm-.871-2.348a7.389,7.389,0,0,0-1.666-1.351l.681-.492a8.713,8.713,0,0,1,1.655,1.263Z" fill="#242424"/>
          </g>
        </g>
      </g>
    </g>
    <g id="グループ分け_Grouping" data-name="グループ分け Grouping">
      <g id="グループ分け">
        <g id="グループ分け-2" style="isolation: isolate">
          <g id="グループ_688" data-name="グループ 688" style="isolation: isolate">
            <path id="パス_761" data-name="パス 761" d="M1423.256,397.585a1.181,1.181,0,0,0-.215.517,12.871,12.871,0,0,1-2.461,4.532,12.44,12.44,0,0,1-4.419,3.169,2.4,2.4,0,0,0-.757-.909,10.738,10.738,0,0,0,4.418-3.118,11.162,11.162,0,0,0,2.159-4.116l-4.128.064a12.486,12.486,0,0,1-2.991,3.256,2.337,2.337,0,0,0-.86-.77,9.607,9.607,0,0,0,3.194-3.522,5.325,5.325,0,0,0,.758-1.792l1.237.29a1.866,1.866,0,0,0-.277.493,11.908,11.908,0,0,1-.556,1.1,1.808,1.808,0,0,1,.467-.038l2.991-.051a1.417,1.417,0,0,0,.543-.063Zm-.315-2.828a9.864,9.864,0,0,1,1.324,1.956l-.744.417a8.816,8.816,0,0,0-1.313-1.994Zm1.438-.682a9.439,9.439,0,0,1,1.326,1.919l-.732.417a9.26,9.26,0,0,0-1.3-1.957Z" fill="#242424"/>
            <path id="パス_762" data-name="パス 762" d="M1429.05,395.54a6.744,6.744,0,0,0-.077,1.111c-.1,3.5-.2,4.418-.668,5.693a7.868,7.868,0,0,1-2.171,3.181,3.069,3.069,0,0,0-.909-.846,6.065,6.065,0,0,0,2.082-2.891,16.917,16.917,0,0,0,.555-5.314,6.439,6.439,0,0,0-.037-1Zm3.206-.152a7.226,7.226,0,0,0-.089,1.313l-.063,7.334a5.543,5.543,0,0,0,2.222-1.464,6.182,6.182,0,0,0,1.427-2.462,4.15,4.15,0,0,0,.833.871,7.253,7.253,0,0,1-2.6,3.308,8.672,8.672,0,0,1-1.78.908c-.151.051-.278.1-.4.152a2.273,2.273,0,0,0-.3.139l-.593-.656a2.974,2.974,0,0,0,.088-1l.075-7.145v-.277a5.416,5.416,0,0,0-.063-1.036Z" fill="#242424"/>
            <path id="パス_763" data-name="パス 763" d="M1437.936,399.706a13.871,13.871,0,0,0,1.741.075h7.095a10.485,10.485,0,0,0,1.7-.075v1.249a14.629,14.629,0,0,0-1.716-.063h-7.07a13.692,13.692,0,0,0-1.754.063Z" fill="#242424"/>
            <path id="パス_764" data-name="パス 764" d="M1456.67,396.247a2.026,2.026,0,0,1-.025-.291,1.438,1.438,0,1,1,1.438,1.439,1.513,1.513,0,0,1-.417-.063l-.075.265a10.929,10.929,0,0,1-3.156,5.5,11.827,11.827,0,0,1-3.989,2.424,3.067,3.067,0,0,0-.757-1.048,9.865,9.865,0,0,0,2.827-1.325,9.242,9.242,0,0,0,3.939-5.87h-6.236a12.136,12.136,0,0,0-1.54.075v-1.2a8.8,8.8,0,0,0,1.565.089Zm.53-.291a.884.884,0,1,0,.883-.884A.894.894,0,0,0,1457.2,395.956Z" fill="#242424"/>
            <path id="パス_765" data-name="パス 765" d="M1464.873,395.1a3.734,3.734,0,0,0-.353.643,12.7,12.7,0,0,1-3.976,4.8,3.348,3.348,0,0,0-.72-.847,10.177,10.177,0,0,0,3.421-3.673,4.387,4.387,0,0,0,.518-1.313Zm-1.35,4.936a8.846,8.846,0,0,0-1.237.075v-1.035a11.459,11.459,0,0,0,1.237.063h4.3a9.481,9.481,0,0,0,1.326-.063,4.9,4.9,0,0,0-.038.922,16.516,16.516,0,0,1-.568,5.213c-.227.43-.568.569-1.413.569-.38,0-.808-.026-1.553-.089a4.487,4.487,0,0,0-.253-1.06,8.936,8.936,0,0,0,1.717.2c.542,0,.632-.076.77-.733a22.258,22.258,0,0,0,.29-4.064h-2.8a7.862,7.862,0,0,1-.177,1.274,6.837,6.837,0,0,1-4,4.772,3.278,3.278,0,0,0-.656-.858,6.228,6.228,0,0,0,3.143-2.689,5.687,5.687,0,0,0,.682-2.5Zm4.077-5.3a4.525,4.525,0,0,0,.493,1.073,10.307,10.307,0,0,0,3.648,3.85,4.079,4.079,0,0,0-.695.934,12.767,12.767,0,0,1-4.165-4.936c-.1-.2-.2-.391-.277-.517Z" fill="#242424"/>
            <path id="パス_766" data-name="パス 766" d="M1475.224,395.375a21.407,21.407,0,0,0-.769,5.517c0,.543.025,1.136.088,1.818.013.227.038.58.051.808a12.454,12.454,0,0,1,.959-2.614l.808.379a18.162,18.162,0,0,0-.96,2.26,4.746,4.746,0,0,0-.365,1.628l-1.036.064a3.6,3.6,0,0,0-.1-.442,15.374,15.374,0,0,1-.466-3.85,26.2,26.2,0,0,1,.492-4.835,4.057,4.057,0,0,0,.1-.884Zm1.175,2.487a9.285,9.285,0,0,0,2.159.177,14.362,14.362,0,0,0,1.552-.075,25.229,25.229,0,0,0-.164-2.892l1.149-.012a2.682,2.682,0,0,0-.026.416c0,.076,0,.139.013.379.013.278.025.947.063,2.007a7.247,7.247,0,0,0,1.982-.517l.063,1.073c-.227.037-.277.05-.682.139a11.5,11.5,0,0,1-1.338.252c.013.29.013.29.013.909a9.088,9.088,0,0,1-.442,3.408,4.883,4.883,0,0,1-2.538,2.664,3.7,3.7,0,0,0-.845-.82,5,5,0,0,0,1.931-1.44c.632-.8.859-1.729.859-3.623,0-.29,0-.656-.012-1-.493.038-1.275.076-1.843.076-.367,0-.9-.013-1.491-.051a1.787,1.787,0,0,0-.227-.012h-.176Z" fill="#242424"/>
          </g>
        </g>
      </g>
    </g>
    <g id="Instagram_Twitterによる広報活動_Public_relations_activites_using_Twitter_and_Instagram" data-name="Instagram Twitterによる広報活動 Public relations activites using Twitter and Instagram">
      <g id="Instagram_Twitterによる広報活動" data-name="Instagram Twitterによる広報活動">
        <g id="による広報活動" style="isolation: isolate">
          <g id="グループ_689" data-name="グループ 689" style="isolation: isolate">
            <path id="パス_767" data-name="パス 767" d="M1592.647,331.445a8.365,8.365,0,0,0-.084,1.323v6.069a8.174,8.174,0,0,0,.084,1.322h-1.177a7.758,7.758,0,0,0,.085-1.322v-6.069a7.609,7.609,0,0,0-.085-1.323Z" fill="#242424"/>
            <path id="パス_768" data-name="パス 768" d="M1594.173,340.159a8.243,8.243,0,0,0,.086-1.333v-3.55a8.429,8.429,0,0,0-.086-1.333h1.04v.667a4.772,4.772,0,0,1-.022.486,2.331,2.331,0,0,1,2.143-1.266,1.948,1.948,0,0,1,1.729.836,2.613,2.613,0,0,1,.317,1.39v2.781a8.965,8.965,0,0,0,.075,1.322h-1.113a10.787,10.787,0,0,0,.074-1.333v-2.611c0-.995-.414-1.5-1.219-1.5a1.779,1.779,0,0,0-1.444.8,2.57,2.57,0,0,0-.54,1.1v2.215a10.922,10.922,0,0,0,.074,1.333Z" fill="#242424"/>
            <path id="パス_769" data-name="パス 769" d="M1601.635,338.272a1.278,1.278,0,0,0,.361.8,1.662,1.662,0,0,0,1.177.385c.87,0,1.432-.4,1.432-1.018a.745.745,0,0,0-.319-.666,3.3,3.3,0,0,0-1.209-.4,4.1,4.1,0,0,1-1.558-.554,1.5,1.5,0,0,1-.669-1.289,1.591,1.591,0,0,1,.467-1.13,2.333,2.333,0,0,1,1.75-.621,2.488,2.488,0,0,1,1.749.576,1.97,1.97,0,0,1,.574,1.051l-1,.159a1.129,1.129,0,0,0-.255-.577,1.337,1.337,0,0,0-1.061-.418c-.741,0-1.261.385-1.261.95a.674.674,0,0,0,.349.6,4.039,4.039,0,0,0,1.135.374,4.1,4.1,0,0,1,1.687.621,1.6,1.6,0,0,1,.594,1.255c0,1.187-.934,1.91-2.462,1.91a2.489,2.489,0,0,1-2.163-.916,2.306,2.306,0,0,1-.36-.927Z" fill="#242424"/>
            <path id="パス_770" data-name="パス 770" d="M1608.546,332.248a11.254,11.254,0,0,0-.074,1.288v.407h.488a5.88,5.88,0,0,0,1.082-.068v.995a5.752,5.752,0,0,0-1.072-.068h-.5v3.8a.808.808,0,0,0,.149.6.732.732,0,0,0,.508.169,1.416,1.416,0,0,0,.827-.271l.235.916a2.843,2.843,0,0,1-1.231.26,1.582,1.582,0,0,1-1.124-.351,1.527,1.527,0,0,1-.33-1.153V334.8h-.423a6.326,6.326,0,0,0-.944.068v-.995a4.48,4.48,0,0,0,.954.068h.413v-.407a11.606,11.606,0,0,0-.074-1.288Z" fill="#242424"/>
            <path id="パス_771" data-name="パス 771" d="M1614.9,339.4a2.607,2.607,0,0,1-.944.644,3.064,3.064,0,0,1-1.166.215,1.707,1.707,0,0,1-1.92-1.763,1.933,1.933,0,0,1,1.432-1.865,8.062,8.062,0,0,1,2.6-.327v-.588c0-.769-.413-1.131-1.315-1.131a1.639,1.639,0,0,0-1.283.475,1.5,1.5,0,0,0-.308.61l-.987-.2a2.1,2.1,0,0,1,.659-1.085,2.792,2.792,0,0,1,1.93-.622,2.35,2.35,0,0,1,1.771.588,1.8,1.8,0,0,1,.456,1.368v3.142a8.429,8.429,0,0,0,.084,1.3H1614.9Zm0-2.328a6.169,6.169,0,0,0-2.27.317,1.139,1.139,0,0,0-.795,1.107.954.954,0,0,0,1.082.961,2.31,2.31,0,0,0,1.633-.735,1.3,1.3,0,0,0,.35-.972Z" fill="#242424"/>
            <path id="パス_772" data-name="パス 772" d="M1618.073,340.77a1.947,1.947,0,0,0,1.719.893,1.787,1.787,0,0,0,1.814-1.119,5.2,5.2,0,0,0,.212-1.548,2.029,2.029,0,0,1-.456.587,2.544,2.544,0,0,1-1.612.531c-1.645,0-2.683-1.209-2.683-3.119s1.06-3.154,2.735-3.154a2.245,2.245,0,0,1,2.016,1.063,2.615,2.615,0,0,1-.022-.385v-.576h1a9.738,9.738,0,0,0-.074,1.311v3.967a3.438,3.438,0,0,1-.679,2.453,3.022,3.022,0,0,1-2.271.825,2.913,2.913,0,0,1-2.492-1.141Zm1.751-1.492c1.155,0,1.952-.95,1.952-2.351,0-1.345-.753-2.238-1.889-2.238s-1.834.893-1.834,2.328C1618.053,338.408,1618.732,339.278,1619.824,339.278Z" fill="#242424"/>
            <path id="パス_773" data-name="パス 773" d="M1627.848,334.971a2.358,2.358,0,0,0-.869-.169,1.517,1.517,0,0,0-1.294.644,2.011,2.011,0,0,0-.4,1.142v2.238a10.365,10.365,0,0,0,.074,1.333h-1.114a9.666,9.666,0,0,0,.074-1.333v-3.55a9.206,9.206,0,0,0-.074-1.333h1.04v.768c-.011.08-.011.1-.022.193a2.015,2.015,0,0,1,.488-.6,2.132,2.132,0,0,1,1.4-.464,4.73,4.73,0,0,1,.976.1Z" fill="#242424"/>
            <path id="パス_774" data-name="パス 774" d="M1632.831,339.4a2.619,2.619,0,0,1-.945.644,3.067,3.067,0,0,1-1.166.215,1.707,1.707,0,0,1-1.92-1.763,1.933,1.933,0,0,1,1.432-1.865,8.064,8.064,0,0,1,2.6-.327v-.588c0-.769-.414-1.131-1.316-1.131a1.639,1.639,0,0,0-1.283.475,1.486,1.486,0,0,0-.308.61l-.987-.2a2.1,2.1,0,0,1,.659-1.085,2.792,2.792,0,0,1,1.93-.622,2.349,2.349,0,0,1,1.771.588,1.8,1.8,0,0,1,.456,1.368v3.142a8.43,8.43,0,0,0,.084,1.3h-1.006Zm0-2.328a6.167,6.167,0,0,0-2.271.317,1.139,1.139,0,0,0-.8,1.107.954.954,0,0,0,1.082.961,2.31,2.31,0,0,0,1.633-.735,1.3,1.3,0,0,0,.351-.972Z" fill="#242424"/>
            <path id="パス_775" data-name="パス 775" d="M1635.254,340.159a9.618,9.618,0,0,0,.075-1.333v-3.55a8.9,8.9,0,0,0-.075-1.333h1.03v.565c0,.034-.011.2-.011.238a1.061,1.061,0,0,0-.011.169,2.061,2.061,0,0,1,1.91-1.1,1.7,1.7,0,0,1,1.378.554,1.419,1.419,0,0,1,.329.621,2.148,2.148,0,0,1,2-1.175,1.811,1.811,0,0,1,1.56.678,2.377,2.377,0,0,1,.4,1.537v2.8a9.146,9.146,0,0,0,.075,1.322h-1.113a8.165,8.165,0,0,0,.074-1.333v-2.634c0-.689-.117-1.051-.435-1.288a1.177,1.177,0,0,0-.721-.2,1.543,1.543,0,0,0-1.284.779,2.633,2.633,0,0,0-.371,1.119v2.238a9.325,9.325,0,0,0,.074,1.322h-1.113a9.378,9.378,0,0,0,.073-1.333v-2.634c0-.983-.392-1.491-1.145-1.491a1.646,1.646,0,0,0-1.3.825,2.842,2.842,0,0,0-.371,1.073v2.227a10.25,10.25,0,0,0,.074,1.333Z" fill="#242424"/>
            <path id="パス_776" data-name="パス 776" d="M1646.564,340.159c0,.871-.169,1.187-.795,1.526l-.318-.441c.509-.2.593-.373.6-1.085h-.7v-1.277h1.209Z" fill="#242424"/>
            <path id="パス_777" data-name="パス 777" d="M1651.293,338.826a8.073,8.073,0,0,0,.085,1.333h-1.166a8.858,8.858,0,0,0,.084-1.333v-6.431h-1.59a7.779,7.779,0,0,0-1.284.079v-1.108a7.973,7.973,0,0,0,1.272.079h4.147a7.715,7.715,0,0,0,1.347-.079v1.108a8.036,8.036,0,0,0-1.347-.079h-1.548Z" fill="#242424"/>
            <path id="パス_778" data-name="パス 778" d="M1658.183,333.943a5.632,5.632,0,0,0,.223.916l.828,2.678a11.382,11.382,0,0,1,.317,1.368c.149-.769.213-1.074.361-1.65l.563-2.046a6.416,6.416,0,0,0,.233-1.266h1.134c-.106.294-.19.543-.424,1.356l-1.156,3.945a8.563,8.563,0,0,0-.233.915h-.87a8.666,8.666,0,0,0-.233-.915l-.976-3.12c-.021-.09-.064-.248-.191-.723-.074.3-.17.645-.2.746l-.965,3.1a9.34,9.34,0,0,0-.245.915h-.88a9.455,9.455,0,0,0-.233-.926l-1.145-3.934c-.138-.452-.308-.983-.435-1.356h1.134a7.033,7.033,0,0,0,.245,1.266l.593,2.159c.106.418.223.972.319,1.525.127-.576.275-1.164.371-1.48l.806-2.554a6.5,6.5,0,0,0,.223-.916Z" fill="#242424"/>
            <path id="パス_779" data-name="パス 779" d="M1664.361,331.445v1.131h-1.178v-1.131Zm-.032,2.5a9.2,9.2,0,0,0-.074,1.345v3.538a10.3,10.3,0,0,0,.074,1.333H1663.2a11.177,11.177,0,0,0,.074-1.333v-3.55a9.62,9.62,0,0,0-.074-1.333Z" fill="#242424"/>
            <path id="パス_780" data-name="パス 780" d="M1667.6,332.248a11.254,11.254,0,0,0-.074,1.288v.407h.488a5.88,5.88,0,0,0,1.082-.068v.995a5.752,5.752,0,0,0-1.072-.068h-.5v3.8a.813.813,0,0,0,.148.6.738.738,0,0,0,.509.169,1.418,1.418,0,0,0,.827-.271l.234.916a2.839,2.839,0,0,1-1.23.26,1.586,1.586,0,0,1-1.125-.351,1.532,1.532,0,0,1-.329-1.153V334.8h-.424a6.346,6.346,0,0,0-.944.068v-.995a4.491,4.491,0,0,0,.955.068h.413v-.407a11.848,11.848,0,0,0-.074-1.288Z" fill="#242424"/>
            <path id="パス_781" data-name="パス 781" d="M1671.9,332.248a11.254,11.254,0,0,0-.074,1.288v.407h.488a5.88,5.88,0,0,0,1.082-.068v.995a5.752,5.752,0,0,0-1.072-.068h-.5v3.8a.813.813,0,0,0,.148.6.738.738,0,0,0,.509.169,1.418,1.418,0,0,0,.827-.271l.235.916a2.843,2.843,0,0,1-1.231.26,1.587,1.587,0,0,1-1.125-.351,1.532,1.532,0,0,1-.329-1.153V334.8h-.424a6.346,6.346,0,0,0-.944.068v-.995a4.5,4.5,0,0,0,.955.068h.413v-.407a11.848,11.848,0,0,0-.074-1.288Z" fill="#242424"/>
            <path id="パス_782" data-name="パス 782" d="M1675.087,337.243a2.581,2.581,0,0,0,.424,1.5,1.795,1.795,0,0,0,2.8.1,1.592,1.592,0,0,0,.34-.655l.891.35a2.693,2.693,0,0,1-.594.961,2.646,2.646,0,0,1-2.005.825c-1.718,0-2.811-1.266-2.811-3.278,0-1.978,1.083-3.266,2.737-3.266a2.633,2.633,0,0,1,2.651,2.543,9.023,9.023,0,0,1,.075.915Zm3.51-.825a2.079,2.079,0,0,0-.53-1.3,1.679,1.679,0,0,0-2.683.44,2.214,2.214,0,0,0-.265.859Z" fill="#242424"/>
            <path id="パス_783" data-name="パス 783" d="M1684.383,334.971a2.36,2.36,0,0,0-.87-.169,1.515,1.515,0,0,0-1.293.644,2.019,2.019,0,0,0-.4,1.142v2.238a10.356,10.356,0,0,0,.075,1.333h-1.115a9.691,9.691,0,0,0,.075-1.333v-3.55a9.208,9.208,0,0,0-.075-1.333h1.04v.768c-.01.08-.01.1-.021.193a1.985,1.985,0,0,1,.488-.6,2.132,2.132,0,0,1,1.4-.464,4.723,4.723,0,0,1,.976.1Z" fill="#242424"/>
            <path id="パス_784" data-name="パス 784" d="M1687,338.506a11.516,11.516,0,0,1,.687-2.31l.71.353a10.768,10.768,0,0,0-.994,3.56,2,2,0,0,0,.012.24l-1.031.076c-.023-.2-.035-.278-.07-.531a20.179,20.179,0,0,1-.308-3.6,23.047,23.047,0,0,1,.521-5,8.3,8.3,0,0,0,.166-1.073l1.124.164a16.245,16.245,0,0,0-.592,2.513,24.85,24.85,0,0,0-.272,3.863c0,.252.012.858.023,1.2,0,.278.013.328.013.543Zm3.883-2.979a2.936,2.936,0,0,0-.888,1.855c0,.859.734,1.288,2.167,1.288a7.725,7.725,0,0,0,2.757-.442l.108,1.149c-.154.025-.178.025-.426.076a12.748,12.748,0,0,1-2.439.24,3.191,3.191,0,0,1-2.783-1,2.127,2.127,0,0,1-.355-1.212,3.805,3.805,0,0,1,1.054-2.386Zm-1.634-3.851a7.687,7.687,0,0,0,2,.189,12.35,12.35,0,0,0,3.243-.34l.06,1.073q-.054,0-.817.114a19.35,19.35,0,0,1-2.521.164,13.369,13.369,0,0,1-1.586-.089,1.39,1.39,0,0,1-.214-.025c-.071-.013-.095-.013-.189-.025Z" fill="#242424"/>
            <path id="パス_785" data-name="パス 785" d="M1701.364,329.922a13.926,13.926,0,0,0-.06,1.8c0,.227,0,.442.012,1.123a11.723,11.723,0,0,0,3.468-.467l.108,1.1a5.864,5.864,0,0,0-.735.089,21.789,21.789,0,0,1-2.817.252c.024,1.1.071,2.159.142,3.131a10.261,10.261,0,0,1,3.136,1.78c.274.2.333.24.569.4l-.662,1.048a8.722,8.722,0,0,0-2.735-2.033,1.965,1.965,0,0,1-.284-.151,2.141,2.141,0,0,1,.046.517,2.222,2.222,0,0,1-.318,1.263,2.489,2.489,0,0,1-2.167.871c-1.6,0-2.557-.733-2.557-1.957s1.124-2.07,2.794-2.07a4.606,4.606,0,0,1,1.2.151c-.058-.429-.177-3.85-.2-5.806a7.088,7.088,0,0,0-.047-1.048Zm-2.072,7.675c-1.066,0-1.764.441-1.764,1.111,0,.581.592.959,1.5.959a1.763,1.763,0,0,0,1.243-.4,1.063,1.063,0,0,0,.272-.821,6.868,6.868,0,0,0-.036-.694A4,4,0,0,0,1699.292,337.6Z" fill="#242424"/>
            <path id="パス_786" data-name="パス 786" d="M1707.881,330.641a5.882,5.882,0,0,0,1.2.076c.994,0,2.558-.076,3.611-.164a1.157,1.157,0,0,0,.616-.151l.568.82a2.151,2.151,0,0,0-.6.53,28.86,28.86,0,0,1-3.824,3.446l.024.051a5.5,5.5,0,0,1,2.783-.732c1.988,0,3.267,1.06,3.267,2.7,0,2-1.741,3.333-4.358,3.333a2.957,2.957,0,0,1-2.4-.821,1.792,1.792,0,0,1-.355-1.06,1.656,1.656,0,0,1,1.811-1.566,2.381,2.381,0,0,1,1.977,1.036,3.644,3.644,0,0,1,.533,1.2,2.772,2.772,0,0,0,.97-.48,1.968,1.968,0,0,0,.806-1.616c0-1.161-.936-1.855-2.487-1.855a7.276,7.276,0,0,0-4.972,2.145l-.6-.959a39.132,39.132,0,0,0,5.5-4.86c.048-.05.059-.063.095-.1l.13-.138-.011-.026a.262.262,0,0,1-.095.012c-.438.076-1.776.152-3.505.228a5.362,5.362,0,0,0-.627.063Zm2.332,7.335c-.532,0-.876.277-.876.719,0,.594.651.972,1.681.972a3.886,3.886,0,0,0,.781-.076C1711.55,338.531,1711.018,337.976,1710.213,337.976Z" fill="#242424"/>
            <path id="パス_787" data-name="パス 787" d="M1722.213,330.477a3.027,3.027,0,0,0-.071-.77h1.054a3.645,3.645,0,0,0-.06.8v.682h3.137a8.012,8.012,0,0,0,1.3-.076v1.048a8,8,0,0,0-1.3-.063h-7.256c-.024,4.923-.332,6.855-1.456,8.925a4.4,4.4,0,0,0-.758-.783c.971-1.691,1.267-3.446,1.267-7.448,0-.871-.012-1.262-.047-1.666a8.646,8.646,0,0,0,1.206.063h2.984Zm-3.433,9.038a1.741,1.741,0,0,0,.367.026c.189,0,.544-.013.9-.026a28.9,28.9,0,0,0,2.191-6.842l1.089.291c-.107.353-.107.353-.51,1.755a37.4,37.4,0,0,1-1.74,4.721,37.178,37.178,0,0,0,4.523-.594,21.049,21.049,0,0,0-1.753-2.663l.782-.492a26.77,26.77,0,0,1,2.876,4.835l-.84.593a12.809,12.809,0,0,0-.639-1.477,47.066,47.066,0,0,1-5.872.845,8.589,8.589,0,0,0-1.172.139Z" fill="#242424"/>
            <path id="パス_788" data-name="パス 788" d="M1733.135,333.128a4.916,4.916,0,0,0,.959-.063v.959a4.191,4.191,0,0,0-.711-.05,13.052,13.052,0,0,1-.556,1.729h.284a4.421,4.421,0,0,0,.959-.063v.96a6.241,6.241,0,0,0-.959-.051H1732v1.313h1.007a5.959,5.959,0,0,0,.9-.05v.946a6.13,6.13,0,0,0-.9-.05H1732v1.186a10.384,10.384,0,0,0,.071,1.225h-.981a10.757,10.757,0,0,0,.07-1.225v-1.186h-1.113a6.191,6.191,0,0,0-.911.05v-.946a6.038,6.038,0,0,0,.911.05h1.113v-1.313h-1.325a6.721,6.721,0,0,0-.971.051v-.96a4.831,4.831,0,0,0,.971.063h.39a14.51,14.51,0,0,0-.45-1.729,5.939,5.939,0,0,0-.9.05v-.959a5.127,5.127,0,0,0,.971.063h1.314V331.84h-1.018a6.467,6.467,0,0,0-.923.051v-.947a5.66,5.66,0,0,0,.923.051h1.018v-.341a6.721,6.721,0,0,0-.07-1.048h.981a6.062,6.062,0,0,0-.082,1.048v.341h.888a5.426,5.426,0,0,0,.9-.051v.947a5.91,5.91,0,0,0-.9-.051h-.888v1.288Zm-1.1,2.575a8.738,8.738,0,0,0,.533-1.729h-2A13.517,13.517,0,0,1,1731,335.7Zm3.209-.757v4.847a9.348,9.348,0,0,0,.082,1.326h-1.006a9.272,9.272,0,0,0,.083-1.338V331.31a11.863,11.863,0,0,0-.06-1.212,7.224,7.224,0,0,0,1.126.064h2.781a6.268,6.268,0,0,0,1.018-.051c-.035.265-.035.265-.071.808-.165,2.1-.331,2.348-1.479,2.348a11.154,11.154,0,0,1-1.113-.076,3.636,3.636,0,0,0-.178-.883,7.92,7.92,0,0,0,1.315.164c.449,0,.5-.127.579-1.465h-3.077v3.106h2.45a5.832,5.832,0,0,0,.994-.051l.485.531a2.991,2.991,0,0,0-.141.53,13.471,13.471,0,0,1-1.149,3.282,7.632,7.632,0,0,0,1.882,1.729,3.776,3.776,0,0,0-.532.884,9.7,9.7,0,0,1-1.811-1.8,9.27,9.27,0,0,1-1.527,1.792,4.715,4.715,0,0,0-.592-.8,7.4,7.4,0,0,0,1.574-1.755,10.341,10.341,0,0,1-1.315-3.509Zm1.089,0a8.487,8.487,0,0,0,1.005,2.689,10.121,10.121,0,0,0,.865-2.689Z" fill="#242424"/>
            <path id="パス_789" data-name="パス 789" d="M1741.063,332.838a11.394,11.394,0,0,1,2.189,1.464l-.509.846a10.132,10.132,0,0,0-2.178-1.578Zm2.272,4.14a24.7,24.7,0,0,1-1.894,3.8l-.805-.745a4.487,4.487,0,0,0,.379-.467,12.839,12.839,0,0,0,1.6-3.181Zm-1.764-7.321a14.057,14.057,0,0,1,2.048,1.678l-.544.783a11.586,11.586,0,0,0-2.083-1.767Zm5.374,1.729a24.55,24.55,0,0,1-2.651.29,3.262,3.262,0,0,0-.343-.9,20.977,20.977,0,0,0,4.913-.669,6.056,6.056,0,0,0,1.456-.53l.627.909c-.142.037-.142.037-.437.126-.652.19-1.469.379-2.677.619v2.045h2.25a7.927,7.927,0,0,0,1.231-.076v1.047a8.489,8.489,0,0,0-1.231-.075h-2.25v1.994h1.883a5.518,5.518,0,0,0,.911-.05,9.368,9.368,0,0,0-.047,1.149v2.486a10.61,10.61,0,0,0,.06,1.237h-.948v-.681h-4.428v.681h-.946a11.84,11.84,0,0,0,.058-1.249v-2.525a10.221,10.221,0,0,0-.046-1.1,5.673,5.673,0,0,0,.888.05h1.727v-1.994H1744.8a8.835,8.835,0,0,0-1.231.075V333.2a7.963,7.963,0,0,0,1.219.076h2.154Zm-1.681,8.028h4.428v-2.373h-4.428Z" fill="#242424"/>
            <path id="パス_790" data-name="パス 790" d="M1755.194,331.07c-.745.089-1.291.152-2.143.2a2.859,2.859,0,0,0-.331-.757,14.58,14.58,0,0,0,5.007-.821l.557.758a1.872,1.872,0,0,0-.427.1c-.638.164-1.208.278-1.858.391v.921h1.385a5.3,5.3,0,0,0,1.054-.062v.87a4.6,4.6,0,0,0-.912-.05H1756v.707h1.231c.486,0,.746-.013,1.018-.038-.024.24-.024.454-.024,1.111v1.54c0,.618.013,1.022.024,1.174-.32-.013-.545-.025-1.077-.025H1756v.757h1.172a6.794,6.794,0,0,0,1.077-.05v.871a4.99,4.99,0,0,0-.923-.05H1756v.82c.628-.076,1.041-.139,2.19-.328v.77a8.12,8.12,0,0,0,1.3-2.967,19.385,19.385,0,0,0,.4-3.61h-.225a6.338,6.338,0,0,0-1.065.063v-1a6.99,6.99,0,0,0,.982.05h.332c.011-.417.023-.656.023-1.086a7.1,7.1,0,0,0-.083-1.565h1.006a4.206,4.206,0,0,0-.071.985c-.011.227-.011.227-.024,1.666h1.137a8.981,8.981,0,0,0,1.078-.05c-.036.29-.048.567-.071,1.325a46.734,46.734,0,0,1-.285,5.365c-.189,1.49-.461,1.818-1.515,1.818a10.91,10.91,0,0,1-1.148-.076,3.293,3.293,0,0,0-.178-1,5.722,5.722,0,0,0,1.2.164c.45,0,.568-.076.674-.467a32.443,32.443,0,0,0,.4-6.2h-1.314a20.871,20.871,0,0,1-.474,4.077,9.087,9.087,0,0,1-1.787,3.7,2.62,2.62,0,0,0-.8-.619c.237-.252.308-.34.485-.555-1.894.328-2.462.4-4.877.656a3.872,3.872,0,0,0-.639.089l-.166-1.01a3.8,3.8,0,0,0,.509.025c.426,0,1.137-.05,2.2-.139v-.908H1753.9a9.45,9.45,0,0,0-1.077.062v-.9a5.932,5.932,0,0,0,1.077.063h1.291v-.757h-1.113c-.5,0-.793.012-1.1.038.024-.316.036-.569.036-1.187v-1.528c0-.63-.012-.744-.036-1.123.308.025.627.038,1.125.038h1.089v-.707h-1.575a6.07,6.07,0,0,0-1.054.063V331.8a6.494,6.494,0,0,0,1.066.062h1.563Zm-1.385,2.967v.808h1.385v-.808Zm0,1.515v.833h1.385v-.833Zm2.19-.707h1.432v-.808H1756Zm0,1.54h1.432v-.833H1756Z" fill="#242424"/>
          </g>
        </g>
      </g>
    </g>
    <g id="Web_ポスターの制作_Production_of_web_and_poster" data-name="Web ポスターの制作 Production of web and poster">
      <g id="Web_ポスターの制作" data-name="Web ポスターの制作">
        <g id="Web_" data-name="Web " style="isolation: isolate">
          <g id="グループ_690" data-name="グループ 690" style="isolation: isolate">
            <path id="パス_791" data-name="パス 791" d="M1363.3,499.061a10.057,10.057,0,0,0,.291,1.25l1.615,5.34c.063.214.165.643.38,1.59.176-.921.29-1.439.328-1.565l1.4-5.289a6.845,6.845,0,0,0,.227-1.326h1.477a10.027,10.027,0,0,0-.493,1.451l-2.007,7.007c-.277,1.01-.277,1.01-.328,1.275h-1.187a9.838,9.838,0,0,0-.315-1.237l-1.578-5.239a14.366,14.366,0,0,1-.366-1.5c-.139.631-.278,1.161-.378,1.5l-1.566,5.239a9.5,9.5,0,0,0-.315,1.237h-1.175a11.529,11.529,0,0,0-.341-1.275l-2.007-7.007a9.364,9.364,0,0,0-.5-1.451h1.489a6.721,6.721,0,0,0,.24,1.326l1.4,5.3c.063.24.2.9.328,1.553.089-.467.291-1.325.354-1.515l1.628-5.415a7.7,7.7,0,0,0,.278-1.25Z" fill="#242424"/>
            <path id="パス_792" data-name="パス 792" d="M1370.876,505.537a2.765,2.765,0,0,0,.505,1.679,2.228,2.228,0,0,0,3.334.113,1.747,1.747,0,0,0,.4-.732l1.06.392a2.983,2.983,0,0,1-.707,1.073,3.257,3.257,0,0,1-2.386.921c-2.044,0-3.345-1.414-3.345-3.661,0-2.209,1.288-3.648,3.257-3.648a3.058,3.058,0,0,1,3.156,2.84,9.692,9.692,0,0,1,.088,1.023Zm4.179-.922a2.244,2.244,0,0,0-.632-1.452,1.989,1.989,0,0,0-1.451-.542,1.939,1.939,0,0,0-1.742,1.035,2.385,2.385,0,0,0-.316.959Z" fill="#242424"/>
            <path id="パス_793" data-name="パス 793" d="M1377.655,508.794a10.609,10.609,0,0,0,.089-1.528v-6.7a11.6,11.6,0,0,0-.089-1.5h1.3a10.35,10.35,0,0,0-.088,1.5v1.553c0,.353-.012.606-.037.9a2.94,2.94,0,0,1,2.6-1.313c1.983,0,3.169,1.338,3.169,3.573,0,2.272-1.225,3.648-3.244,3.648a2.93,2.93,0,0,1-2.524-1.224v.1c.012.113.012.113.025.378v.619Zm3.636-6.122a2.651,2.651,0,0,0-.05,5.276c1.363,0,2.184-1.01,2.184-2.676C1383.425,503.631,1382.642,502.672,1381.291,502.672Z" fill="#242424"/>
            <path id="パス_794" data-name="パス 794" d="M1387.45,508.794c0,.972-.2,1.325-.947,1.7l-.378-.492c.606-.228.706-.417.719-1.212h-.833v-1.427h1.439Z" fill="#242424"/>
          </g>
        </g>
        <g id="ポスターの制作" style="isolation: isolate">
          <g id="グループ_691" data-name="グループ 691" style="isolation: isolate">
            <path id="パス_795" data-name="パス 795" d="M1393.2,503.189a2.757,2.757,0,0,0-.113.354,12.065,12.065,0,0,1-2.248,4.809,3.423,3.423,0,0,0-1.022-.618,8.28,8.28,0,0,0,1.83-3.169,6.82,6.82,0,0,0,.429-1.679Zm1.628-3.181a7.942,7.942,0,0,0-.075-1.3h1.236a8.406,8.406,0,0,0-.075,1.326v.782h3.055a9.654,9.654,0,0,0,1.552-.088v1.136a12.636,12.636,0,0,0-1.527-.063h-3.068v6.172a10.026,10.026,0,0,0,.063,1.427h-1.236a9.982,9.982,0,0,0,.075-1.427V501.8h-2.992a12.41,12.41,0,0,0-1.515.063v-1.136a9.737,9.737,0,0,0,1.528.088h2.979Zm3.762,2.891a9.417,9.417,0,0,0,.467,1.426,10.939,10.939,0,0,0,1.906,3.383,4.283,4.283,0,0,0-.985.669,14.964,14.964,0,0,1-1.931-3.749c-.126-.366-.252-.719-.366-1.085a2.138,2.138,0,0,0-.139-.366Zm2.676-3.825a1.439,1.439,0,1,1-1.438-1.439A1.438,1.438,0,0,1,1401.267,499.074Zm-2.323,0a.884.884,0,1,0,.885-.884A.9.9,0,0,0,1398.944,499.074Z" fill="#242424"/>
            <path id="パス_796" data-name="パス 796" d="M1411.555,508.958a25.223,25.223,0,0,0-3.975-3.85,13.981,13.981,0,0,1-2.4,2.222,16.167,16.167,0,0,1-2.461,1.5,3.3,3.3,0,0,0-.733-1,12.221,12.221,0,0,0,4.178-2.827,13.126,13.126,0,0,0,2.8-4.14,1.006,1.006,0,0,1,.076-.165.855.855,0,0,0,.037-.1c-.151.013-.151.013-4.292.076a10.463,10.463,0,0,0-1.451.1l-.038-1.2a6.518,6.518,0,0,0,1.2.076h.278l4.367-.051a2.37,2.37,0,0,0,.9-.114l.618.632a2.175,2.175,0,0,0-.365.631,16.371,16.371,0,0,1-2.033,3.509,31.973,31.973,0,0,1,4.191,3.711Z" fill="#242424"/>
            <path id="パス_797" data-name="パス 797" d="M1418.851,498.569a6.248,6.248,0,0,0-.418.808c-.138.278-.265.492-.365.669a37.042,37.042,0,0,1,3.724-.076,2.189,2.189,0,0,0,.833-.126l.643.644a2.854,2.854,0,0,0-.365.833,20.414,20.414,0,0,1-1.679,3.484,12.373,12.373,0,0,1-5.63,4.633,2.95,2.95,0,0,0-.745-.935,12.58,12.58,0,0,0,2.574-1.338,9.133,9.133,0,0,0,2.146-1.931,14.859,14.859,0,0,0-2.764-1.982l.695-.77a17.57,17.57,0,0,1,2.726,1.881,14.737,14.737,0,0,0,1.641-3.446l-4.267.05a13.021,13.021,0,0,1-2.991,3.346,2.772,2.772,0,0,0-.884-.72,11.037,11.037,0,0,0,3.207-3.6,7.7,7.7,0,0,0,.744-1.729Z" fill="#242424"/>
            <path id="パス_798" data-name="パス 798" d="M1425.225,503.265a13.827,13.827,0,0,0,1.741.076h7.1a10.333,10.333,0,0,0,1.7-.076v1.25a14.571,14.571,0,0,0-1.716-.064h-7.07a13.627,13.627,0,0,0-1.754.064Z" fill="#242424"/>
            <path id="パス_799" data-name="パス 799" d="M1444.791,507.2a3.708,3.708,0,0,0,1.994-3.371,3.26,3.26,0,0,0-1.869-3.068,3.349,3.349,0,0,0-1.413-.341,18.377,18.377,0,0,1-1.262,5.05c-.72,1.654-1.477,2.411-2.424,2.411-1.275,0-2.21-1.35-2.21-3.194a5.252,5.252,0,0,1,1.351-3.534,5.4,5.4,0,0,1,4.154-1.705c2.865,0,4.771,1.768,4.771,4.431a4.661,4.661,0,0,1-2.764,4.369,8.324,8.324,0,0,1-2.109.655,2.456,2.456,0,0,0-.543-1.022A6.922,6.922,0,0,0,1444.791,507.2Zm-4.179-6.161a4.309,4.309,0,0,0-1.969,3.661c0,1.149.505,2.057,1.161,2.057.492,0,.972-.58,1.49-1.767a17.18,17.18,0,0,0,1.123-4.544A3.571,3.571,0,0,0,1440.612,501.043Z" fill="#242424"/>
            <path id="パス_800" data-name="パス 800" d="M1450.824,500.791a7.642,7.642,0,0,1-.593,1.149,5.328,5.328,0,0,0-.847-.443,7,7,0,0,0,1.112-2.4,3.859,3.859,0,0,0,.113-.694l.948.214c-.052.152-.115.354-.2.669-.075.266-.114.417-.189.657h1.212v-.455a6.463,6.463,0,0,0-.076-1.262h1.06a6.114,6.114,0,0,0-.075,1.25v.467h1.25a7.465,7.465,0,0,0,1.236-.063v.972a7.737,7.737,0,0,0-1.236-.063h-1.25v1.388H1455a7.808,7.808,0,0,0,1.162-.063v.985a6.88,6.88,0,0,0-1.187-.063h-1.691v1.249h1.325a8.31,8.31,0,0,0,1.174-.062c-.025.353-.038.643-.038,1.148v2.512c0,.657-.29.833-1.313.833-.113,0-.163,0-.656-.025a3.115,3.115,0,0,0-.152-.884,6.961,6.961,0,0,0,.72.051c.442,0,.518-.026.518-.2v-2.525h-1.578v3.156a9.471,9.471,0,0,0,.063,1.4H1452.3a10.632,10.632,0,0,0,.076-1.4v-3.156h-1.553v2.348a11.7,11.7,0,0,0,.051,1.3h-1.036a7.509,7.509,0,0,0,.063-1.287v-2.1a10.556,10.556,0,0,0-.05-1.173,8.888,8.888,0,0,0,1.212.062h1.313v-1.249h-1.717a7.942,7.942,0,0,0-1.224.063v-1a5.876,5.876,0,0,0,1.148.075h1.793v-1.388Zm6.944-1.78a8.548,8.548,0,0,0-.064,1.35v4.987a8.034,8.034,0,0,0,.064,1.388h-1.061a8.587,8.587,0,0,0,.063-1.4v-4.961a8.964,8.964,0,0,0-.075-1.363Zm2.587-.745a8.92,8.92,0,0,0-.088,1.528V508.3c0,.984-.3,1.224-1.553,1.224-.328,0-.708-.012-1.313-.05a2.578,2.578,0,0,0-.278-.96,11.594,11.594,0,0,0,1.6.126c.493,0,.593-.063.593-.378v-8.445a9.371,9.371,0,0,0-.088-1.553Z" fill="#242424"/>
            <path id="パス_801" data-name="パス 801" d="M1465.883,498.43a7.23,7.23,0,0,0-.3.707,18.1,18.1,0,0,1-.909,2.07v6.931a10.685,10.685,0,0,0,.089,1.527h-1.137a11.436,11.436,0,0,0,.089-1.552v-4.027c0-.468.013-.72.05-1.566a9.974,9.974,0,0,1-1.476,1.843,2.928,2.928,0,0,0-.569-.909,10.389,10.389,0,0,0,2.588-3.7,7.094,7.094,0,0,0,.543-1.678Zm1.944,2.537a13.5,13.5,0,0,1-2.032,3.068,2.672,2.672,0,0,0-.7-.77,10.571,10.571,0,0,0,2.2-3.383,7.845,7.845,0,0,0,.543-1.793l1.035.329c-.1.239-.139.34-.253.643-.189.53-.24.682-.4,1.048h3.85a7.982,7.982,0,0,0,1.211-.075v1a9.931,9.931,0,0,0-1.211-.064h-2.791v1.907h2.4a6.263,6.263,0,0,0,1.149-.076v1.023a8.146,8.146,0,0,0-1.149-.076h-2.4v1.918h2.438a7.439,7.439,0,0,0,1.148-.075v1.035a7.78,7.78,0,0,0-1.148-.076h-2.438v1.793a7.41,7.41,0,0,0,.089,1.375h-1.148a8.592,8.592,0,0,0,.075-1.375v-7.373Z" fill="#242424"/>
          </g>
        </g>
      </g>
    </g>
    <g id="_5月" data-name=" 5月">
      <g id="月">
        <g id="_5月-2" data-name=" 5月-2" style="isolation: isolate">
          <text id="_5月-2-2" data-name="5月" transform="translate(1306.773 248.868)" fill="#242424" font-size="14.042" font-family="Helvetica" style="isolation: isolate"><tspan x="0" y="0">5</tspan><tspan y="0" font-family="HiraginoSans-W3, Hiragino Sans">月</tspan></text>
        </g>
      </g>
    </g>
    <g id="_5月-3-2" data-name=" 5月-3">
      <g id="月-2-2" data-name="月-2">
        <g id="_6月-2" data-name=" 6月" style="isolation: isolate">
          <text id="_6月-3" data-name="6月" transform="translate(1525.121 248.866)" fill="#242424" font-size="14.042" font-family="Helvetica" style="isolation: isolate"><tspan x="0" y="0">6</tspan><tspan y="0" font-family="HiraginoSans-W3, Hiragino Sans">月</tspan></text>
        </g>
      </g>
    </g>
    <line id="線_23" data-name="線 23" x2="65.974" transform="translate(1232.314 245.384)" fill="none" stroke="#242424" stroke-linecap="round" stroke-width="1"/>
    <line id="線_24" data-name="線 24" x2="60.201" transform="translate(1340.347 245.384)" fill="none" stroke="#242424" stroke-linecap="round" stroke-width="1"/>
    <path id="パス_30-2" data-name="パス 30" d="M1411.913,245.384h100.714" fill="none" stroke="#242424" stroke-linecap="round" stroke-width="1"/>
    <line id="線_25-3" data-name="線 25" x2="88.72" transform="translate(1561.221 245.384)" fill="none" stroke="#242424" stroke-linecap="round" stroke-width="1"/>
    <circle id="楕円形_35" data-name="楕円形 35" cx="4" cy="4" r="4" transform="translate(1660.329 499.424)" fill="#242424"/>
    <circle id="楕円形_33" data-name="楕円形 33" cx="4" cy="4" r="4" transform="matrix(0.38, -0.925, 0.925, 0.38, 1484.081, 505.601)" fill="#242424"/>
    <circle id="楕円形_35-2" data-name="楕円形 35-2" cx="4" cy="4" r="4" transform="translate(1691.023 498.899)" fill="#242424"/>
    <g id="_5月-3-3" data-name=" 5月-3">
      <g id="月-2-3" data-name="月-2">
        <g id="_6月-4" data-name=" 6月" style="isolation: isolate">
          <text id="_11月" data-name="11月" transform="translate(1992.394 249.4)" fill="#242424" font-size="14.042" font-family="Helvetica" style="isolation: isolate"><tspan x="0" y="0">11</tspan><tspan y="0" font-family="HiraginoSans-W3, Hiragino Sans">月</tspan></text>
        </g>
      </g>
    </g>
    <line id="線_25-4" data-name="線 25" x2="92.894" transform="translate(2027.886 245.213)" fill="none" stroke="#242424" stroke-linecap="round" stroke-width="1"/>
    <g id="_5月-3-4" data-name=" 5月-3">
      <g id="月-2-4" data-name="月-2">
        <g id="_6月-5" data-name=" 6月" style="isolation: isolate">
          <text id="_10月" data-name="10月" transform="translate(1859.048 248.867)" fill="#242424" font-size="14.042" font-family="Helvetica" style="isolation: isolate"><tspan x="0" y="0">10</tspan><tspan y="0" font-family="HiraginoSans-W3, Hiragino Sans">月</tspan></text>
        </g>
      </g>
    </g>
    <g id="中間発表-2-2" data-name="中間発表-2" style="isolation: isolate">
      <g id="グループ_692" data-name="グループ 692" style="isolation: isolate">
        <path id="パス_802" data-name="パス 802" d="M2199.768,500.412c-.088.214-.138.315-.3.707-.013.038-.013.038-.353.82a10.3,10.3,0,0,1-1.376,2.374,5.019,5.019,0,0,0,1.123,1.514,1.419,1.419,0,0,0,.556.341c.177,0,.378-.669.53-1.792a3.145,3.145,0,0,0,.808.631c-.3,1.6-.67,2.234-1.288,2.234a2.433,2.433,0,0,1-1.376-.808,6.588,6.588,0,0,1-1.01-1.351,10.89,10.89,0,0,1-3.37,2.437,2.825,2.825,0,0,0-.707-.782,9.394,9.394,0,0,0,3.648-2.525,15.346,15.346,0,0,1-1.047-5.2h-4.28c-.013,1.023-.013,1.4-.025,1.957h2.373a5.839,5.839,0,0,0,.934-.05c-.038.3-.038.341-.075,1.123a12.1,12.1,0,0,1-.367,3.042c-.189.493-.5.644-1.325.644a7.34,7.34,0,0,1-1.225-.1,3.353,3.353,0,0,0-.2-.959,6.668,6.668,0,0,0,1.4.177c.417,0,.518-.1.619-.594a20.842,20.842,0,0,0,.164-2.423h-2.335a17.8,17.8,0,0,1-.4,3.4,6.411,6.411,0,0,1-.972,2.285,2.625,2.625,0,0,0-.795-.719,5.2,5.2,0,0,0,.9-1.982,24.566,24.566,0,0,0,.391-5.188,9.333,9.333,0,0,0-.076-1.541,13.611,13.611,0,0,0,1.553.064h3.712a15.8,15.8,0,0,0-.1-1.97h1.111a6.6,6.6,0,0,0-.063,1.124c0,.152,0,.328.013.846h2.688a6.871,6.871,0,0,0,1.351-.076v1.01a10.921,10.921,0,0,0-1.451-.064h-2.551a15.863,15.863,0,0,0,.758,4.343,9.527,9.527,0,0,0,1.452-3.332Zm-.871-2.348a7.362,7.362,0,0,0-1.666-1.351l.681-.492a8.749,8.749,0,0,1,1.655,1.262Z" fill="#242424"/>
        <path id="パス_803" data-name="パス 803" d="M2204.779,501.548a10.855,10.855,0,0,0-1.5.063,12.048,12.048,0,0,0,.051-1.4v-2.273a11.2,11.2,0,0,0-.051-1.35,9.77,9.77,0,0,0,1.452.063h5.706a10.285,10.285,0,0,0,1.478-.063,11.344,11.344,0,0,0-.052,1.389v2.234a11.706,11.706,0,0,0,.052,1.4,10.755,10.755,0,0,0-1.49-.063h-2.5v1.023h3.926a9.425,9.425,0,0,0,1.35-.076v1.022a10.156,10.156,0,0,0-1.338-.076h-3.332a7.788,7.788,0,0,0,1.793,1.515,11.133,11.133,0,0,0,3.055,1.313,3.8,3.8,0,0,0-.531.947,13.107,13.107,0,0,1-3.042-1.527,10.183,10.183,0,0,1-1.918-1.78c.037.605.037.744.037.972v1.363a7.99,7.99,0,0,0,.088,1.376h-1.1a7.8,7.8,0,0,0,.088-1.376v-1.351c0-.227.013-.517.038-.946a11.553,11.553,0,0,1-4.645,3.345,3.868,3.868,0,0,0-.593-.9,11.551,11.551,0,0,0,2.588-1.224,7.886,7.886,0,0,0,1.956-1.73h-3.068a9.619,9.619,0,0,0-1.312.076v-1.022a8.55,8.55,0,0,0,1.3.076H2207v-1.023Zm-.518-4.065V498.7H2207v-1.212Zm0,2.007v1.237H2207V499.49Zm3.661-.795h3v-1.212h-3Zm0,2.032h3V499.49h-3Z" fill="#242424"/>
        <path id="パス_804" data-name="パス 804" d="M2217.832,503.012a12.3,12.3,0,0,0,.075-1.691,7.535,7.535,0,0,0-.984.05v-.618a11.932,11.932,0,0,1-2.386,1.414,2.845,2.845,0,0,0-.568-.808,9.481,9.481,0,0,0,2.752-1.578,10.535,10.535,0,0,0-1.868-1.654l.72-.568a16.531,16.531,0,0,1,1.829,1.615,7.451,7.451,0,0,0,1.49-1.779h-2.234a6.813,6.813,0,0,0-.795.063V496.5a5.94,5.94,0,0,0,.946.063h2.374a7.393,7.393,0,0,0,1.11-.051,3.538,3.538,0,0,0,.923,1.616,6.771,6.771,0,0,0,1.261-1.54l.821.517a2.763,2.763,0,0,0-.265.3,12.607,12.607,0,0,1-1.249,1.313c.29.278.618.568.983.859a7.875,7.875,0,0,0,1.44-1.667l.821.518c-.127.126-.127.126-.593.656a10.7,10.7,0,0,1-1.011.985,9.509,9.509,0,0,0,2.26,1.174,3.892,3.892,0,0,0-.543.883,12.9,12.9,0,0,1-2.348-1.375v.618a9.664,9.664,0,0,0-1.1-.05h-.138v1.691h2.184a8.543,8.543,0,0,0,1.275-.076v1a8.657,8.657,0,0,0-1.275-.076h-2.184v2.235c0,.227.063.315.29.353a4.179,4.179,0,0,0,.9.063c.885,0,1.2-.05,1.364-.24a2.838,2.838,0,0,0,.316-1.388,2.887,2.887,0,0,0,.971.379c-.3,1.981-.517,2.146-2.764,2.146-1.628,0-2.008-.19-2.008-1v-2.55h-1.969A4.247,4.247,0,0,1,2217.6,506a6.9,6.9,0,0,1-1.489,1.136,8.993,8.993,0,0,1-1.086.48,3.266,3.266,0,0,0-.7-.871,6.091,6.091,0,0,0,2.411-1.25,2.92,2.92,0,0,0,.948-1.641H2215.9a8.794,8.794,0,0,0-1.276.076v-1a8.441,8.441,0,0,0,1.276.076Zm3.8-2.525a7.052,7.052,0,0,0,.782-.025,9.932,9.932,0,0,1-2.588-2.89,10.651,10.651,0,0,1-2.537,2.89,7.561,7.561,0,0,0,.795.025Zm-2.777.834a14.539,14.539,0,0,1-.076,1.691h1.842v-1.691Z" fill="#242424"/>
        <path id="パス_805" data-name="パス 805" d="M2232.261,502.1a9.818,9.818,0,0,1-1.162,1.124v2.84c.9-.189,1.6-.366,2.8-.707v.922a46.849,46.849,0,0,1-4.734,1.1,4.763,4.763,0,0,0-.593.139l-.253-1.048a14.823,14.823,0,0,0,1.843-.214v-2.285a15.153,15.153,0,0,1-2.916,1.59,3.361,3.361,0,0,0-.58-.909,11.052,11.052,0,0,0,4.418-2.55h-2.865a10.735,10.735,0,0,0-1.415.076v-1a7.673,7.673,0,0,0,1.4.076h3.673v-1.1h-2.587a10.221,10.221,0,0,0-1.313.05v-.934a10.355,10.355,0,0,0,1.313.05h2.587v-1.085h-3.219a9.029,9.029,0,0,0-1.351.063v-.972a9.621,9.621,0,0,0,1.39.075h3.18v-.2a5.94,5.94,0,0,0-.076-1.1h1.1a5.331,5.331,0,0,0-.076,1.1v.2h3.383a9.773,9.773,0,0,0,1.414-.075v.972a9.4,9.4,0,0,0-1.375-.063h-3.422v1.085h2.752a10.79,10.79,0,0,0,1.363-.05v.934a10.78,10.78,0,0,0-1.363-.05h-2.752v1.1h3.863a8.941,8.941,0,0,0,1.4-.076v1a10.9,10.9,0,0,0-1.4-.076h-3.345a7.04,7.04,0,0,0,1.211,1.906,9.366,9.366,0,0,0,1.743-1.678l.883.58c-.088.076-.088.076-.265.24a15.841,15.841,0,0,1-1.741,1.5,9.567,9.567,0,0,0,3.205,1.806,3.577,3.577,0,0,0-.643.921,10.02,10.02,0,0,1-3.737-2.6,9.887,9.887,0,0,1-1.629-2.677Z" fill="#242424"/>
        <path id="パス_806" data-name="パス 806" d="M2245.59,496.17a8.143,8.143,0,0,0,2.108,2.21,13.363,13.363,0,0,0,3.422,1.931,3.763,3.763,0,0,0-.556.984,16.927,16.927,0,0,1-3.421-2.121,9.652,9.652,0,0,1-2.058-2.132,10.276,10.276,0,0,1-1.944,2.057,13.83,13.83,0,0,1-3.332,2.134,2.932,2.932,0,0,0-.593-.884,12.707,12.707,0,0,0,3.294-1.969,8.916,8.916,0,0,0,2.007-2.21Zm-4.367,7.145a10.824,10.824,0,0,0-1.452.076v-1.073a11.39,11.39,0,0,0,1.452.076h7.788a10.977,10.977,0,0,0,1.452-.076v1.073a10.822,10.822,0,0,0-1.452-.076h-4.469a18.436,18.436,0,0,1-1.5,2.84c1.161-.062,3.029-.239,4.645-.441-.631-.694-.871-.947-1.451-1.5l.808-.455a29.031,29.031,0,0,1,3.016,3.333l-.845.606c-.443-.632-.593-.859-.871-1.2-2.121.277-4.344.517-6.237.656a18.911,18.911,0,0,0-1.982.2l-.164-1.111a6.516,6.516,0,0,0,.657.038c.177,0,.177,0,1.275-.063a17.9,17.9,0,0,0,1.539-2.9ZM2242,500a7.567,7.567,0,0,0,1.023.05h4.1a8.35,8.35,0,0,0,1.085-.05v1.009a8.457,8.457,0,0,0-1.073-.05h-4.127a7.913,7.913,0,0,0-1.011.05Z" fill="#242424"/>
      </g>
    </g>
    <g id="Web_ポスターの制作_Production_of_web_and_poster-2" data-name="Web ポスターの制作 Production of web and poster">
      <g id="Web_ポスターの制作-2" data-name="Web ポスターの制作">
        <g id="Web_2" data-name="Web " style="isolation: isolate">
          <g id="グループ_693" data-name="グループ 693" style="isolation: isolate">
            <path id="パス_807" data-name="パス 807" d="M1982.192,498.613a10.041,10.041,0,0,0,.29,1.249l1.616,5.34c.063.215.165.644.378,1.591.178-.922.292-1.439.33-1.565l1.4-5.29a6.889,6.889,0,0,0,.227-1.325h1.476a10.135,10.135,0,0,0-.492,1.451l-2.007,7.007c-.277,1.009-.277,1.009-.328,1.275H1983.9a9.912,9.912,0,0,0-.315-1.238L1982,501.87a14.632,14.632,0,0,1-.365-1.5c-.14.631-.278,1.162-.379,1.5l-1.565,5.238a9.508,9.508,0,0,0-.315,1.238H1978.2a11.463,11.463,0,0,0-.341-1.275l-2.007-7.007a9.4,9.4,0,0,0-.5-1.451h1.489a6.718,6.718,0,0,0,.24,1.325l1.4,5.3c.062.24.2.9.327,1.553.09-.467.292-1.325.355-1.515l1.628-5.416a7.809,7.809,0,0,0,.278-1.249Z" fill="#242424"/>
            <path id="パス_808" data-name="パス 808" d="M1989.765,505.089a2.758,2.758,0,0,0,.505,1.678,2.228,2.228,0,0,0,3.333.114,1.742,1.742,0,0,0,.4-.732l1.06.392a3,3,0,0,1-.707,1.073,3.258,3.258,0,0,1-2.386.921c-2.044,0-3.345-1.414-3.345-3.661,0-2.209,1.288-3.648,3.257-3.648a3.058,3.058,0,0,1,3.156,2.84,9.965,9.965,0,0,1,.088,1.023Zm4.179-.922a2.241,2.241,0,0,0-.632-1.452,1.99,1.99,0,0,0-1.451-.543,1.939,1.939,0,0,0-1.742,1.036,2.385,2.385,0,0,0-.316.959Z" fill="#242424"/>
            <path id="パス_809" data-name="パス 809" d="M1996.544,508.346a10.59,10.59,0,0,0,.089-1.528v-6.7a11.574,11.574,0,0,0-.089-1.5h1.3a10.35,10.35,0,0,0-.088,1.5v1.552c0,.354-.012.607-.038.9a2.943,2.943,0,0,1,2.6-1.313c1.983,0,3.169,1.338,3.169,3.573,0,2.272-1.225,3.648-3.244,3.648a2.931,2.931,0,0,1-2.525-1.225v.1c.013.114.013.114.026.379v.619Zm3.636-6.123a2.652,2.652,0,0,0-.05,5.277c1.363,0,2.183-1.01,2.183-2.676C2002.313,503.183,2001.531,502.223,2000.18,502.223Z" fill="#242424"/>
            <path id="パス_810" data-name="パス 810" d="M2006.339,508.346c0,.971-.2,1.325-.947,1.7l-.378-.493c.6-.227.706-.416.718-1.211h-.833v-1.427h1.44Z" fill="#242424"/>
          </g>
        </g>
        <g id="ポスターの制作-2" data-name="ポスターの制作" style="isolation: isolate">
          <g id="グループ_694" data-name="グループ 694" style="isolation: isolate">
            <path id="パス_811" data-name="パス 811" d="M2013.261,502.741a2.964,2.964,0,0,0-.113.354,12.052,12.052,0,0,1-2.248,4.809,3.381,3.381,0,0,0-1.022-.618,8.291,8.291,0,0,0,1.83-3.169,6.819,6.819,0,0,0,.429-1.679Zm1.628-3.181a7.925,7.925,0,0,0-.075-1.3h1.236a8.388,8.388,0,0,0-.075,1.325v.782h3.055a9.8,9.8,0,0,0,1.552-.087v1.135a12.863,12.863,0,0,0-1.526-.062h-3.069v6.172a10.026,10.026,0,0,0,.063,1.427h-1.236a9.96,9.96,0,0,0,.075-1.427v-6.172H2011.9a12.671,12.671,0,0,0-1.516.062V500.28a9.881,9.881,0,0,0,1.528.087h2.979Zm3.762,2.891a9.417,9.417,0,0,0,.467,1.426,10.93,10.93,0,0,0,1.907,3.383,4.212,4.212,0,0,0-.985.669,14.946,14.946,0,0,1-1.932-3.749c-.125-.366-.252-.72-.365-1.085a2.23,2.23,0,0,0-.14-.367Zm2.676-3.826a1.439,1.439,0,1,1-1.438-1.438A1.438,1.438,0,0,1,2021.327,498.625Zm-2.323,0a.884.884,0,1,0,.885-.883A.9.9,0,0,0,2019,498.625Z" fill="#242424"/>
            <path id="パス_812" data-name="パス 812" d="M2031.615,508.51a25.222,25.222,0,0,0-3.975-3.85,14.017,14.017,0,0,1-2.4,2.222,16.323,16.323,0,0,1-2.461,1.5,3.284,3.284,0,0,0-.733-1,12.222,12.222,0,0,0,4.178-2.828,13.113,13.113,0,0,0,2.8-4.14,1.038,1.038,0,0,1,.076-.164.857.857,0,0,0,.037-.1c-.15.013-.15.013-4.292.076a10.47,10.47,0,0,0-1.451.1l-.038-1.2a6.431,6.431,0,0,0,1.2.076h.278l4.367-.05a2.39,2.39,0,0,0,.9-.114l.619.631a2.185,2.185,0,0,0-.366.632,16.43,16.43,0,0,1-2.033,3.509,31.9,31.9,0,0,1,4.191,3.711Z" fill="#242424"/>
            <path id="パス_813" data-name="パス 813" d="M2038.911,498.121a6.133,6.133,0,0,0-.417.808c-.139.277-.266.492-.366.669a37.1,37.1,0,0,1,3.724-.076,2.189,2.189,0,0,0,.833-.126l.643.644a2.851,2.851,0,0,0-.365.833,20.451,20.451,0,0,1-1.679,3.484,12.377,12.377,0,0,1-5.63,4.632,2.959,2.959,0,0,0-.745-.934,12.58,12.58,0,0,0,2.574-1.338,9.135,9.135,0,0,0,2.146-1.931,14.864,14.864,0,0,0-2.764-1.982l.7-.77a17.56,17.56,0,0,1,2.727,1.881,14.734,14.734,0,0,0,1.64-3.446l-4.267.05a13,13,0,0,1-2.991,3.345,2.77,2.77,0,0,0-.884-.719,11.046,11.046,0,0,0,3.207-3.6,7.69,7.69,0,0,0,.744-1.73Z" fill="#242424"/>
            <path id="パス_814" data-name="パス 814" d="M2045.285,502.817a13.881,13.881,0,0,0,1.741.075h7.1a10.357,10.357,0,0,0,1.7-.075v1.25a14.58,14.58,0,0,0-1.716-.064h-7.07a13.632,13.632,0,0,0-1.754.064Z" fill="#242424"/>
            <path id="パス_815" data-name="パス 815" d="M2064.851,506.755a3.707,3.707,0,0,0,1.994-3.37,3.26,3.26,0,0,0-1.869-3.068,3.321,3.321,0,0,0-1.413-.341,18.377,18.377,0,0,1-1.262,5.05c-.72,1.653-1.477,2.411-2.423,2.411-1.276,0-2.21-1.351-2.21-3.194a5.251,5.251,0,0,1,1.35-3.534,5.4,5.4,0,0,1,4.154-1.705c2.865,0,4.771,1.767,4.771,4.431a4.657,4.657,0,0,1-2.764,4.368,8.279,8.279,0,0,1-2.109.656,2.468,2.468,0,0,0-.542-1.022A6.915,6.915,0,0,0,2064.851,506.755Zm-4.179-6.16a4.309,4.309,0,0,0-1.969,3.661c0,1.149.505,2.057,1.161,2.057.492,0,.972-.58,1.49-1.767a17.2,17.2,0,0,0,1.123-4.544A3.571,3.571,0,0,0,2060.672,500.6Z" fill="#242424"/>
            <path id="パス_816" data-name="パス 816" d="M2070.884,500.342a7.519,7.519,0,0,1-.593,1.149,5.446,5.446,0,0,0-.846-.442,7.021,7.021,0,0,0,1.111-2.4,3.886,3.886,0,0,0,.114-.7l.947.215c-.052.152-.114.354-.2.669-.076.265-.115.417-.19.657h1.212v-.455a6.457,6.457,0,0,0-.076-1.262h1.06a6.1,6.1,0,0,0-.075,1.249v.468h1.25a7.331,7.331,0,0,0,1.236-.064v.973a7.716,7.716,0,0,0-1.236-.064h-1.25v1.389h1.716a7.812,7.812,0,0,0,1.162-.063v.984a7.007,7.007,0,0,0-1.187-.062h-1.691v1.249h1.325a8.15,8.15,0,0,0,1.174-.063c-.025.353-.038.644-.038,1.149v2.512c0,.657-.29.833-1.313.833-.113,0-.163,0-.656-.025a3.073,3.073,0,0,0-.152-.884,6.965,6.965,0,0,0,.72.051c.443,0,.518-.026.518-.2v-2.525h-1.578v3.156a9.479,9.479,0,0,0,.063,1.4h-1.048a10.632,10.632,0,0,0,.076-1.4v-3.156h-1.553v2.348a11.671,11.671,0,0,0,.051,1.3H2069.9a7.509,7.509,0,0,0,.063-1.287v-2.1a10.6,10.6,0,0,0-.05-1.174,8.718,8.718,0,0,0,1.212.063h1.313V502.59h-1.717a8.1,8.1,0,0,0-1.224.062v-1a5.785,5.785,0,0,0,1.148.076h1.793v-1.389Zm6.944-1.779a8.548,8.548,0,0,0-.064,1.35V504.9a8.034,8.034,0,0,0,.064,1.388h-1.061a8.609,8.609,0,0,0,.063-1.4v-4.961a8.96,8.96,0,0,0-.075-1.363Zm2.587-.746a8.932,8.932,0,0,0-.088,1.528v8.509c0,.984-.3,1.224-1.553,1.224-.328,0-.708-.013-1.313-.05a2.557,2.557,0,0,0-.278-.96,11.764,11.764,0,0,0,1.6.126c.493,0,.593-.063.593-.378V499.37a9.374,9.374,0,0,0-.088-1.553Z" fill="#242424"/>
            <path id="パス_817" data-name="パス 817" d="M2085.943,497.982a6.914,6.914,0,0,0-.3.707,18.32,18.32,0,0,1-.91,2.07v6.931a10.693,10.693,0,0,0,.089,1.527h-1.137a11.443,11.443,0,0,0,.089-1.553v-4.027c0-.467.013-.719.05-1.565a9.976,9.976,0,0,1-1.476,1.843,2.916,2.916,0,0,0-.569-.909,10.4,10.4,0,0,0,2.588-3.7,7.089,7.089,0,0,0,.543-1.679Zm1.944,2.537a13.5,13.5,0,0,1-2.032,3.068,2.682,2.682,0,0,0-.694-.77,10.574,10.574,0,0,0,2.2-3.384,7.828,7.828,0,0,0,.543-1.792l1.035.328c-.1.24-.139.341-.253.644-.189.53-.239.681-.4,1.048h3.85a7.83,7.83,0,0,0,1.211-.076v1a10.178,10.178,0,0,0-1.211-.063h-2.791v1.907h2.4a6.369,6.369,0,0,0,1.15-.076v1.022a8.173,8.173,0,0,0-1.15-.076h-2.4v1.919h2.438a7.441,7.441,0,0,0,1.148-.075v1.034a7.925,7.925,0,0,0-1.148-.075h-2.438v1.792a7.3,7.3,0,0,0,.09,1.376h-1.149a8.576,8.576,0,0,0,.076-1.376v-7.372Z" fill="#242424"/>
          </g>
        </g>
      </g>
    </g>
    <circle id="楕円形_35-2-2" data-name="楕円形 35" cx="4" cy="4" r="4" transform="translate(2147.333 499.089)" fill="#242424"/>
    <circle id="楕円形_33-2" data-name="楕円形 33" cx="4" cy="4" r="4" transform="translate(2101.046 499.089)" fill="#242424"/>
    <circle id="楕円形_35-2-3" data-name="楕円形 35-2" cx="4" cy="4" r="4" transform="translate(2170.9 498.663)" fill="#242424"/>
    <g id="_5月-3-5" data-name=" 5月">
      <g id="月-2-5" data-name="月">
        <g id="_5月-2-3" data-name=" 5月-2" style="isolation: isolate">
          <text id="_12月" data-name="12月" transform="translate(2215.573 250.551)" fill="#242424" font-size="14.042" font-family="Helvetica" style="isolation: isolate"><tspan x="0" y="0">12</tspan><tspan y="0" font-family="HiraginoSans-W3, Hiragino Sans">月</tspan></text>
        </g>
      </g>
    </g>
    <line id="線_23-2" data-name="線 23" x2="80.152" transform="translate(2129.831 245.384)" fill="none" stroke="#242424" stroke-linecap="round" stroke-width="1"/>
    <line id="線_24-2" data-name="線 24" x2="51.602" transform="translate(2256.693 245.384)" fill="none" stroke="#242424" stroke-linecap="round" stroke-width="1"/>
    <g id="中間発表_Intermediate_announcement-2" data-name="中間発表 Intermediate announcement">
      <g id="中間発表-2-3" data-name="中間発表">
        <g id="中間発表-2-4" data-name="中間発表-2" style="isolation: isolate">
          <g id="グループ_695" data-name="グループ 695" style="isolation: isolate">
            <path id="パス_818" data-name="パス 818" d="M1986.271,400.5a4.395,4.395,0,0,0-.075-.833h1.123a4.3,4.3,0,0,0-.075.833v.227h3.875a9.185,9.185,0,0,0,1.275-.075v.959a9.475,9.475,0,0,0-1.275-.063h-8.546a9.393,9.393,0,0,0-1.263.063v-.959a9.468,9.468,0,0,0,1.3.075h3.66Zm-4.557,6.211a10.957,10.957,0,0,0-.05-1.136,12.3,12.3,0,0,0,1.262.05h7.927a10.078,10.078,0,0,0,1.225-.05,10.424,10.424,0,0,0-.05,1.123v3.308c0,.48-.076.719-.3.884-.213.151-.479.2-1.173.2-.1,0-.505-.012-1.2-.05a2.592,2.592,0,0,0-.19-.909,10.423,10.423,0,0,0,1.464.114c.379,0,.442-.038.442-.291V406.42h-8.394v3.548a8.284,8.284,0,0,0,.075,1.326h-1.111a9.227,9.227,0,0,0,.076-1.313Zm1.641-3.547c0-.417-.013-.67-.038-.96a9.912,9.912,0,0,0,1.2.051h4.847a8.787,8.787,0,0,0,1.086-.051c-.025.341-.038.53-.038.972v.808a6.3,6.3,0,0,0,.038.973,9.547,9.547,0,0,0-1.162-.051h-4.821a10.146,10.146,0,0,0-1.15.051,9.578,9.578,0,0,0,.038-.973Zm6.072,5.668a7.656,7.656,0,0,0,.038.883c-.3-.025-.707-.037-1.136-.037h-3.181v.681h-.973a7.045,7.045,0,0,0,.064-1.048v-1.325a8.821,8.821,0,0,0-.037-.9c.3.026.568.039,1.021.039h3.156c.48,0,.72-.013,1.086-.039a7.262,7.262,0,0,0-.038.847Zm-5.15-4.7h5.213v-1.1h-5.213Zm.858,4.785h3.422v-1.035h-3.422Z" fill="#242424"/>
            <path id="パス_819" data-name="パス 819" d="M2000.572,403.062a9.543,9.543,0,0,1-2.234,3.106,2.835,2.835,0,0,0-.542-.644,3.775,3.775,0,0,0-.291.543,6.605,6.605,0,0,1-1.01-1.767c.013.239.013.239.038,1,0,.114.014.821.014.972V409.8a11.029,11.029,0,0,0,.075,1.49h-1.073a11.262,11.262,0,0,0,.075-1.49v-3.283c0-.491.013-.883.063-1.893a10.388,10.388,0,0,1-1.6,3.585,4.021,4.021,0,0,0-.555-.934,11.21,11.21,0,0,0,1.97-4.217h-.657a6.6,6.6,0,0,0-.934.051v-.934a6.144,6.144,0,0,0,.934.05h.782v-1.212a7.911,7.911,0,0,0-.062-1.312h1.047a8.315,8.315,0,0,0-.062,1.3v1.224h.58a4.473,4.473,0,0,0,.8-.05v.922a7.6,7.6,0,0,0-.782-.039h-.568a5.766,5.766,0,0,0,1.4,2.146,6.617,6.617,0,0,0,1.754-2.536Zm2.791,2.4a14.231,14.231,0,0,1-1.5,2.727,6.253,6.253,0,0,0,1.213,1.035,8.711,8.711,0,0,0,2.284,1.073,3.562,3.562,0,0,0-.543.947,9.073,9.073,0,0,1-2.436-1.338,8.335,8.335,0,0,1-1.1-1,8.79,8.79,0,0,1-3.459,2.347,3.138,3.138,0,0,0-.581-.845,7.789,7.789,0,0,0,3.459-2.222,13.746,13.746,0,0,1-1.426-2.626l.883-.429a7.951,7.951,0,0,0,1.124,2.323,7.72,7.72,0,0,0,1.161-2.4Zm-2.525-4.6a6.745,6.745,0,0,0-.063-.984h1.085a5.188,5.188,0,0,0-.075.972v.643h2.033a12.717,12.717,0,0,0,1.324-.063v1a12.947,12.947,0,0,0-1.324-.064h-4.344a9.621,9.621,0,0,0-1.338.076v-1.023a9.433,9.433,0,0,0,1.326.076h1.376Zm1.995,1.767a8.143,8.143,0,0,0,2.3,2.538,4.116,4.116,0,0,0-.581.845,9.611,9.611,0,0,1-2.5-2.966Z" fill="#242424"/>
            <path id="パス_820" data-name="パス 820" d="M2008.929,403.252a12.505,12.505,0,0,1-1.7,2.664,2.876,2.876,0,0,0-.833-.669,10.2,10.2,0,0,0,2.222-3.838,4.011,4.011,0,0,0,.277-1.187l1.087.291a6.915,6.915,0,0,0-.24.694c-.064.2-.278.77-.417,1.136h2.462v-1.224a9.679,9.679,0,0,0-.088-1.389h1.173a8.937,8.937,0,0,0-.075,1.389v1.224h2.979a13.3,13.3,0,0,0,1.515-.075v1.06a14.056,14.056,0,0,0-1.49-.076h-3v2.575h2.461a10.076,10.076,0,0,0,1.414-.076V406.8a10.781,10.781,0,0,0-1.414-.075h-2.461v3.105h3.4a10.923,10.923,0,0,0,1.564-.088v1.085a11.646,11.646,0,0,0-1.539-.088h-8a12.275,12.275,0,0,0-1.578.088v-1.085a11.374,11.374,0,0,0,1.553.088h3.6v-3.105h-2.2a10.2,10.2,0,0,0-1.388.075v-1.048a9.355,9.355,0,0,0,1.376.076h2.209v-2.575Z" fill="#242424"/>
            <path id="パス_821" data-name="パス 821" d="M2018.965,406.143a15.252,15.252,0,0,0,2.6-2.891,5.464,5.464,0,0,1,.67-.758,1.466,1.466,0,0,1,1.01-.454,1.569,1.569,0,0,1,1.111.543c.126.126.391.417.883.985a34.4,34.4,0,0,0,3.952,3.875,5.121,5.121,0,0,0,1.111.783l-.531,1.275a4.514,4.514,0,0,0-.341-.316c-.794-.656-2.347-2.083-3.155-2.9-.657-.657-1.162-1.225-2.311-2.537-.315-.367-.505-.505-.706-.505-.265,0-.354.088-.935.845a35.742,35.742,0,0,1-2.4,2.9c-.1.126-.139.164-.228.278Z" fill="#242424"/>
            <path id="パス_822" data-name="パス 822" d="M2038.606,408.756a3.705,3.705,0,0,0,1.994-3.37,3.257,3.257,0,0,0-1.868-3.068,3.328,3.328,0,0,0-1.414-.341,18.383,18.383,0,0,1-1.261,5.05c-.72,1.653-1.478,2.411-2.424,2.411-1.275,0-2.21-1.351-2.21-3.194a5.256,5.256,0,0,1,1.351-3.535,5.39,5.39,0,0,1,4.153-1.7c2.865,0,4.771,1.767,4.771,4.431a4.657,4.657,0,0,1-2.764,4.368,8.362,8.362,0,0,1-2.108.656,2.474,2.474,0,0,0-.543-1.022A6.912,6.912,0,0,0,2038.606,408.756Zm-4.179-6.16a4.308,4.308,0,0,0-1.969,3.66c0,1.149.505,2.058,1.161,2.058.493,0,.973-.581,1.49-1.767a17.232,17.232,0,0,0,1.124-4.544A3.556,3.556,0,0,0,2034.427,402.6Z" fill="#242424"/>
            <path id="パス_823" data-name="パス 823" d="M2051.33,401.359a2.2,2.2,0,0,1-.025-.291,1.439,1.439,0,1,1,1.439,1.439,1.515,1.515,0,0,1-.417-.063l-.075.265a10.923,10.923,0,0,1-3.157,5.5,11.822,11.822,0,0,1-3.988,2.424,3.068,3.068,0,0,0-.757-1.048,9.889,9.889,0,0,0,2.827-1.325,9.242,9.242,0,0,0,3.939-5.871h-6.236a12.129,12.129,0,0,0-1.541.076v-1.2a8.811,8.811,0,0,0,1.566.089Zm.531-.291a.883.883,0,1,0,.883-.884A.894.894,0,0,0,2051.861,401.068Z" fill="#242424"/>
            <path id="パス_824" data-name="パス 824" d="M2056.72,409.324v.884h-1.161a10.512,10.512,0,0,0,.05-1.238v-6.577a8.889,8.889,0,0,0-.05-1.136c.39.026.681.038,1.262.038h6.374a10.635,10.635,0,0,0,1.251-.05,8.829,8.829,0,0,0-.051,1.148v6.565a10.157,10.157,0,0,0,.051,1.25h-1.161v-.884Zm6.565-7.031h-6.565v6.034h6.565Z" fill="#242424"/>
            <path id="パス_825" data-name="パス 825" d="M2067.424,403.58a19.728,19.728,0,0,1,3.244,1.667l-.568,1.009a14.6,14.6,0,0,0-3.282-1.767Zm-.405,5.744a11.238,11.238,0,0,0,3.472-.8,8.21,8.21,0,0,0,3.736-2.8,8.932,8.932,0,0,0,1.5-2.828,4.707,4.707,0,0,0,.946.808,9.987,9.987,0,0,1-4.885,5.467,15.443,15.443,0,0,1-3.282,1.11c-.215.038-.429.089-.682.139a2.759,2.759,0,0,0-.5.139Zm1.377-8.773a19.9,19.9,0,0,1,3.193,1.6l-.593,1a13.418,13.418,0,0,0-3.182-1.691Zm6.716-.543a9.86,9.86,0,0,1,1.324,1.956l-.744.417a8.808,8.808,0,0,0-1.313-1.994Zm1.439-.682a9.452,9.452,0,0,1,1.325,1.919l-.732.416a9.248,9.248,0,0,0-1.3-1.956Z" fill="#242424"/>
            <path id="パス_826" data-name="パス 826" d="M2083.215,409.387h2.6a7.41,7.41,0,0,0,1.211-.063v1.048a7.58,7.58,0,0,0-1.211-.063h-6.11a9.9,9.9,0,0,0-1.212.05v-1.048a6.362,6.362,0,0,0,1.2.076h2.487V405.12h-1.717a10.176,10.176,0,0,0-1.2.051v-1.036a7.678,7.678,0,0,0,1.2.076h4.583a6.2,6.2,0,0,0,1.2-.088v1.048a8.886,8.886,0,0,0-1.186-.051h-1.843Z" fill="#242424"/>
            <path id="パス_827" data-name="パス 827" d="M2094.146,400.248a1.7,1.7,0,0,0-.277.492,11.255,11.255,0,0,1-.556,1.1,1.236,1.236,0,0,1,.316-.038h.152c1.766-.025,2.84-.037,3.219-.05a1.777,1.777,0,0,0,.731-.1l.62.606a1.821,1.821,0,0,0-.278.656,13.1,13.1,0,0,1-2.538,4.785,12.423,12.423,0,0,1-4.418,3.168,2.533,2.533,0,0,0-.758-.921,10.568,10.568,0,0,0,4.418-3.106,11.114,11.114,0,0,0,2.159-4.115l-4.128.063a12.663,12.663,0,0,1-2.991,3.257,2.308,2.308,0,0,0-.859-.77,9.618,9.618,0,0,0,3.194-3.522,5.372,5.372,0,0,0,.758-1.793Z" fill="#242424"/>
            <path id="パス_828" data-name="パス 828" d="M2101.619,410.712a8.768,8.768,0,0,0,.076-1.464V401.56a6.983,6.983,0,0,0-.076-1.388h1.275a10.131,10.131,0,0,0-.063,1.427v2.246a33.09,33.09,0,0,1,5.643,2.664l-.631,1.1a26.8,26.8,0,0,0-4.646-2.474,2.6,2.6,0,0,1-.416-.215,7.465,7.465,0,0,1,.05,1.036v3.294a11.336,11.336,0,0,0,.063,1.464Z" fill="#242424"/>
            <path id="パス_829" data-name="パス 829" d="M2111.642,406.875a13.756,13.756,0,0,1-.67,3.711l-.871-.353a9.334,9.334,0,0,0,.695-3.535Zm-1.478-1.692a2.451,2.451,0,0,0,.594.039c.176,0,.2,0,.442-.014.365-.454.454-.58.732-.959a15.128,15.128,0,0,0-1.793-2.07l.518-.732c.265.278.328.353.505.543a8.461,8.461,0,0,0,1.123-2.323l.922.416a9.451,9.451,0,0,0-.581,1.036,15.5,15.5,0,0,1-.909,1.5c.328.379.5.606.72.884a12.345,12.345,0,0,0,1.274-2.31l.86.5c-.052.064-.355.53-.9,1.389-.328.518-1.036,1.5-1.5,2.083.795-.038,1.174-.076,1.843-.164a9.614,9.614,0,0,0-.5-1.073l.656-.316a17.245,17.245,0,0,1,1.061,2.437l-.72.365c-.1-.328-.139-.441-.214-.669-.165.013-.165.013-.48.051-.127.025-.253.038-.632.076v4.128a8.485,8.485,0,0,0,.077,1.274H2112.2a9.093,9.093,0,0,0,.076-1.287v-4.039c-.4.037-.606.05-.934.076a8.179,8.179,0,0,0-1.035.1Zm4.229,1.465a15.787,15.787,0,0,1,.556,3.042l-.821.215a13.361,13.361,0,0,0-.48-3.055Zm1.831-5.592a8.946,8.946,0,0,0-1.3.075v-1a10.3,10.3,0,0,0,1.338.076h3.926c.5,0,.909-.013,1.149-.038-.013.164-.025.265-.051.808a15.753,15.753,0,0,1-.354,3.181c-.176.682-.492.846-1.653.846-.215,0-.493-.013-.947-.05a2.27,2.27,0,0,0-.227-1,6.685,6.685,0,0,0,1.338.176c.378,0,.5-.075.593-.353a11.783,11.783,0,0,0,.3-2.726h-2.2a4.807,4.807,0,0,1-2.651,4.317,2.24,2.24,0,0,0-.644-.795,3.85,3.85,0,0,0,1.881-1.641,4.445,4.445,0,0,0,.454-1.881Zm.24,10.149h-1a12.33,12.33,0,0,0,.062-1.262v-2.9a10.407,10.407,0,0,0-.05-1.174,7.039,7.039,0,0,0,1.01.051h3.585a6.911,6.911,0,0,0,1.023-.051,9.6,9.6,0,0,0-.051,1.174v2.954a9.31,9.31,0,0,0,.063,1.275h-1.01v-.782h-3.635Zm0-1.591h3.635v-2.827h-3.635Z" fill="#242424"/>
            <path id="パス_830" data-name="パス 830" d="M2129.01,399.907a9.468,9.468,0,0,0,2.286,2.6,13.191,13.191,0,0,0,3.156,1.944,4.057,4.057,0,0,0-.607.985,16.251,16.251,0,0,1-3.294-2.247,10.3,10.3,0,0,1-2.084-2.411,11.991,11.991,0,0,1-1.931,2.31,14.1,14.1,0,0,1-3.257,2.335,3.132,3.132,0,0,0-.63-.934,11.722,11.722,0,0,0,5.213-4.582Zm-1.981,4.2a9.011,9.011,0,0,0-.063,1.149,7.483,7.483,0,0,1-.783,3.75,5.818,5.818,0,0,1-2.474,2.259,2.739,2.739,0,0,0-.77-.884,4.954,4.954,0,0,0,2.133-1.552,5.717,5.717,0,0,0,.871-3.56,6.9,6.9,0,0,0-.088-1.162Zm3.976,0a10.306,10.306,0,0,0-.075,1.326v4.292a9.715,9.715,0,0,0,.088,1.376h-1.187a9.812,9.812,0,0,0,.089-1.376v-4.292a8.552,8.552,0,0,0-.089-1.326Z" fill="#242424"/>
          </g>
        </g>
      </g>
    </g>
    <g id="グループ_524" data-name="グループ 524">
      <g id="グループ_523" data-name="グループ 523">
        <circle id="楕円形_35-2-4" data-name="楕円形 35-2" cx="4" cy="4" r="4" transform="translate(1960.046 400.495)" fill="#242424"/>
      </g>
    </g>
    <text id="グループに分かれて制作物の考察_制作" data-name="グループに分かれて制作物の考察、制作" transform="translate(1676.858 446.851)" fill="#242424" font-size="11.702" font-family="HiraginoSans-W3, Hiragino Sans"><tspan x="0" y="0">グループに分かれて制作物の考察、制作</tspan></text>
    <line id="線_43" data-name="線 43" x2="49" transform="translate(1236.295 293.152)" fill="none" stroke="#242424" stroke-miterlimit="10" stroke-width="1.5"/>
    <line id="線_44" data-name="線 44" x2="49" transform="translate(1304.295 346.574)" fill="none" stroke="#242424" stroke-miterlimit="10" stroke-width="1.5"/>
    <line id="線_45" data-name="線 45" x2="49" transform="translate(1352.295 400.129)" fill="none" stroke="#242424" stroke-miterlimit="10" stroke-width="1.5"/>
    <line id="線_46" data-name="線 46" y1="0.064" x2="906" transform="translate(1399.295 454.01)" fill="none" stroke="#242424" stroke-miterlimit="10" stroke-width="1.5"/>
    <line id="線_47" data-name="線 47" y1="0.064" x2="723" transform="translate(1580.295 346.135)" fill="none" stroke="#242424" stroke-miterlimit="10" stroke-width="1.5"/>
    <line id="線_48" data-name="線 48" x2="177.5" transform="translate(1487.295 503.424)" fill="none" stroke="#242424" stroke-miterlimit="10" stroke-width="1.5"/>
    <line id="線_49" data-name="線 49" x2="49" transform="translate(2104.295 503.089)" fill="none" stroke="#242424" stroke-miterlimit="10" stroke-width="1.5"/>
  </g>
</svg>
