<svg id="レイヤー_1" data-name="レイヤー 1" xmlns="http://www.w3.org/2000/svg" viewBox="0 0 921.34 285.22"><defs><style>.cls-1{fill:#fdfdfe;}.cls-2,.cls-6{fill:none;}.cls-2{stroke:#e6e6e5;}.cls-13,.cls-3,.cls-4{isolation:isolate;}.cls-13,.cls-4{font-size:12px;font-family:HiraginoSans-W4-83pv-RKSJ-H, Hiragino Sans;}.cls-10,.cls-11,.cls-13,.cls-17,.cls-4,.cls-7,.cls-8,.cls-9{fill:#2f3030;}.cls-16,.cls-4{letter-spacing:-0.03em;}.cls-5{letter-spacing:-0.05em;}.cls-10,.cls-11,.cls-6,.cls-8,.cls-9{stroke:#2f3030;}.cls-6{stroke-linecap:round;}.cls-10,.cls-8,.cls-9{stroke-miterlimit:10;}.cls-11,.cls-9{stroke-width:1.67px;}.cls-10{stroke-width:1.39px;}.cls-12{letter-spacing:-0.05em;}.cls-14{letter-spacing:-0.03em;}.cls-15{letter-spacing:-0.05em;}.cls-17{font-size:10px;font-family:HiraginoSans-W5-83pv-RKSJ-H, Hiragino Sans;}</style></defs><rect class="cls-1" x="0.5" width="920.34" height="285.22"/><line id="線_16" data-name="線 16" class="cls-2" x1="626.66" y1="37.15" x2="626.66" y2="273.3"/><line id="線_16-2" data-name="線 16" class="cls-2" x1="747.15" y1="37.15" x2="747.15" y2="273.3"/><line id="線_16-3" data-name="線 16" class="cls-2" x1="786.71" y1="37.15" x2="786.71" y2="273.3"/><line id="線_16-4" data-name="線 16" class="cls-2" x1="806.85" y1="37.15" x2="806.85" y2="273.3"/><g id="_5月-3" data-name=" 5月-3"><g id="月-2"><g id="_6月" data-name=" 6月" class="cls-3"><text class="cls-4" transform="translate(453.19 36.7)">7<tspan class="cls-5" x="7.67" y="0">月</tspan></text></g></g></g><path id="パス_30" data-name="パス 30" class="cls-6" d="M1547,281.3h79.11" transform="translate(-1182.11 -247.58)"/><line id="線_25" data-name="線 25" class="cls-6" x1="478.66" y1="33.72" x2="533.43" y2="33.72"/><line id="線_25-2" data-name="線 25" class="cls-6" x1="572.9" y1="33.72" x2="645.27" y2="33.72"/><line id="線_15" data-name="線 15" class="cls-2" x1="46.43" y1="37.15" x2="46.43" y2="273.3"/><line id="線_18" data-name="線 18" class="cls-2" x1="145.1" y1="37.15" x2="145.1" y2="273.3"/><line id="線_19" data-name="線 19" class="cls-2" x1="220.51" y1="37.15" x2="220.51" y2="273.3"/><line id="線_20" data-name="線 20" class="cls-2" x1="298.91" y1="37.15" x2="298.91" y2="273.3"/><line id="線_21" data-name="線 21" class="cls-2" x1="396.75" y1="37.15" x2="396.75" y2="273.3"/><line id="線_22" data-name="線 22" class="cls-2" x1="370.52" y1="37.15" x2="370.52" y2="273.3"/><line id="線_15-2" data-name="線 15-2" class="cls-2" x1="4.7" y1="37.15" x2="4.7" y2="273.3"/><line id="線_16-5" data-name="線 16" class="cls-2" x1="63.5" y1="37.15" x2="63.5" y2="273.3"/><line id="線_17" data-name="線 17" class="cls-2" x1="104.38" y1="37.15" x2="104.38" y2="273.3"/><g id="中間発表_Intermediate_announcement" data-name="中間発表 Intermediate announcement"><g id="中間発表"><g id="中間発表-2" class="cls-3"><g class="cls-3"><path class="cls-7" d="M1595,498.33a6.84,6.84,0,0,0-.08-1.13h1a8.5,8.5,0,0,0-.06,1.11v.88h3.09a5.16,5.16,0,0,0,.86-.05,7.4,7.4,0,0,0,0,.89v3.05a7.15,7.15,0,0,0,.06,1h-.91v-.7h-3v2.42a6.93,6.93,0,0,0,.07,1.26h-1a8.39,8.39,0,0,0,.08-1.26v-2.42H1592v.7h-.91a7.37,7.37,0,0,0,.06-1V500a7.48,7.48,0,0,0,0-.88,5.17,5.17,0,0,0,.85.05h3ZM1592,500v2.6H1595V500Zm6.82,2.6V500h-3v2.6Z" transform="translate(-1182.11 -247.58)"/><path class="cls-7" d="M1602.47,505.75a8.84,8.84,0,0,0,.06,1.24h-.93a7.66,7.66,0,0,0,.07-1.26v-7a9.73,9.73,0,0,0-.05-1.19,10.93,10.93,0,0,0,1.13,0h1.65a10.29,10.29,0,0,0,1.1,0c0,.32,0,.6,0,1V500c0,.44,0,.7,0,1-.31,0-.64,0-1.07,0h-2Zm0-6.77h2.25v-.75h-2.25Zm0,1.38h2.25v-.76h-2.25Zm5.63,4.25c0,.41,0,.69,0,1-.34,0-.63,0-1.08,0h-2.33v.71h-.81a7.52,7.52,0,0,0,0-1v-2.47c0-.38,0-.68,0-1a7.9,7.9,0,0,0,1.06.05h2.09a7.57,7.57,0,0,0,1.05-.05c0,.3,0,.59,0,1Zm-3.38-1.29h2.63v-.86h-2.63Zm0,1.58h2.63V504h-2.63Zm5.74,1c0,.78-.25,1-1.22,1l-1,0a2.88,2.88,0,0,0-.22-.83,10.57,10.57,0,0,0,1.18.11c.44,0,.52,0,.52-.3V501h-2.19c-.42,0-.79,0-1.07,0a9.25,9.25,0,0,0,0-1v-1.44c0-.37,0-.7,0-1a10.29,10.29,0,0,0,1.1,0h1.87a10.69,10.69,0,0,0,1.13,0,11,11,0,0,0,0,1.18Zm-3.27-6.88h2.48v-.75h-2.48Zm0,1.38h2.48v-.76h-2.48Z" transform="translate(-1182.11 -247.58)"/><path class="cls-7" d="M1615.13,503.09a11.2,11.2,0,0,0,.06-1.44,6.85,6.85,0,0,0-.84,0v-.53a9.77,9.77,0,0,1-2,1.21,2.47,2.47,0,0,0-.48-.69,8.3,8.3,0,0,0,2.35-1.35,8.82,8.82,0,0,0-1.6-1.41l.62-.49a15.16,15.16,0,0,1,1.56,1.38,6.46,6.46,0,0,0,1.28-1.52h-1.91a4.48,4.48,0,0,0-.68.06v-.82a5.31,5.31,0,0,0,.81.05h2a6.78,6.78,0,0,0,1,0,3.11,3.11,0,0,0,.79,1.38,6,6,0,0,0,1.08-1.32l.7.44c-.07.08-.11.11-.23.26a10.48,10.48,0,0,1-1.06,1.12,9.2,9.2,0,0,0,.84.74,6.67,6.67,0,0,0,1.23-1.43l.7.45a5.41,5.41,0,0,0-.51.56,9.85,9.85,0,0,1-.86.84,8.14,8.14,0,0,0,1.93,1,3.4,3.4,0,0,0-.46.76,11.23,11.23,0,0,1-2-1.18v.53a8.69,8.69,0,0,0-.94,0h-.12v1.44h1.87a8.06,8.06,0,0,0,1.09-.06v.85a7.84,7.84,0,0,0-1.09-.07h-1.87v1.91c0,.2.06.27.25.31a3.93,3.93,0,0,0,.77.05c.75,0,1,0,1.16-.2a.71.71,0,1,1,1.1-.87c-.26,1.7-.44,1.84-2.36,1.84-1.39,0-1.72-.17-1.72-.86v-2.18h-1.68a3.66,3.66,0,0,1-.89,1.84,6.12,6.12,0,0,1-1.28,1,6.88,6.88,0,0,1-.93.41,2.6,2.6,0,0,0-.59-.74,5.39,5.39,0,0,0,2.06-1.07,2.51,2.51,0,0,0,.81-1.41h-1.53a7.84,7.84,0,0,0-1.09.07V503a7.76,7.76,0,0,0,1.09.06Zm3.25-2.16a6.54,6.54,0,0,0,.67,0,8.55,8.55,0,0,1-2.22-2.47,9.26,9.26,0,0,1-2.16,2.47,6.75,6.75,0,0,0,.68,0Zm-2.38.72a13.56,13.56,0,0,1-.06,1.44h1.57v-1.44Z" transform="translate(-1182.11 -247.58)"/><path class="cls-7" d="M1627.46,502.31a9.16,9.16,0,0,1-1,1v2.42c.76-.16,1.37-.31,2.39-.6v.79c-1.3.37-2.52.65-4,.93l-.51.12-.22-.89a11.87,11.87,0,0,0,1.58-.19v-1.95a12.76,12.76,0,0,1-2.49,1.36,3.29,3.29,0,0,0-.5-.78,9.4,9.4,0,0,0,3.78-2.18H1624a9.62,9.62,0,0,0-1.21.07v-.85a7,7,0,0,0,1.2.06h3.14v-.94h-2.22a7.22,7.22,0,0,0-1.12.05v-.8a9.55,9.55,0,0,0,1.12,0h2.22V499h-2.76a6.71,6.71,0,0,0-1.15.06v-.83a8.8,8.8,0,0,0,1.19.06h2.72v-.17a5.37,5.37,0,0,0-.07-.94h.94a4.8,4.8,0,0,0-.07.94v.17h2.9a8.76,8.76,0,0,0,1.2-.06v.83a7,7,0,0,0-1.17-.06h-2.93v.93h2.36a9.92,9.92,0,0,0,1.16,0v.8a7.6,7.6,0,0,0-1.16-.05h-2.36v.94h3.31a8.21,8.21,0,0,0,1.19-.06v.85a9.77,9.77,0,0,0-1.19-.07h-2.86a5.91,5.91,0,0,0,1,1.63,7.64,7.64,0,0,0,1.49-1.43l.76.5-.23.2a12.62,12.62,0,0,1-1.49,1.28,8.25,8.25,0,0,0,2.74,1.55,3,3,0,0,0-.55.78,8.4,8.4,0,0,1-3.19-2.22,8.23,8.23,0,0,1-1.39-2.29Z" transform="translate(-1182.11 -247.58)"/></g></g></g></g><ellipse id="楕円形_25" data-name="楕円形 25" class="cls-8" cx="144.89" cy="212.12" rx="4.51" ry="4.2"/><g id="グループ_97-2" data-name="グループ 97-2"><g id="グループ_96" data-name="グループ 96"><g id="グループ_95-2" data-name="グループ 95-2"><line id="線_8" data-name="線 8" class="cls-9" x1="144.89" y1="212.12" x2="920.84" y2="212.12"/></g></g></g><g id="グループ_99" data-name="グループ 99"><line id="線_9" data-name="線 9" class="cls-9" x1="105.51" y1="166.07" x2="144.89" y2="166.07"/><circle id="楕円形_26" data-name="楕円形 26" class="cls-8" cx="104.1" cy="166.07" r="4.2"/><circle id="楕円形_27" data-name="楕円形 27" class="cls-8" cx="144.89" cy="166.07" r="4.2"/></g><g id="グループ_100" data-name="グループ 100"><line id="線_10" data-name="線 10" class="cls-10" x1="5.82" y1="73.25" x2="45.53" y2="73.25"/><circle id="楕円形_29" data-name="楕円形 29" class="cls-8" cx="46.13" cy="72.95" r="4.2"/><circle id="楕円形_29-2" data-name="楕円形 29" class="cls-8" cx="4.7" cy="72.95" r="4.2"/></g><g id="グループ_101" data-name="グループ 101"><path id="パス_29" data-name="パス 29" class="cls-11" d="M1247,367.59h39.38" transform="translate(-1182.11 -247.58)"/><circle id="楕円形_30" data-name="楕円形 30" class="cls-8" cx="63.47" cy="120.01" r="4.2"/><circle id="楕円形_31" data-name="楕円形 31" class="cls-8" cx="104.26" cy="120.01" r="4.2"/></g><g id="グループ_102" data-name="グループ 102"><line id="線_12" data-name="線 12" class="cls-9" x1="296.55" y1="120.01" x2="920.84" y2="120.01"/><ellipse id="楕円形_32" data-name="楕円形 32" class="cls-8" cx="297.77" cy="120.01" rx="3.06" ry="4.2"/></g><g id="前置詞図鑑の作成_Production_of_prefix_pictorial" data-name="前置詞図鑑の作成 Production of prefix pictorial"><g id="前置詞図鑑の作成"><g id="前置詞図鑑の作成-2" class="cls-3"><g class="cls-3"><path class="cls-7" d="M1245.81,318.25a8.44,8.44,0,0,0-1.08-1.41l.79-.28a8.49,8.49,0,0,1,1.18,1.69h1.52a6.72,6.72,0,0,0,1.14-1.68l.85.28a12.41,12.41,0,0,1-1.08,1.4h2a7.92,7.92,0,0,0,1.1-.06V319a6.83,6.83,0,0,0-1.1-.06h-7.35a7.05,7.05,0,0,0-1.1.06v-.85a6.24,6.24,0,0,0,1.1.06Zm-1.59,7.09a5.42,5.42,0,0,0,.07,1.14h-.91a9,9,0,0,0,0-1.17v-4.58c0-.52,0-.69,0-1a8.5,8.5,0,0,0,1,.05h1.79a5.24,5.24,0,0,0,1-.05c0,.25,0,.52,0,1.13v4.59c0,.7-.22.9-1,.9a7.7,7.7,0,0,1-.87-.05,2.92,2.92,0,0,0-.2-.76,6,6,0,0,0,.88.1c.32,0,.38-.05.38-.27v-1.3h-2.19Zm2.19-3.73v-1.07h-2.19v1.07Zm0,1.78v-1.06h-2.19v1.06Zm2.94-3.46a4.81,4.81,0,0,0-.06,1v2.22a9.21,9.21,0,0,0,0,1.2h-.88a9.85,9.85,0,0,0,0-1.2v-2.23a6.46,6.46,0,0,0,0-1Zm2.32-.32a5.69,5.69,0,0,0-.07,1.16v4.64c0,.82-.25,1-1.21,1-.31,0-.69,0-1.23-.05a3.32,3.32,0,0,0-.25-.86,8.28,8.28,0,0,0,1.38.14c.42,0,.49,0,.49-.33v-4.58a7.7,7.7,0,0,0,0-1.14Z" transform="translate(-1182.11 -247.58)"/><path class="cls-7" d="M1255.15,319.13c-.56,0-.91,0-1.16,0a4.58,4.58,0,0,0,0-.78v-.53a4.68,4.68,0,0,0,0-.8c.34,0,.69,0,1.21,0h6.21c.51,0,1,0,1.2,0a6,6,0,0,0,0,.8v.53a5.57,5.57,0,0,0,0,.78c-.26,0-.56,0-1.15,0h-2.53c0,.23-.06.29-.14.58h3a7.3,7.3,0,0,0,1.14-.06v.77a9.12,9.12,0,0,0-1.14-.06h-3.21c-.07.23-.07.23-.19.55h2.48c.47,0,.83,0,1.07,0a11.15,11.15,0,0,0,0,1.14v1.84a5.7,5.7,0,0,0,0,1c-.35,0-.67,0-1.14,0h-3.79c-.47,0-.79,0-1.13,0a9.2,9.2,0,0,0,0-1V322a10.69,10.69,0,0,0,0-1.13l1.06,0h.65a5.23,5.23,0,0,0,.19-.55h-3.19a7.45,7.45,0,0,0-1.14.06v-.77a7.15,7.15,0,0,0,1.14.06H1258l.13-.58Zm6.79,6.3a6.12,6.12,0,0,0,1.15-.07v.8a8.85,8.85,0,0,0-1.15-.06h-7v.46H1254a6.71,6.71,0,0,0,.06-1v-3.64a6.41,6.41,0,0,0-.06-.93h.91a6.35,6.35,0,0,0,0,.93v3.5Zm-5.31-7.71h-1.82v.79h1.82Zm.08,4.31h4.46v-.55h-4.46Zm0,1.1h4.46v-.55h-4.46Zm0,1.14h4.46v-.59h-4.46Zm2.49-6.55h-1.86v.79h1.86Zm2.59.79v-.79h-1.87v.79Z" transform="translate(-1182.11 -247.58)"/><path class="cls-7" d="M1264.19,318.56a4.94,4.94,0,0,0,.86.05h2a4.67,4.67,0,0,0,.86-.05v.82a4.14,4.14,0,0,0-.8-.05h-2.07a5.3,5.3,0,0,0-.86.05Zm.36-1.51a5.1,5.1,0,0,0,.85.05h1.51a5.12,5.12,0,0,0,.84-.05v.79a7,7,0,0,0-.84,0h-1.51a7,7,0,0,0-.85,0Zm0,3.05a4.77,4.77,0,0,0,.75,0H1267l.74,0v.77a4,4,0,0,0-.74-.05h-1.69a3.89,3.89,0,0,0-.75.05Zm0,1.51a4.69,4.69,0,0,0,.75,0H1267a4.63,4.63,0,0,0,.74,0v.76a7.48,7.48,0,0,0-.75,0h-1.68a7.48,7.48,0,0,0-.75,0Zm0,4.95a7.83,7.83,0,0,0,.06-1.05V324a5.89,5.89,0,0,0,0-.88,7.35,7.35,0,0,0,.85,0H1267a4.56,4.56,0,0,0,.77,0c0,.23,0,.43,0,.83v1.55a6.51,6.51,0,0,0,0,.9H1267V326h-1.57v.56Zm.8-1.23H1267v-1.5h-1.58Zm8.14.28a.77.77,0,0,1-.31.72,1.66,1.66,0,0,1-.89.15c-.37,0-.75,0-1.15-.05a4.43,4.43,0,0,0-.22-.85,9.1,9.1,0,0,0,1.39.11c.28,0,.37-.08.37-.29V318h-3.21a6.75,6.75,0,0,0-1.17.07v-.88a7.76,7.76,0,0,0,1.17.08h3a9.76,9.76,0,0,0,1-.05,7.91,7.91,0,0,0,0,1Zm-5-6.63a7.24,7.24,0,0,0,1,0h1.48a7.17,7.17,0,0,0,1,0v.79a6.62,6.62,0,0,0-.94,0h-1.49a7,7,0,0,0-1,0Zm3.19,4.28a6.53,6.53,0,0,0,0,.79,5.69,5.69,0,0,0-.72,0h-1.65v.82h-.78a6.85,6.85,0,0,0,0-.84v-2.44c0-.35,0-.57,0-.84a4.2,4.2,0,0,0,.81.05H1271a4.26,4.26,0,0,0,.81-.05c0,.24,0,.46,0,.86Zm-2.35.05h1.63v-1.87h-1.63Z" transform="translate(-1182.11 -247.58)"/><path class="cls-7" d="M1275.32,326.56a10.18,10.18,0,0,0,.06-1.34v-6.75a12.91,12.91,0,0,0-.06-1.32,9.15,9.15,0,0,0,1.26.06h6.52a9.46,9.46,0,0,0,1.28-.06,10.47,10.47,0,0,0-.06,1.32v6.77a9.92,9.92,0,0,0,.06,1.32h-.89v-.64h-7.28v.64Zm.89-1.37h7.28V318h-7.28Zm6.11-.39a20.22,20.22,0,0,0-2.31-1.59,9.76,9.76,0,0,1-2.6,1.76,2.61,2.61,0,0,0-.57-.65,9,9,0,0,0,2.48-1.5,16.48,16.48,0,0,0-2.57-1.15l.45-.63a23,23,0,0,1,2.69,1.24,9.57,9.57,0,0,0,2.24-3.61l.81.4a3.81,3.81,0,0,0-.27.49,12,12,0,0,1-2.09,3.08c.75.44,1.33.81,2.24,1.44Zm-4.07-3.64a6.74,6.74,0,0,0-1.12-2l.67-.36a7.65,7.65,0,0,1,1.15,1.91Zm1.83-.53a7,7,0,0,0-1-2l.68-.31a7.55,7.55,0,0,1,1,1.93Z" transform="translate(-1182.11 -247.58)"/><path class="cls-7" d="M1287.17,320.12a5.33,5.33,0,0,0-.71,0v-.62c-.18.18-.23.23-.46.43a1.71,1.71,0,0,0-.42-.68,5.07,5.07,0,0,0,1.79-2.36h.86a4,4,0,0,0,1.3,1.74,3.29,3.29,0,0,0-.48.63,5,5,0,0,1-1.23-1.72,6.94,6.94,0,0,1-1.26,1.86,5.59,5.59,0,0,0,.62,0h1.12a5.4,5.4,0,0,0,.69,0v.71l-.7,0h-.22v1.05h.21a5.22,5.22,0,0,0,.92-.05v.78a6.93,6.93,0,0,0-.92,0h-.21V325c.47-.13.66-.18,1.24-.37v.69c-.88.3-1.23.4-2.89.86l-.43.13-.16-.82a9.13,9.13,0,0,0,1.53-.3v-3.29h-.51c-.35,0-.7,0-1,.05v-.8a9,9,0,0,0,1,.06h.5v-1.05Zm-.79,4.63a9.26,9.26,0,0,0-.48-2.12l.62-.2a11.51,11.51,0,0,1,.46,2.11Zm2-.55a8.1,8.1,0,0,0,.35-1.85l.59.18a11.84,11.84,0,0,1-.4,1.83Zm6.78,1.32a3.27,3.27,0,0,0,.54,0v.81a11.12,11.12,0,0,0-1.21-.06h-4.06a9.06,9.06,0,0,0-1.13.06v-.8a3.51,3.51,0,0,0,.55.05h.1v-2a5.73,5.73,0,0,0,0-.88,9.58,9.58,0,0,0,1,0H1294a8.47,8.47,0,0,0,1,0,6.16,6.16,0,0,0,0,.89v1.94Zm-3.56-4h.12c.39,0,.61,0,.83,0v.7a3.91,3.91,0,0,0-.79-.05h-1.48a5.22,5.22,0,0,0-.74,0c0-.27,0-.46,0-.79v-3.49c0-.35,0-.44,0-.76.22,0,.42,0,.76,0h1.35a7.15,7.15,0,0,0,.91-.05v.74a6.67,6.67,0,0,0-.83,0h-.14v.83h.08a6.19,6.19,0,0,0,.67,0,5.08,5.08,0,0,0,0,.61v.73a6,6,0,0,0,0,.67l-.67,0h-.07Zm-.61-2.87v-.83h-.77v.83Zm-.77,1.37h1.48v-.78h-1.48Zm0,1.5h.78v-.91h-.78Zm.43,4.07h.76V323.4h-.76Zm1.41,0h.79V323.4H1292Zm1.51-6.64a8.21,8.21,0,0,1-.6,1.18,1.81,1.81,0,0,0-.62-.45,6,6,0,0,0,.93-2.1,4.12,4.12,0,0,0,.13-.74l.78.19c-.09.28-.09.28-.18.58s-.1.39-.18.63h.87a4.47,4.47,0,0,0,.91-.06V319a4.91,4.91,0,0,0-.9-.07Zm-.6,1.75a4.05,4.05,0,0,0,.72,0h.84a5.31,5.31,0,0,0,.82,0v.81a5.26,5.26,0,0,0-.8,0h-.83a4.53,4.53,0,0,0-.75,0Zm.53,4.89h.79V323.4h-.79Z" transform="translate(-1182.11 -247.58)"/><path class="cls-7" d="M1302.86,324.44a3.18,3.18,0,0,0,1.7-2.89,2.8,2.8,0,0,0-1.59-2.62,2.88,2.88,0,0,0-1.21-.29,15.51,15.51,0,0,1-1.08,4.32c-.61,1.41-1.26,2.06-2.07,2.06-1.09,0-1.89-1.16-1.89-2.73a4.47,4.47,0,0,1,1.16-3,4.6,4.6,0,0,1,3.55-1.46c2.44,0,4.07,1.51,4.07,3.79a4,4,0,0,1-2.36,3.73,7,7,0,0,1-1.8.56,2.19,2.19,0,0,0-.46-.87A5.93,5.93,0,0,0,1302.86,324.44Zm-3.57-5.27a3.68,3.68,0,0,0-1.68,3.13c0,1,.43,1.76,1,1.76s.83-.5,1.27-1.51a14.87,14.87,0,0,0,1-3.89A3.13,3.13,0,0,0,1299.29,319.17Z" transform="translate(-1182.11 -247.58)"/><path class="cls-7" d="M1310.1,316.94c-.13.28-.17.36-.26.6a15.73,15.73,0,0,1-.78,1.77v5.92a8.44,8.44,0,0,0,.08,1.31h-1a10.69,10.69,0,0,0,.07-1.33v-3.44c0-.4,0-.61,0-1.34A8.47,8.47,0,0,1,1307,322a2.5,2.5,0,0,0-.48-.78,8.88,8.88,0,0,0,2.21-3.16,5.7,5.7,0,0,0,.46-1.43Zm1.66,2.17a11.16,11.16,0,0,1-1.74,2.62,2.18,2.18,0,0,0-.59-.66,9.13,9.13,0,0,0,1.88-2.89,6.54,6.54,0,0,0,.46-1.53l.89.28c-.09.2-.12.29-.22.55a9.24,9.24,0,0,1-.35.89h3.29a7.27,7.27,0,0,0,1-.06v.85a9.21,9.21,0,0,0-1-.05H1313v1.62h2a5.72,5.72,0,0,0,1-.06v.87a7.47,7.47,0,0,0-1-.06h-2v1.64h2.08a5.48,5.48,0,0,0,1-.07v.89a7,7,0,0,0-1-.07H1313v1.54a5.64,5.64,0,0,0,.08,1.17h-1a6.38,6.38,0,0,0,.07-1.17v-6.3Z" transform="translate(-1182.11 -247.58)"/><path class="cls-7" d="M1326.51,320.4l-.26.6s0,0-.3.71a8.8,8.8,0,0,1-1.18,2,4.23,4.23,0,0,0,1,1.3,1.24,1.24,0,0,0,.47.29c.16,0,.33-.57.46-1.53a2.66,2.66,0,0,0,.69.54c-.26,1.37-.57,1.91-1.1,1.91a2.09,2.09,0,0,1-1.18-.69,5.82,5.82,0,0,1-.86-1.16,9.26,9.26,0,0,1-2.88,2.08,2.42,2.42,0,0,0-.61-.66,8,8,0,0,0,3.12-2.16,13.1,13.1,0,0,1-.89-4.45h-3.66c0,.88,0,1.2,0,1.68h2a5,5,0,0,0,.79-.05c0,.26,0,.29-.06,1a10.17,10.17,0,0,1-.31,2.6c-.17.42-.43.55-1.14.55a6.74,6.74,0,0,1-1-.08,3.07,3.07,0,0,0-.18-.82,6.44,6.44,0,0,0,1.2.15c.36,0,.44-.09.53-.51a16.62,16.62,0,0,0,.14-2.07h-2a15.91,15.91,0,0,1-.35,2.9,5.43,5.43,0,0,1-.83,1.95,2.25,2.25,0,0,0-.68-.61,4.55,4.55,0,0,0,.77-1.7,21.44,21.44,0,0,0,.33-4.43,8.67,8.67,0,0,0-.06-1.32,10,10,0,0,0,1.32.06h3.17a14.12,14.12,0,0,0-.08-1.68h1a4.78,4.78,0,0,0-.06,1c0,.13,0,.28,0,.72h2.3a5.41,5.41,0,0,0,1.16-.07v.87a8.27,8.27,0,0,0-1.24-.06h-2.18a13.49,13.49,0,0,0,.64,3.71,7.85,7.85,0,0,0,1.24-2.84Zm-.75-2a6.22,6.22,0,0,0-1.42-1.15l.58-.42a7.26,7.26,0,0,1,1.41,1.08Z" transform="translate(-1182.11 -247.58)"/></g></g></g></g><g id="ネタ帳の作成_Production_of_material_book" data-name="ネタ帳の作成 Production of material book"><g id="ネタ帳の作成"><g id="ネタ帳の作成-2" class="cls-3"><g class="cls-3"><path class="cls-7" d="M1304.35,372.38a8.55,8.55,0,0,0,.05-1.16v-2.36a4.26,4.26,0,0,1,0-.5,1.57,1.57,0,0,1-.33.24,17,17,0,0,1-3.25,1.32,2.76,2.76,0,0,0-.46-.84,13.55,13.55,0,0,0,5.18-2.36,10.79,10.79,0,0,0,1.44-1.28l-.21,0-.49,0h-3.77a6.66,6.66,0,0,0-1.18.07v-1a7.19,7.19,0,0,0,1.18.07h1.86v-.86a5.9,5.9,0,0,0,0-.83h1a4.65,4.65,0,0,0,0,.82v.87h2.15a1.75,1.75,0,0,0,.55-.07l.46.54a2.68,2.68,0,0,0-.44.45,16.68,16.68,0,0,1-2.31,2.06,20.66,20.66,0,0,1,3.89,1.81l-.53.86a19.78,19.78,0,0,0-3.12-1.69,5.17,5.17,0,0,1-.66-.32,1.3,1.3,0,0,1,0,.23,3,3,0,0,1,0,.35v2.33a8.18,8.18,0,0,0,.05,1.17Z" transform="translate(-1182.11 -247.58)"/><path class="cls-7" d="M1314.64,363.11a4.91,4.91,0,0,0-.36.69,5.47,5.47,0,0,1-.31.57c.16,0,.16,0,3.18-.06a1.82,1.82,0,0,0,.72-.11l.55.55a2.55,2.55,0,0,0-.32.71,18,18,0,0,1-1.43,3,10.65,10.65,0,0,1-4.81,4,2.6,2.6,0,0,0-.64-.8,11.05,11.05,0,0,0,2.2-1.14,8,8,0,0,0,1.83-1.65,12.89,12.89,0,0,0-2.36-1.7l.6-.65a15.14,15.14,0,0,1,2.33,1.6,12.66,12.66,0,0,0,1.4-2.94l-3.65,0A11.08,11.08,0,0,1,1311,368a2.31,2.31,0,0,0-.75-.62,9.34,9.34,0,0,0,2.74-3.07,7.11,7.11,0,0,0,.64-1.48Z" transform="translate(-1182.11 -247.58)"/><path class="cls-7" d="M1324.92,368.4v3c.57-.14.87-.22,1.66-.47l0,.77a22,22,0,0,1-3,.79,4.49,4.49,0,0,1-.5.11l-.17-.85a9.15,9.15,0,0,0,1.23-.17V368.4h-.67v.89c0,.54-.18.73-.68.73l-.44,0a1.69,1.69,0,0,0-.13-.77l.35,0c.14,0,.18,0,.18-.12v-3.8h-.67v6.08a7,7,0,0,0,.06,1.22h-.88a7.3,7.3,0,0,0,.06-1.22v-6.08h-.66v3.76a10.42,10.42,0,0,0,0,1.14h-.81c0-.28.05-.7.05-1.17v-3.48c0-.43,0-.78,0-1a6.86,6.86,0,0,0,.9.05h.51v-.71a7.47,7.47,0,0,0-.06-1.09h.88a5.81,5.81,0,0,0-.06,1.09v.71h.59a4.06,4.06,0,0,0,.83-.05c0,.28,0,.5,0,1v2.16h.74v-3.5a8.49,8.49,0,0,0,0-1.06,6.88,6.88,0,0,0,1.12.06h2.56a6.07,6.07,0,0,0,1.14-.07v.8a6.89,6.89,0,0,0-1-.05h-3v.82h2.65a3.87,3.87,0,0,0,1-.07v.79a9.2,9.2,0,0,0-1-.05H1325v.81h2.65a5.41,5.41,0,0,0,1-.06v.78a5.53,5.53,0,0,0-1-.06H1325v.86h3.46a6.1,6.1,0,0,0,1-.07v.82a8.16,8.16,0,0,0-1-.06h-2a4.46,4.46,0,0,0,.69,1.42,6.79,6.79,0,0,0,1.27-1.21l.63.5a5,5,0,0,1-.44.42,10.34,10.34,0,0,1-1,.85,6.3,6.3,0,0,0,2.12,1.41,2.83,2.83,0,0,0-.46.81,7.41,7.41,0,0,1-2.7-2.24,5.84,5.84,0,0,1-.89-2Z" transform="translate(-1182.11 -247.58)"/><path class="cls-7" d="M1336.81,370.49a3.16,3.16,0,0,0,1.7-2.88,2.77,2.77,0,0,0-1.6-2.62,2.69,2.69,0,0,0-1.2-.29,16.16,16.16,0,0,1-1.08,4.31c-.62,1.41-1.26,2.06-2.07,2.06-1.09,0-1.89-1.15-1.89-2.73a4.51,4.51,0,0,1,1.15-3,4.61,4.61,0,0,1,3.55-1.45c2.45,0,4.08,1.51,4.08,3.78a4,4,0,0,1-2.36,3.74,7.86,7.86,0,0,1-1.8.56,2.06,2.06,0,0,0-.47-.88A5.93,5.93,0,0,0,1336.81,370.49Zm-3.57-5.26a3.66,3.66,0,0,0-1.69,3.12c0,1,.43,1.76,1,1.76s.84-.49,1.28-1.51a14.7,14.7,0,0,0,1-3.88A2.92,2.92,0,0,0,1333.24,365.23Z" transform="translate(-1182.11 -247.58)"/><path class="cls-7" d="M1344,363c-.12.28-.17.37-.25.61a17.5,17.5,0,0,1-.78,1.77v5.92a9.88,9.88,0,0,0,.07,1.3h-1a8.91,8.91,0,0,0,.08-1.32v-3.44c0-.4,0-.62,0-1.34a8.68,8.68,0,0,1-1.26,1.57,2.23,2.23,0,0,0-.49-.77,8.85,8.85,0,0,0,2.22-3.17,6.66,6.66,0,0,0,.46-1.43Zm1.67,2.17a11.82,11.82,0,0,1-1.74,2.62,2.46,2.46,0,0,0-.59-.66,8.83,8.83,0,0,0,1.87-2.89,6.9,6.9,0,0,0,.47-1.53l.88.28c-.08.21-.12.29-.21.55-.17.45-.21.58-.35.9h3.29a6.06,6.06,0,0,0,1-.07v.85a9.35,9.35,0,0,0-1,0H1347v1.63h2a4.79,4.79,0,0,0,1-.07v.88a7.66,7.66,0,0,0-1-.07h-2v1.64H1349a6.75,6.75,0,0,0,1-.06V370a7.15,7.15,0,0,0-1-.06H1347v1.53a6.8,6.8,0,0,0,.07,1.18h-1a7.6,7.6,0,0,0,.07-1.18v-6.3Z" transform="translate(-1182.11 -247.58)"/><path class="cls-7" d="M1360.45,366.46c-.07.18-.12.26-.26.6l-.3.7a9.23,9.23,0,0,1-1.17,2,4.17,4.17,0,0,0,1,1.29,1.17,1.17,0,0,0,.47.29c.15,0,.32-.57.45-1.53a2.84,2.84,0,0,0,.69.54c-.25,1.37-.57,1.91-1.1,1.91a2.07,2.07,0,0,1-1.17-.69,6.13,6.13,0,0,1-.87-1.15,9.3,9.3,0,0,1-2.88,2.08,2.42,2.42,0,0,0-.6-.67,8.07,8.07,0,0,0,3.12-2.16,13.06,13.06,0,0,1-.9-4.44h-3.65c0,.87,0,1.2,0,1.67h2a5.43,5.43,0,0,0,.8,0c0,.26,0,.29-.06,1a10.58,10.58,0,0,1-.32,2.6c-.16.42-.43.55-1.13.55a5.87,5.87,0,0,1-1-.09,2.72,2.72,0,0,0-.17-.82,5.61,5.61,0,0,0,1.2.15c.35,0,.44-.08.53-.51a18.48,18.48,0,0,0,.14-2.07h-2a15.08,15.08,0,0,1-.34,2.9,5.66,5.66,0,0,1-.83,2,2.44,2.44,0,0,0-.68-.62,4.4,4.4,0,0,0,.76-1.69,20.67,20.67,0,0,0,.34-4.43,7.22,7.22,0,0,0-.07-1.32,12.75,12.75,0,0,0,1.33.05h3.17a10.73,10.73,0,0,0-.09-1.68h1a6.06,6.06,0,0,0,0,1c0,.13,0,.28,0,.72h2.3a6.3,6.3,0,0,0,1.15-.06v.86a10.14,10.14,0,0,0-1.24-.05h-2.18a13.53,13.53,0,0,0,.65,3.71,8.07,8.07,0,0,0,1.24-2.85Zm-.74-2a6.59,6.59,0,0,0-1.43-1.16l.59-.42a7.91,7.91,0,0,1,1.41,1.08Z" transform="translate(-1182.11 -247.58)"/></g></g></g></g><g id="グループ分け_Grouping" data-name="グループ分け Grouping"><g id="グループ分け"><g id="グループ分け-2" class="cls-3"><g class="cls-3"><path class="cls-7" d="M1348.32,411.37c-.07.1-.08.1-.18.44a11.11,11.11,0,0,1-2.1,3.87,10.67,10.67,0,0,1-3.78,2.71,2,2,0,0,0-.65-.78,9.19,9.19,0,0,0,3.78-2.66,9.38,9.38,0,0,0,1.84-3.52l-3.52.05a10.8,10.8,0,0,1-2.56,2.79,2,2,0,0,0-.73-.66,8.31,8.31,0,0,0,2.73-3,4.6,4.6,0,0,0,.64-1.53l1.06.25a1.54,1.54,0,0,0-.24.42c-.26.55-.34.72-.47.94.08,0,.08,0,.4,0l2.55,0a1.35,1.35,0,0,0,.47-.05Zm-.27-2.42a8.35,8.35,0,0,1,1.14,1.67l-.64.36a7.55,7.55,0,0,0-1.12-1.71Zm1.23-.58a7.73,7.73,0,0,1,1.14,1.64l-.63.35a8.08,8.08,0,0,0-1.11-1.67Z" transform="translate(-1182.11 -247.58)"/><path class="cls-7" d="M1353.28,409.62a4.62,4.62,0,0,0-.07.95c-.09,3-.17,3.77-.57,4.86a6.74,6.74,0,0,1-1.86,2.72,2.78,2.78,0,0,0-.77-.72,5.25,5.25,0,0,0,1.78-2.47,14.65,14.65,0,0,0,.47-4.54,5.93,5.93,0,0,0,0-.86Zm2.74-.13a5.47,5.47,0,0,0-.08,1.12l0,6.27a4.74,4.74,0,0,0,1.89-1.25,5.25,5.25,0,0,0,1.22-2.11,3.4,3.4,0,0,0,.72.75,6.17,6.17,0,0,1-2.23,2.82,7,7,0,0,1-1.52.78l-.34.13-.26.12-.51-.56a2.37,2.37,0,0,0,.08-.85l.06-6.11v-.24a4.85,4.85,0,0,0,0-.88Z" transform="translate(-1182.11 -247.58)"/><path class="cls-7" d="M1360.87,413.18a12.59,12.59,0,0,0,1.49.06h6.06a9.62,9.62,0,0,0,1.46-.06v1.07a11.07,11.07,0,0,0-1.47-.06h-6a10.35,10.35,0,0,0-1.5.06Z" transform="translate(-1182.11 -247.58)"/><path class="cls-7" d="M1376.88,410.22a1.81,1.81,0,0,1,0-.25,1.23,1.23,0,1,1,1.23,1.23,1.42,1.42,0,0,1-.36-.05l-.06.23a9.37,9.37,0,0,1-2.7,4.7,10,10,0,0,1-3.41,2.07,2.44,2.44,0,0,0-.65-.89,8.68,8.68,0,0,0,2.42-1.14,7.89,7.89,0,0,0,3.37-5h-5.33a11.13,11.13,0,0,0-1.32.06v-1a8.15,8.15,0,0,0,1.34.07Zm.45-.25a.77.77,0,0,0,.76.76.76.76,0,0,0,.75-.76.76.76,0,0,0-.75-.75A.76.76,0,0,0,1377.33,410Z" transform="translate(-1182.11 -247.58)"/><path class="cls-7" d="M1383.89,409.24a3,3,0,0,0-.3.55,10.87,10.87,0,0,1-3.4,4.1,2.68,2.68,0,0,0-.62-.72,8.75,8.75,0,0,0,2.93-3.14,3.66,3.66,0,0,0,.44-1.12Zm-1.15,4.22a8.1,8.1,0,0,0-1.06.06v-.88c.3,0,.65.05,1.06.05h3.67a9,9,0,0,0,1.14-.05,3.39,3.39,0,0,0,0,.79,14.12,14.12,0,0,1-.48,4.45c-.2.37-.49.49-1.21.49-.32,0-.69,0-1.33-.08a3.53,3.53,0,0,0-.21-.9,8.28,8.28,0,0,0,1.47.17c.46,0,.54-.07.65-.63a19,19,0,0,0,.25-3.47h-2.39a8.69,8.69,0,0,1-.15,1.09,5.89,5.89,0,0,1-3.42,4.08,2.73,2.73,0,0,0-.57-.74,5.27,5.27,0,0,0,2.69-2.3,4.68,4.68,0,0,0,.58-2.13Zm3.48-4.53a3.89,3.89,0,0,0,.42.92,8.83,8.83,0,0,0,3.12,3.29,3.19,3.19,0,0,0-.59.79,10.79,10.79,0,0,1-3.56-4.21c-.09-.18-.18-.34-.24-.45Z" transform="translate(-1182.11 -247.58)"/><path class="cls-7" d="M1392.74,409.48a18.07,18.07,0,0,0-.66,4.71c0,.47,0,1,.07,1.56,0,.19,0,.49,0,.69a10.41,10.41,0,0,1,.82-2.24l.69.33a13.29,13.29,0,0,0-.82,1.93,4,4,0,0,0-.32,1.39l-.88,0a2.12,2.12,0,0,0-.09-.37,13.18,13.18,0,0,1-.4-3.29,22.84,22.84,0,0,1,.42-4.14,3.18,3.18,0,0,0,.09-.75Zm1,2.12a7.82,7.82,0,0,0,1.84.15,13,13,0,0,0,1.33-.06,24.46,24.46,0,0,0-.14-2.47h1a2.51,2.51,0,0,0,0,.35c0,.07,0,.12,0,.33s0,.81,0,1.71a6.47,6.47,0,0,0,1.7-.44l0,.92-.58.12a10.43,10.43,0,0,1-1.14.21c0,.25,0,.25,0,.78a7.75,7.75,0,0,1-.38,2.91,4.2,4.2,0,0,1-2.17,2.28,3.19,3.19,0,0,0-.72-.7,4.43,4.43,0,0,0,1.65-1.23,4.55,4.55,0,0,0,.73-3.1c0-.25,0-.56,0-.85-.42,0-1.09.06-1.57.06-.32,0-.77,0-1.28,0h-.34Z" transform="translate(-1182.11 -247.58)"/></g></g></g></g><g id="Instagram_Twitterによる広報活動_Public_relations_activites_using_Twitter_and_Instagram" data-name="Instagram Twitterによる広報活動 Public relations activites using Twitter and Instagram"><g id="Instagram_Twitterによる広報活動" data-name="Instagram Twitterによる広報活動"><g id="Instagram_Twitter" data-name="Instagram Twitter" class="cls-3"><text class="cls-3" x="-1182.11" y="-247.58"/></g><g id="による広報活動" class="cls-3"><g class="cls-3"><path class="cls-7" d="M1491.37,354.84a7.6,7.6,0,0,0-.07,1.13v5.19a7.42,7.42,0,0,0,.07,1.13h-1a7.25,7.25,0,0,0,.07-1.13V356a7.08,7.08,0,0,0-.07-1.13Z" transform="translate(-1182.11 -247.58)"/><path class="cls-7" d="M1492.68,362.29a7.65,7.65,0,0,0,.07-1.14v-3a7.92,7.92,0,0,0-.07-1.14h.89v.57a3.78,3.78,0,0,1,0,.41,2,2,0,0,1,1.83-1.08,1.66,1.66,0,0,1,1.48.72,2.23,2.23,0,0,1,.27,1.19v2.37a8.62,8.62,0,0,0,.06,1.13h-1a8.18,8.18,0,0,0,.06-1.14v-2.23c0-.85-.35-1.28-1-1.28a1.51,1.51,0,0,0-1.23.68,2.13,2.13,0,0,0-.46.94v1.89a8.27,8.27,0,0,0,.06,1.14Z" transform="translate(-1182.11 -247.58)"/><path class="cls-7" d="M1499.05,360.68a1.11,1.11,0,0,0,.31.68,1.4,1.4,0,0,0,1,.33c.74,0,1.22-.34,1.22-.87a.65.65,0,0,0-.27-.57,2.9,2.9,0,0,0-1-.33,3.55,3.55,0,0,1-1.33-.48,1.27,1.27,0,0,1-.58-1.1,1.35,1.35,0,0,1,.4-1,2,2,0,0,1,1.5-.54,2.11,2.11,0,0,1,1.49.5,1.59,1.59,0,0,1,.49.89l-.85.14a.89.89,0,0,0-.22-.49,1.14,1.14,0,0,0-.9-.36c-.64,0-1.08.33-1.08.81a.57.57,0,0,0,.3.51,3.1,3.1,0,0,0,1,.32,3.51,3.51,0,0,1,1.44.53,1.37,1.37,0,0,1,.51,1.08c0,1-.8,1.63-2.11,1.63a1.84,1.84,0,0,1-2.15-1.58Z" transform="translate(-1182.11 -247.58)"/><path class="cls-7" d="M1505,355.53a8.88,8.88,0,0,0-.06,1.1V357h.41a4.93,4.93,0,0,0,.93-.06v.85a4.82,4.82,0,0,0-.92-.06h-.42V361c0,.28,0,.41.12.51a.65.65,0,0,0,.44.15,1.21,1.21,0,0,0,.71-.24l.2.79a2.49,2.49,0,0,1-1.06.22,1.38,1.38,0,0,1-1-.3,1.3,1.3,0,0,1-.28-1v-3.39h-.36a5.23,5.23,0,0,0-.81.06v-.85a3.81,3.81,0,0,0,.82.06h.35v-.35a9.48,9.48,0,0,0-.06-1.1Z" transform="translate(-1182.11 -247.58)"/><path class="cls-7" d="M1510.39,361.64a2.19,2.19,0,0,1-.81.55,2.54,2.54,0,0,1-1,.19,1.46,1.46,0,0,1-1.64-1.51,1.66,1.66,0,0,1,1.23-1.59,6.74,6.74,0,0,1,2.22-.28v-.5c0-.66-.35-1-1.13-1a1.38,1.38,0,0,0-1.09.41,1.32,1.32,0,0,0-.27.52l-.84-.18a1.77,1.77,0,0,1,.56-.92,2.39,2.39,0,0,1,1.65-.54,2,2,0,0,1,1.52.51,1.53,1.53,0,0,1,.39,1.17v2.68a7.59,7.59,0,0,0,.07,1.11h-.86Zm0-2a5.1,5.1,0,0,0-1.94.28,1,1,0,0,0-.68.94.81.81,0,0,0,.92.82,2,2,0,0,0,1.4-.63,1.09,1.09,0,0,0,.3-.83Z" transform="translate(-1182.11 -247.58)"/><path class="cls-7" d="M1513.1,362.81a1.68,1.68,0,0,0,1.47.77,1.52,1.52,0,0,0,1.55-1,4.48,4.48,0,0,0,.18-1.32,1.61,1.61,0,0,1-.39.5,2.15,2.15,0,0,1-1.37.45c-1.41,0-2.3-1-2.3-2.66s.91-2.7,2.34-2.7a1.91,1.91,0,0,1,1.72.91,2.06,2.06,0,0,1,0-.33V357h.86a7.73,7.73,0,0,0-.07,1.12v3.39a3,3,0,0,1-.58,2.1,2.59,2.59,0,0,1-1.94.7,2.5,2.5,0,0,1-2.13-1Zm1.5-1.27c1,0,1.67-.81,1.67-2s-.65-1.91-1.62-1.91-1.57.76-1.57,2S1513.67,361.54,1514.6,361.54Z" transform="translate(-1182.11 -247.58)"/><path class="cls-7" d="M1521.46,357.86a2,2,0,0,0-.75-.15,1.3,1.3,0,0,0-1.1.55,1.75,1.75,0,0,0-.35,1v1.91a7.92,7.92,0,0,0,.07,1.14h-1a7.5,7.5,0,0,0,.07-1.14v-3a7.3,7.3,0,0,0-.07-1.14h.89v.66c0,.06,0,.08,0,.16a1.78,1.78,0,0,1,.42-.51,1.85,1.85,0,0,1,1.2-.4,3.86,3.86,0,0,1,.83.09Z" transform="translate(-1182.11 -247.58)"/><path class="cls-7" d="M1525.71,361.64a2.09,2.09,0,0,1-.8.55,2.58,2.58,0,0,1-1,.19,1.46,1.46,0,0,1-1.64-1.51,1.65,1.65,0,0,1,1.22-1.59,6.83,6.83,0,0,1,2.22-.28v-.5c0-.66-.35-1-1.12-1a1.42,1.42,0,0,0-1.1.41,1.32,1.32,0,0,0-.26.52l-.84-.18a1.77,1.77,0,0,1,.56-.92,2.38,2.38,0,0,1,1.65-.54,2,2,0,0,1,1.51.51,1.53,1.53,0,0,1,.39,1.17v2.68a7.59,7.59,0,0,0,.07,1.11h-.86Zm0-2a5.14,5.14,0,0,0-1.94.28,1,1,0,0,0-.68.94.82.82,0,0,0,.93.82,1.94,1.94,0,0,0,1.39-.63,1.09,1.09,0,0,0,.3-.83Z" transform="translate(-1182.11 -247.58)"/><path class="cls-7" d="M1527.79,362.29a9.46,9.46,0,0,0,.06-1.14v-3a8.68,8.68,0,0,0-.06-1.14h.88v.48s0,.18,0,.21a.76.76,0,0,0,0,.14,1.75,1.75,0,0,1,1.63-.94,1.48,1.48,0,0,1,1.18.48,1.25,1.25,0,0,1,.28.53,1.82,1.82,0,0,1,1.71-1,1.56,1.56,0,0,1,1.33.58,2,2,0,0,1,.35,1.32v2.39a8.84,8.84,0,0,0,.06,1.13h-1a7.45,7.45,0,0,0,.06-1.14V358.9c0-.59-.1-.9-.37-1.1a1,1,0,0,0-.62-.17,1.32,1.32,0,0,0-1.09.66,2.18,2.18,0,0,0-.32,1v1.91a8.84,8.84,0,0,0,.06,1.13h-1a7.3,7.3,0,0,0,.07-1.14V358.9c0-.84-.34-1.27-1-1.27a1.42,1.42,0,0,0-1.12.7,2.5,2.5,0,0,0-.31.92v1.9a8,8,0,0,0,.06,1.14Z" transform="translate(-1182.11 -247.58)"/><path class="cls-7" d="M1537.45,362.29c0,.75-.14,1-.68,1.31l-.27-.38c.43-.18.51-.32.52-.93h-.6V361.2h1Z" transform="translate(-1182.11 -247.58)"/><path class="cls-7" d="M1541.49,361.15a7.56,7.56,0,0,0,.07,1.14h-1a8.31,8.31,0,0,0,.07-1.14v-5.49h-1.36a8,8,0,0,0-1.1.06v-.94a6.84,6.84,0,0,0,1.09.06h3.54a6.77,6.77,0,0,0,1.16-.06v.94a8.3,8.3,0,0,0-1.16-.06h-1.32Z" transform="translate(-1182.11 -247.58)"/><path class="cls-7" d="M1547.38,357a5.06,5.06,0,0,0,.19.78l.71,2.29a10.18,10.18,0,0,1,.27,1.17c.13-.66.18-.92.31-1.41l.48-1.75a5.35,5.35,0,0,0,.2-1.08h1c-.09.25-.17.46-.37,1.16l-1,3.37a5.54,5.54,0,0,0-.2.78h-.75a5,5,0,0,0-.2-.78l-.83-2.67c0-.07,0-.21-.16-.61l-.17.63-.83,2.65c-.09.29-.17.59-.21.78h-.75c0-.23-.07-.34-.2-.79l-1-3.36c-.12-.39-.26-.84-.37-1.16h1a6,6,0,0,0,.21,1.08l.51,1.85c.09.35.19.83.27,1.3.11-.49.23-1,.32-1.27l.68-2.18a4.8,4.8,0,0,0,.19-.78Z" transform="translate(-1182.11 -247.58)"/><path class="cls-7" d="M1552.66,354.84v1h-1v-1Zm0,2.14a9,9,0,0,0-.06,1.15v3a10,10,0,0,0,.06,1.14h-1a8.44,8.44,0,0,0,.06-1.14v-3a7.53,7.53,0,0,0-.06-1.14Z" transform="translate(-1182.11 -247.58)"/><path class="cls-7" d="M1555.43,355.53a8.88,8.88,0,0,0-.06,1.1V357h.41a4.93,4.93,0,0,0,.93-.06v.85a4.82,4.82,0,0,0-.92-.06h-.42V361c0,.28,0,.41.12.51a.63.63,0,0,0,.44.15,1.21,1.21,0,0,0,.71-.24l.2.79a2.49,2.49,0,0,1-1.06.22,1.38,1.38,0,0,1-1-.3,1.3,1.3,0,0,1-.28-1v-3.39h-.36a5.23,5.23,0,0,0-.81.06v-.85a3.81,3.81,0,0,0,.82.06h.35v-.35a9.48,9.48,0,0,0-.06-1.1Z" transform="translate(-1182.11 -247.58)"/><path class="cls-7" d="M1559.1,355.53a8.88,8.88,0,0,0-.06,1.1V357h.41a4.93,4.93,0,0,0,.93-.06v.85a4.82,4.82,0,0,0-.92-.06H1559V361c0,.28,0,.41.12.51a.63.63,0,0,0,.44.15,1.18,1.18,0,0,0,.7-.24l.2.79a2.48,2.48,0,0,1-1,.22,1.38,1.38,0,0,1-1-.3,1.3,1.3,0,0,1-.28-1v-3.39h-.36a5.23,5.23,0,0,0-.81.06v-.85a3.76,3.76,0,0,0,.82.06h.35v-.35c0-.38,0-.77-.06-1.1Z" transform="translate(-1182.11 -247.58)"/><path class="cls-7" d="M1561.83,359.8a2.1,2.1,0,0,0,.36,1.28,1.41,1.41,0,0,0,1.23.62,1.43,1.43,0,0,0,1.16-.53,1.28,1.28,0,0,0,.29-.56l.76.3a2.18,2.18,0,0,1-.51.82,2.26,2.26,0,0,1-1.71.71c-1.47,0-2.4-1.09-2.4-2.8s.92-2.8,2.34-2.8a2.26,2.26,0,0,1,2.26,2.18,7.07,7.07,0,0,1,.07.78Zm3-.71a1.83,1.83,0,0,0-.46-1.11,1.44,1.44,0,0,0-2.29.38,2,2,0,0,0-.23.73Z" transform="translate(-1182.11 -247.58)"/><path class="cls-7" d="M1569.77,357.86a2,2,0,0,0-.74-.15,1.31,1.31,0,0,0-1.11.55,1.67,1.67,0,0,0-.34,1v1.91a8,8,0,0,0,.06,1.14h-1a9,9,0,0,0,.06-1.14v-3a9,9,0,0,0-.06-1.14h.89v.66c0,.06,0,.08,0,.16a1.62,1.62,0,0,1,.41-.51,1.85,1.85,0,0,1,1.2-.4,3.86,3.86,0,0,1,.83.09Z" transform="translate(-1182.11 -247.58)"/><path class="cls-7" d="M1572,360.88a10.11,10.11,0,0,1,.59-2l.61.31a9.06,9.06,0,0,0-.85,3,1.64,1.64,0,0,0,0,.2l-.88.07c0-.17,0-.24-.06-.46a16.57,16.57,0,0,1-.27-3.07,19.27,19.27,0,0,1,.45-4.27,7.13,7.13,0,0,0,.14-.92l1,.14a14.14,14.14,0,0,0-.5,2.15,20.25,20.25,0,0,0-.24,3.3c0,.22,0,.73,0,1s0,.28,0,.47Zm3.32-2.55a2.5,2.5,0,0,0-.76,1.59c0,.73.63,1.1,1.85,1.1a6.58,6.58,0,0,0,2.36-.38l.09,1-.36.07a10.94,10.94,0,0,1-2.09.2A2.72,2.72,0,0,1,1574,361a1.78,1.78,0,0,1-.31-1,3.27,3.27,0,0,1,.9-2Zm-1.4-3.29a6.59,6.59,0,0,0,1.71.16,10.32,10.32,0,0,0,2.78-.29l0,.92-.7.1a17.68,17.68,0,0,1-2.16.14,10.19,10.19,0,0,1-1.35-.08l-.18,0-.16,0Z" transform="translate(-1182.11 -247.58)"/><path class="cls-7" d="M1584.28,353.54a12.2,12.2,0,0,0,0,1.54c0,.2,0,.38,0,1a10.19,10.19,0,0,0,3-.4l.1.93-.63.08a20.17,20.17,0,0,1-2.41.22c0,.93.06,1.84.12,2.67a8.67,8.67,0,0,1,2.68,1.52l.49.35-.57.89a7.32,7.32,0,0,0-2.33-1.73l-.25-.13a1.78,1.78,0,0,1,0,.44,1.92,1.92,0,0,1-.27,1.08,2.13,2.13,0,0,1-1.85.74c-1.37,0-2.19-.62-2.19-1.67s1-1.77,2.39-1.77a4.09,4.09,0,0,1,1,.13c0-.37-.15-3.29-.17-5a6.13,6.13,0,0,0,0-.9Zm-1.77,6.56c-.91,0-1.51.38-1.51.95s.51.82,1.29.82a1.53,1.53,0,0,0,1.06-.34.94.94,0,0,0,.23-.71c0-.17,0-.59,0-.59A3.3,3.3,0,0,0,1582.51,360.1Z" transform="translate(-1182.11 -247.58)"/><path class="cls-7" d="M1589.85,354.16a5.41,5.41,0,0,0,1,.06c.85,0,2.19-.06,3.09-.14a.91.91,0,0,0,.52-.13l.49.7a2,2,0,0,0-.52.46,24.76,24.76,0,0,1-3.26,2.94l0,.05a4.61,4.61,0,0,1,2.37-.63c1.7,0,2.8.91,2.8,2.31,0,1.7-1.49,2.85-3.73,2.85a2.5,2.5,0,0,1-2.05-.71,1.52,1.52,0,0,1-.3-.9,1.41,1.41,0,0,1,1.54-1.34,2,2,0,0,1,1.69.89,2.86,2.86,0,0,1,.46,1,2.57,2.57,0,0,0,.83-.41,1.69,1.69,0,0,0,.69-1.38c0-1-.8-1.59-2.13-1.59a6.21,6.21,0,0,0-4.25,1.84l-.51-.82a33.62,33.62,0,0,0,4.7-4.16l.08-.08.11-.12v0h-.08c-.37.06-1.52.13-3,.19a3.31,3.31,0,0,0-.54.06Zm2,6.27c-.45,0-.75.23-.75.61s.56.83,1.44.83a3.58,3.58,0,0,0,.67-.06C1593,360.9,1592.53,360.43,1591.84,360.43Z" transform="translate(-1182.11 -247.58)"/><path class="cls-7" d="M1602.1,354a2.65,2.65,0,0,0-.06-.66h.9a3.14,3.14,0,0,0,0,.68v.58h2.68a7.41,7.41,0,0,0,1.11-.06v.89a7.32,7.32,0,0,0-1.11-.05h-6.2c0,4.21-.29,5.86-1.25,7.62a3.69,3.69,0,0,0-.64-.66c.82-1.45,1.08-2.95,1.08-6.37,0-.74,0-1.08,0-1.42a7.79,7.79,0,0,0,1,.05h2.55Zm-2.93,7.72a1.62,1.62,0,0,0,.31,0l.77,0a24.53,24.53,0,0,0,1.87-5.85l.93.25-.44,1.5a32.43,32.43,0,0,1-1.48,4,30.77,30.77,0,0,0,3.86-.51,17.18,17.18,0,0,0-1.5-2.28l.67-.42a23.68,23.68,0,0,1,2.46,4.13l-.72.51a10.83,10.83,0,0,0-.54-1.26,40.86,40.86,0,0,1-5,.72,8.52,8.52,0,0,0-1,.12Z" transform="translate(-1182.11 -247.58)"/><path class="cls-7" d="M1611.43,356.28a4.51,4.51,0,0,0,.82,0v.82a3.82,3.82,0,0,0-.61,0,11.27,11.27,0,0,1-.47,1.47h.24a4.06,4.06,0,0,0,.82-.05v.82a5.83,5.83,0,0,0-.82,0h-1v1.12h.86a5.41,5.41,0,0,0,.77,0v.8a5.59,5.59,0,0,0-.77,0h-.86v1a8.86,8.86,0,0,0,.06,1.05h-.84a9.11,9.11,0,0,0,.06-1.05v-1h-1a5.85,5.85,0,0,0-.78,0v-.8a5.57,5.57,0,0,0,.78,0h1v-1.12h-1.13a6.37,6.37,0,0,0-.83,0v-.82a4.5,4.5,0,0,0,.83.05h.33a12.39,12.39,0,0,0-.38-1.47,5.5,5.5,0,0,0-.77,0v-.82a4.77,4.77,0,0,0,.83,0h1.12v-1.1h-.87a4.63,4.63,0,0,0-.79.05v-.81a5.37,5.37,0,0,0,.79,0h.87v-.29a5.71,5.71,0,0,0-.06-.9h.84a5.21,5.21,0,0,0-.07.9v.29h.76a5.06,5.06,0,0,0,.77,0v.81a4.18,4.18,0,0,0-.77-.05h-.76v1.1Zm-.94,2.2A8.08,8.08,0,0,0,1611,357h-1.71a11.57,11.57,0,0,1,.37,1.47Zm2.74-.64V362a8.16,8.16,0,0,0,.07,1.13h-.86a6.84,6.84,0,0,0,.07-1.14v-7.24a8.23,8.23,0,0,0,0-1,5.53,5.53,0,0,0,1,.06h2.37a4.4,4.4,0,0,0,.87-.05c0,.23,0,.23-.06.69-.14,1.8-.28,2-1.26,2-.25,0-.53,0-.95-.06a3.1,3.1,0,0,0-.15-.76,6.25,6.25,0,0,0,1.12.14c.38,0,.42-.11.49-1.25h-2.63v2.65h2.1a5.52,5.52,0,0,0,.85,0l.41.45a2.64,2.64,0,0,0-.12.46,11.67,11.67,0,0,1-1,2.8,6.38,6.38,0,0,0,1.61,1.48,3,3,0,0,0-.46.75,8.37,8.37,0,0,1-1.55-1.54,7.19,7.19,0,0,1-1.3,1.53,3.55,3.55,0,0,0-.51-.68,6.1,6.1,0,0,0,1.35-1.5,8.54,8.54,0,0,1-1.12-3Zm.93,0a7.47,7.47,0,0,0,.86,2.29,8.32,8.32,0,0,0,.74-2.29Z" transform="translate(-1182.11 -247.58)"/><path class="cls-7" d="M1618.21,356a9.9,9.9,0,0,1,1.87,1.26l-.44.72a8.24,8.24,0,0,0-1.86-1.35Zm1.94,3.54a21.41,21.41,0,0,1-1.62,3.25l-.69-.64a3.49,3.49,0,0,0,.33-.4,10.81,10.81,0,0,0,1.36-2.71Zm-1.51-6.25a11.68,11.68,0,0,1,1.75,1.43l-.46.67a9.73,9.73,0,0,0-1.78-1.51Zm4.59,1.47a19.77,19.77,0,0,1-2.26.25,2.75,2.75,0,0,0-.29-.76,18.08,18.08,0,0,0,4.19-.58,5.36,5.36,0,0,0,1.25-.45l.53.78-.37.11c-.56.16-1.25.32-2.29.52v1.75h1.93a7.33,7.33,0,0,0,1-.06v.89a7.83,7.83,0,0,0-1-.06H1624v1.7h1.61a5,5,0,0,0,.78,0,8,8,0,0,0,0,1V362a9.28,9.28,0,0,0,.05,1.05h-.81v-.58h-3.78V363H1621a10.17,10.17,0,0,0,0-1.06v-2.16a8.69,8.69,0,0,0,0-.94,5.17,5.17,0,0,0,.76,0h1.47v-1.7h-1.83a8,8,0,0,0-1.05.06v-.89a7.27,7.27,0,0,0,1,.06h1.84Zm-1.43,6.86h3.78v-2h-3.78Z" transform="translate(-1182.11 -247.58)"/><path class="cls-7" d="M1630.28,354.52c-.63.08-1.1.13-1.83.18a2.38,2.38,0,0,0-.28-.65,12.58,12.58,0,0,0,4.28-.7l.47.65a1.72,1.72,0,0,0-.36.08c-.55.14-1,.24-1.59.34v.78h1.19a4.9,4.9,0,0,0,.9-.05v.74a4.27,4.27,0,0,0-.78,0H1631v.61h1a8.58,8.58,0,0,0,.87,0c0,.21,0,.39,0,.95v1.32c0,.53,0,.87,0,1l-.92,0h-1v.65h1a4.75,4.75,0,0,0,.92-.05V361a4.56,4.56,0,0,0-.79,0H1631v.7c.54-.07.89-.12,1.87-.28v.65a7,7,0,0,0,1.12-2.53,16.64,16.64,0,0,0,.34-3.09h-.19a4.7,4.7,0,0,0-.91.06v-.85a6.25,6.25,0,0,0,.84,0h.28c0-.36,0-.56,0-.93a6.22,6.22,0,0,0-.07-1.34h.86a3.59,3.59,0,0,0-.06.84c0,.2,0,.2,0,1.43h1a8.08,8.08,0,0,0,.92,0c0,.24,0,.48-.06,1.13a40.3,40.3,0,0,1-.24,4.58c-.17,1.28-.4,1.56-1.3,1.56-.23,0-.61,0-1-.07a2.82,2.82,0,0,0-.15-.85,4.7,4.7,0,0,0,1,.14c.39,0,.49-.07.58-.4a28.14,28.14,0,0,0,.34-5.3H1635a17.17,17.17,0,0,1-.41,3.49,7.72,7.72,0,0,1-1.52,3.16,2.29,2.29,0,0,0-.69-.53l.41-.47c-1.62.28-2.1.34-4.17.56a3.57,3.57,0,0,0-.54.07l-.14-.86a3.39,3.39,0,0,0,.43,0c.37,0,1,0,1.88-.12V361h-1.1a8.51,8.51,0,0,0-.92,0v-.77a4.46,4.46,0,0,0,.92.06h1.1v-.65h-1c-.42,0-.68,0-.94,0,0-.27,0-.48,0-1v-1.31c0-.54,0-.63,0-1,.26,0,.54,0,1,0h.93v-.61h-1.34a5.46,5.46,0,0,0-.9,0v-.75a5.83,5.83,0,0,0,.91.05h1.33Zm-1.18,2.54v.69h1.18v-.69Zm0,1.29v.72h1.18v-.72Zm1.87-.6h1.23v-.69H1631Zm0,1.32h1.23v-.72H1631Z" transform="translate(-1182.11 -247.58)"/></g></g></g></g><g id="Web_ポスターの制作_Production_of_web_and_poster" data-name="Web ポスターの制作 Production of web and poster"><g id="Web_ポスターの制作" data-name="Web ポスターの制作"><g id="Web_" data-name="Web " class="cls-3"><g class="cls-3"><path class="cls-7" d="M1295.38,498.09a7.8,7.8,0,0,0,.25,1.06l1.38,4.57c0,.18.14.55.32,1.36.15-.79.25-1.23.28-1.34l1.2-4.52a6.45,6.45,0,0,0,.2-1.13h1.26a7.94,7.94,0,0,0-.42,1.24l-1.72,6a10.5,10.5,0,0,0-.28,1.09h-1a9.65,9.65,0,0,0-.27-1l-1.35-4.48a10.86,10.86,0,0,1-.31-1.28c-.12.53-.24,1-.33,1.28l-1.34,4.48a7.6,7.6,0,0,0-.26,1h-1a9.41,9.41,0,0,0-.29-1.09l-1.72-6a7.44,7.44,0,0,0-.43-1.24h1.28a5.51,5.51,0,0,0,.2,1.13l1.2,4.53c0,.2.17.77.28,1.33.07-.4.25-1.14.3-1.3l1.39-4.63a6.46,6.46,0,0,0,.24-1.06Z" transform="translate(-1182.11 -247.58)"/><path class="cls-7" d="M1301.85,503.62a2.38,2.38,0,0,0,.43,1.43,1.89,1.89,0,0,0,2.85.1,1.51,1.51,0,0,0,.35-.62l.9.33a2.53,2.53,0,0,1-.6.92,2.78,2.78,0,0,1-2,.79c-1.75,0-2.86-1.21-2.86-3.13s1.1-3.12,2.78-3.12a2.61,2.61,0,0,1,2.7,2.43c0,.1,0,.33.08.87Zm3.57-.79a1.88,1.88,0,0,0-.54-1.24,1.7,1.7,0,0,0-1.24-.46,1.67,1.67,0,0,0-1.49.88,2.14,2.14,0,0,0-.27.82Z" transform="translate(-1182.11 -247.58)"/><path class="cls-7" d="M1307.65,506.4a9.68,9.68,0,0,0,.07-1.3v-5.73a10.52,10.52,0,0,0-.07-1.28h1.11a8,8,0,0,0-.08,1.28v1.33c0,.3,0,.51,0,.76a2.53,2.53,0,0,1,2.22-1.12c1.69,0,2.71,1.14,2.71,3.05s-1,3.12-2.77,3.12a2.51,2.51,0,0,1-2.16-1v.08c0,.1,0,.1,0,.32v.53Zm3.1-5.23a2.27,2.27,0,0,0,0,4.51c1.16,0,1.87-.86,1.87-2.29S1311.91,501.17,1310.75,501.17Z" transform="translate(-1182.11 -247.58)"/><path class="cls-7" d="M1316,506.4c0,.83-.18,1.14-.81,1.46l-.33-.42c.52-.2.61-.36.62-1h-.71v-1.22H1316Z" transform="translate(-1182.11 -247.58)"/></g></g><g id="ポスターの制作" class="cls-3"><g class="cls-3"><path class="cls-7" d="M1320.93,501.61c0,.12,0,.14-.1.31a10.3,10.3,0,0,1-1.92,4.11,2.79,2.79,0,0,0-.87-.53,7.12,7.12,0,0,0,1.56-2.71,5.49,5.49,0,0,0,.37-1.43Zm1.39-2.71a7.29,7.29,0,0,0-.06-1.12h1a7.79,7.79,0,0,0-.06,1.14v.67h2.61a8.67,8.67,0,0,0,1.33-.08v1a11.78,11.78,0,0,0-1.31-.05h-2.62v5.27a9.11,9.11,0,0,0,0,1.22h-1a9,9,0,0,0,.06-1.22v-5.27h-2.55a11.58,11.58,0,0,0-1.3.05v-1a8.75,8.75,0,0,0,1.31.08h2.54Zm3.22,2.47a7.17,7.17,0,0,0,.4,1.21,9.31,9.31,0,0,0,1.62,2.9,3.78,3.78,0,0,0-.84.57,13.08,13.08,0,0,1-1.65-3.21c-.1-.31-.21-.61-.31-.92a1.82,1.82,0,0,0-.12-.32Zm2.28-3.27a1.23,1.23,0,1,1-1.23-1.23A1.23,1.23,0,0,1,1327.82,498.1Zm-2,0a.76.76,0,0,0,.75.75.76.76,0,0,0,.76-.75.77.77,0,0,0-.76-.76A.76.76,0,0,0,1325.84,498.1Z" transform="translate(-1182.11 -247.58)"/><path class="cls-7" d="M1336.62,506.54a22.3,22.3,0,0,0-3.4-3.29,12,12,0,0,1-2,1.9,14,14,0,0,1-2.11,1.29,2.85,2.85,0,0,0-.62-.86,10.44,10.44,0,0,0,3.57-2.41,11.24,11.24,0,0,0,2.39-3.54l.07-.14a.46.46,0,0,0,0-.09l-3.67.07a9.75,9.75,0,0,0-1.24.08l0-1a6.06,6.06,0,0,0,1,.06h.23l3.74,0a1.87,1.87,0,0,0,.76-.1l.53.54a1.88,1.88,0,0,0-.31.54,14.08,14.08,0,0,1-1.74,3,27.84,27.84,0,0,1,3.58,3.17Z" transform="translate(-1182.11 -247.58)"/><path class="cls-7" d="M1342.85,497.67a4.91,4.91,0,0,0-.36.69c-.11.23-.22.42-.31.57.16,0,.16,0,3.18-.07a2,2,0,0,0,.72-.1l.55.55a2.41,2.41,0,0,0-.32.71,17.88,17.88,0,0,1-1.43,3,10.53,10.53,0,0,1-4.81,4,2.55,2.55,0,0,0-.64-.79,10.57,10.57,0,0,0,2.2-1.15,7.57,7.57,0,0,0,1.83-1.65,12.37,12.37,0,0,0-2.36-1.69l.6-.66a16,16,0,0,1,2.33,1.61,12.93,12.93,0,0,0,1.4-2.95l-3.65.05a11.18,11.18,0,0,1-2.55,2.85,2.43,2.43,0,0,0-.76-.61,9.37,9.37,0,0,0,2.74-3.08,6.86,6.86,0,0,0,.64-1.47Z" transform="translate(-1182.11 -247.58)"/><path class="cls-7" d="M1348.3,501.68a12.59,12.59,0,0,0,1.49.06h6.06a9.62,9.62,0,0,0,1.46-.06v1.07a11.07,11.07,0,0,0-1.47-.06h-6a10.26,10.26,0,0,0-1.5.06Z" transform="translate(-1182.11 -247.58)"/><path class="cls-7" d="M1365,505a3.15,3.15,0,0,0,1.7-2.88,2.8,2.8,0,0,0-1.59-2.62,2.88,2.88,0,0,0-1.21-.29,15.87,15.87,0,0,1-1.08,4.32c-.62,1.41-1.26,2.06-2.07,2.06-1.09,0-1.89-1.16-1.89-2.73a4.51,4.51,0,0,1,1.15-3,4.63,4.63,0,0,1,3.55-1.46c2.45,0,4.08,1.51,4.08,3.79a4,4,0,0,1-2.36,3.73,7,7,0,0,1-1.8.56,2.08,2.08,0,0,0-.47-.87A5.9,5.9,0,0,0,1365,505Zm-3.57-5.26a3.68,3.68,0,0,0-1.69,3.13c0,1,.44,1.76,1,1.76s.83-.5,1.27-1.51a14.87,14.87,0,0,0,1-3.89A3.1,3.1,0,0,0,1361.45,499.78Z" transform="translate(-1182.11 -247.58)"/><path class="cls-7" d="M1370.17,499.56a5.74,5.74,0,0,1-.5,1,3.89,3.89,0,0,0-.73-.38,5.8,5.8,0,0,0,1-2.05,2.87,2.87,0,0,0,.1-.59l.81.18c0,.13-.1.3-.17.57s-.1.36-.16.56h1v-.39a6.08,6.08,0,0,0-.06-1.08h.9a5.69,5.69,0,0,0-.06,1.07v.4h1.07a6.73,6.73,0,0,0,1.05,0v.83a5.77,5.77,0,0,0-1.05-.06h-1.07v1.19h1.46a7.14,7.14,0,0,0,1-.05v.84a6.17,6.17,0,0,0-1-.06h-1.44v1.07h1.13a7.49,7.49,0,0,0,1-.05c0,.3,0,.55,0,1v2.15c0,.56-.25.71-1.12.71l-.56,0a2.57,2.57,0,0,0-.13-.76c.18,0,.43.05.61.05.38,0,.45,0,.45-.18v-2.15h-1.35V506a8.77,8.77,0,0,0,0,1.2h-.89a10,10,0,0,0,.06-1.2v-2.69h-1.33v2a10.24,10.24,0,0,0,0,1.11h-.89a5.61,5.61,0,0,0,.06-1.1V503.5a7.31,7.31,0,0,0-.05-1,8.23,8.23,0,0,0,1,.05h1.12v-1.07H1370a7.08,7.08,0,0,0-1,.06v-.85a5.32,5.32,0,0,0,1,.06h1.53v-1.19Zm5.94-1.52a6.57,6.57,0,0,0-.06,1.16v4.26a6.21,6.21,0,0,0,.06,1.19h-.91a7.55,7.55,0,0,0,.06-1.2v-4.24a8,8,0,0,0-.07-1.17Zm2.21-.63a7.87,7.87,0,0,0-.08,1.3V506c0,.84-.26,1-1.32,1-.28,0-.61,0-1.13,0a2.12,2.12,0,0,0-.23-.82,10.74,10.74,0,0,0,1.37.1c.42,0,.5,0,.5-.32v-7.22a8.53,8.53,0,0,0-.07-1.32Z" transform="translate(-1182.11 -247.58)"/><path class="cls-7" d="M1383,497.55c-.13.28-.17.36-.26.6a13.78,13.78,0,0,1-.77,1.77v5.92a10,10,0,0,0,.07,1.31h-1a9,9,0,0,0,.08-1.33v-3.44c0-.4,0-.62,0-1.34a8.4,8.4,0,0,1-1.26,1.58,2.54,2.54,0,0,0-.49-.78,8.88,8.88,0,0,0,2.21-3.16,6.13,6.13,0,0,0,.47-1.44Zm1.66,2.17a11.66,11.66,0,0,1-1.73,2.62,2.21,2.21,0,0,0-.6-.66,8.91,8.91,0,0,0,1.88-2.89,7.22,7.22,0,0,0,.47-1.53l.88.28c-.09.2-.12.29-.22.55-.16.45-.2.58-.34.89h3.29a7.22,7.22,0,0,0,1-.06v.85a9,9,0,0,0-1,0h-2.39v1.62h2a5.91,5.91,0,0,0,1-.06v.87a7.74,7.74,0,0,0-1-.06h-2v1.64H1388a5.48,5.48,0,0,0,1-.07v.89a7.16,7.16,0,0,0-1-.07h-2.09V506a6.45,6.45,0,0,0,.08,1.17h-1a7.8,7.8,0,0,0,.06-1.17v-6.3Z" transform="translate(-1182.11 -247.58)"/></g></g></g></g><g id="_5月" data-name=" 5月"><g id="月"><g id="_5月-2" data-name=" 5月-2" class="cls-3"><text class="cls-4" transform="translate(64.96 36.7)">5<tspan class="cls-12" x="7.67" y="0">月</tspan></text></g></g></g><g id="_5月-3-2" data-name=" 5月-3"><g id="月-2-2" data-name="月-2"><g id="_6月-2" data-name=" 6月" class="cls-3"><text class="cls-4" transform="translate(251.56 36.7)">6<tspan class="cls-12" x="7.67" y="0">月</tspan></text></g></g></g><line id="線_23" data-name="線 23" class="cls-6" x1="1.33" y1="33.72" x2="57.71" y2="33.72"/><line id="線_24" data-name="線 24" class="cls-6" x1="93.65" y1="33.72" x2="145.1" y2="33.72"/><path id="パス_30-2" data-name="パス 30" class="cls-6" d="M1336.92,281.3H1423" transform="translate(-1182.11 -247.58)"/><line id="線_25-3" data-name="線 25" class="cls-6" x1="282.41" y1="33.72" x2="358.23" y2="33.72"/><circle id="楕円形_35" data-name="楕円形 35" class="cls-8" cx="370.52" cy="253.64" r="4.2"/><line id="線_13" data-name="線 13" class="cls-9" x1="219.7" y1="254.54" x2="369.72" y2="254.54"/><ellipse id="楕円形_33" data-name="楕円形 33" class="cls-8" cx="219.49" cy="254.34" rx="4.36" ry="4.2"/><circle id="楕円形_35-2" data-name="楕円形 35-2" class="cls-8" cx="396.75" cy="253.79" r="4.2"/><g id="_5月-3-3" data-name=" 5月-3"><g id="月-2-3" data-name="月-2"><g id="_6月-3" data-name=" 6月" class="cls-3"><text class="cls-13" transform="translate(650.88 37.15) scale(0.81 1)">1<tspan class="cls-14" x="8.08" y="0">1</tspan><tspan class="cls-15" x="15.74" y="0">月</tspan></text></g></g></g><line id="線_25-4" data-name="線 25" class="cls-6" x1="681.21" y1="33.58" x2="760.6" y2="33.58"/><g id="_5月-3-4" data-name=" 5月-3"><g id="月-2-4" data-name="月-2"><g id="_6月-4" data-name=" 6月" class="cls-3"><text class="cls-13" transform="translate(536.93 36.7)">1<tspan class="cls-16" x="8.08" y="0">0</tspan><tspan class="cls-12" x="15.74" y="0">月</tspan></text></g></g></g><g id="中間発表_Intermediate_announcement-2" data-name="中間発表 Intermediate announcement"><g id="中間発表-2-2" data-name="中間発表"><g id="中間発表-2-3" data-name="中間発表-2" class="cls-3"><g class="cls-3"><path class="cls-7" d="M2010.21,499.24l-.26.6s0,0-.3.71a8.8,8.8,0,0,1-1.18,2,4.39,4.39,0,0,0,1,1.3,1.25,1.25,0,0,0,.48.29c.15,0,.32-.57.45-1.53a2.66,2.66,0,0,0,.69.54c-.26,1.37-.57,1.91-1.1,1.91a2.12,2.12,0,0,1-1.18-.69,5.82,5.82,0,0,1-.86-1.16,9.14,9.14,0,0,1-2.88,2.08,2.25,2.25,0,0,0-.6-.66,8,8,0,0,0,3.11-2.16,13.34,13.34,0,0,1-.89-4.45H2003c0,.88,0,1.2,0,1.68h2a5.16,5.16,0,0,0,.8-.05,7,7,0,0,0-.07,1,10.17,10.17,0,0,1-.31,2.6c-.16.42-.43.55-1.13.55a6.77,6.77,0,0,1-1-.08,2.72,2.72,0,0,0-.17-.82,6.27,6.27,0,0,0,1.19.15c.36,0,.45-.09.53-.51a16.62,16.62,0,0,0,.14-2.07h-2a15.07,15.07,0,0,1-.35,2.9,5.43,5.43,0,0,1-.83,1.95,2.25,2.25,0,0,0-.68-.61,4.4,4.4,0,0,0,.77-1.7,20.75,20.75,0,0,0,.33-4.43,8.67,8.67,0,0,0-.06-1.32,10.27,10.27,0,0,0,1.33.06h3.17a15.19,15.19,0,0,0-.09-1.68h1a6,6,0,0,0,0,1c0,.13,0,.28,0,.72h2.29a5.35,5.35,0,0,0,1.16-.07v.87a8.27,8.27,0,0,0-1.24-.06h-2.18a13.09,13.09,0,0,0,.65,3.71,8.22,8.22,0,0,0,1.24-2.84Zm-.75-2a6,6,0,0,0-1.42-1.15l.58-.42a7.62,7.62,0,0,1,1.42,1.08Z" transform="translate(-1182.11 -247.58)"/><path class="cls-7" d="M2014.49,500.21a7.92,7.92,0,0,0-1.28.06,11.49,11.49,0,0,0,0-1.2v-1.94a10.73,10.73,0,0,0,0-1.16,7.29,7.29,0,0,0,1.24.06h4.87a7.86,7.86,0,0,0,1.27-.06,8.33,8.33,0,0,0,0,1.19v1.91a8.59,8.59,0,0,0,0,1.2,8.08,8.08,0,0,0-1.28-.06h-2.13v.88h3.35a8.64,8.64,0,0,0,1.16-.07v.87a9.4,9.4,0,0,0-1.15-.06h-2.84a6.25,6.25,0,0,0,1.53,1.29,9.38,9.38,0,0,0,2.61,1.13,3.07,3.07,0,0,0-.46.81,11.44,11.44,0,0,1-2.6-1.31,8.66,8.66,0,0,1-1.63-1.52c0,.52,0,.64,0,.83v1.16a7.19,7.19,0,0,0,.07,1.18h-.94a6,6,0,0,0,.08-1.18v-1.15c0-.19,0-.44,0-.81a9.85,9.85,0,0,1-4,2.86,3.52,3.52,0,0,0-.5-.77,9.72,9.72,0,0,0,2.21-1,7.08,7.08,0,0,0,1.67-1.48h-2.62a8.67,8.67,0,0,0-1.12.06V501a7.62,7.62,0,0,0,1.11.07h3.19v-.88Zm-.44-3.47v1h2.34v-1Zm0,1.71v1.06h2.34v-1.06Zm3.13-.68h2.56v-1h-2.56Zm0,1.74h2.56v-1.06h-2.56Z" transform="translate(-1182.11 -247.58)"/><path class="cls-7" d="M2023.8,498.47a10.14,10.14,0,0,1-.47,1.74,2.63,2.63,0,0,0-.71-.41,6.13,6.13,0,0,0,.48-1.55,7.69,7.69,0,0,0,.16-1.51c0-.13,0-.2,0-.36l.8.11c0,.23,0,.23-.07.61s0,.4-.06.63h.67v-1.32a4.09,4.09,0,0,0-.08-.89h1a4.66,4.66,0,0,0-.07.89v1.32h.43a3,3,0,0,0,.68-.05v.83c-.26,0-.4,0-.68,0h-.43v2.29c.46-.17.63-.25,1.16-.48V501c-.55.25-.74.34-1.17.51v2.71a8.77,8.77,0,0,0,.07,1.15h-1a6.84,6.84,0,0,0,.08-1.15v-2.41l-1,.38a4.42,4.42,0,0,0-.56.21l-.23-.9a9.22,9.22,0,0,0,1.83-.49v-2.58Zm5.66-.47a8.48,8.48,0,0,1-1,2.42,7.51,7.51,0,0,1-2,2.23,2.08,2.08,0,0,0-.58-.64,5.94,5.94,0,0,0,1.94-2.05,7.22,7.22,0,0,0,.79-2h-.84a7.85,7.85,0,0,1-1.2,1.8,2.18,2.18,0,0,0-.65-.54,5.77,5.77,0,0,0,1.34-2,7.25,7.25,0,0,0,.52-1.69l.89.18c-.07.18-.07.18-.3.83-.08.22-.14.37-.28.71h3.23a4.89,4.89,0,0,0,.91-.05,10.12,10.12,0,0,0-.06,1.46,28.07,28.07,0,0,1-.47,5.61c-.21.65-.57.89-1.37.89a9.79,9.79,0,0,1-1.24-.1,2.16,2.16,0,0,0-.21-.89,7.4,7.4,0,0,0,1.41.21c.49,0,.65-.24.78-1.23a46.45,46.45,0,0,0,.29-5.19h-.38a12.38,12.38,0,0,1-1.27,3.87,9.08,9.08,0,0,1-3,3.3,2.23,2.23,0,0,0-.64-.62,8.45,8.45,0,0,0,3-3.23,11.07,11.07,0,0,0,1.11-3.32Z" transform="translate(-1182.11 -247.58)"/><path class="cls-7" d="M2036.76,501.46a11.2,11.2,0,0,0,.06-1.44,6.74,6.74,0,0,0-.84,0v-.53a10.33,10.33,0,0,1-2,1.21,2.3,2.3,0,0,0-.49-.69,8,8,0,0,0,2.36-1.35,8.82,8.82,0,0,0-1.6-1.41l.62-.49a15.16,15.16,0,0,1,1.56,1.38,6.42,6.42,0,0,0,1.27-1.52h-1.91a4.7,4.7,0,0,0-.68.06v-.82a5.51,5.51,0,0,0,.81.05h2a6.88,6.88,0,0,0,.95,0,3,3,0,0,0,.79,1.38,6,6,0,0,0,1.08-1.32l.7.44a2.38,2.38,0,0,0-.23.26,9.65,9.65,0,0,1-1.07,1.12c.25.24.53.49.84.74a6.4,6.4,0,0,0,1.23-1.43l.71.45a5.41,5.41,0,0,0-.51.56,8.77,8.77,0,0,1-.87.84,8,8,0,0,0,1.94,1,3.08,3.08,0,0,0-.47.76,11,11,0,0,1-2-1.18v.53a8.62,8.62,0,0,0-.93,0h-.12v1.44h1.86a7.86,7.86,0,0,0,1.09-.06v.85a8,8,0,0,0-1.09-.06h-1.86v1.91c0,.19,0,.26.25.3a3.81,3.81,0,0,0,.76.05c.76,0,1,0,1.17-.2a2.5,2.5,0,0,0,.27-1.19,2.4,2.4,0,0,0,.83.32c-.26,1.7-.44,1.84-2.36,1.84-1.4,0-1.72-.16-1.72-.86v-2.17h-1.68a3.76,3.76,0,0,1-.9,1.83,6,6,0,0,1-1.27,1,7.5,7.5,0,0,1-.93.41,2.75,2.75,0,0,0-.59-.74,5.33,5.33,0,0,0,2.06-1.07,2.52,2.52,0,0,0,.81-1.4h-1.53a8.06,8.06,0,0,0-1.09.06v-.85a7.76,7.76,0,0,0,1.09.06Zm3.24-2.15a4.31,4.31,0,0,0,.67,0,8.39,8.39,0,0,1-2.21-2.47,9,9,0,0,1-2.17,2.47,4.65,4.65,0,0,0,.68,0Zm-2.37.71a13.56,13.56,0,0,1-.06,1.44h1.57V500Z" transform="translate(-1182.11 -247.58)"/><path class="cls-7" d="M2049.09,500.69a8.43,8.43,0,0,1-1,1v2.42c.77-.16,1.37-.31,2.4-.6v.79c-1.31.37-2.53.66-4,.94a3.83,3.83,0,0,0-.5.11l-.22-.89a13.67,13.67,0,0,0,1.58-.18v-2a12.87,12.87,0,0,1-2.5,1.36,2.75,2.75,0,0,0-.49-.77,9.53,9.53,0,0,0,3.77-2.18h-2.45a9.83,9.83,0,0,0-1.2.06v-.85a7,7,0,0,0,1.19.06h3.14V499h-2.21a8.82,8.82,0,0,0-1.12.05v-.8a9.55,9.55,0,0,0,1.12,0h2.21v-.92H2046a8.29,8.29,0,0,0-1.15.05v-.83a8.63,8.63,0,0,0,1.18.06h2.72v-.17a5.57,5.57,0,0,0-.06-.94h.94a4.13,4.13,0,0,0-.07.94v.17h2.89a8.93,8.93,0,0,0,1.21-.06v.83a8.63,8.63,0,0,0-1.17-.05h-2.93v.92h2.35a10,10,0,0,0,1.17,0v.8a9.32,9.32,0,0,0-1.17-.05h-2.35V500h3.3a8.28,8.28,0,0,0,1.2-.06v.85a10.07,10.07,0,0,0-1.2-.06H2050a6,6,0,0,0,1,1.62,7.64,7.64,0,0,0,1.49-1.43l.75.5-.22.2a13.68,13.68,0,0,1-1.49,1.29,8.31,8.31,0,0,0,2.74,1.54,2.89,2.89,0,0,0-.55.79,8.44,8.44,0,0,1-3.19-2.23,8.2,8.2,0,0,1-1.4-2.28Z" transform="translate(-1182.11 -247.58)"/><path class="cls-7" d="M2060.48,495.62a7,7,0,0,0,1.8,1.88,11,11,0,0,0,2.92,1.65,3.48,3.48,0,0,0-.47.85,15,15,0,0,1-2.93-1.82,8.12,8.12,0,0,1-1.75-1.82,8.64,8.64,0,0,1-1.67,1.76,11.49,11.49,0,0,1-2.84,1.82,2.37,2.37,0,0,0-.51-.75,11,11,0,0,0,2.82-1.69,7.54,7.54,0,0,0,1.71-1.88Zm-3.74,6.1a8.3,8.3,0,0,0-1.24.07v-.92a10.56,10.56,0,0,0,1.24.06h6.66a10,10,0,0,0,1.24-.06v.92a8.12,8.12,0,0,0-1.24-.07h-3.82a15.18,15.18,0,0,1-1.28,2.43c1,0,2.59-.21,4-.38-.54-.59-.75-.81-1.24-1.28l.69-.39a25.72,25.72,0,0,1,2.58,2.85l-.73.52c-.37-.54-.5-.74-.74-1-1.81.24-3.71.44-5.33.56-1.1.09-1.42.12-1.69.17l-.14-.95a3.87,3.87,0,0,0,.56,0l1.09-.06a15.21,15.21,0,0,0,1.31-2.48Zm.67-2.84a5.27,5.27,0,0,0,.88.05h3.5a5.79,5.79,0,0,0,.93-.05v.87a7.57,7.57,0,0,0-.92-.05h-3.52a7.17,7.17,0,0,0-.87.05Z" transform="translate(-1182.11 -247.58)"/></g></g></g></g><g id="Web_ポスターの制作_Production_of_web_and_poster-2" data-name="Web ポスターの制作 Production of web and poster"><g id="Web_ポスターの制作-2" data-name="Web ポスターの制作"><g id="Web_2" data-name="Web " class="cls-3"><g class="cls-3"><path class="cls-7" d="M1824.27,497.7a9.78,9.78,0,0,0,.25,1.07l1.38,4.56c0,.19.14.55.32,1.36.16-.78.25-1.23.29-1.33l1.19-4.52a5.71,5.71,0,0,0,.2-1.14h1.26a8.75,8.75,0,0,0-.42,1.24l-1.72,6c-.23.86-.23.86-.28,1.09h-1a7.85,7.85,0,0,0-.27-1.06l-1.35-4.47a11,11,0,0,1-.31-1.29c-.12.54-.24,1-.33,1.29l-1.33,4.47a6.72,6.72,0,0,0-.27,1.06h-1a8.35,8.35,0,0,0-.29-1.09l-1.71-6a9.45,9.45,0,0,0-.43-1.24h1.27a5.6,5.6,0,0,0,.2,1.14l1.2,4.53c.05.2.17.76.28,1.32.08-.4.25-1.13.3-1.29l1.4-4.63a7.25,7.25,0,0,0,.23-1.07Z" transform="translate(-1182.11 -247.58)"/><path class="cls-7" d="M1830.74,503.24a2.4,2.4,0,0,0,.44,1.43,1.9,1.9,0,0,0,2.84.1,1.39,1.39,0,0,0,.35-.63l.91.34a2.67,2.67,0,0,1-.61.92,2.82,2.82,0,0,1-2,.78c-1.75,0-2.86-1.21-2.86-3.13s1.1-3.11,2.79-3.11a2.6,2.6,0,0,1,2.69,2.42,5.81,5.81,0,0,1,.08.88Zm3.58-.79a2,2,0,0,0-.54-1.24,1.74,1.74,0,0,0-1.25-.46,1.65,1.65,0,0,0-1.48.88,2,2,0,0,0-.27.82Z" transform="translate(-1182.11 -247.58)"/><path class="cls-7" d="M1836.54,506a9.68,9.68,0,0,0,.07-1.3V499a10.8,10.8,0,0,0-.07-1.29h1.11a8.09,8.09,0,0,0-.08,1.29v1.32c0,.31,0,.52,0,.77a2.5,2.5,0,0,1,2.22-1.12c1.7,0,2.71,1.14,2.71,3.05s-1,3.12-2.77,3.12a2.52,2.52,0,0,1-2.16-1.05v.09c0,.1,0,.1,0,.32V506Zm3.1-5.23a2,2,0,0,0-2.06,2.23,2.07,2.07,0,0,0,2,2.28c1.17,0,1.87-.87,1.87-2.29S1840.8,500.79,1839.64,500.79Z" transform="translate(-1182.11 -247.58)"/><path class="cls-7" d="M1844.91,506c0,.83-.17,1.13-.81,1.46l-.32-.42c.51-.2.6-.36.61-1h-.71V504.8h1.23Z" transform="translate(-1182.11 -247.58)"/></g></g><g id="ポスターの制作-2" data-name="ポスターの制作" class="cls-3"><g class="cls-3"><path class="cls-7" d="M1850.82,501.23a2.82,2.82,0,0,0-.09.3,10.45,10.45,0,0,1-1.92,4.11,3.18,3.18,0,0,0-.88-.53,7.08,7.08,0,0,0,1.57-2.7,6,6,0,0,0,.36-1.44Zm1.39-2.72a7.23,7.23,0,0,0-.06-1.11h1.06a6.23,6.23,0,0,0-.07,1.13v.67h2.61a8.94,8.94,0,0,0,1.33-.07v1a11.34,11.34,0,0,0-1.3-.06h-2.63v5.28a7.45,7.45,0,0,0,.06,1.22h-1.06a9.21,9.21,0,0,0,.06-1.22V500h-2.55a11.22,11.22,0,0,0-1.3.06v-1a9,9,0,0,0,1.31.07h2.54Zm3.22,2.47a6.94,6.94,0,0,0,.4,1.22,9.27,9.27,0,0,0,1.63,2.89,3.66,3.66,0,0,0-.84.57,12.2,12.2,0,0,1-1.65-3.2c-.11-.31-.22-.61-.32-.93a1.34,1.34,0,0,0-.12-.31Zm2.29-3.27a1.23,1.23,0,1,1-1.23-1.23A1.23,1.23,0,0,1,1857.72,497.71Zm-2,0a.77.77,0,0,0,.76.76.76.76,0,0,0,.75-.76.76.76,0,0,0-.75-.75A.76.76,0,0,0,1855.73,497.71Z" transform="translate(-1182.11 -247.58)"/><path class="cls-7" d="M1866.51,506.16a21.39,21.39,0,0,0-3.4-3.29,11.68,11.68,0,0,1-2,1.9,13.4,13.4,0,0,1-2.1,1.28,2.73,2.73,0,0,0-.63-.85,10.47,10.47,0,0,0,3.57-2.42,11.12,11.12,0,0,0,2.4-3.53.64.64,0,0,1,.06-.14s0-.05,0-.09l-3.66.06a9.22,9.22,0,0,0-1.24.09l0-1a6.06,6.06,0,0,0,1,.06h.24l3.73,0a1.87,1.87,0,0,0,.76-.1l.53.54a1.88,1.88,0,0,0-.31.54,14.08,14.08,0,0,1-1.74,3,27.83,27.83,0,0,1,3.59,3.17Z" transform="translate(-1182.11 -247.58)"/><path class="cls-7" d="M1872.74,497.28a5.5,5.5,0,0,0-.35.69c-.12.24-.23.42-.32.57.17,0,.17,0,3.19-.06a1.79,1.79,0,0,0,.71-.11l.55.55a2.49,2.49,0,0,0-.31.71,16.89,16.89,0,0,1-1.44,3,10.54,10.54,0,0,1-4.81,4,2.6,2.6,0,0,0-.64-.8,10.55,10.55,0,0,0,2.2-1.14,7.82,7.82,0,0,0,1.84-1.65,13,13,0,0,0-2.37-1.7l.6-.65a15.14,15.14,0,0,1,2.33,1.6,12.66,12.66,0,0,0,1.4-2.94l-3.65,0a10.88,10.88,0,0,1-2.55,2.86,2.3,2.3,0,0,0-.76-.61,9.47,9.47,0,0,0,2.74-3.08,6.42,6.42,0,0,0,.64-1.48Z" transform="translate(-1182.11 -247.58)"/><path class="cls-7" d="M1878.19,501.3a12.59,12.59,0,0,0,1.49.06h6.06a9.62,9.62,0,0,0,1.46-.06v1.06a13.59,13.59,0,0,0-1.47-.05h-6a12.77,12.77,0,0,0-1.5.05Z" transform="translate(-1182.11 -247.58)"/><path class="cls-7" d="M1894.91,504.66a3.17,3.17,0,0,0,1.71-2.88,2.8,2.8,0,0,0-1.6-2.62,2.88,2.88,0,0,0-1.21-.29,15.44,15.44,0,0,1-1.08,4.31c-.61,1.42-1.26,2.06-2.07,2.06-1.09,0-1.89-1.15-1.89-2.73a4.47,4.47,0,0,1,1.16-3,4.6,4.6,0,0,1,3.55-1.45c2.44,0,4.07,1.51,4.07,3.78a4,4,0,0,1-2.36,3.74,7,7,0,0,1-1.8.56,2.3,2.3,0,0,0-.46-.88A5.93,5.93,0,0,0,1894.91,504.66Zm-3.57-5.26a3.67,3.67,0,0,0-1.68,3.13c0,1,.43,1.75,1,1.75s.83-.49,1.27-1.51a14.7,14.7,0,0,0,1-3.88A3,3,0,0,0,1891.34,499.4Z" transform="translate(-1182.11 -247.58)"/><path class="cls-7" d="M1900.07,499.18a7,7,0,0,1-.51,1,4.08,4.08,0,0,0-.72-.37,6.27,6.27,0,0,0,1-2.05,3.63,3.63,0,0,0,.09-.6l.81.19-.17.57c-.06.22-.1.35-.16.56h1v-.39a6,6,0,0,0-.06-1.08h.91a4.74,4.74,0,0,0-.07,1.07v.4h1.07a5.57,5.57,0,0,0,1.06-.06v.84a5.83,5.83,0,0,0-1.06-.06h-1.07v1.19h1.47a5.7,5.7,0,0,0,1-.06v.85a5.17,5.17,0,0,0-1-.06h-1.45v1.07h1.13a7.75,7.75,0,0,0,1-.05,9,9,0,0,0,0,1v2.14c0,.57-.24.72-1.12.72l-.56,0a2.5,2.5,0,0,0-.13-.75c.19,0,.43,0,.62,0,.37,0,.44,0,.44-.17v-2.16h-1.35v2.7a9,9,0,0,0,0,1.2h-.89a10,10,0,0,0,.06-1.2v-2.7h-1.32v2a10.74,10.74,0,0,0,0,1.11h-.88a7,7,0,0,0,0-1.1v-1.79a9.66,9.66,0,0,0,0-1,8,8,0,0,0,1,.05h1.12V501.1h-1.46a6,6,0,0,0-1,.06v-.86a4.47,4.47,0,0,0,1,.07h1.53v-1.19Zm5.93-1.52a8,8,0,0,0,0,1.15v4.27a7.5,7.5,0,0,0,0,1.18h-.91a6.34,6.34,0,0,0,.06-1.2v-4.23a6.67,6.67,0,0,0-.07-1.17Zm2.21-.64a8.29,8.29,0,0,0-.07,1.31v7.27c0,.84-.26,1-1.33,1-.28,0-.61,0-1.12,0a2.37,2.37,0,0,0-.24-.82,9.34,9.34,0,0,0,1.37.11c.42,0,.51-.05.51-.32v-7.22a7.33,7.33,0,0,0-.08-1.33Z" transform="translate(-1182.11 -247.58)"/><path class="cls-7" d="M1912.94,497.16a4.82,4.82,0,0,0-.26.61,17.5,17.5,0,0,1-.78,1.77v5.92a8.44,8.44,0,0,0,.08,1.31h-1a9.05,9.05,0,0,0,.08-1.33V502c0-.4,0-.62,0-1.34a8.27,8.27,0,0,1-1.26,1.57,2.46,2.46,0,0,0-.48-.77,9,9,0,0,0,2.21-3.16,5.75,5.75,0,0,0,.46-1.44Zm1.66,2.17a11.82,11.82,0,0,1-1.74,2.62,2.42,2.42,0,0,0-.59-.65,9,9,0,0,0,1.87-2.9,6.39,6.39,0,0,0,.47-1.53l.88.28c-.08.21-.12.29-.21.55a8.59,8.59,0,0,1-.35.9h3.29a5.91,5.91,0,0,0,1-.07v.86a7.18,7.18,0,0,0-1-.06h-2.38V501h2.05a5.72,5.72,0,0,0,1-.06v.87a7.59,7.59,0,0,0-1-.06h-2.05v1.64h2.08a6.6,6.6,0,0,0,1-.07v.89a5.78,5.78,0,0,0-1-.07h-2.08v1.53a6.8,6.8,0,0,0,.07,1.18h-1a6.43,6.43,0,0,0,.07-1.18v-6.3Z" transform="translate(-1182.11 -247.58)"/></g></g></g></g><circle id="楕円形_35-2-2" data-name="楕円形 35" class="cls-9" cx="786.71" cy="253.59" r="4.2"/><line id="線_13-2" data-name="線 13" class="cls-8" x1="745.93" y1="253.59" x2="786.71" y2="253.59"/><circle id="楕円形_33-2" data-name="楕円形 33" class="cls-8" cx="747.15" cy="254.38" r="4.2"/><circle id="楕円形_35-2-3" data-name="楕円形 35-2" class="cls-8" cx="806.85" cy="253.59" r="4.2"/><g id="_5月-2-2" data-name=" 5月"><g id="月-2-5" data-name="月"><g id="_5月-2-3" data-name=" 5月-2" class="cls-3"><text class="cls-13" transform="translate(841.61 38.14)">1<tspan class="cls-16" x="8.08" y="0">2</tspan><tspan class="cls-12" x="15.74" y="0">月</tspan></text></g></g></g><line id="線_23-2" data-name="線 23" class="cls-6" x1="768.33" y1="33.72" x2="836.83" y2="33.72"/><line id="線_24-2" data-name="線 24" class="cls-6" x1="876.75" y1="33.72" x2="920.84" y2="33.72"/><g id="中間発表_Intermediate_announcement-3" data-name="中間発表 Intermediate announcement"><g id="中間発表-3" data-name="中間発表"><g id="中間発表-2-4" data-name="中間発表-2" class="cls-3"><g class="cls-3"><path class="cls-7" d="M1827.76,413.86a3.17,3.17,0,0,0-.07-.71h1a3.84,3.84,0,0,0-.06.71v.19h3.31A8.38,8.38,0,0,0,1833,414v.82a7.15,7.15,0,0,0-1.09-.06h-7.3a7,7,0,0,0-1.08.06V414a8.61,8.61,0,0,0,1.11.06h3.13Zm-3.9,5.31c0-.35,0-.67,0-1a8.42,8.42,0,0,0,1.08.05h6.77a7,7,0,0,0,1-.05,9.59,9.59,0,0,0,0,1V422c0,.41-.07.62-.26.76s-.41.17-1,.17l-1,0a2.12,2.12,0,0,0-.16-.78,9.66,9.66,0,0,0,1.25.1c.32,0,.38,0,.38-.25v-3h-7.18v3a6.32,6.32,0,0,0,.07,1.13h-1a8.56,8.56,0,0,0,.06-1.12Zm1.41-3a6.4,6.4,0,0,0,0-.82,7,7,0,0,0,1,.05h4.14a6.19,6.19,0,0,0,.93-.05c0,.3,0,.46,0,.83v.69a5.92,5.92,0,0,0,0,.84,6.82,6.82,0,0,0-1-.05h-4.12a7.43,7.43,0,0,0-1,.05,6.16,6.16,0,0,0,0-.84Zm5.19,4.85a6.82,6.82,0,0,0,0,.75c-.26,0-.61,0-1,0h-2.72v.58H1826a6.47,6.47,0,0,0,0-.89v-1.14c0-.33,0-.53,0-.76.26,0,.48,0,.87,0h2.7c.41,0,.62,0,.93,0a6.57,6.57,0,0,0,0,.72Zm-4.41-4h4.46V416h-4.46Zm.74,4.09h2.92v-.88h-2.92Z" transform="translate(-1182.11 -247.58)"/><path class="cls-7" d="M1840,416.05a8.3,8.3,0,0,1-1.91,2.65,2.35,2.35,0,0,0-.46-.55,2.68,2.68,0,0,0-.25.47,5.53,5.53,0,0,1-.86-1.52c0,.21,0,.21,0,.86,0,.09,0,.7,0,.83v3a10,10,0,0,0,.06,1.27h-.91a10.2,10.2,0,0,0,.06-1.27V419c0-.42,0-.75.06-1.61a9,9,0,0,1-1.38,3.06,3.19,3.19,0,0,0-.47-.8,9.48,9.48,0,0,0,1.68-3.6h-.56a6.07,6.07,0,0,0-.8,0v-.8a5.56,5.56,0,0,0,.8,0h.67v-1a7.22,7.22,0,0,0,0-1.12h.89a7.56,7.56,0,0,0,0,1.11v1h.5a4,4,0,0,0,.68,0v.79c-.22,0-.43,0-.67,0h-.49a5,5,0,0,0,1.2,1.83,5.77,5.77,0,0,0,1.5-2.17Zm2.38,2.05a12.05,12.05,0,0,1-1.28,2.33,5.78,5.78,0,0,0,1,.88,7.24,7.24,0,0,0,2,.92,2.86,2.86,0,0,0-.47.81,7.7,7.7,0,0,1-2.08-1.15,7.59,7.59,0,0,1-.94-.85,7.43,7.43,0,0,1-2.95,2,2.5,2.5,0,0,0-.5-.72,6.75,6.75,0,0,0,3-1.9,12,12,0,0,1-1.22-2.25l.75-.36a6.76,6.76,0,0,0,1,2,6.41,6.41,0,0,0,1-2.05Zm-2.15-3.93a5.84,5.84,0,0,0-.06-.84h.93a4.71,4.71,0,0,0-.06.83v.55h1.73c.44,0,.83,0,1.14,0v.85c-.33,0-.71-.06-1.14-.06H1839a8.66,8.66,0,0,0-1.14.07v-.87a8.73,8.73,0,0,0,1.13.06h1.18Zm1.7,1.51a7,7,0,0,0,2,2.17,3.77,3.77,0,0,0-.49.72,8.16,8.16,0,0,1-2.14-2.53Z" transform="translate(-1182.11 -247.58)"/><path class="cls-7" d="M1847.12,416.21a10.26,10.26,0,0,1-1.46,2.28,2.42,2.42,0,0,0-.71-.58,8.65,8.65,0,0,0,1.9-3.28,3.43,3.43,0,0,0,.24-1l.93.25a5.54,5.54,0,0,0-.21.59c0,.17-.24.66-.35,1h2.1v-1a7.34,7.34,0,0,0-.08-1.19h1a6.92,6.92,0,0,0-.07,1.19v1H1853a12,12,0,0,0,1.29-.06v.9c-.44,0-.8-.06-1.27-.06h-2.57v2.2h2.11a9.28,9.28,0,0,0,1.2-.06v.89a9.72,9.72,0,0,0-1.2-.06h-2.11v2.65h2.9a8.44,8.44,0,0,0,1.34-.08v.93a10.57,10.57,0,0,0-1.31-.07h-6.84a11.25,11.25,0,0,0-1.35.07v-.93a8.74,8.74,0,0,0,1.32.08h3.08v-2.65h-1.88a9.26,9.26,0,0,0-1.18.06v-.89a8.57,8.57,0,0,0,1.17.06h1.89v-2.2Z" transform="translate(-1182.11 -247.58)"/><path class="cls-7" d="M1855.7,418.68a13.15,13.15,0,0,0,2.22-2.47,4.5,4.5,0,0,1,.57-.65,1.25,1.25,0,0,1,.86-.39,1.31,1.31,0,0,1,1,.47c.11.11.34.35.76.84a28.32,28.32,0,0,0,3.38,3.31,4.23,4.23,0,0,0,1,.67l-.46,1.09-.29-.27c-.68-.56-2-1.78-2.7-2.48s-1-1.05-2-2.17c-.27-.31-.43-.43-.6-.43s-.31.07-.8.72a31,31,0,0,1-2,2.48l-.2.24Z" transform="translate(-1182.11 -247.58)"/><path class="cls-7" d="M1872.48,420.91a3.17,3.17,0,0,0,1.71-2.88,2.79,2.79,0,0,0-1.6-2.62,2.88,2.88,0,0,0-1.21-.29,15.51,15.51,0,0,1-1.08,4.32c-.61,1.41-1.26,2.06-2.07,2.06-1.09,0-1.89-1.16-1.89-2.73a4.45,4.45,0,0,1,1.16-3,4.6,4.6,0,0,1,3.55-1.46c2.45,0,4.08,1.51,4.08,3.79a4,4,0,0,1-2.37,3.73,6.86,6.86,0,0,1-1.8.56,2.07,2.07,0,0,0-.46-.87A6.07,6.07,0,0,0,1872.48,420.91Zm-3.57-5.26a3.69,3.69,0,0,0-1.68,3.13c0,1,.43,1.76,1,1.76s.83-.5,1.27-1.52a14.32,14.32,0,0,0,1-3.88A3.17,3.17,0,0,0,1868.91,415.65Z" transform="translate(-1182.11 -247.58)"/><path class="cls-7" d="M1883.36,414.59a1.81,1.81,0,0,1,0-.25,1.23,1.23,0,1,1,1.22,1.23,1.41,1.41,0,0,1-.35-.05l-.07.23a9.36,9.36,0,0,1-2.69,4.7,10.07,10.07,0,0,1-3.41,2.07,2.69,2.69,0,0,0-.65-.9,8.39,8.39,0,0,0,2.42-1.13,7.88,7.88,0,0,0,3.36-5h-5.33a11.05,11.05,0,0,0-1.31.06v-1a8.15,8.15,0,0,0,1.34.07Zm.45-.25a.76.76,0,0,0,.75.76.77.77,0,0,0,.76-.76.76.76,0,0,0-.76-.75A.76.76,0,0,0,1883.81,414.34Z" transform="translate(-1182.11 -247.58)"/><path class="cls-7" d="M1888,421.4v.75h-1a9.26,9.26,0,0,0,0-1v-5.62a8.22,8.22,0,0,0,0-1,10.59,10.59,0,0,0,1.08,0h5.45a7.29,7.29,0,0,0,1.06-.05,8.31,8.31,0,0,0,0,1v5.61a9.23,9.23,0,0,0,0,1.06h-1v-.75Zm5.61-6H1888v5.16h5.61Z" transform="translate(-1182.11 -247.58)"/><path class="cls-7" d="M1897.11,416.49a16.81,16.81,0,0,1,2.77,1.42l-.48.87a12.15,12.15,0,0,0-2.81-1.51Zm-.35,4.91a9.58,9.58,0,0,0,3-.68,7,7,0,0,0,3.19-2.4,7.57,7.57,0,0,0,1.29-2.41,4.06,4.06,0,0,0,.81.69,8.56,8.56,0,0,1-4.18,4.67,12.82,12.82,0,0,1-2.8,1l-.59.12a1.87,1.87,0,0,0-.43.12Zm1.18-7.5a17,17,0,0,1,2.73,1.37l-.51.85a11.56,11.56,0,0,0-2.72-1.44Zm5.74-.46a8.31,8.31,0,0,1,1.13,1.67l-.63.35a7.74,7.74,0,0,0-1.13-1.7Zm1.23-.59a8.23,8.23,0,0,1,1.13,1.64l-.62.36a8.22,8.22,0,0,0-1.11-1.67Z" transform="translate(-1182.11 -247.58)"/><path class="cls-7" d="M1910.6,421.45h2.23a6.68,6.68,0,0,0,1-.05v.89a7,7,0,0,0-1-.05h-5.22a9.17,9.17,0,0,0-1,0v-.89a5.86,5.86,0,0,0,1,.06h2.12v-3.64h-1.47a9.34,9.34,0,0,0-1,0V417a5.74,5.74,0,0,0,1,.07h3.92a4.78,4.78,0,0,0,1-.08v.9a8.15,8.15,0,0,0-1,0h-1.58Z" transform="translate(-1182.11 -247.58)"/><path class="cls-7" d="M1920,413.64a1.39,1.39,0,0,0-.24.42,8.94,8.94,0,0,1-.48.94l.27,0h.13l2.76,0a1.56,1.56,0,0,0,.62-.09l.53.52a1.51,1.51,0,0,0-.24.56,11.18,11.18,0,0,1-2.17,4.09,10.61,10.61,0,0,1-3.77,2.7,2.21,2.21,0,0,0-.65-.78,9.1,9.1,0,0,0,3.78-2.66,9.56,9.56,0,0,0,1.84-3.51l-3.53.05a10.72,10.72,0,0,1-2.55,2.78,2,2,0,0,0-.74-.65,8.22,8.22,0,0,0,2.73-3,4.49,4.49,0,0,0,.65-1.54Z" transform="translate(-1182.11 -247.58)"/><path class="cls-7" d="M1926.33,422.58a6.8,6.8,0,0,0,.07-1.25v-6.57a5.46,5.46,0,0,0-.07-1.18h1.09a9.2,9.2,0,0,0-.05,1.22v1.92a28.65,28.65,0,0,1,4.82,2.27l-.54.94a22.46,22.46,0,0,0-4-2.11,2.37,2.37,0,0,1-.35-.19,7,7,0,0,1,0,.89v2.81a10.22,10.22,0,0,0,.05,1.25Z" transform="translate(-1182.11 -247.58)"/><path class="cls-7" d="M1934.9,419.31a12,12,0,0,1-.57,3.17l-.75-.3a8,8,0,0,0,.6-3Zm-1.26-1.45a2.24,2.24,0,0,0,.5,0h.38c.31-.39.39-.49.63-.82a13.3,13.3,0,0,0-1.54-1.77l.45-.62.43.46a7.27,7.27,0,0,0,1-2l.79.35a7,7,0,0,0-.5.89,13.41,13.41,0,0,1-.78,1.28c.28.32.43.52.62.76a10.84,10.84,0,0,0,1.09-2l.73.43-.77,1.19c-.28.44-.88,1.28-1.28,1.78.68,0,1-.07,1.58-.14a7.39,7.39,0,0,0-.44-.92l.57-.27a14.68,14.68,0,0,1,.9,2.08l-.61.32c-.09-.28-.12-.38-.19-.57l-.41,0-.54.06V422a7.62,7.62,0,0,0,.07,1.09h-.91a6.76,6.76,0,0,0,.07-1.1v-3.45l-.8.06c-.63.05-.7.06-.89.09Zm3.61,1.25a12.83,12.83,0,0,1,.47,2.6l-.7.18a11.07,11.07,0,0,0-.41-2.61Zm1.56-4.78a6.65,6.65,0,0,0-1.11.07v-.86a7.7,7.7,0,0,0,1.15.07h3.35c.43,0,.78,0,1,0,0,.14,0,.22,0,.69a13.35,13.35,0,0,1-.3,2.72c-.15.58-.42.72-1.42.72-.18,0-.42,0-.8,0a2.12,2.12,0,0,0-.2-.86,5.49,5.49,0,0,0,1.14.15c.33,0,.44-.06.51-.3a9.89,9.89,0,0,0,.26-2.33h-1.88a4.1,4.1,0,0,1-2.26,3.69,2,2,0,0,0-.55-.68,3.34,3.34,0,0,0,1.61-1.4,3.9,3.9,0,0,0,.38-1.61ZM1939,423h-.85c0-.31,0-.67,0-1.08v-2.48a9.62,9.62,0,0,0,0-1,4.94,4.94,0,0,0,.86.05h3.06a4.92,4.92,0,0,0,.88-.05,8.5,8.5,0,0,0,0,1V422a8.27,8.27,0,0,0,.06,1.09h-.86v-.67H1939Zm0-1.36h3.11v-2.42H1939Z" transform="translate(-1182.11 -247.58)"/><path class="cls-7" d="M1949.74,413.35a8.18,8.18,0,0,0,2,2.22,11.29,11.29,0,0,0,2.7,1.66,3.28,3.28,0,0,0-.52.85,14.15,14.15,0,0,1-2.81-1.92,8.6,8.6,0,0,1-1.78-2.07,10.45,10.45,0,0,1-1.65,2,12,12,0,0,1-2.79,2,2.64,2.64,0,0,0-.54-.79,10,10,0,0,0,4.46-3.92Zm-1.69,3.59a6.47,6.47,0,0,0-.06,1,6.32,6.32,0,0,1-.67,3.21,4.88,4.88,0,0,1-2.11,1.93,2.4,2.4,0,0,0-.66-.76,4.23,4.23,0,0,0,1.83-1.32,4.94,4.94,0,0,0,.74-3,5.4,5.4,0,0,0-.08-1Zm3.4,0a7.65,7.65,0,0,0-.07,1.14v3.66a7.46,7.46,0,0,0,.08,1.18h-1a7.71,7.71,0,0,0,.08-1.18v-3.66a6.8,6.8,0,0,0-.08-1.14Z" transform="translate(-1182.11 -247.58)"/></g></g></g></g><g id="グループ_524" data-name="グループ 524"><g id="グループ_523" data-name="グループ 523"><circle id="楕円形_35-2-4" data-name="楕円形 35-2" class="cls-8" cx="626.66" cy="169.7" r="4.2"/></g></g><text class="cls-17" transform="translate(381.23 205.89)">グループに分かれて制作物の考察、制作</text></svg>