<svg xmlns="http://www.w3.org/2000/svg" width="986" height="1075" viewBox="0 0 986 1075">
  <g id="グループ_551" data-name="グループ 551" transform="translate(-14240 29)">
    <g id="グループ_542" data-name="グループ 542" transform="translate(13773 -29)">
      <rect id="長方形_113" data-name="長方形 113" width="986" height="1075" transform="translate(467)" fill="#fcfcfc"/>
      <g id="グループ_24" data-name="グループ 24" transform="translate(-25.074 -25.074)">
        <g id="グループ_8" data-name="グループ 8" transform="translate(680.535 292.731)">
          <g id="グループ_15" data-name="グループ 15" transform="translate(304.411 0) rotate(45)">
            <g id="グループ_14" data-name="グループ 14" transform="translate(0 0)">
              <g id="グループ_13" data-name="グループ 13" transform="translate(0 0)">
                <g id="グループ_9" data-name="グループ 9" transform="translate(0 352.185)">
                  <rect id="長方形_6" data-name="長方形 6" width="26.178" height="84.58" rx="6" transform="translate(0 18.511) rotate(-45)" fill="#fff" stroke="#3b3b3b" stroke-width="2"/>
                </g>
                <g id="グループ_23" data-name="グループ 23" transform="translate(339.145 0)">
                  <g id="グループ_10" data-name="グループ 10" transform="translate(0 0)">
                    <path id="パス_1" data-name="パス 1" d="M47.144,19.484,15.974,50.655a1.655,1.655,0,0,1-2.34,0l-11.7-11.7a6.638,6.638,0,0,1,0-9.361L29.591,1.931a6.639,6.639,0,0,1,9.361,0l8.192,8.192A6.639,6.639,0,0,1,47.144,19.484Z" fill="#fff" stroke="#3b3b3b" stroke-width="2"/>
                  </g>
                  <g id="グループ_12" data-name="グループ 12" transform="translate(40.214 42.279)">
                    <path id="パス_3" data-name="パス 3" d="M49.209,19.484l-27.66,27.66a6.62,6.62,0,0,1-9.362,0l-11.7-11.7a1.655,1.655,0,0,1,0-2.34L31.655,1.931a6.639,6.639,0,0,1,9.361,0l8.192,8.192A6.639,6.639,0,0,1,49.209,19.484Z" transform="translate(0 0)" fill="#fff" stroke="#3b3b3b" stroke-width="2"/>
                  </g>
                  <g id="グループ_16" data-name="グループ 16" transform="translate(19.062 21.127)">
                    <path id="パス_2" data-name="パス 2" d="M49.209,19.484,18.038,50.655a1.655,1.655,0,0,1-2.34,0L.485,35.442a1.655,1.655,0,0,1,0-2.34L31.655,1.931a6.639,6.639,0,0,1,9.362,0l8.192,8.192A6.639,6.639,0,0,1,49.209,19.484Z" transform="translate(0 0)" fill="#fff" stroke="#3b3b3b" stroke-width="2"/>
                  </g>
                </g>
              </g>
            </g>
          </g>
        </g>
        <line id="線_1" data-name="線 1" x1="396.674" transform="translate(776.396 556.632)" fill="none" stroke="#3b3b3b" stroke-width="2"/>
        <path id="パス_31" data-name="パス 31" d="M396.674,0H0" transform="translate(776.396 637.409)" fill="none" stroke="#3b3b3b" stroke-width="2"/>
        <g id="Process" transform="translate(-853.119 -538.075)" style="isolation: isolate">
          <g id="グループ_546" data-name="グループ 546" style="isolation: isolate">
            <path id="パス_54" data-name="パス 54" d="M1764.381,1146.72h-2.546v-27.128h6.193c3.23,0,5.357.532,6.839,1.71a7.868,7.868,0,0,1,2.7,6.344c0,2.964-1.139,5.358-3.229,6.688a11.313,11.313,0,0,1-6.041,1.329h-3.913Zm3.457-13.184c2.7,0,4.1-.343,5.168-1.254a5.927,5.927,0,0,0,1.937-4.674,5.762,5.762,0,0,0-2.318-4.939c-1.025-.684-2.393-.949-4.787-.949h-3.457v11.816Z" fill="#232424"/>
            <path id="パス_55" data-name="パス 55" d="M1785.851,1128.862h2.317l.114,2.888c1.482-2.242,3.154-3.268,5.434-3.268a9.567,9.567,0,0,1,1.216.115l-.381,2.165a4.468,4.468,0,0,0-5.357,2.431,12.727,12.727,0,0,0-.836,5.434v8.093h-2.507Z" fill="#232424"/>
            <path id="パス_56" data-name="パス 56" d="M1818.946,1137.791c0,5.547-3.723,9.309-9.232,9.309-5.661,0-9.309-3.724-9.309-9.423,0-5.433,3.8-9.195,9.271-9.195C1815.223,1128.482,1818.946,1132.206,1818.946,1137.791Zm-15.958-.114c0,4.559,2.622,7.409,6.726,7.409,4.027,0,6.649-2.888,6.649-7.3s-2.622-7.3-6.687-7.3C1805.648,1130.5,1802.988,1133.384,1802.988,1137.677Z" fill="#232424"/>
            <path id="パス_57" data-name="パス 57" d="M1841.52,1145.428a9.587,9.587,0,0,1-5.776,1.672c-5.775,0-9.2-3.419-9.2-9.233,0-5.851,3.344-9.385,8.814-9.385a9.106,9.106,0,0,1,5.586,1.672l-1.025,1.785a6.589,6.589,0,0,0-4.37-1.443c-3.99,0-6.421,2.774-6.421,7.371,0,4.522,2.47,7.219,6.648,7.219a8.015,8.015,0,0,0,4.787-1.443Z" fill="#232424"/>
            <path id="パス_58" data-name="パス 58" d="M1850.033,1138.285c.037,4.255,2.659,6.8,6.99,6.8a11.115,11.115,0,0,0,5.814-1.482l.912,1.786a13.044,13.044,0,0,1-6.726,1.71c-5.926,0-9.46-3.5-9.46-9.309,0-5.737,3.382-9.309,8.739-9.309,5.206,0,8.473,3.382,8.473,8.777,0,.266,0,.494-.039,1.026Zm12.235-1.937c-.229-3.8-2.319-5.852-5.89-5.852-3.686,0-5.965,2.128-6.269,5.852Z" fill="#232424"/>
            <path id="パス_59" data-name="パス 59" d="M1872.529,1143.528a8.052,8.052,0,0,0,5.091,1.558c2.659,0,4.1-1.1,4.1-3.191a2.1,2.1,0,0,0-.874-1.9c-.722-.532-.722-.532-3.8-1.634-3.42-1.177-4.674-2.584-4.674-5.168,0-3,2.014-4.711,5.586-4.711a8.681,8.681,0,0,1,5.471,1.672l-1.1,1.71a6.749,6.749,0,0,0-4.218-1.368c-2.2,0-3.382.912-3.382,2.622a2.521,2.521,0,0,0,1.254,2.241,19.164,19.164,0,0,0,3.039,1.216c3.953,1.406,5.092,2.584,5.092,5.205,0,3.458-2.279,5.32-6.459,5.32a9.822,9.822,0,0,1-6.117-1.71Z" fill="#232424"/>
            <path id="パス_60" data-name="パス 60" d="M1891.908,1143.528a8.053,8.053,0,0,0,5.092,1.558c2.66,0,4.1-1.1,4.1-3.191a2.1,2.1,0,0,0-.875-1.9c-.721-.532-.721-.532-3.8-1.634-3.419-1.177-4.673-2.584-4.673-5.168,0-3,2.014-4.711,5.585-4.711a8.677,8.677,0,0,1,5.471,1.672l-1.1,1.71a6.745,6.745,0,0,0-4.217-1.368c-2.2,0-3.382.912-3.382,2.622a2.521,2.521,0,0,0,1.254,2.241,19.044,19.044,0,0,0,3.04,1.216c3.951,1.406,5.091,2.584,5.091,5.205,0,3.458-2.28,5.32-6.459,5.32a9.82,9.82,0,0,1-6.117-1.71Z" fill="#232424"/>
          </g>
        </g>
      </g>
      <g id="グループ_129" data-name="グループ 129" transform="translate(-17.84 13)">
        <line id="線_10" data-name="線 10" x1="34.918" y2="18.796" transform="translate(977.84 964.704)" fill="none" stroke="#3b3b3b" stroke-linecap="round" stroke-width="2"/>
        <line id="線_11" data-name="線 11" x2="34.918" y2="18.796" transform="translate(942.922 964.704)" fill="none" stroke="#3b3b3b" stroke-linecap="round" stroke-width="2"/>
      </g>
    </g>
  </g>
</svg>
