<svg xmlns="http://www.w3.org/2000/svg" width="70.004" height="2118.994" viewBox="0 0 70.004 2118.994">
  <g id="グループ_688" data-name="グループ 688" transform="translate(583 -1828.006)">
    <g id="Interaction_Elements_header" data-name="Interaction Elements header" transform="translate(-2017.605 2235.539)" style="isolation: isolate">
      <g id="グループ_687" data-name="グループ 687" style="isolation: isolate">
        <path id="パス_831" data-name="パス 831" d="M1504.609-407.533v10h-70v-10Z" fill="#2c2d2d"/>
        <path id="パス_832" data-name="パス 832" d="M1474.607-322.532a4.951,4.951,0,0,0-5-5h-35v-10h35a14.98,14.98,0,0,1,15,15v30a14.98,14.98,0,0,1-15,15h-35v-10h35a4.951,4.951,0,0,0,5-5Z" fill="#2c2d2d"/>
        <path id="パス_833" data-name="パス 833" d="M1474.607-211.533v-10l10,3v7h20v10h-20v25l-10-3v-22h-25a4.952,4.952,0,0,0-5,5v20l-10-3v-17a14.981,14.981,0,0,1,15-15Z" fill="#2c2d2d"/>
        <path id="パス_834" data-name="パス 834" d="M1484.608-75.531a14.98,14.98,0,0,1-15,15h-15v-50h-5a4.952,4.952,0,0,0-5,5v43l-10-3v-40a14.982,14.982,0,0,1,15-15h20a14.981,14.981,0,0,1,15,15Zm-10-30a4.951,4.951,0,0,0-5-5h-5v40h5a4.951,4.951,0,0,0,5-5Z" fill="#2c2d2d"/>
        <path id="パス_835" data-name="パス 835" d="M1484.608,47.468l-10,3v-32c0-5-5-10-10-10h-30v-10h50v10h-9.2a10.03,10.03,0,0,1,9.2,10Z" fill="#2c2d2d"/>
        <path id="パス_836" data-name="パス 836" d="M1474.607,107.465l10,3v40a14.981,14.981,0,0,1-15,15h-35v-45a15,15,0,0,1,30,0v35h5a4.951,4.951,0,0,0,5-5Zm-30,48h10v-35a5,5,0,1,0-10,0Z" fill="#2c2d2d"/>
        <path id="パス_837" data-name="パス 837" d="M1469.607,224.464a14.981,14.981,0,0,1,15,15v40l-10,3v-43a4.951,4.951,0,0,0-5-5h-20a4.952,4.952,0,0,0-5,5v43l-10-2v-41a14.982,14.982,0,0,1,15-15Z" fill="#2c2d2d"/>
        <path id="パス_838" data-name="パス 838" d="M1474.607,345.464v-10l10,3v7h20v10h-20v25l-10-3v-22h-25a4.952,4.952,0,0,0-5,5v20l-10-3v-17a14.982,14.982,0,0,1,15-15Z" fill="#2c2d2d"/>
        <path id="パス_839" data-name="パス 839" d="M1484.608,437.464v10h-50v-10Zm20,0v10h-10v-10Z" fill="#2c2d2d"/>
        <path id="パス_840" data-name="パス 840" d="M1434.6,521.464a14.982,14.982,0,0,1,15-15h20a14.981,14.981,0,0,1,15,15v30a14.98,14.98,0,0,1-15,15h-20a14.981,14.981,0,0,1-15-15Zm10,30a4.952,4.952,0,0,0,5,5h20a4.951,4.951,0,0,0,5-5v-30a4.951,4.951,0,0,0-5-5h-20a4.952,4.952,0,0,0-5,5Z" fill="#2c2d2d"/>
        <path id="パス_841" data-name="パス 841" d="M1474.607,640.464a4.951,4.951,0,0,0-5-5h-35v-10h35a14.981,14.981,0,0,1,15,15v30a14.98,14.98,0,0,1-15,15h-35v-10h35a4.951,4.951,0,0,0,5-5Z" fill="#2c2d2d"/>
        <path id="パス_842" data-name="パス 842" d="M1474.607,835.462v48l-10-3v-45h-20v48h-10v-58h70v58h-10v-48Z" fill="#2c2d2d"/>
        <path id="パス_843" data-name="パス 843" d="M1504.609,941.46v10h-55a4.952,4.952,0,0,0-5,5v16l-10-3v-13a14.982,14.982,0,0,1,15-15Z" fill="#2c2d2d"/>
        <path id="パス_844" data-name="パス 844" d="M1484.608,1072.462a14.98,14.98,0,0,1-15,15h-15v-50h-5a4.952,4.952,0,0,0-5,5v43l-10-3v-40a14.981,14.981,0,0,1,15-15h20a14.98,14.98,0,0,1,15,15Zm-10-30a4.951,4.951,0,0,0-5-5h-5v40h5a4.951,4.951,0,0,0,5-5Z" fill="#2c2d2d"/>
        <path id="パス_845" data-name="パス 845" d="M1474.607,1211.463a4.951,4.951,0,0,0-5-5h-35v-10h35a5.079,5.079,0,0,0,5-5v-30a4.951,4.951,0,0,0-5-5h-35v-10h35a14.981,14.981,0,0,1,15,15v30a15.492,15.492,0,0,1-3.8,10,15.088,15.088,0,0,1,3.8,10v30a14.98,14.98,0,0,1-15,15h-35v-10h35a4.951,4.951,0,0,0,5-5Z" fill="#2c2d2d"/>
        <path id="パス_846" data-name="パス 846" d="M1484.608,1360.461a14.98,14.98,0,0,1-15,15h-15v-50h-5a4.952,4.952,0,0,0-5,5v43l-10-3v-40a14.981,14.981,0,0,1,15-15h20a14.98,14.98,0,0,1,15,15Zm-10-30a4.951,4.951,0,0,0-5-5h-5v40h5a4.951,4.951,0,0,0,5-5Z" fill="#2c2d2d"/>
        <path id="パス_847" data-name="パス 847" d="M1474.607,1449.458a4.951,4.951,0,0,0-5-5h-35v-10h35a14.981,14.981,0,0,1,15,15v30a14.98,14.98,0,0,1-15,15h-35v-10h35a4.951,4.951,0,0,0,5-5Z" fill="#2c2d2d"/>
        <path id="パス_848" data-name="パス 848" d="M1474.607,1560.458v-10l10,3v7h20v10h-20v25l-10-3v-22h-25a4.952,4.952,0,0,0-5,5v20l-10-3v-17a14.981,14.981,0,0,1,15-15Z" fill="#2c2d2d"/>
        <path id="パス_849" data-name="パス 849" d="M1454.606,1665.458a15,15,0,0,1,30,0v42l-10,3v-45a4.951,4.951,0,0,0-5-5c-2.8,0-5,2-5,6v30a15,15,0,1,1-30,0v-43l10-3v46a4.952,4.952,0,0,0,5,5c2.8,0,5-2,5-6Z" fill="#2c2d2d"/>
      </g>
    </g>
  </g>
</svg>
