<svg xmlns="http://www.w3.org/2000/svg" width="63" height="63" viewBox="0 0 63 63">
  <g id="top_button" data-name="top button" transform="translate(-1522.834 -639.016)">
    <rect id="長方形_295" data-name="長方形 295" width="63" height="63" transform="translate(1522.834 639.016)" fill="#fdfdfd"/>
    <g id="Top_button-2" data-name="Top button-2">
      <g id="グループ_453" data-name="グループ 453">
        <rect id="長方形_445" data-name="長方形 445" width="2" height="41.687" transform="translate(1551.663 652.216)" fill="#2c2d2d"/>
        <rect id="長方形_446" data-name="長方形 446" width="27.08" height="1.999" transform="matrix(0.592, -0.806, 0.806, 0.592, 1535.826, 673.66)" fill="#2c2d2d"/>
        <rect id="長方形_447" data-name="長方形 447" width="2" height="0.878" transform="translate(1551.663 651.516)" fill="#2c2d2d"/>
      </g>
      <g id="TOP" style="isolation: isolate">
        <g id="グループ_686" data-name="グループ 686" style="isolation: isolate">
          <path id="パス_828" data-name="パス 828" d="M1569.088,654.655v-3.206h1.485v8.269h-1.485v-3.19h-10.565v-1.873Z" fill="#2c2d2d"/>
          <path id="パス_829" data-name="パス 829" d="M1564.548,672.389a6.185,6.185,0,1,1,6.211-6.177A5.877,5.877,0,0,1,1564.548,672.389Zm.068-10.446c-2.936,0-4.793,1.654-4.793,4.269,0,2.582,1.873,4.253,4.725,4.253s4.725-1.687,4.725-4.253S1567.417,661.943,1564.616,661.943Z" fill="#2c2d2d"/>
          <path id="パス_830" data-name="パス 830" d="M1558.523,676.467v-1.788h12.05v3.173a5.125,5.125,0,0,1-.81,3.273,3.588,3.588,0,0,1-2.919,1.249,3.467,3.467,0,0,1-3.073-1.468,5.058,5.058,0,0,1-.64-2.819v-1.62Zm6.042,1.35a2.8,2.8,0,0,0,.506,2.026,2.418,2.418,0,0,0,1.773.692,2.347,2.347,0,0,0,1.906-.844,3.145,3.145,0,0,0,.389-1.874v-1.35h-4.574Z" fill="#2c2d2d"/>
        </g>
      </g>
    </g>
  </g>
</svg>
